<?xml version="1.0" encoding="UTF-8"?>
<svg width="26px" height="26px" viewBox="0 0 26 26" version="1.1" xmlns="http://www.w3.org/2000/svg" xmlns:xlink="http://www.w3.org/1999/xlink">
    <!-- Generator: Sketch 63.1 (92452) - https://sketch.com -->
    <title>Applications and Programming_app_apps_applications_tile_add</title>
    <desc>Created with Sketch.</desc>
    <g id="Components" stroke="none" stroke-width="1" fill="none" fill-rule="evenodd">
        <g id="Applications-and-Programming_app_apps_applications_tile_add" fill="#15113B" fill-rule="nonzero">
            <path d="M11,0 L1,0 C0.4,0 0,0.4 0,1 L0,11 C0,11.6 0.4,12 1,12 L11,12 C11.6,12 12,11.6 12,11 L12,1 C12,0.4 11.6,0 11,0 Z" id="Path"></path>
            <path d="M11,14 L1,14 C0.4,14 0,14.4 0,15 L0,25 C0,25.6 0.4,26 1,26 L11,26 C11.6,26 12,25.6 12,25 L12,15 C12,14.4 11.6,14 11,14 Z" id="Path"></path>
            <path d="M25,0 L15,0 C14.4,0 14,0.4 14,1 L14,11 C14,11.6 14.4,12 15,12 L25,12 C25.6,12 26,11.6 26,11 L26,1 C26,0.4 25.6,0 25,0 Z" id="Path"></path>
            <path d="M24,19 L21,19 L21,16 C21,15.4 20.6,15 20,15 C19.4,15 19,15.4 19,16 L19,19 L16,19 C15.4,19 15,19.4 15,20 C15,20.6 15.4,21 16,21 L19,21 L19,24 C19,24.6 19.4,25 20,25 C20.6,25 21,24.6 21,24 L21,21 L24,21 C24.6,21 25,20.6 25,20 C25,19.4 24.6,19 24,19 Z" id="Path"></path>
        </g>
    </g>
</svg>