<?xml version="1.0" encoding="UTF-8"?>
<svg width="30px" height="28px" viewBox="0 0 30 28" version="1.1" xmlns="http://www.w3.org/2000/svg" xmlns:xlink="http://www.w3.org/1999/xlink">
    <!-- Generator: Sketch 63.1 (92452) - https://sketch.com -->
    <title>Business and Finance_business_idea_startup_bulb_light</title>
    <desc>Created with Sketch.</desc>
    <g id="Page-1" stroke="none" stroke-width="1" fill="none" fill-rule="evenodd">
        <g id="Business-and-Finance_business_idea_startup_bulb_light" fill="#09D5B0" fill-rule="nonzero">
            <g id="Group">
                <path d="M19,22 L11,22 C10.4,22 10,22.4 10,23 C10,23.6 10.4,24 11,24 C11,26.2 12.8,28 15,28 C17.2,28 19,26.2 19,24 C19.6,24 20,23.6 20,23 C20,22.4 19.6,22 19,22 Z" id="Path"></path>
                <path d="M3,10 L1,10 C0.4,10 0,10.4 0,11 C0,11.6 0.4,12 1,12 L3,12 C3.6,12 4,11.6 4,11 C4,10.4 3.6,10 3,10 Z" id="Path"></path>
                <path d="M5.8,18.8 L4.4,20.2 C4,20.6 4,21.2 4.4,21.6 C4.6,21.8 4.9,21.9 5.1,21.9 C5.3,21.9 5.6,21.8 5.8,21.6 L7.2,20.2 C7.6,19.8 7.6,19.2 7.2,18.8 C6.8,18.4 6.2,18.4 5.8,18.8 Z" id="Path"></path>
                <path d="M24.2,18.8 C23.8,18.4 23.2,18.4 22.8,18.8 C22.4,19.2 22.4,19.8 22.8,20.2 L24.2,21.6 C24.4,21.8 24.7,21.9 24.9,21.9 C25.1,21.9 25.4,21.8 25.6,21.6 C26,21.2 26,20.6 25.6,20.2 L24.2,18.8 Z" id="Path"></path>
                <path d="M29,10 L27,10 C26.4,10 26,10.4 26,11 C26,11.6 26.4,12 27,12 L29,12 C29.6,12 30,11.6 30,11 C30,10.4 29.6,10 29,10 Z" id="Path"></path>
                <path d="M24.2,0.4 L22.8,1.8 C22.4,2.2 22.4,2.8 22.8,3.2 C23,3.4 23.3,3.5 23.5,3.5 C23.7,3.5 24,3.4 24.2,3.2 L25.6,1.8 C26,1.4 26,0.8 25.6,0.4 C25.2,-4.4408921e-16 24.6,0 24.2,0.4 Z" id="Path"></path>
                <path d="M5.8,3.2 C6,3.4 6.3,3.5 6.5,3.5 C6.7,3.5 7,3.4 7.2,3.2 C7.6,2.8 7.6,2.2 7.2,1.8 L5.8,0.4 C5.4,0 4.8,0 4.4,0.4 C4,0.8 4,1.4 4.4,1.8 L5.8,3.2 Z" id="Path"></path>
            </g>
            <path d="M21,3.3 C19.1,1.6 16.5,0.8 14,1.1 C10,1.5 6.7,4.7 6.1,8.6 C5.7,11.4 6.5,14.2 8.5,16.3 C9.5,17.3 10,18.7 10,20.1 C10,20.7 10.4,21.1 11,21.1 L19,21.1 C19.6,21.1 20,20.7 20,20.1 C20,18.7 20.5,17.3 21.5,16.4 C23.1,14.7 24,12.5 24,10.1 C24,7.4 22.9,5 21,3.3 Z M16,14.9 L16,14.9 C16,15.5 15.6,16 15,16 C14.4,16 14,15.6 14,15 C13.4,15 13,14.6 13,14 C13,13.4 13.4,13 14,13 L15.5,13 C15.8,13 16,12.8 16,12.5 C16,12.2 15.8,12 15.5,12 L14.5,12 C13.1,12 12,10.9 12,9.5 C12,8.3 12.9,7.3 14,7.1 L14,7 C14,6.4 14.4,6 15,6 C15.6,6 16,6.4 16,7 C16.6,7 17,7.4 17,8 C17,8.6 16.6,9 16,9 L14.5,9 C14.2,9 14,9.2 14,9.5 C14,9.8 14.2,10 14.5,10 L15.5,10 C16.9,10 18,11.1 18,12.5 C18,13.7 17.1,14.7 16,14.9 Z" id="Shape"></path>
        </g>
    </g>
</svg>