<?xml version="1.0" encoding="UTF-8"?>
<svg width="20px" height="28px" viewBox="0 0 20 28" version="1.1" xmlns="http://www.w3.org/2000/svg" xmlns:xlink="http://www.w3.org/1999/xlink">
    <!-- Generator: Sketch 63.1 (92452) - https://sketch.com -->
    <title>Business and Finance_business_finance_invoice</title>
    <desc>Created with Sketch.</desc>
    <g id="Page-1" stroke="none" stroke-width="1" fill="none" fill-rule="evenodd">
        <g id="Business-and-Finance_business_finance_invoice" fill="#09D5B0" fill-rule="nonzero">
            <polygon id="Path" points="14 0.6 14 6 19.4 6"></polygon>
            <path d="M17.5,8 L13,8 C12.4,8 12,7.6 12,7 L12,0 L1,0 C0.4,0 0,0.4 0,1 L0,27 C0,27.6 0.4,28 1,28 L19,28 C19.6,28 20,27.6 20,27 L20,10.5 C20,9.1 18.9,8 17.5,8 Z M8,18 C8,18.6 7.6,19 7,19 C6.4,19 6,18.6 6,18 C5.4,18 5,17.6 5,17 C5,16.4 5.4,16 6,16 L7.5,16 C7.8,16 8,15.8 8,15.5 C8,15.2 7.8,15 7.5,15 L6.5,15 C5.1,15 4,13.9 4,12.5 C4,11.3 4.9,10.3 6,10.1 L6,10 C6,9.4 6.4,9 7,9 C7.6,9 8,9.4 8,10 C8.6,10 9,10.4 9,11 C9,11.6 8.6,12 8,12 L6.5,12 C6.2,12 6,12.2 6,12.5 C6,12.8 6.2,13 6.5,13 L7.5,13 C8.9,13 10,14.1 10,15.5 C10,16.7 9.1,17.7 8,18 L8,18 Z M15,21 L10,21 C9.4,21 9,20.6 9,20 C9,19.4 9.4,19 10,19 L15,19 C15.6,19 16,19.4 16,20 C16,20.6 15.6,21 15,21 Z M15,17 L12,17 C11.4,17 11,16.6 11,16 C11,15.4 11.4,15 12,15 L15,15 C15.6,15 16,15.4 16,16 C16,16.6 15.6,17 15,17 Z M15,13 L12,13 C11.4,13 11,12.6 11,12 C11,11.4 11.4,11 12,11 L15,11 C15.6,11 16,11.4 16,12 C16,12.6 15.6,13 15,13 Z" id="Shape"></path>
        </g>
    </g>
</svg>