<?xml version="1.0" encoding="UTF-8"?>
<svg width="28px" height="25px" viewBox="0 0 28 25" version="1.1" xmlns="http://www.w3.org/2000/svg" xmlns:xlink="http://www.w3.org/1999/xlink">
    <!-- Generator: Sketch 63.1 (92452) - https://sketch.com -->
    <title>Communication_chat_message_sms_love_heart_favourite</title>
    <desc>Created with Sketch.</desc>
    <g id="Components" stroke="none" stroke-width="1" fill="none" fill-rule="evenodd">
        <g id="Communication_chat_message_sms_love_heart_favourite" fill="#15113B" fill-rule="nonzero">
            <path d="M26.9,14.1 C25.5,12.7 23.1,12.7 21.8,14.1 L21,14.9 L20.2,14.1 C18.8,12.7 16.4,12.7 15.1,14.1 C13.7,15.5 13.7,17.9 15.1,19.3 L20.3,24.7 C20.5,24.9 20.7,25 21,25 C21.3,25 21.5,24.9 21.7,24.7 L26.9,19.3 C28.3,17.9 28.3,15.5 26.9,14.1 Z" id="Path"></path>
            <path d="M13.6,12.7 C14.6,11.6 16.1,11 17.6,11 C18.8,11 20,11.4 21,12.1 C22,11.4 23.1,11 24.4,11 C25,11 25.5,11.1 26,11.2 L26,5 C26,2.2 23.8,0 21,0 L5,0 C2.2,0 0,2.2 0,5 L0,24 C0,24.4 0.2,24.7 0.6,24.9 C0.7,25 0.9,25 1,25 C1.2,25 1.5,24.9 1.7,24.8 C4.9,22.1 8.7,20.3 12.8,19.5 C11.6,17.3 11.8,14.5 13.6,12.7 Z M8,7 L14,7 C14.6,7 15,7.4 15,8 C15,8.6 14.6,9 14,9 L8,9 C7.4,9 7,8.6 7,8 C7,7.4 7.4,7 8,7 Z M11,13 L8,13 C7.4,13 7,12.6 7,12 C7,11.4 7.4,11 8,11 L11,11 C11.6,11 12,11.4 12,12 C12,12.6 11.6,13 11,13 Z" id="Shape"></path>
        </g>
    </g>
</svg>