<?xml version="1.0" encoding="UTF-8"?>
<svg width="28px" height="27px" viewBox="0 0 28 27" version="1.1" xmlns="http://www.w3.org/2000/svg" xmlns:xlink="http://www.w3.org/1999/xlink">
    <!-- Generator: Sketch 63.1 (92452) - https://sketch.com -->
    <title>Communication_chat</title>
    <desc>Created with Sketch.</desc>
    <g id="Components" stroke="none" stroke-width="1" fill="none" fill-rule="evenodd">
        <g id="Communication_chat" fill="#15113B" fill-rule="nonzero">
            <path d="M20,11 C15.6,11 12,14.6 12,19 C12,23.4 15.6,27 20,27 C24.4,27 28,23.4 28,19 C28,14.6 24.4,11 20,11 Z M23.7,19.7 C23.7,19.7 23.7,19.7 23.7,19.7 L20.6,22.7 C20.4,22.9 20.2,23 19.9,23 C19.6,23 19.4,22.9 19.2,22.7 C18.8,22.3 18.8,21.7 19.2,21.3 L20.5,20 L16,20 C15.4,20 15,19.6 15,19 C15,18.4 15.4,18 16,18 L20.5,18 L19.2,16.7 C18.8,16.3 18.8,15.7 19.2,15.3 C19.6,14.9 20.2,14.9 20.6,15.3 L23.7,18.3 C23.7,18.3 23.7,18.3 23.7,18.3 C23.9,18.5 24,18.7 24,19 C24,19.3 23.9,19.5 23.7,19.7 Z" id="Shape"></path>
            <path d="M10.1,20.1 C10,19.4 10,18.6 10.1,17.9 C10.1,17.9 10.1,17.9 10.1,17.9 C10.1,17.6 10.2,17.2 10.3,16.9 C10.3,16.8 10.3,16.8 10.4,16.7 C10.5,16.4 10.5,16.2 10.6,15.9 C10.6,15.8 10.7,15.7 10.7,15.6 C10.8,15.4 10.9,15.1 11,14.9 C11,14.8 11.1,14.7 11.2,14.6 C11.3,14.4 11.4,14.2 11.5,14 C11.6,13.9 11.6,13.8 11.7,13.7 C11.8,13.5 12,13.3 12.1,13.1 C12.2,13 12.2,12.9 12.3,12.8 C12.5,12.5 12.8,12.2 13,12 C13.2,11.8 13.5,11.5 13.7,11.3 C13.8,11.2 13.9,11.2 14,11.1 C14.2,11 14.3,10.8 14.5,10.7 C14.6,10.6 14.7,10.6 14.8,10.5 C15,10.4 15.1,10.3 15.3,10.2 C15.4,10.1 15.6,10.1 15.7,10 C15.8,9.9 16,9.9 16.1,9.8 C16.2,9.7 16.4,9.7 16.5,9.6 C16.6,9.5 16.8,9.5 16.9,9.5 C17.1,9.4 17.2,9.4 17.4,9.4 C17.5,9.4 17.7,9.3 17.8,9.3 C18,9.3 18.2,9.2 18.3,9.2 C18.4,9.2 18.5,9.2 18.6,9.2 C18.8,9.2 19,9.1 19.2,9.1 C19.3,9.1 19.4,9.1 19.4,9.1 C19.6,9.1 19.9,9.1 20.1,9.1 C20.1,9.1 20.2,9.1 20.2,9.1 C22.2,9.2 24.2,9.8 25.9,11.1 C25.9,11.1 25.9,11.1 25.9,11.1 L25.9,5 C25.9,2.2 23.7,0 20.9,0 L5,0 C2.2,0 0,2.2 0,5 L0,24 C0,24.4 0.2,24.7 0.6,24.9 C0.7,25 0.9,25 1,25 C1.2,25 1.5,24.9 1.7,24.8 C4.1,22.6 7,21.1 10.1,20.1 L10.1,20.1 Z M8,7 L14,7 C14.6,7 15,7.4 15,8 C15,8.6 14.6,9 14,9 L8,9 C7.4,9 7,8.6 7,8 C7,7.4 7.4,7 8,7 Z M7,12 C7,11.4 7.4,11 8,11 L11,11 C11.6,11 12,11.4 12,12 C12,12.6 11.6,13 11,13 L8,13 C7.4,13 7,12.6 7,12 Z" id="Shape"></path>
        </g>
    </g>
</svg>