<?xml version="1.0" encoding="UTF-8"?>
<svg width="28px" height="22px" viewBox="0 0 28 22" version="1.1" xmlns="http://www.w3.org/2000/svg" xmlns:xlink="http://www.w3.org/1999/xlink">
    <!-- Generator: Sketch 63.1 (92452) - https://sketch.com -->
    <title>Computers and Hardware_desktop_computer</title>
    <desc>Created with Sketch.</desc>
    <g id="Page-1" stroke="none" stroke-width="1" fill="none" fill-rule="evenodd">
        <g id="Computers-and-Hardware_desktop_computer" fill="#09D5B0" fill-rule="nonzero">
            <path d="M14,7 L1,7 C0.4,7 0,7.4 0,8 L0,17 C0,17.6 0.4,18 1,18 L14,18 C14.6,18 15,17.6 15,17 L15,8 C15,7.4 14.6,7 14,7 Z" id="Path"></path>
            <path d="M11,20 L4,20 C3.4,20 3,20.4 3,21 C3,21.6 3.4,22 4,22 L11,22 C11.6,22 12,21.6 12,21 C12,20.4 11.6,20 11,20 Z" id="Path"></path>
            <path d="M27,0 L17,0 C16.4,0 16,0.4 16,1 L16,21 C16,21.6 16.4,22 17,22 L27,22 C27.6,22 28,21.6 28,21 L28,1 C28,0.4 27.6,0 27,0 Z M26,2 L26,11 L18,11 L18,2 L26,2 Z" id="Shape"></path>
            <path d="M20,6 L24,6 C24.6,6 25,5.6 25,5 C25,4.4 24.6,4 24,4 L20,4 C19.4,4 19,4.4 19,5 C19,5.6 19.4,6 20,6 Z" id="Path"></path>
            <path d="M24,7 L23,7 C22.4,7 22,7.4 22,8 C22,8.6 22.4,9 23,9 L24,9 C24.6,9 25,8.6 25,8 C25,7.4 24.6,7 24,7 Z" id="Path"></path>
        </g>
    </g>
</svg>