<?xml version="1.0" encoding="UTF-8"?>
<svg width="28px" height="28px" viewBox="0 0 28 28" version="1.1" xmlns="http://www.w3.org/2000/svg" xmlns:xlink="http://www.w3.org/1999/xlink">
    <!-- Generator: Sketch 63.1 (92452) - https://sketch.com -->
    <title>Computers and Hardware_chip_component</title>
    <desc>Created with Sketch.</desc>
    <g id="Page-1" stroke="none" stroke-width="1" fill="none" fill-rule="evenodd">
        <g id="Computers-and-Hardware_chip_component" fill="#09D5B0" fill-rule="nonzero">
            <path d="M27,13 C27.6,13 28,12.6 28,12 C28,11.4 27.6,11 27,11 L24,11 L24,9 L27,9 C27.6,9 28,8.6 28,8 C28,7.4 27.6,7 27,7 L24,7 C24,5.3 22.7,4 21,4 L21,1 C21,0.4 20.6,0 20,0 C19.4,0 19,0.4 19,1 L19,4 L17,4 L17,1 C17,0.4 16.6,0 16,0 C15.4,0 15,0.4 15,1 L15,4 L13,4 L13,1 C13,0.4 12.6,0 12,0 C11.4,0 11,0.4 11,1 L11,4 L9,4 L9,1 C9,0.4 8.6,0 8,0 C7.4,0 7,0.4 7,1 L7,4 C5.3,4 4,5.3 4,7 L1,7 C0.4,7 0,7.4 0,8 C0,8.6 0.4,9 1,9 L4,9 L4,11 L1,11 C0.4,11 0,11.4 0,12 C0,12.6 0.4,13 1,13 L4,13 L4,15 L1,15 C0.4,15 0,15.4 0,16 C0,16.6 0.4,17 1,17 L4,17 L4,19 L1,19 C0.4,19 0,19.4 0,20 C0,20.6 0.4,21 1,21 L4,21 C4,22.7 5.3,24 7,24 L7,27 C7,27.6 7.4,28 8,28 C8.6,28 9,27.6 9,27 L9,24 L11,24 L11,27 C11,27.6 11.4,28 12,28 C12.6,28 13,27.6 13,27 L13,24 L15,24 L15,27 C15,27.6 15.4,28 16,28 C16.6,28 17,27.6 17,27 L17,24 L19,24 L19,27 C19,27.6 19.4,28 20,28 C20.6,28 21,27.6 21,27 L21,24 C22.7,24 24,22.7 24,21 L27,21 C27.6,21 28,20.6 28,20 C28,19.4 27.6,19 27,19 L24,19 L24,17 L27,17 C27.6,17 28,16.6 28,16 C28,15.4 27.6,15 27,15 L24,15 L24,13 L27,13 Z M20,17 C20,18.7 18.7,20 17,20 L11,20 C9.3,20 8,18.7 8,17 L8,11 C8,9.3 9.3,8 11,8 L17,8 C18.7,8 20,9.3 20,11 L20,17 Z" id="Shape"></path>
        </g>
    </g>
</svg>