<?xml version="1.0" encoding="UTF-8"?>
<svg width="28px" height="27px" viewBox="0 0 28 27" version="1.1" xmlns="http://www.w3.org/2000/svg" xmlns:xlink="http://www.w3.org/1999/xlink">
    <!-- Generator: Sketch 63.1 (92452) - https://sketch.com -->
    <title>Computers and Hardware_screen_stats_analytics</title>
    <desc>Created with Sketch.</desc>
    <g id="Page-1" stroke="none" stroke-width="1" fill="none" fill-rule="evenodd">
        <g id="Computers-and-Hardware_screen_stats_analytics" fill="#09D5B0" fill-rule="nonzero">
            <path d="M21,25 C19.9,25 18.9,24.3 18.5,23.2 C18.5,23.1 18.5,23 18.4,23 L9.5,23 C9.5,23.1 9.5,23.2 9.4,23.2 C9.1,24.3 8.1,25 7,25 C6.4,25 6,25.4 6,26 C6,26.6 6.4,27 7,27 L21,27 C21.6,27 22,26.6 22,26 C22,25.4 21.6,25 21,25 Z" id="Path"></path>
            <path d="M25,0 L3,0 C1.3,0 0,1.3 0,3 L0,18 C0,19.7 1.3,21 3,21 L9.9,21 L18,21 L25,21 C26.7,21 28,19.7 28,18 L28,3 C28,1.3 26.7,0 25,0 Z M10,16 C6.7,16 4,13.3 4,10 C4,7 6.2,4.6 9,4.1 L9,10 C9,10.6 9.4,11 10,11 L15.9,11 C15.4,13.8 13,16 10,16 Z M11,9 L11,4.1 C13.5,4.5 15.5,6.5 15.9,9 L11,9 Z M23,15 L19,15 C18.4,15 18,14.6 18,14 C18,13.4 18.4,13 19,13 L23,13 C23.6,13 24,13.4 24,14 C24,14.6 23.6,15 23,15 Z M23,11 L19,11 C18.4,11 18,10.6 18,10 C18,9.4 18.4,9 19,9 L23,9 C23.6,9 24,9.4 24,10 C24,10.6 23.6,11 23,11 Z M23,7 L19,7 C18.4,7 18,6.6 18,6 C18,5.4 18.4,5 19,5 L23,5 C23.6,5 24,5.4 24,6 C24,6.6 23.6,7 23,7 Z" id="Shape"></path>
        </g>
    </g>
</svg>