<?xml version="1.0" encoding="UTF-8"?>
<svg width="28px" height="28px" viewBox="0 0 28 28" version="1.1" xmlns="http://www.w3.org/2000/svg" xmlns:xlink="http://www.w3.org/1999/xlink">
    <!-- Generator: Sketch 63.1 (92452) - https://sketch.com -->
    <title>Computers and Hardware_phone_rotate_rotation_arrow</title>
    <desc>Created with Sketch.</desc>
    <g id="Page-1" stroke="none" stroke-width="1" fill="none" fill-rule="evenodd">
        <g id="Computers-and-Hardware_phone_rotate_rotation_arrow" fill="#09D5B0" fill-rule="nonzero">
            <path d="M25,12 L3,12 C2.6,12 2.3,12.1 2,12.2 L2,6 L14,6 L14,10 C14,10.6 14.4,11 15,11 C15.6,11 16,10.6 16,10 L16,3 C16,1.3 14.7,0 13,0 L3,0 C1.3,0 0,1.3 0,3 L0,15 L0,25 C0,26.7 1.3,28 3,28 L25,28 C26.7,28 28,26.7 28,25 L28,15 C28,13.3 26.7,12 25,12 Z M5,21 C5,21.6 4.6,22 4,22 C3.4,22 3,21.6 3,21 L3,19 C3,18.4 3.4,18 4,18 C4.6,18 5,18.4 5,19 L5,21 Z M22,26 L8,26 L8,14 L22,14 L22,26 Z" id="Shape"></path>
            <path d="M17.9,3.1 C20.8,3.5 23,6 23,9 C23,9.4 23.3,9.8 23.7,9.9 C23.8,9.9 23.9,10 24,10 C24.3,10 24.6,9.9 24.8,9.6 L27.8,5.6 C28.1,5.2 28,4.5 27.6,4.2 C27.2,3.9 26.5,4 26.2,4.4 L24.6,6.5 C23.7,3.7 21.2,1.5 18.2,1.1 C17.6,1 17.1,1.4 17,1.9 C17,2.5 17.3,3 17.9,3.1 Z" id="Path"></path>
        </g>
    </g>
</svg>