<?xml version="1.0" encoding="UTF-8"?>
<svg width="28px" height="28px" viewBox="0 0 28 28" version="1.1" xmlns="http://www.w3.org/2000/svg" xmlns:xlink="http://www.w3.org/1999/xlink">
    <!-- Generator: Sketch 63.1 (92452) - https://sketch.com -->
    <title>Computers and Hardware_fan_component</title>
    <desc>Created with Sketch.</desc>
    <g id="Page-1" stroke="none" stroke-width="1" fill="none" fill-rule="evenodd">
        <g id="Computers-and-Hardware_fan_component" fill="#09D5B0" fill-rule="nonzero">
            <g id="Group" transform="translate(5.000000, 5.000000)">
                <path d="M5.4,7.3 C5.7,6.7 6.1,6.2 6.6,5.8 C6.9,4 6,2.2 4.3,1.5 L4.1,1.4 C2.2,2.7 0.7,4.7 0.2,7 C1.9,6.4 3.8,6.5 5.4,7.3 Z" id="Path"></path>
                <path d="M5.1,9.5 C3.7,8.3 1.7,8.2 0.3,9.3 L0,9.5 C0.1,11.9 1.2,14.1 2.9,15.7 C3.1,13.9 4.2,12.3 5.7,11.4 C5.4,10.8 5.1,10.2 5.1,9.5 Z" id="Path"></path>
                <circle id="Oval" cx="9" cy="9" r="2"></circle>
                <path d="M8.6,5 C8.7,5 8.8,5 9,5 C9.6,5 10.1,5.1 10.6,5.3 C12.3,4.7 13.4,3 13.1,1.2 L13.1,1 C11.9,0.4 10.5,1.77635684e-15 9,1.77635684e-15 C8.1,1.77635684e-15 7.1,0.2 6.3,0.4 C7.7,1.5 8.6,3.2 8.6,5 Z" id="Path"></path>
                <path d="M12.3,6.7 C12.7,7.2 12.9,7.8 13,8.5 C14.4,9.7 16.4,9.8 17.8,8.7 L18,8.6 C17.9,6.2 16.8,4 15.1,2.4 C14.8,4.2 13.8,5.8 12.3,6.7 Z" id="Path"></path>
                <path d="M12.6,10.7 C12.3,11.3 11.9,11.8 11.4,12.2 C11.1,14 12,15.8 13.7,16.5 L13.9,16.6 C15.8,15.3 17.3,13.3 17.8,11 C17.1,11.3 16.3,11.5 15.5,11.5 C14.5,11.4 13.5,11.2 12.6,10.7 Z" id="Path"></path>
                <path d="M9.4,13 C9.3,13 9.2,13 9,13 C8.4,13 7.9,12.9 7.4,12.7 C5.7,13.3 4.6,15 4.9,16.8 L4.9,17 C6.1,17.6 7.5,18 9,18 C9.9,18 10.9,17.8 11.7,17.6 C10.3,16.5 9.4,14.8 9.4,13 Z" id="Path"></path>
            </g>
            <path d="M25,0 L3,0 C1.3,0 0,1.3 0,3 L0,25 C0,26.7 1.3,28 3,28 L25,28 C26.7,28 28,26.7 28,25 L28,3 C28,1.3 26.7,0 25,0 Z M4,3 L5,3 C5.6,3 6,3.4 6,4 C6,4.6 5.6,5 5,5 L4,5 C3.4,5 3,4.6 3,4 C3,3.4 3.4,3 4,3 Z M5,25 L4,25 C3.4,25 3,24.6 3,24 C3,23.4 3.4,23 4,23 L5,23 C5.6,23 6,23.4 6,24 C6,24.6 5.6,25 5,25 Z M24,25 L23,25 C22.4,25 22,24.6 22,24 C22,23.4 22.4,23 23,23 L24,23 C24.6,23 25,23.4 25,24 C25,24.6 24.6,25 24,25 Z M19.6,23.5 C19.6,23.5 19.5,23.6 19.5,23.6 C17.8,24.5 16,25 14,25 C7.9,25 3,20.1 3,14 C3,9.9 5.3,6.3 8.6,4.4 C8.6,4.4 8.6,4.4 8.6,4.4 C10.2,3.5 12,3 14,3 C16,3 17.9,3.6 19.5,4.5 C19.5,4.5 19.6,4.5 19.6,4.6 C22.8,6.5 25,10 25,14 C25,18 22.8,21.5 19.6,23.5 Z M24,5 L23,5 C22.4,5 22,4.6 22,4 C22,3.4 22.4,3 23,3 L24,3 C24.6,3 25,3.4 25,4 C25,4.6 24.6,5 24,5 Z" id="Shape"></path>
        </g>
    </g>
</svg>