<?xml version="1.0" encoding="UTF-8"?>
<svg width="86px" height="86px" viewBox="0 0 86 86" version="1.1" xmlns="http://www.w3.org/2000/svg" xmlns:xlink="http://www.w3.org/1999/xlink">
    <!-- Generator: Sketch 51.3 (57544) - http://www.bohemiancoding.com/sketch -->
    <title>customer engagement icon with color</title>
    <desc>Created with Sketch.</desc>
    <defs></defs>
    <g id="Page-1" stroke="none" stroke-width="1" fill="none" fill-rule="evenodd">
        <g id="customer-engagement-icon-with-color" transform="translate(1.000000, 0.000000)" stroke="#15113B" stroke-width="2">
            <circle id="Oval-6" cx="40" cy="45" r="40"></circle>
            <circle id="Oval-6" cx="40" cy="45" r="30"></circle>
            <circle id="Oval-6" cx="40" cy="45" r="21"></circle>
            <circle id="Oval-6" fill="#FFC403" cx="40" cy="45" r="5"></circle>
            <path d="M73.3952319,11.5705332 L82.942913,11.5705332 C83.2190554,11.5705332 83.442913,11.7943908 83.442913,12.0705332 C83.442913,12.2030093 83.3903392,12.3300707 83.2967359,12.4238168 L73.7326495,22.0025034 C73.6388595,22.0964366 73.5115669,22.1492198 73.3788265,22.1492198 L62.7071694,22.1492198" id="Path-9" fill="#09D5B0"></path>
            <path d="M73.5814703,11.5310521 L73.5814703,2.12774257 C73.5814703,1.8516002 73.3576127,1.62774257 73.0814703,1.62774257 C72.951461,1.62774257 72.8265639,1.67838175 72.7332639,1.76892189 L62.8253518,11.3837487 C62.7283187,11.4779114 62.6735582,11.6073583 62.6735582,11.7425694 L62.6735582,22.0209065" id="Path-10" fill="#09D5B0"></path>
            <path d="M43.561434,41.237294 L73.8032988,11.3619908" id="Path-8" fill="#F7F7F7"></path>
        </g>
    </g>
</svg>