<?xml version="1.0" encoding="UTF-8"?>
<svg width="119px" height="114px" viewBox="0 0 119 114" version="1.1" xmlns="http://www.w3.org/2000/svg" xmlns:xlink="http://www.w3.org/1999/xlink">
    <!-- Generator: Sketch 62 (91390) - https://sketch.com -->
    <title>Group 63</title>
    <desc>Created with Sketch.</desc>
    <g id="Page-1" stroke="none" stroke-width="1" fill="none" fill-rule="evenodd">
        <g id="Group-64" transform="translate(-199.000000, 0.000000)">
            <g id="Group-63" transform="translate(199.200000, 0.000000)">
                <circle id="Oval" fill-opacity="0.100551792" fill="#09D5B0" fill-rule="nonzero" cx="62.4" cy="57.6" r="56.4"></circle>
                <circle id="Oval" fill-opacity="0.401742788" fill="#09D5B0" fill-rule="nonzero" cx="56.4" cy="56.4" r="56.4"></circle>
                <g id="Group-51" transform="translate(25.200000, 34.200000)">
                    <g id="Group-37">
                        <path d="M61.228224,14.8219963 C61.8466415,14.8219963 62.347968,15.3233228 62.347968,15.9417403 L62.3476,21.4699963 L66.4565628,21.4704763 C67.2295847,21.4704763 67.8562428,22.0971344 67.8562428,22.8701563 C67.8562428,22.966621 67.8462704,23.0628272 67.8264848,23.157241 L62.5344949,48.4097638 C62.4932498,48.6065789 62.4017933,48.7821967 62.2752152,48.924362 C62.1163627,49.3487102 61.7074503,49.64976 61.228224,49.64976 L3.841344,49.64976 C3.22292647,49.64976 2.7216,49.1484335 2.7216,48.530016 L2.7216,14.8219963 L61.228224,14.8219963 Z" id="Path" fill-opacity="0.100551792" fill="#09D5B0" fill-rule="nonzero"></path>
                        <path d="M59.626368,5.33527629 L59.626368,45.419616 C59.626368,46.0380335 59.1250415,46.53936 58.506624,46.53936 L1.119744,46.53936 C0.501326465,46.53936 4.58672388e-15,46.0380335 0,45.419616 L0,5.33527629 C-9.46678818e-17,4.56225438 0.626658081,3.93559629 1.39968,3.93559629 L58.226688,3.93559629 C58.9997099,3.93559629 59.626368,4.56225438 59.626368,5.33527629 Z" id="Rectangle" fill="#383458"></path>
                        <path d="M6.951744,0 L53.841024,0 C54.4594415,-3.95845722e-15 54.960768,0.501326465 54.960768,1.119744 L54.960768,44.019936 C54.960768,44.6383535 54.4594415,45.13968 53.841024,45.13968 L6.951744,45.13968 C6.33332647,45.13968 5.832,44.6383535 5.832,44.019936 L5.832,1.119744 C5.832,0.501326465 6.33332647,7.79735273e-16 6.951744,0 Z" id="Rectangle" stroke-opacity="0.401742788" stroke="#09D5B0" stroke-width="0.7776" fill="#FFFFFF" fill-rule="nonzero"></path>
                        <path d="M6.40157033,12.0528 L18.0391315,12.0528 C18.6575491,12.0528 19.1588755,12.5541265 19.1588755,13.172544 C19.1588755,13.2309573 19.1543047,13.2892811 19.1452049,13.3469813 L18.3870121,18.154535 C18.290673,18.7654024 18.7077806,19.3387066 19.3186481,19.4350456 C19.3763483,19.4441455 19.434672,19.4487163 19.4930854,19.4487163 L63.7058906,19.4487163 C64.3243082,19.4487163 64.8256346,19.9500428 64.8256346,20.5684603 C64.8256346,20.6416086 64.8184669,20.714581 64.8042343,20.7863313 L59.8052665,45.987407 C59.7012825,46.5116168 59.2413463,46.88928 58.7069228,46.88928 L1.30829033,46.88928 C0.689872791,46.88928 0.188546326,46.3879535 0.188546326,45.769536 C0.188546326,45.7116548 0.19303426,45.6538607 0.201969779,45.5966734 L5.29524978,12.9996814 C5.38041599,12.4546177 5.84989308,12.0528 6.40157033,12.0528 Z" id="Rectangle" fill="#09D5B0"></path>
                    </g>
                </g>
            </g>
        </g>
    </g>
</svg>