<?xml version="1.0" encoding="UTF-8"?>
<svg width="119px" height="114px" viewBox="0 0 119 114" version="1.1" xmlns="http://www.w3.org/2000/svg" xmlns:xlink="http://www.w3.org/1999/xlink">
    <!-- Generator: Sketch 62 (91390) - https://sketch.com -->
    <title>Group 62</title>
    <desc>Created with Sketch.</desc>
    <g id="Page-1" stroke="none" stroke-width="1" fill="none" fill-rule="evenodd">
        <g id="Group-64" transform="translate(-277.000000, -99.000000)">
            <g id="Group-62" transform="translate(277.200000, 99.000000)">
                <circle id="Oval" fill-opacity="0.100551792" fill="#09D5B0" fill-rule="nonzero" cx="62.4" cy="57.6" r="56.4"></circle>
                <circle id="Oval" fill-opacity="0.401742788" fill="#09D5B0" fill-rule="nonzero" cx="56.4" cy="56.4" r="56.4"></circle>
                <g id="Group-51" transform="translate(24.600000, 26.400000)">
                    <g id="Group-37">
                        <path d="M3.17952,2.38464 L63.78912,2.38464 C64.2281201,2.38464 64.584,2.7405199 64.584,3.17952 L64.584,60.21216 C64.584,60.6511601 64.2281201,61.00704 63.78912,61.00704 L3.17952,61.00704 C2.7405199,61.00704 2.38464,60.6511601 2.38464,60.21216 L2.38464,3.17952 C2.38464,2.7405199 2.7405199,2.38464 3.17952,2.38464 Z" id="Rectangle" fill-opacity="0.401742788" fill="#09D5B0" fill-rule="nonzero"></path>
                        <path d="M0.79488,0 L61.40448,0 C61.8434801,3.0379292e-17 62.19936,0.355879898 62.19936,0.79488 L62.19936,57.82752 C62.19936,58.2665201 61.8434801,58.6224 61.40448,58.6224 L0.79488,58.6224 C0.355879898,58.6224 -7.2339411e-16,58.2665201 0,57.82752 L0,0.79488 C5.72602955e-17,0.355879898 0.355879898,-5.85490804e-16 0.79488,0 Z" id="Rectangle" stroke-opacity="0.401742788" stroke="#09D5B0" stroke-width="0.5" fill="#FFFFFF" fill-rule="nonzero"></path>
                        <g id="Group-13" transform="translate(6.756016, 22.256640)">
                            <path d="M0.397904204,0 L48.6868642,0 C48.9063643,-4.03215052e-17 49.0843042,0.177939949 49.0843042,0.39744 L49.0843042,29.01312 C49.0843042,29.2326201 48.9063643,29.41056 48.6868642,29.41056 L0.397904204,29.41056 C0.178404154,29.41056 0.000464204496,29.2326201 0.000464204496,29.01312 L0.000464204496,0.39744 C0.000464204496,0.177939949 0.178404154,1.26156683e-15 0.397904204,0 Z" id="Rectangle" fill="#383458"></path>
                            <path d="M39.0179662,8.79710835 L49.0834394,16.5296759 L49.0843042,29.01312 C49.0843042,29.2326201 48.9063643,29.41056 48.6868642,29.41056 L0.397904204,29.41056 C0.178404154,29.41056 0.000439384061,29.2326201 0.000439384061,29.01312 L0.000439384061,20.6806759 L6.26317105,14.7057461 C7.4795975,13.5452896 9.33999203,13.3885493 10.7334325,14.3291216 L18.0446807,19.2642141 C19.3631354,20.1541711 21.1108862,20.0665205 22.3336858,19.0491184 L34.5510123,8.88397535 C35.8366023,7.81433003 37.691762,7.77825351 39.0179662,8.79710835 Z" id="Path" fill="#FFD343"></path>
                            <circle id="Oval" fill="#FFFFFF" fill-rule="nonzero" cx="20.17008" cy="9.04176" r="4.07376"></circle>
                        </g>
                        <g id="Group-15" transform="translate(21.064320, 8.147520)">
                            <path d="M0.79488,0 L26.23104,0 C26.6700401,-8.06430105e-17 27.02592,0.355879898 27.02592,0.79488 L27.02592,0.9936 C27.02592,1.4326001 26.6700401,1.78848 26.23104,1.78848 L0.79488,1.78848 C0.355879898,1.78848 1.05296273e-15,1.4326001 0,0.9936 L0,0.79488 C-5.3762007e-17,0.355879898 0.355879898,8.06430105e-17 0.79488,0 Z" id="Rectangle" fill="#15113B"></path>
                            <path d="M0.79488,5.16672 L18.28224,5.16672 C18.7212401,5.16672 19.07712,5.5225999 19.07712,5.9616 L19.07712,6.16032 C19.07712,6.5993201 18.7212401,6.9552 18.28224,6.9552 L0.79488,6.9552 C0.355879898,6.9552 -7.2339411e-16,6.5993201 0,6.16032 L0,5.9616 C-5.3762007e-17,5.5225999 0.355879898,5.16672 0.79488,5.16672 Z" id="Rectangle" fill="#8EECDB" fill-rule="nonzero"></path>
                        </g>
                        <path d="M11.22768,6.35904 C14.2458057,6.35904 16.69248,8.8057143 16.69248,11.82384 C16.69248,14.8419657 14.2458057,17.28864 11.22768,17.28864 C8.2095543,17.28864 5.76288,14.8419657 5.76288,11.82384 C5.76288,8.8057143 8.2095543,6.35904 11.22768,6.35904 Z" id="Rectangle" fill="#FFD343"></path>
                    </g>
                </g>
            </g>
        </g>
    </g>
</svg>