<?xml version="1.0" encoding="UTF-8"?>
<svg width="119px" height="114px" viewBox="0 0 119 114" version="1.1" xmlns="http://www.w3.org/2000/svg" xmlns:xlink="http://www.w3.org/1999/xlink">
    <!-- Generator: Sketch 62 (91390) - https://sketch.com -->
    <title>Group 60</title>
    <desc>Created with Sketch.</desc>
    <g id="Page-1" stroke="none" stroke-width="1" fill="none" fill-rule="evenodd">
        <g id="Group-64" transform="translate(0.000000, -99.000000)">
            <g id="Group-60" transform="translate(0.000000, 99.000000)">
                <circle id="Oval" fill-opacity="0.100551792" fill="#09D5B0" fill-rule="nonzero" cx="62.4" cy="57.6" r="56.4"></circle>
                <circle id="Oval" fill-opacity="0.401742788" fill="#09D5B0" fill-rule="nonzero" cx="56.4" cy="56.4" r="56.4"></circle>
                <g id="Group-21" transform="translate(23.400000, 26.400000)">
                    <g id="Group-22">
                        <g id="Group-51">
                            <g id="Group-37">
                                <path d="M35.4267359,3.53005564 L35.5654824,3.6196027 L65.0636094,24.8612965 C65.2474521,24.8943801 65.4183084,24.9648518 65.5680248,25.0645581 L65.6761978,25.1446729 C65.7195306,25.1802453 65.7605991,25.2184747 65.7991544,25.259112 L65.8850027,25.3589093 L65.8850027,25.3589093 L65.963531,25.4710568 L65.963531,25.4710568 L66.0429912,25.6172016 L66.0429912,25.6172016 L66.0963348,25.7498533 L66.0963348,25.7498533 L66.1362639,25.892329 L66.1362639,25.892329 L66.1575124,26.0152776 L66.1575124,26.0152776 L66.1609971,26.045955 C66.1656426,26.0916314 66.168,26.1375404 66.168,26.184 L66.168,58.776 C66.168,59.4746077 65.6349803,60.048722 64.9534362,60.1138475 L64.824,60.12 L4.344,60.12 C3.6017293,60.12 3,59.5182707 3,58.776 L3,26.184 C3,26.0957531 3.00850502,26.0094926 3.02474009,25.9259936 C3.03609937,25.8675345 3.05129784,25.8102807 3.07003731,25.7546553 C3.09558933,25.6796263 3.12542295,25.611536 3.16043617,25.5466525 L3.20976551,25.4626787 L3.20976551,25.4626787 L3.27020041,25.3756084 L3,25.3749662 L33.6042667,3.62203588 C34.0995865,3.26503678 34.7409918,3.20941263 35.2818941,3.45546934 L35.4267359,3.53005564 Z" id="Path" fill-opacity="0.100551792" fill="#09D5B0" fill-rule="nonzero"></path>
                                <path d="M1.344,21.84 L61.824,21.84 C62.5662707,21.84 63.168,22.4417293 63.168,23.184 L63.168,55.776 C63.168,56.5182707 62.5662707,57.12 61.824,57.12 L1.344,57.12 C0.601729296,57.12 1.42316957e-15,56.5182707 0,55.776 L0,23.184 C-9.09019441e-17,22.4417293 0.601729296,21.84 1.344,21.84 Z" id="Rectangle" fill="#FFD343"></path>
                                <path d="M62.7765605,22.3749662 L32.5654824,0.619602696 C31.9790594,0.199148469 31.1896446,0.200127858 30.6042667,0.622035882 L0,22.3749662 L62.7765605,22.3749662 Z" id="Path" fill="#09D5B0"></path>
                                <path d="M6.6696,5.46 L56.9016,5.46 C57.5696436,5.46 58.1112,6.00155637 58.1112,6.6696 L58.1112,53.0124 C58.1112,53.6804436 57.5696436,54.222 56.9016,54.222 L6.6696,54.222 C6.00155637,54.222 5.46,53.6804436 5.46,53.0124 L5.46,6.6696 C5.46,6.00155637 6.00155637,5.46 6.6696,5.46 Z" id="Rectangle" stroke-opacity="0.401742788" stroke="#09D5B0" stroke-width="0.84" fill="#FFFFFF" fill-rule="nonzero"></path>
                                <path d="M11.34,24.78 L52.5,24.78 C52.9639192,24.78 53.34,25.1560808 53.34,25.62 L53.34,48.3 C53.34,48.7639192 52.9639192,49.14 52.5,49.14 L11.34,49.14 C10.8760808,49.14 10.5,48.7639192 10.5,48.3 L10.5,25.62 C10.5,25.1560808 10.8760808,24.78 11.34,24.78 Z" id="Rectangle" fill="#383458" fill-rule="nonzero"></path>
                                <path d="M11.844,17.22 L30.072,17.22 C30.8142707,17.22 31.416,17.8217293 31.416,18.564 L31.416,18.9 C31.416,19.6422707 30.8142707,20.244 30.072,20.244 L11.844,20.244 C11.1017293,20.244 10.5,19.6422707 10.5,18.9 L10.5,18.564 C10.5,17.8217293 11.1017293,17.22 11.844,17.22 Z" id="Rectangle" fill="#15113B"></path>
                                <path d="M11.844,10.5 L22.092,10.5 C22.8342707,10.5 23.436,11.1017293 23.436,11.844 L23.436,12.18 C23.436,12.9222707 22.8342707,13.524 22.092,13.524 L11.844,13.524 C11.1017293,13.524 10.5,12.9222707 10.5,12.18 L10.5,11.844 C10.5,11.1017293 11.1017293,10.5 11.844,10.5 Z" id="Rectangle" fill="#15113B"></path>
                                <path d="M63.168,23.184 L63.168,55.776 C63.168,56.5182707 62.5662707,57.12 61.824,57.12 L1.344,57.12 C0.601729296,57.12 0,56.5182707 0,55.776 L0,23.184 C0,22.8336807 0.134030795,22.514666 0.353610103,22.2754382 L30.6042667,43.8978624 C31.1446156,44.287316 31.8588183,44.3181085 32.4267359,43.9898427 L32.5654824,43.9002956 L62.6761978,22.1446729 C62.9764566,22.3911593 63.168,22.765211 63.168,23.184 Z" id="Path" fill="#09D5B0"></path>
                            </g>
                        </g>
                    </g>
                </g>
            </g>
        </g>
    </g>
</svg>