<?xml version="1.0" encoding="UTF-8"?>
<svg width="119px" height="114px" viewBox="0 0 119 114" version="1.1" xmlns="http://www.w3.org/2000/svg" xmlns:xlink="http://www.w3.org/1999/xlink">
    <!-- Generator: Sketch 62 (91390) - https://sketch.com -->
    <title>Group 61</title>
    <desc>Created with Sketch.</desc>
    <g id="Page-1" stroke="none" stroke-width="1" fill="none" fill-rule="evenodd">
        <g id="Group-64" transform="translate(-75.000000, 0.000000)">
            <g id="Group-61" transform="translate(75.000000, 0.000000)">
                <circle id="Oval" fill-opacity="0.100551792" fill="#09D5B0" fill-rule="nonzero" cx="62.4" cy="57.6" r="56.4"></circle>
                <circle id="Oval" fill-opacity="0.401742788" fill="#09D5B0" fill-rule="nonzero" cx="56.4" cy="56.4" r="56.4"></circle>
                <g id="Group-39" transform="translate(33.600000, 24.000000)">
                    <g id="Group-51">
                        <g id="Group-37" transform="translate(9.918720, 6.773760)" fill="#FFE1F7" fill-rule="nonzero">
                            <path d="M0.96768,0 L12.33792,0 C12.8723549,7.401507e-16 13.3056,0.433245093 13.3056,0.96768 L13.3056,12.33792 C13.3056,12.8723549 12.8723549,13.3056 12.33792,13.3056 L0.96768,13.3056 C0.433245093,13.3056 1.56990801e-15,12.8723549 0,12.33792 L0,0.96768 C-1.76471702e-16,0.433245093 0.433245093,6.53285612e-16 0.96768,0 Z" id="Rectangle"></path>
                        </g>
                        <g id="Group-37">
                            <path d="M3.99168,3.024 L43.7997533,3.024 L43.7997533,3.024 L48.50496,8.44320346 L48.50496,63.74592 C48.50496,64.2803549 48.0717149,64.7136 47.53728,64.7136 L3.99168,64.7136 C3.45724509,64.7136 3.024,64.2803549 3.024,63.74592 L3.024,3.99168 C3.024,3.45724509 3.45724509,3.024 3.99168,3.024 Z" id="Rectangle" fill-opacity="0.100551792" fill="#09D5B0" fill-rule="nonzero"></path>
                            <path d="M0.96768,0 L37.7517533,0 L37.7517533,0 L45.48096,8.44320346 L45.48096,60.72192 C45.48096,61.2563549 45.0477149,61.6896 44.51328,61.6896 L0.96768,61.6896 C0.433245093,61.6896 1.50873933e-15,61.2563549 0,60.72192 L0,0.96768 C-1.76471702e-16,0.433245093 0.433245093,1.43044173e-15 0.96768,0 Z" id="Rectangle" stroke-opacity="0.401742788" stroke="#09D5B0" stroke-width="0.756" fill="#FFFFFF" fill-rule="nonzero"></path>
                            <path d="M8.3916,23.436 L36.5148,23.436 C37.1828436,23.436 37.7244,23.9775564 37.7244,24.6456 L37.7244,24.948 C37.7244,25.6160436 37.1828436,26.1576 36.5148,26.1576 L8.3916,26.1576 C7.72355637,26.1576 7.182,25.6160436 7.182,24.948 L7.182,24.6456 C7.182,23.9775564 7.72355637,23.436 8.3916,23.436 Z" id="Rectangle" fill="#FFD343"></path>
                            <path d="M8.3916,34.02 L36.5148,34.02 C37.1828436,34.02 37.7244,34.5615564 37.7244,35.2296 L37.7244,35.532 C37.7244,36.2000436 37.1828436,36.7416 36.5148,36.7416 L8.3916,36.7416 C7.72355637,36.7416 7.182,36.2000436 7.182,35.532 L7.182,35.2296 C7.182,34.5615564 7.72355637,34.02 8.3916,34.02 Z" id="Rectangle" fill="#09D5B0"></path>
                            <path d="M8.3916,12.474 L25.1748,12.474 C25.8428436,12.474 26.3844,13.0155564 26.3844,13.6836 L26.3844,13.986 C26.3844,14.6540436 25.8428436,15.1956 25.1748,15.1956 L8.3916,15.1956 C7.72355637,15.1956 7.182,14.6540436 7.182,13.986 L7.182,13.6836 C7.182,13.0155564 7.72355637,12.474 8.3916,12.474 Z" id="Rectangle" fill="#15113B"></path>
                            <path d="M38.0628064,0.287537783 L45.2495315,8.15056818 C45.3058684,8.21220671 45.3015706,8.30784473 45.2399321,8.36418169 C45.2120652,8.38965173 45.175678,8.40377525 45.137925,8.40377525 L39.0096,8.40377525 C38.3415564,8.40377525 37.8,7.86221889 37.8,7.19417525 L37.8,0.38954486 C37.8,0.306039406 37.8676945,0.23834486 37.9512,0.23834486 C37.993659,0.23834486 38.0341615,0.256197189 38.0628064,0.287537783 Z" id="Path-6" stroke-opacity="0.401742788" stroke="#09D5B0" stroke-width="0.756" fill="#FFFFFF" fill-rule="nonzero"></path>
                        </g>
                    </g>
                    <g id="Group-38" transform="translate(21.924000, 42.714000)">
                        <path d="M16.0310102,1.91846539e-13 C22.0455073,1.91846539e-13 26.9212205,4.8757132 26.9212205,10.8902102 C26.9212205,13.113275 26.2551139,15.1807622 25.1116012,16.9039713 L29.9905703,28.3986182 C30.0146098,28.4548136 30.0207103,28.5169128 30.0086029,28.5767486 C29.9802123,28.7170573 29.8589356,28.8148679 29.7217805,28.8190919 L29.6522364,28.8131686 L24.1289044,27.6955576 C24.0309209,27.6757312 23.9312549,27.7057533 23.8608738,27.7724791 L23.8140627,27.8291999 L20.781176,32.5787103 C20.7483199,32.630163 20.7006601,32.6704665 20.6444647,32.6943201 C20.5126924,32.7502541 20.3634397,32.7055483 20.282391,32.5948214 L20.2479469,32.5341165 L16.1781902,22.947 L12.1088531,32.5341165 C12.0435967,32.6878508 11.8660697,32.7595764 11.7123353,32.6943201 C11.6561399,32.6704665 11.6084801,32.630163 11.575624,32.5787103 L8.54273729,27.8291999 C8.47548329,27.7238799 8.350375,27.6707746 8.22789559,27.6955576 L2.70456365,28.8131686 C2.54087017,28.8462909 2.38131943,28.7404421 2.3481971,28.5767486 C2.33608971,28.5169128 2.3421902,28.4548136 2.36622969,28.3986182 L7.13219688,17.1693268 C5.87780404,15.3948346 5.1408,13.2285907 5.1408,10.8902102 C5.1408,4.8757132 10.0165132,1.91846539e-13 16.0310102,1.91846539e-13 Z" id="Path" fill-opacity="0.925453453" fill="#15113B" fill-rule="nonzero"></path>
                        <path d="M3.6288,12.7008 L13.608,12.7008 C13.7750109,12.7008 13.9104,12.8361891 13.9104,13.0032 L13.9104,31.177974 C13.9104,31.3449849 13.7750109,31.480374 13.608,31.480374 C13.5469516,31.480374 13.4873326,31.4618967 13.4369842,31.427372 L8.78941577,28.240468 C8.68635634,28.1697986 8.55044366,28.1697986 8.44738423,28.240468 L3.79981577,31.427372 C3.66207706,31.5218214 3.4738514,31.4867285 3.379402,31.3489898 C3.34487738,31.2986414 3.3264,31.2390225 3.3264,31.177974 L3.3264,13.0032 C3.3264,12.8361891 3.46178909,12.7008 3.6288,12.7008 Z" id="Rectangle" fill="#09D5B0" transform="translate(8.618400, 22.226400) rotate(23.000000) translate(-8.618400, -22.226400) "></path>
                        <path d="M14.5152,12.7008 L24.4944,12.7008 C24.6614109,12.7008 24.7968,12.8361891 24.7968,13.0032 L24.7968,31.177974 C24.7968,31.3449849 24.6614109,31.480374 24.4944,31.480374 C24.4333516,31.480374 24.3737326,31.4618967 24.3233842,31.427372 L19.6758158,28.240468 C19.5727563,28.1697986 19.4368437,28.1697986 19.3337842,28.240468 L14.6862158,31.427372 C14.5484771,31.5218214 14.3602514,31.4867285 14.265802,31.3489898 C14.2312774,31.2986414 14.2128,31.2390225 14.2128,31.177974 L14.2128,13.0032 C14.2128,12.8361891 14.3481891,12.7008 14.5152,12.7008 Z" id="Rectangle" fill="#09D5B0" transform="translate(19.504800, 22.226400) scale(-1, 1) rotate(23.000000) translate(-19.504800, -22.226400) "></path>
                        <g id="Group-24" transform="translate(3.024000, 0.000000)">
                            <circle id="Oval" fill="#FFD343" cx="10.8902102" cy="10.8902102" r="10.8902102"></circle>
                            <path d="M10.742947,14.2145031 L7.87509498,15.7599152 C7.72807205,15.839142 7.54466033,15.7841825 7.46543343,15.6371596 C7.43358149,15.5780513 7.42230745,15.5100232 7.43338863,15.4437998 L7.98468802,12.1491197 C8.00082452,12.0526846 7.96933857,11.9543984 7.90017046,11.8852906 L5.55931835,9.54647952 C5.44117231,9.42843649 5.4410888,9.23696742 5.55913182,9.11882138 C5.60497427,9.07293893 5.66435409,9.04301136 5.72850574,9.03345653 L8.95051119,8.55356712 C9.04960732,8.53880762 9.1349601,8.47592498 9.17842454,8.38565468 L10.6139382,5.40426953 C10.6863915,5.25379305 10.8671117,5.19054273 11.0175882,5.26299598 C11.0793249,5.2927217 11.129136,5.34253287 11.1588618,5.40426953 L12.5943755,8.38565468 C12.6378399,8.47592498 12.7231927,8.53880762 12.8222888,8.55356712 L16.0442943,9.03345653 C16.209483,9.05805994 16.3234499,9.21191687 16.2988465,9.3771056 C16.2892917,9.44125725 16.2593641,9.50063707 16.2134817,9.54647952 L13.8726295,11.8852906 C13.8034614,11.9543984 13.7719755,12.0526846 13.788112,12.1491197 L14.3394114,15.4437998 C14.3669741,15.6085206 14.2557856,15.7643972 14.0910648,15.79196 C14.0248413,15.8030411 13.9568133,15.7917671 13.897705,15.7599152 L11.029853,14.2145031 C10.9403048,14.1662479 10.8324952,14.1662479 10.742947,14.2145031 Z" id="Star" fill="#15113B"></path>
                            <path d="M10.9538957,19.9547712 C15.924942,19.9547712 19.9547712,15.924942 19.9547712,10.9538957 C19.9547712,5.9828494 15.924942,1.95302016 10.9538957,1.95302016 C5.9828494,1.95302016 1.95302016,5.9828494 1.95302016,10.9538957 C1.95302016,15.924942 5.9828494,19.9547712 10.9538957,19.9547712 Z M10.9538957,19.4452877 C6.26422937,19.4452877 2.46250368,15.643562 2.46250368,10.9538957 C2.46250368,6.26422937 6.26422937,2.46250368 10.9538957,2.46250368 C15.643562,2.46250368 19.4452877,6.26422937 19.4452877,10.9538957 C19.4452877,15.643562 15.643562,19.4452877 10.9538957,19.4452877 Z" id="Oval" fill-opacity="0.401742788" fill="#09D5B0"></path>
                        </g>
                    </g>
                </g>
            </g>
        </g>
    </g>
</svg>