<?xml version="1.0" encoding="UTF-8"?>
<svg width="103px" height="92px" viewBox="0 0 103 92" version="1.1" xmlns="http://www.w3.org/2000/svg" xmlns:xlink="http://www.w3.org/1999/xlink">
    <!-- Generator: Sketch 63.1 (92452) - https://sketch.com -->
    <title>Healthcare_medical_healthcare_heart</title>
    <desc>Created with Sketch.</desc>
    <g id="Page-1" stroke="none" stroke-width="1" fill="none" fill-rule="evenodd">
        <g id="Healthcare_medical_healthcare_heart" fill="#09D5B0" fill-rule="nonzero">
            <path d="M94.9776186,8.464 C89.4449418,2.944 82.4368845,0 74.691137,0 C66.9453894,0 59.9373321,2.944 54.7735004,8.464 L51.4538944,11.776 L48.1342883,8.464 C42.9704566,2.944 35.9623993,0 28.2166517,0 C20.4709042,0 13.4628469,2.944 8.29901522,8.464 C-2.76633841,19.872 -2.76633841,38.272 8.29901522,49.312 L47.7654432,90.528 C48.8719785,91.632 49.9785139,92 51.4538944,92 C52.9292748,92 54.0358102,91.264 55.1423456,90.528 L94.9776186,49.68 C105.674127,38.272 105.674127,19.872 94.9776186,8.464 Z M77.2730528,44.16 L66.2076992,44.16 C65.1011638,44.16 63.9946285,43.424 63.2569382,42.688 L59.9373321,37.536 L55.1423456,49.312 C54.4046553,50.416 52.9292748,51.52 51.4538944,51.52 C51.4538944,51.52 51.4538944,51.52 51.4538944,51.52 C49.9785139,51.52 48.8719785,50.784 48.1342883,49.312 L42.9704566,39.008 L39.2820054,42.688 C38.5443151,43.792 37.8066249,44.16 36.7000895,44.16 L25.6347359,44.16 C23.4216652,44.16 21.9462847,42.688 21.9462847,40.48 C21.9462847,38.272 23.4216652,36.8 25.6347359,36.8 L35.224709,36.8 L41.4950761,30.544 C42.2327663,29.808 43.3393017,29.44 44.8146822,29.44 C45.9212175,29.808 47.0277529,30.544 47.396598,31.28 L51.0850492,38.64 L55.5111907,27.968 C55.8800358,26.864 57.3554163,25.76 58.4619517,25.76 C59.9373321,25.76 61.0438675,26.128 61.7815577,27.232 L68.0519248,36.8 L77.2730528,36.8 C79.4861235,36.8 80.961504,38.272 80.961504,40.48 C80.961504,42.688 79.4861235,44.16 77.2730528,44.16 Z" id="Shape"></path>
        </g>
    </g>
</svg>