<?xml version="1.0" encoding="UTF-8"?>
<svg width="475px" height="493px" viewBox="0 0 475 493" version="1.1" xmlns="http://www.w3.org/2000/svg" xmlns:xlink="http://www.w3.org/1999/xlink">
    <!-- Generator: Sketch 63.1 (92452) - https://sketch.com -->
    <title>Meeting</title>
    <desc>Created with Sketch.</desc>
    <g id="Page-1" stroke="none" stroke-width="1" fill="none" fill-rule="evenodd">
        <g id="Meeting">
            <g id="Group-44" transform="translate(20.000000, 0.000000)">
                <polygon id="Rectangle" fill="#F7F7F7" fill-rule="nonzero" points="21.6 4.5 394.137803 4.5 442.8 4.5 442.8 248.4 21.6 248.4"></polygon>
                <path d="M216.473752,374.432823 L280.805569,437.432823 L289.020694,437.432823 L219.126248,368.967177 L216.473752,374.432823 Z M217.020694,374.432823 L152.688878,437.432823 L144.473752,437.432823 L214.368199,368.967177 L217.020694,374.432823 Z" id="Shape" fill="#15113B" fill-rule="nonzero"></path>
                <polygon id="Rectangle" fill="#15113B" fill-rule="nonzero" points="213.3 245.7 219.6 245.7 219.6 438.3 213.3 438.3"></polygon>
                <polygon id="Rectangle" fill-opacity="0.401742788" fill="#09D5B0" fill-rule="nonzero" points="12.6 4.5 433.8 4.5 433.8 248.4 12.6 248.4"></polygon>
                <g id="Group-51" transform="translate(281.700000, 29.700000)">
                    <g id="Group-37">
                        <path d="M12.78,9 L142.38,9 C143.97058,9 145.26,10.2894199 145.26,11.88 L145.26,189.72 C145.26,191.31058 143.97058,192.6 142.38,192.6 L12.78,192.6 C11.1894199,192.6 9.9,191.31058 9.9,189.72 L9.9,11.88 C9.9,10.2894199 11.1894199,9 12.78,9 Z" id="Rectangle" fill-opacity="0.100551792" fill="#09D5B0" fill-rule="nonzero"></path>
                        <path d="M2.88,0 L132.48,0 C134.07058,0 135.36,1.28941992 135.36,2.88 L135.36,180.72 C135.36,182.31058 134.07058,183.6 132.48,183.6 L2.88,183.6 C1.28941992,183.6 0,182.31058 0,180.72 L0,2.88 C0,1.28941992 1.28941992,0 2.88,0 Z" id="Rectangle" stroke-opacity="0.401742788" stroke="#09D5B0" stroke-width="1.8" fill="#FFFFFF" fill-rule="nonzero"></path>
                        <g id="Group-4" transform="translate(27.000000, 35.100000)">
                            <path d="M40.3455938,80.6911875 C62.6278499,80.6911875 80.6911875,62.6278499 80.6911875,40.3455938 C80.6911875,18.0633376 62.6278499,0 40.3455938,0 C18.0633376,0 0,18.0633376 0,40.3455938 C0,62.6278499 18.0633376,80.6911875 40.3455938,80.6911875 Z M40.3455938,64.55295 C26.9762401,64.55295 16.1382375,53.7149474 16.1382375,40.3455938 C16.1382375,26.9762401 26.9762401,16.1382375 40.3455938,16.1382375 C53.7149474,16.1382375 64.55295,26.9762401 64.55295,40.3455938 C64.55295,53.7149474 53.7149474,64.55295 40.3455938,64.55295 Z" id="Oval" fill="#15113B"></path>
                            <path d="M40.3455938,80.6911875 C62.6278499,80.6911875 80.6911875,62.6278499 80.6911875,40.3455938 C80.6911875,18.0633376 62.6278499,0 40.3455938,0 C35.8891425,0 32.276475,3.61266752 32.276475,8.06911875 C32.276475,12.52557 35.8891425,16.1382375 40.3455938,16.1382375 C53.7149474,16.1382375 64.55295,26.9762401 64.55295,40.3455938 C64.55295,53.563023 53.9598661,64.3063049 40.8003743,64.5487636 L40.3455938,64.55295 C35.8891425,64.55295 32.276475,68.1656175 32.276475,72.6220688 C32.276475,77.07852 35.8891425,80.6911875 40.3455938,80.6911875 Z" id="Path" fill="#09D5B0"></path>
                        </g>
                        <path d="M24.66,158.4 L109.62,158.4 C111.21058,158.4 112.5,159.68942 112.5,161.28 L112.5,162 C112.5,163.59058 111.21058,164.88 109.62,164.88 L24.66,164.88 C23.0694199,164.88 21.78,163.59058 21.78,162 L21.78,161.28 C21.78,159.68942 23.0694199,158.4 24.66,158.4 Z" id="Rectangle" fill="#FFD343"></path>
                        <path d="M24.66,144 L64.62,144 C66.2105801,144 67.5,145.28942 67.5,146.88 L67.5,147.6 C67.5,149.19058 66.2105801,150.48 64.62,150.48 L24.66,150.48 C23.0694199,150.48 21.78,149.19058 21.78,147.6 L21.78,146.88 C21.78,145.28942 23.0694199,144 24.66,144 Z" id="Rectangle" fill="#15113B"></path>
                    </g>
                </g>
                <g id="Group-51" transform="translate(32.400000, 27.000000)">
                    <g id="Group-37" transform="translate(29.626933, 20.233028)" fill-rule="nonzero">
                        <path d="M7.94868941,57.0860421 L22.400852,57.0860421 C23.9971938,57.0860421 25.2912845,58.3801328 25.2912845,59.9764746 L25.2912845,119.952949 C25.2912845,121.549291 23.9971938,122.843382 22.400852,122.843382 L7.94868941,122.843382 C6.35234761,122.843382 5.0582569,121.549291 5.0582569,119.952949 L5.0582569,59.9764746 C5.0582569,58.3801328 6.35234761,57.0860421 7.94868941,57.0860421 Z" id="Rectangle" fill="#FFE1F7"></path>
                        <path d="M44.0790958,57.0860421 L58.5312584,57.0860421 C60.1276002,57.0860421 61.4216909,58.3801328 61.4216909,59.9764746 L61.4216909,119.952949 C61.4216909,121.549291 60.1276002,122.843382 58.5312584,122.843382 L44.0790958,122.843382 C42.482754,122.843382 41.1886633,121.549291 41.1886633,119.952949 L41.1886633,59.9764746 C41.1886633,58.3801328 42.482754,57.0860421 44.0790958,57.0860421 Z" id="Rectangle" fill="#FFE1F7"></path>
                        <path d="M80.2095022,57.0860421 L94.6616648,57.0860421 C96.2580066,57.0860421 97.5520973,58.3801328 97.5520973,59.9764746 L97.5520973,119.952949 C97.5520973,121.549291 96.2580066,122.843382 94.6616648,122.843382 L80.2095022,122.843382 C78.6131604,122.843382 77.3190697,121.549291 77.3190697,119.952949 L77.3190697,59.9764746 C77.3190697,58.3801328 78.6131604,57.0860421 80.2095022,57.0860421 Z" id="Rectangle" fill="#FFE1F7"></path>
                        <path d="M116.339909,57.0860421 L130.792071,57.0860421 C132.388413,57.0860421 133.682504,58.3801328 133.682504,59.9764746 L133.682504,119.952949 C133.682504,121.549291 132.388413,122.843382 130.792071,122.843382 L116.339909,122.843382 C114.743567,122.843382 113.449476,121.549291 113.449476,119.952949 L113.449476,59.9764746 C113.449476,58.3801328 114.743567,57.0860421 116.339909,57.0860421 Z" id="Rectangle" fill="#FFE1F7"></path>
                        <path d="M152.470315,57.0860421 L166.922478,57.0860421 C168.518819,57.0860421 169.81291,58.3801328 169.81291,59.9764746 L169.81291,119.952949 C169.81291,121.549291 168.518819,122.843382 166.922478,122.843382 L152.470315,122.843382 C150.873973,122.843382 149.579882,121.549291 149.579882,119.952949 L149.579882,59.9764746 C149.579882,58.3801328 150.873973,57.0860421 152.470315,57.0860421 Z" id="Rectangle" fill="#FFE1F7"></path>
                        <path d="M7.94868941,100.44253 L22.400852,100.44253 C23.9971938,100.44253 25.2912845,101.736621 25.2912845,103.332962 L25.2912845,119.952949 C25.2912845,121.549291 23.9971938,122.843382 22.400852,122.843382 L7.94868941,122.843382 C6.35234761,122.843382 5.0582569,121.549291 5.0582569,119.952949 L5.0582569,103.332962 C5.0582569,101.736621 6.35234761,100.44253 7.94868941,100.44253 Z" id="Rectangle" fill="#FC60D2"></path>
                        <path d="M44.0790958,85.9903672 L58.5312584,85.9903672 C60.1276002,85.9903672 61.4216909,87.2844579 61.4216909,88.8807997 L61.4216909,119.952949 C61.4216909,121.549291 60.1276002,122.843382 58.5312584,122.843382 L44.0790958,122.843382 C42.482754,122.843382 41.1886633,121.549291 41.1886633,119.952949 L41.1886633,88.8807997 C41.1886633,87.2844579 42.482754,85.9903672 44.0790958,85.9903672 Z" id="Rectangle" fill="#FC60D2"></path>
                        <path d="M80.2095022,93.2164485 L94.6616648,93.2164485 C96.2580066,93.2164485 97.5520973,94.5105392 97.5520973,96.106881 L97.5520973,119.952949 C97.5520973,121.549291 96.2580066,122.843382 94.6616648,122.843382 L80.2095022,122.843382 C78.6131604,122.843382 77.3190697,121.549291 77.3190697,119.952949 L77.3190697,96.106881 C77.3190697,94.5105392 78.6131604,93.2164485 80.2095022,93.2164485 Z" id="Rectangle" fill="#FC60D2"></path>
                        <path d="M116.339909,78.764286 L130.792071,78.764286 C132.388413,78.764286 133.682504,80.0583767 133.682504,81.6547185 L133.682504,119.952949 C133.682504,121.549291 132.388413,122.843382 130.792071,122.843382 L116.339909,122.843382 C114.743567,122.843382 113.449476,121.549291 113.449476,119.952949 L113.449476,81.6547185 C113.449476,80.0583767 114.743567,78.764286 116.339909,78.764286 Z" id="Rectangle" fill="#FC60D2"></path>
                        <path d="M152.470315,64.3121234 L166.922478,64.3121234 C168.518819,64.3121234 169.81291,65.6062141 169.81291,67.2025559 L169.81291,119.952949 C169.81291,121.549291 168.518819,122.843382 166.922478,122.843382 L152.470315,122.843382 C150.873973,122.843382 149.579882,121.549291 149.579882,119.952949 L149.579882,67.2025559 C149.579882,65.6062141 150.873973,64.3121234 152.470315,64.3121234 Z" id="Rectangle" fill="#FC60D2"></path>
                        <path d="M53.4730015,1.44521626 L167.645086,1.44521626 C169.241427,1.44521626 170.535518,2.73930697 170.535518,4.33564877 L170.535518,5.0582569 C170.535518,6.65459869 169.241427,7.94868941 167.645086,7.94868941 L53.4730015,7.94868941 C51.8766597,7.94868941 50.582569,6.65459869 50.582569,5.0582569 L50.582569,4.33564877 C50.582569,2.73930697 51.8766597,1.44521626 53.4730015,1.44521626 Z" id="Rectangle" fill="#FC60D2"></path>
                        <path d="M53.4730015,20.9556357 L109.836435,20.9556357 C111.432777,20.9556357 112.726868,22.2497264 112.726868,23.8460682 L112.726868,24.5686764 C112.726868,26.1650181 111.432777,27.4591089 109.836435,27.4591089 L53.4730015,27.4591089 C51.8766597,27.4591089 50.582569,26.1650181 50.582569,24.5686764 L50.582569,23.8460682 C50.582569,22.2497264 51.8766597,20.9556357 53.4730015,20.9556357 Z" id="Rectangle" fill="#FFE1F7"></path>
                        <path d="M4.33564877,140.908585 L89.6034079,140.908585 C91.1997497,140.908585 92.4938404,142.202676 92.4938404,143.799017 L92.4938404,144.521626 C92.4938404,146.117967 91.1997497,147.412058 89.6034079,147.412058 L4.33564877,147.412058 C2.73930697,147.412058 1.44521626,146.117967 1.44521626,144.521626 L1.44521626,143.799017 C1.44521626,142.202676 2.73930697,140.908585 4.33564877,140.908585 Z" id="Rectangle" fill="#FFE1F7"></path>
                        <path d="M2.89043251,0 L36.8530145,0 C38.4493563,0 39.743447,1.29409072 39.743447,2.89043251 L39.743447,36.8530145 C39.743447,38.4493563 38.4493563,39.743447 36.8530145,39.743447 L2.89043251,39.743447 C1.29409072,39.743447 0,38.4493563 0,36.8530145 L0,2.89043251 C0,1.29409072 1.29409072,0 2.89043251,0 Z" id="Rectangle" fill="#FFE1F7"></path>
                    </g>
                    <g id="Group-37">
                        <path d="M12.8262943,8.12934144 L233.221773,8.12934144 C234.818115,8.12934144 236.112206,9.42343216 236.112206,11.019774 L236.112206,189.503982 C236.112206,191.100323 234.818115,192.394414 233.221773,192.394414 L12.8262943,192.394414 C11.2299525,192.394414 9.93586176,191.100323 9.93586176,189.503982 L9.93586176,11.019774 C9.93586176,9.42343216 11.2299525,8.12934144 12.8262943,8.12934144 Z" id="Rectangle" fill-opacity="0.100551792" fill="#09D5B0" fill-rule="nonzero"></path>
                        <path d="M2.89043251,0 L223.285912,0 C224.882253,0 226.176344,1.29409072 226.176344,2.89043251 L226.176344,181.37464 C226.176344,182.970982 224.882253,184.265073 223.285912,184.265073 L2.89043251,184.265073 C1.29409072,184.265073 0,182.970982 0,181.37464 L0,2.89043251 C0,1.29409072 1.29409072,0 2.89043251,0 Z" id="Rectangle" stroke-opacity="0.401742788" stroke="#09D5B0" stroke-width="1.8" fill="#FFFFFF" fill-rule="nonzero"></path>
                        <g id="Group-11" transform="translate(31.794758, 75.151245)">
                            <path d="M2.89043251,7.10542736e-15 L17.3425951,7.10542736e-15 C18.9389369,7.10542736e-15 20.2330276,1.29409072 20.2330276,2.89043251 L20.2330276,62.8669071 C20.2330276,64.4632489 18.9389369,65.7573396 17.3425951,65.7573396 L2.89043251,65.7573396 C1.29409072,65.7573396 1.08357767e-13,64.4632489 1.08357767e-13,62.8669071 L1.08357767e-13,2.89043251 C1.08357767e-13,1.29409072 1.29409072,7.10542736e-15 2.89043251,7.10542736e-15 Z" id="Rectangle" fill="#15113B"></path>
                            <path d="M39.0208389,7.10542736e-15 L53.4730015,7.10542736e-15 C55.0693433,7.10542736e-15 56.363434,1.29409072 56.363434,2.89043251 L56.363434,62.8669071 C56.363434,64.4632489 55.0693433,65.7573396 53.4730015,65.7573396 L39.0208389,65.7573396 C37.4244971,65.7573396 36.1304064,64.4632489 36.1304064,62.8669071 L36.1304064,2.89043251 C36.1304064,1.29409072 37.4244971,7.10542736e-15 39.0208389,7.10542736e-15 Z" id="Rectangle" fill="#15113B"></path>
                            <path d="M75.1512453,7.10542736e-15 L89.6034079,7.10542736e-15 C91.1997497,7.10542736e-15 92.4938404,1.29409072 92.4938404,2.89043251 L92.4938404,62.8669071 C92.4938404,64.4632489 91.1997497,65.7573396 89.6034079,65.7573396 L75.1512453,65.7573396 C73.5549035,65.7573396 72.2608128,64.4632489 72.2608128,62.8669071 L72.2608128,2.89043251 C72.2608128,1.29409072 73.5549035,7.10542736e-15 75.1512453,7.10542736e-15 Z" id="Rectangle" fill="#15113B"></path>
                            <path d="M111.281652,7.10542736e-15 L125.733814,7.10542736e-15 C127.330156,7.10542736e-15 128.624247,1.29409072 128.624247,2.89043251 L128.624247,62.8669071 C128.624247,64.4632489 127.330156,65.7573396 125.733814,65.7573396 L111.281652,65.7573396 C109.68531,65.7573396 108.391219,64.4632489 108.391219,62.8669071 L108.391219,2.89043251 C108.391219,1.29409072 109.68531,7.10542736e-15 111.281652,7.10542736e-15 Z" id="Rectangle" fill="#15113B"></path>
                            <path d="M147.412058,7.10542736e-15 L161.864221,7.10542736e-15 C163.460562,7.10542736e-15 164.754653,1.29409072 164.754653,2.89043251 L164.754653,62.8669071 C164.754653,64.4632489 163.460562,65.7573396 161.864221,65.7573396 L147.412058,65.7573396 C145.815716,65.7573396 144.521626,64.4632489 144.521626,62.8669071 L144.521626,2.89043251 C144.521626,1.29409072 145.815716,7.10542736e-15 147.412058,7.10542736e-15 Z" id="Rectangle" fill="#15113B"></path>
                            <path d="M2.89043251,43.3564877 L17.3425951,43.3564877 C18.9389369,43.3564877 20.2330276,44.6505784 20.2330276,46.2469202 L20.2330276,62.8669071 C20.2330276,64.4632489 18.9389369,65.7573396 17.3425951,65.7573396 L2.89043251,65.7573396 C1.29409072,65.7573396 1.08357767e-13,64.4632489 1.08357767e-13,62.8669071 L1.08357767e-13,46.2469202 C1.08357767e-13,44.6505784 1.29409072,43.3564877 2.89043251,43.3564877 Z" id="Rectangle" fill="#09D5B0"></path>
                            <path d="M39.0208389,28.9043251 L53.4730015,28.9043251 C55.0693433,28.9043251 56.363434,30.1984158 56.363434,31.7947576 L56.363434,62.8669071 C56.363434,64.4632489 55.0693433,65.7573396 53.4730015,65.7573396 L39.0208389,65.7573396 C37.4244971,65.7573396 36.1304064,64.4632489 36.1304064,62.8669071 L36.1304064,31.7947576 C36.1304064,30.1984158 37.4244971,28.9043251 39.0208389,28.9043251 Z" id="Rectangle" fill="#FFD343" fill-rule="nonzero"></path>
                            <path d="M75.1512453,36.1304064 L89.6034079,36.1304064 C91.1997497,36.1304064 92.4938404,37.4244971 92.4938404,39.0208389 L92.4938404,62.8669071 C92.4938404,64.4632489 91.1997497,65.7573396 89.6034079,65.7573396 L75.1512453,65.7573396 C73.5549035,65.7573396 72.2608128,64.4632489 72.2608128,62.8669071 L72.2608128,39.0208389 C72.2608128,37.4244971 73.5549035,36.1304064 75.1512453,36.1304064 Z" id="Rectangle" fill="#09D5B0"></path>
                            <path d="M111.281652,21.6782438 L125.733814,21.6782438 C127.330156,21.6782438 128.624247,22.9723346 128.624247,24.5686764 L128.624247,62.8669071 C128.624247,64.4632489 127.330156,65.7573396 125.733814,65.7573396 L111.281652,65.7573396 C109.68531,65.7573396 108.391219,64.4632489 108.391219,62.8669071 L108.391219,24.5686764 C108.391219,22.9723346 109.68531,21.6782438 111.281652,21.6782438 Z" id="Rectangle" fill="#FFD343" fill-rule="nonzero"></path>
                            <path d="M147.412058,7.22608128 L161.864221,7.22608128 C163.460562,7.22608128 164.754653,8.520172 164.754653,10.1165138 L164.754653,62.8669071 C164.754653,64.4632489 163.460562,65.7573396 161.864221,65.7573396 L147.412058,65.7573396 C145.815716,65.7573396 144.521626,64.4632489 144.521626,62.8669071 L144.521626,10.1165138 C144.521626,8.520172 145.815716,7.22608128 147.412058,7.22608128 Z" id="Rectangle" fill="#D8D8D8" fill-rule="nonzero"></path>
                        </g>
                        <path d="M80.2095022,19.5104195 L194.381586,19.5104195 C195.977928,19.5104195 197.272019,20.8045102 197.272019,22.400852 L197.272019,23.1234601 C197.272019,24.7198019 195.977928,26.0138926 194.381586,26.0138926 L80.2095022,26.0138926 C78.6131604,26.0138926 77.3190697,24.7198019 77.3190697,23.1234601 L77.3190697,22.400852 C77.3190697,20.8045102 78.6131604,19.5104195 80.2095022,19.5104195 Z" id="Rectangle" fill="#FFD343"></path>
                        <path d="M80.2095022,39.0208389 L136.572936,39.0208389 C138.169278,39.0208389 139.463369,40.3149296 139.463369,41.9112714 L139.463369,42.6338796 C139.463369,44.2302213 138.169278,45.5243121 136.572936,45.5243121 L80.2095022,45.5243121 C78.6131604,45.5243121 77.3190697,44.2302213 77.3190697,42.6338796 L77.3190697,41.9112714 C77.3190697,40.3149296 78.6131604,39.0208389 80.2095022,39.0208389 Z" id="Rectangle" fill="#15113B"></path>
                        <path d="M31.0721495,158.973788 L116.339909,158.973788 C117.93625,158.973788 119.230341,160.267879 119.230341,161.864221 L119.230341,162.586829 C119.230341,164.183171 117.93625,165.477261 116.339909,165.477261 L31.0721495,165.477261 C29.4758077,165.477261 28.181717,164.183171 28.181717,162.586829 L28.181717,161.864221 C28.181717,160.267879 29.4758077,158.973788 31.0721495,158.973788 Z" id="Rectangle" fill-opacity="0.401742788" fill="#09D5B0" fill-rule="nonzero"></path>
                        <path d="M29.6269332,18.0652032 L63.5895153,18.0652032 C65.1858571,18.0652032 66.4799478,19.3592939 66.4799478,20.9556357 L66.4799478,54.9182177 C66.4799478,56.5145595 65.1858571,57.8086502 63.5895153,57.8086502 L29.6269332,57.8086502 C28.0305915,57.8086502 26.7365007,56.5145595 26.7365007,54.9182177 L26.7365007,20.9556357 C26.7365007,19.3592939 28.0305915,18.0652032 29.6269332,18.0652032 Z" id="Rectangle" fill-opacity="0.401742788" fill="#09D5B0" fill-rule="nonzero"></path>
                    </g>
                </g>
                <polygon id="Rectangle" fill="#15113B" fill-rule="nonzero" points="207 369 225.9 369 225.9 383.4 207 383.4"></polygon>
                <path d="M9.9,4.5 L443.7,4.5 C445.688225,4.5 447.3,6.1117749 447.3,8.1 L447.3,9 C447.3,10.9882251 445.688225,12.6 443.7,12.6 L9.9,12.6 C7.9117749,12.6 6.3,10.9882251 6.3,9 L6.3,8.1 C6.3,6.1117749 7.9117749,4.5 9.9,4.5 Z" id="Rectangle" fill="#09D5B0" fill-rule="nonzero"></path>
                <path d="M5.4,0 C8.38233765,0 10.8,2.41766235 10.8,5.4 L10.8,11.7 C10.8,14.6823376 8.38233765,17.1 5.4,17.1 C2.41766235,17.1 0,14.6823376 0,11.7 L0,5.4 C0,2.41766235 2.41766235,0 5.4,0 Z" id="Rectangle" fill="#09D5B0" fill-rule="nonzero"></path>
                <path d="M9.9,247.5 L443.7,247.5 C445.688225,247.5 447.3,249.111775 447.3,251.1 L447.3,252 C447.3,253.988225 445.688225,255.6 443.7,255.6 L9.9,255.6 C7.9117749,255.6 6.3,253.988225 6.3,252 L6.3,251.1 C6.3,249.111775 7.9117749,247.5 9.9,247.5 Z" id="Rectangle" fill="#09D5B0" fill-rule="nonzero"></path>
                <path d="M449.1,0 C452.082338,0 454.5,2.41766235 454.5,5.4 L454.5,11.7 C454.5,14.6823376 452.082338,17.1 449.1,17.1 C446.117662,17.1 443.7,14.6823376 443.7,11.7 L443.7,5.4 C443.7,2.41766235 446.117662,0 449.1,0 Z" id="Rectangle" fill="#09D5B0" fill-rule="nonzero"></path>
                <path d="M5.4,243 C8.38233765,243 10.8,245.417662 10.8,248.4 L10.8,254.7 C10.8,257.682338 8.38233765,260.1 5.4,260.1 C2.41766235,260.1 0,257.682338 0,254.7 L0,248.4 C0,245.417662 2.41766235,243 5.4,243 Z" id="Rectangle" fill="#09D5B0" fill-rule="nonzero"></path>
                <path d="M449.1,243 C452.082338,243 454.5,245.417662 454.5,248.4 L454.5,254.7 C454.5,257.682338 452.082338,260.1 449.1,260.1 C446.117662,260.1 443.7,257.682338 443.7,254.7 L443.7,248.4 C443.7,245.417662 446.117662,243 449.1,243 Z" id="Rectangle" fill="#09D5B0" fill-rule="nonzero"></path>
            </g>
            <g id="Group-20" transform="translate(55.500000, 408.000000) scale(-1, 1) translate(-55.500000, -408.000000) translate(0.000000, 327.000000)" fill-rule="nonzero">
                <g id="Group-54" transform="translate(55.400000, 61.000000) scale(-1, 1) translate(-55.400000, -61.000000) translate(0.400000, 0.000000)">
                    <path d="M64.7261392,99.0085945 L50.8814736,119.531722 L34.9287575,110.0125 C23.5659491,103.527699 15.23643,94.6063974 9.94020028,83.248596 C8.11170034,79.3273653 24.5547525,76.8166749 21.7501915,70.8022744 C18.9456305,64.787874 7.18663288,77.3435517 3.53284744,69.5079835 C-1.43183534,58.8611869 -1.1680796,44.5220163 4.32411467,26.4904717 L5.34819674,26.7678635 C15.0936941,29.4335169 20.3742735,31.6409393 21.1899349,33.3901308 C22.4556164,36.1043935 12.1241086,44.3109712 17.2820945,47.7297312 C22.4400804,51.1484911 21.7036862,30.4259468 29.4207109,36.3682148 L30.1407739,36.9162258 C37.3104965,42.3086272 39.8919171,42.3357681 39.229223,45.7447011 C38.5448013,49.2654024 28.8616751,52.4840585 33.008399,58.7349088 C37.1551228,64.9857591 42.489287,48.3706967 45.1717297,50.0914538 C46.9600248,51.2386253 53.4781613,67.5443388 64.7261392,99.0085945 Z M31.7396064,80.5761025 C29.9038424,79.5594832 27.3342433,81.2884895 26.0002463,84.4379462 C24.6662493,87.587403 25.0730119,90.9646749 26.9087759,91.9812943 C28.74454,92.9979137 31.314139,91.2689074 32.648136,88.1194506 C33.982133,84.9699939 33.5753705,81.5927219 31.7396064,80.5761025 Z" id="Shape" fill="#09D5B0"></path>
                    <path d="M49.251516,112.178696 C44.0937216,110.654389 41.7692973,107.710601 42.2782433,103.347334 C43.0416623,96.8024328 51.9129792,90.8936557 48.9535404,84.9935154 L48.6372045,84.3698448 C46.0015964,79.233512 46.0619128,80.8871565 44.1922427,73.7977121 C42.2506622,66.4355967 49.1435759,66.2811972 46.5599646,56.6954616 C43.9763532,47.1097261 36.1264082,49.0153951 32.4751002,29.7690773 C28.8237923,10.5227595 40.0315275,0.0577063458 42.2093667,0.600702664 C44.387206,1.14369898 44.5505764,8.65246698 50.3831338,13.5233318 C56.2156912,18.3941965 59.0157335,16.6405249 66.1622297,25.9738612 C73.3087259,35.3071976 67.137085,42.1749228 69.8986219,46.289121 C72.5148148,50.1867825 76.1363418,52.8854279 79.0850788,56.1340533 L79.5700177,56.6808832 C82.5981987,60.1801896 94.3165736,58.1920846 90.5882994,75.6542886 C89.7897248,79.3945906 69.0405187,90.2126764 79.5427573,96.043586 L79.8706255,96.2187413 C87.0382714,99.9052161 89.7756956,108.333289 88.0828982,121.50296 L49.251516,112.178696 Z" id="Path-89" fill="#15113B"></path>
                    <path d="M89.8496324,114.097265 C99.8198909,107.043309 102.296617,98.0330912 97.2798092,87.0666113 L97.0996339,86.6787468 C89.2183018,69.9656439 106.707363,69.6681546 104.439618,58.980221 L104.304542,58.3628458 C102.256564,49.2756842 99.3130556,47.8530578 107.220609,34.9966409 C115.303887,21.8545258 95.9392414,6.53605151 95.9392414,6.53605151 L93.6754264,8.22267183 C88.1574084,12.3824754 76.5548595,21.8892264 78.2206601,31.4148389 L78.285827,31.7550384 C80.6482751,43.0946889 60.4703488,50.697527 62.9504646,62.0800874 L63.2541068,63.501786 C65.431509,73.9300596 65.6849662,80.9317009 59.3734639,87.5757754 L59.0864565,87.8730425 C54.4884081,92.5598087 55.5369226,101.29556 62.232,114.080297 L89.8496324,114.097265 Z" id="Path-5" fill="#FFD343"></path>
                </g>
                <g id="Group-2" transform="translate(17.000000, 109.400000)">
                    <g id="Group-35">
                        <g id="Group-34">
                            <path d="M2.56,0 L53.76,0 L50.0976403,48.8314623 C49.9974535,50.167286 48.8843856,51.2 47.5448101,51.2 L8.7751899,51.2 C7.4356144,51.2 6.32254645,50.167286 6.22235967,48.8314623 L2.56,0 Z" id="Rectangle" fill="#D8D8D8"></path>
                            <path d="M2.56,0 L53.76,0 C55.173849,0 56.32,1.14615104 56.32,2.56 L56.32,12.8 C56.32,14.213849 55.173849,15.36 53.76,15.36 L2.56,15.36 C1.14615104,15.36 0,14.213849 0,12.8 L0,2.56 C0,1.14615104 1.14615104,0 2.56,0 Z" id="Rectangle" fill="#F7F7F7"></path>
                        </g>
                    </g>
                </g>
            </g>
            <g id="Group-20" transform="translate(76.000000, 327.000000)" fill-rule="nonzero">
                <g transform="translate(158.000000, 7.000000)">
                    <polygon id="Path-25" fill="#8EECDB" points="22.2745992 0 20 157.420923 32.4354124 157.334963 34.7100116 0.914039151"></polygon>
                    <polygon id="Rectangle" fill="#09D5B0" points="0 112 53 112 53 121 0 121"></polygon>
                    <polygon id="Rectangle" fill="#09D5B0" points="20 140 33 140 53 149.507303 53 158 4.54747351e-13 158 4.54747351e-13 149.507303"></polygon>
                    <polygon id="Rectangle" fill="#8EECDB" points="53 149.507303 53 158 0 158 0 149.507303"></polygon>
                </g>
                <polygon id="Rectangle" fill="#8EECDB" points="0 0 343 0 343 9 0 9"></polygon>
                <polygon id="Rectangle" fill="#A1B2F2" points="290 0 343 0 343 9 290 9"></polygon>
            </g>
            <g id="Group-66" transform="translate(72.000000, 237.000000)">
                <g id="Group-22" transform="translate(223.000000, 41.000000)" fill-rule="nonzero">
                    <path d="M8.63552,46.44864 L107.78048,46.44864 C108.238567,46.44864 108.60992,46.8199929 108.60992,47.27808 L108.60992,48.664576 C108.60992,49.122663 108.238567,49.494016 107.78048,49.494016 L8.63552,49.494016 C8.17743294,49.494016 7.80608,49.122663 7.80608,48.664576 L7.80608,47.27808 C7.80608,46.8199929 8.17743294,46.44864 8.63552,46.44864 Z" id="Rectangle" fill="#383458"></path>
                    <path d="M8.62624,46.44864 L46.78048,46.44864 C47.2385671,46.44864 47.60992,46.8199929 47.60992,47.27808 L47.60992,48.664576 C47.60992,49.122663 47.2385671,49.494016 46.78048,49.494016 L8.62624,49.494016 C8.16815294,49.494016 7.7968,49.122663 7.7968,48.664576 L7.7968,47.27808 C7.7968,46.8199929 8.16815294,46.44864 8.62624,46.44864 Z" id="Rectangle" fill="#383458"></path>
                    <path d="M4.54555964,0 L70.7268782,0 C72.7393649,0 74.4384884,1.49519411 74.6944048,3.49134274 L79.6407318,42.0726931 C79.9216555,44.2638976 78.3730669,46.2679534 76.1818624,46.5488771 C76.0131728,46.5705039 75.8432755,46.5813504 75.6732052,46.5813504 L9.49188662,46.5813504 C7.47939994,46.5813504 5.78027645,45.0861563 5.52435996,43.0900077 L0.578032983,4.50865726 C0.297109333,2.3174528 1.84569791,0.313396991 4.03690238,0.0324733413 C4.20559204,0.0108464609 4.37548929,0 4.54555964,0 Z" id="Rectangle" fill="#383458"></path>
                    <path d="M6.54555964,0 L71.338091,0 C73.3505777,0 75.0497012,1.49519411 75.3056176,3.49134274 L80.2519446,42.0726931 C80.5328683,44.2638976 78.9842797,46.2679534 76.7930752,46.5488771 C76.6243856,46.5705039 76.4544883,46.5813504 76.284418,46.5813504 L11.4918866,46.5813504 C9.47939994,46.5813504 7.78027645,45.0861563 7.52435996,43.0900077 L2.57803298,4.50865726 C2.29710933,2.3174528 3.84569791,0.313396991 6.03690238,0.0324733413 C6.20559204,0.0108464609 6.37548929,0 6.54555964,0 Z" id="Rectangle" fill="#15113B"></path>
                    <path d="M8.44641289,2.20343448 L69.8088216,2.20343448 C71.6202467,2.20343448 73.1495546,3.54937958 73.379658,5.34613039 L77.836368,40.1461304 C78.08893,42.1182489 76.6949541,43.9217089 74.7228356,44.1742709 C74.5711749,44.1936936 74.4184309,44.2034345 74.2655315,44.2034345 L12.9031229,44.2034345 C11.0916977,44.2034345 9.56238977,42.8574894 9.3322864,41.0607386 L4.87557644,6.26073857 C4.62301437,4.28862005 6.01699029,2.4851601 7.9891088,2.23259803 C8.14076951,2.21317539 8.29351355,2.20343448 8.44641289,2.20343448 Z" id="Rectangle" fill="#F7F7F7"></path>
                </g>
                <g id="Group-22" transform="translate(109.500000, 66.000000) scale(-1, 1) translate(-109.500000, -66.000000) translate(55.000000, 41.000000)" fill-rule="nonzero">
                    <path d="M8.63552,46.44864 L107.78048,46.44864 C108.238567,46.44864 108.60992,46.8199929 108.60992,47.27808 L108.60992,48.664576 C108.60992,49.122663 108.238567,49.494016 107.78048,49.494016 L8.63552,49.494016 C8.17743294,49.494016 7.80608,49.122663 7.80608,48.664576 L7.80608,47.27808 C7.80608,46.8199929 8.17743294,46.44864 8.63552,46.44864 Z" id="Rectangle" fill="#FFD343"></path>
                    <path d="M8.62624,46.44864 L46.78048,46.44864 C47.2385671,46.44864 47.60992,46.8199929 47.60992,47.27808 L47.60992,48.664576 C47.60992,49.122663 47.2385671,49.494016 46.78048,49.494016 L8.62624,49.494016 C8.16815294,49.494016 7.7968,49.122663 7.7968,48.664576 L7.7968,47.27808 C7.7968,46.8199929 8.16815294,46.44864 8.62624,46.44864 Z" id="Rectangle" fill="#FFD343"></path>
                    <path d="M4.54555964,0 L70.7268782,0 C72.7393649,0 74.4384884,1.49519411 74.6944048,3.49134274 L79.6407318,42.0726931 C79.9216555,44.2638976 78.3730669,46.2679534 76.1818624,46.5488771 C76.0131728,46.5705039 75.8432755,46.5813504 75.6732052,46.5813504 L9.49188662,46.5813504 C7.47939994,46.5813504 5.78027645,45.0861563 5.52435996,43.0900077 L0.578032983,4.50865726 C0.297109333,2.3174528 1.84569791,0.313396991 4.03690238,0.0324733413 C4.20559204,0.0108464609 4.37548929,0 4.54555964,0 Z" id="Rectangle" fill="#FFD343"></path>
                    <path d="M6.54555964,0 L71.338091,0 C73.3505777,0 75.0497012,1.49519411 75.3056176,3.49134274 L80.2519446,42.0726931 C80.5328683,44.2638976 78.9842797,46.2679534 76.7930752,46.5488771 C76.6243856,46.5705039 76.4544883,46.5813504 76.284418,46.5813504 L11.4918866,46.5813504 C9.47939994,46.5813504 7.78027645,45.0861563 7.52435996,43.0900077 L2.57803298,4.50865726 C2.29710933,2.3174528 3.84569791,0.313396991 6.03690238,0.0324733413 C6.20559204,0.0108464609 6.37548929,0 6.54555964,0 Z" id="Rectangle" fill="#FFD343"></path>
                    <path d="M8.44641289,2.20343448 L69.8088216,2.20343448 C71.6202467,2.20343448 73.1495546,3.54937958 73.379658,5.34613039 L77.836368,40.1461304 C78.08893,42.1182489 76.6949541,43.9217089 74.7228356,44.1742709 C74.5711749,44.1936936 74.4184309,44.2034345 74.2655315,44.2034345 L12.9031229,44.2034345 C11.0916977,44.2034345 9.56238977,42.8574894 9.3322864,41.0607386 L4.87557644,6.26073857 C4.62301437,4.28862005 6.01699029,2.4851601 7.9891088,2.23259803 C8.14076951,2.21317539 8.29351355,2.20343448 8.44641289,2.20343448 Z" id="Rectangle" fill="#F7F7F7"></path>
                </g>
                <g id="Group-13" transform="translate(293.000000, 129.000000) scale(-1, 1) translate(-293.000000, -129.000000) translate(217.000000, 0.000000)">
                    <g id="Group-12" transform="translate(65.941811, 233.406870)"></g>
                    <g id="Group-24" transform="translate(0.000000, 50.000000)" fill-rule="nonzero">
                        <path d="M24.3382874,28.1869641 C18.3906907,41.9956147 15.7439509,48.89994 16.398068,48.89994 C17.0521851,48.89994 21.0170779,50.1898356 28.2927462,52.7696266 L28.2927462,62.7042995 C13.501872,62.3037485 5.07617032,60.9013815 3.01564126,58.4971983 C-0.0751523164,54.8909235 -0.839613366,51.4063779 4.01564126,38.4733306 C8.87089589,25.5402832 14.1527674,5.64591004 20.2782562,1.37290653 C26.403745,-2.90009697 27.0453859,3.80673812 26.7245655,7.7867021 C26.5106852,10.4400114 25.7152591,17.2400988 24.3382874,28.1869641 Z" id="Path-82" fill="#383458"></path>
                        <path d="M21.5,17.5 L24.4467447,27.3237256 L24.3382874,28.1869641 L24.3382874,28.1869641 L22.7466843,31.902399 C17.9843821,43.0869282 15.8609381,48.7518196 16.3763521,48.8970732 L16.4902976,48.9058911 C17.3682487,49.003092 21.3023982,50.2910038 28.2927462,52.7696266 L28.2927462,54.197 L12.011659,51.2594378 L21.5,17.5 Z" id="Path" fill-opacity="0.270405376" fill="#000000"></path>
                        <polygon id="Path-83" fill="#182160" points="24.2213319 50.912782 23.2130618 64.3656097 29.6251326 64.3656097 28.2927462 50.912782"></polygon>
                    </g>
                    <path d="M21.2393831,51.2094302 C26.9480576,44.2212365 67.0099469,47.7352959 67.9035054,48.2819738 C73.5688784,59.961819 76.8194394,68.7393233 77.6551883,74.6144868 C78.9088117,83.4272321 76.4998645,82.1781096 75.1767136,86.9721921 L72.8712916,134.547032 L67.1863948,134.547032 C38.6998267,135.985692 24.4565427,136.309562 24.4565427,135.518641 L24.473516,135.389379 C24.8281084,133.295383 28.739355,105.20335 28.6064443,100.546489 C28.4735335,95.8896274 15.9418112,57.6943785 21.2393831,51.2094302 Z" id="Path" fill="#383458" fill-rule="nonzero"></path>
                    <path d="M77.6551883,74.6144868 C77.8846748,76.2277351 77.991427,77.8389101 78.004573,79.424119 L74.9418112,87.546489 L66.0020255,65.9584845 L75.0963924,65.0228838 C76.4295562,68.797271 77.2824882,71.9944721 77.6551883,74.6144868 Z" id="Path" fill-opacity="0.270405376" fill="#000000" fill-rule="nonzero"></path>
                    <g id="Group-21" transform="translate(64.000000, 42.000000)">
                        <path d="M61.1553669,25.8429462 L61.1973038,25.8310984 C62.1923833,25.6350064 71.6877895,18.273479 72.7182396,13.5432915 C73.7486897,8.81310395 70.8955491,0.450396851 69.5364605,0.0365430699 C68.1773719,-0.377310711 67.1748297,2.68838474 61.1973038,11.0551011 L61.0414668,9.93700122 C60.3318226,5.02320805 59.626002,2.56631147 58.9240051,2.56631147 C57.1863014,2.56631147 57.2808282,10.3237128 56.798155,11.7669424 L56.7672146,11.8487954 C56.4216496,12.6477892 55.9987132,15.2094495 55.4984052,19.5337763 L50.3188961,24.1232282 L56.4472779,30.6698176 L57.1659827,29.8508653 C59.389369,27.3341634 60.7191637,25.9981904 61.1553669,25.8429462 L61.1553669,25.8429462 Z" id="Path" fill="#FFA475"></path>
                        <path d="M3.33184547,29.5 C5.80215423,33.6538363 27.6044274,63 32.83792,63 C36.326915,63 45.8352245,51.1666667 61.3628485,27.5 L53.1909496,20.2113903 L33.5,39.6977021 C17.8015647,18.4872638 8.08321141,7.31940549 4.34494004,6.19412708 C-1.26246701,4.50620946 0.861536706,25.3461637 3.33184547,29.5 Z" id="Path-80" fill="#383458" fill-rule="nonzero"></path>
                        <polygon id="Path-81" fill="#182160" fill-rule="nonzero" points="50.3929313 22.5848117 60.1043852 31.9213375 63.2753688 26.8633815 53.02015 19.4099665"></polygon>
                    </g>
                    <g id="Group-31" transform="translate(18.934175, 131.406870)">
                        <path d="M71.4250076,14.5011274 C76.0405654,19.2704177 71.8903338,47.7996778 58.9743128,100.088908 L60.0840135,101.481188 C66.3973664,109.49316 68.2310393,113.499145 65.5850323,113.499145 C62.7899544,113.499145 57.448191,109.475378 49.5597422,101.427844 L49.957202,88.8851952 C50.3258776,76.5739909 50.5236217,67.4992452 50.5504345,61.660958 L50.5535889,60.3469704 C50.5535889,52.9259288 51.6242022,44.4093918 53.7654287,34.7973593 L51.5742697,35.1871107 C28.2343478,39.2578471 13.81527,39.12793 8.31703619,34.7973593 C2.64875396,30.3328535 2.64875396,19.9314436 8.31703619,3.59312969 L10.5447171,3.74465213 C46.6083308,6.24173114 66.901761,9.82722289 71.4250076,14.5011274 Z" id="Path-38" fill="#FFA475"></path>
                        <path d="M70.7470296,45.9726089 L52.4191663,41.4706146 C52.6739424,40.0513236 52.9548139,38.6053307 53.2617809,37.1326358 L72.693709,32.2344867 L72.5374178,33.6535995 C72.1224465,37.2670938 71.5256505,41.3734303 70.7470296,45.9726089 Z" id="Path" fill-opacity="0.0964543269" fill="#000000" fill-rule="nonzero"></path>
                        <path d="M95.4348777,11.6570233 C100.050435,16.4263136 103.734164,46.3736164 106.486063,101.498932 L107.64923,102.778655 C114.36005,110.249473 116.243575,113.984882 113.299806,113.984882 C108.638838,113.984882 98.3961343,104.471811 97.4348777,102.935989 C96.4736211,101.400168 89.9305937,72.4824968 84.7655203,51.1162671 C83.8353285,47.2683661 83.4571887,42.0312348 83.6311007,35.4048732 L81.1135012,35.7460858 C54.3055939,39.3205991 38.0455009,39.5647654 32.3332224,36.4785846 C26.4442755,33.2969548 22.3551429,24.4516563 20.0658245,9.94268896 L24.1171974,9.62764708 C67.1852265,6.35435294 90.9577866,7.03081167 95.4348777,11.6570233 Z" id="Path-38" fill="#FFA475"></path>
                        <path d="M77.522282,7.80399833 L77.6512078,7.91216745 C84.8535808,13.9500234 88.1856399,19.5626094 87.6473854,24.7499252 C87.1557384,29.4880702 85.575819,33.4954025 83.6081806,36.4880627 C83.6135997,36.1314252 83.621511,35.7702612 83.6311007,35.4048732 L81.0270403,35.7576077 C79.3126064,35.985942 77.6413855,36.2006324 76.0133774,36.4016788 C76.2438311,36.0538912 76.4934849,35.6910285 76.7624653,35.313058 L77.0378926,34.9300503 L69.7487625,7.60082686 C72.5646411,7.62255383 75.1558142,7.69027765 77.522282,7.80399833 Z" id="Path" fill-opacity="0.0964543269" fill="#000000" fill-rule="nonzero"></path>
                        <path d="M47.783695,103.288152 L47.783695,122.25982 C47.783695,122.812104 48.2314103,123.25982 48.783695,123.25982 L49.5855463,123.25982 C50.0652862,123.25982 50.4774323,122.91913 50.5676891,122.447957 L52.5529744,112.084046 L53.8653866,113.572377 C59.6084214,120.030672 63.1533822,123.25982 64.5002692,123.25982 L76.2039773,123.25982 L76.2039773,123.25982 C77.3085362,123.25982 78.2039582,122.364379 78.2039582,121.25982 C78.2039582,120.804572 78.0486432,120.362946 77.7636775,120.007918 C76.9810008,119.032809 76.1713594,118.273496 75.3347533,117.729981 L74.8854118,117.452521 C73.0183051,116.259198 67.5591041,111.477434 58.5078086,103.107228 C58.2252585,102.845965 57.8733411,102.671749 57.4942592,102.605492 L50.1280368,101.318018 C49.0399617,101.127843 48.0037355,101.855735 47.8135608,102.94381 C47.7936876,103.057514 47.783695,103.172724 47.783695,103.288152 Z" id="Path-49" fill="#15113B"></path>
                        <path d="M94.783695,102.208403 L94.783695,122.25982 C94.783695,122.812104 95.2314103,123.25982 95.783695,123.25982 L96.5855463,123.25982 C97.0652862,123.25982 97.4774323,122.91913 97.5676891,122.447957 L99.5529744,112.084046 L100.865387,113.572377 C106.608421,120.030672 110.153382,123.25982 111.500269,123.25982 L125.667392,123.25982 L125.667392,123.25982 C126.771964,123.25982 127.667395,122.364391 127.667395,121.25982 C127.667395,120.95984 127.599915,120.663702 127.469951,120.393336 C126.927671,119.265222 126.198085,118.400415 125.281195,117.798916 L124.594983,117.374516 C122.369854,115.95635 116.085495,111.461016 105.741908,103.888513 C105.641456,103.814947 105.52814,103.760806 105.407799,103.728857 L96.040295,101.241885 C95.5065021,101.100169 94.9588936,101.41801 94.8171773,101.951803 C94.79495,102.035525 94.783695,102.12178 94.783695,102.208403 Z" id="Path-49" fill="#15113B"></path>
                        <path d="M6.03658812,3.55271368e-14 C4.50874859,2.67332051 3.5077145,4.505847 3.03348586,5.49757948 C2.85413397,5.87264983 2.69319781,6.22579303 2.55067738,6.5570091 C0.493841856,11.3370746 -1.42108547e-14,13.5608066 -1.42108547e-14,20.4990409 C-1.42108547e-14,40.2922745 25.7845434,45.4903041 77.3536302,36.0931297 C78.8944983,33.8599636 80.0438232,31.0401299 80.8016051,27.6336284 C81.559387,24.2271269 81.8028249,22.8929044 81.5319189,23.6309608 L76.2615922,21.7356798 C79.8127368,20.109911 81.576849,19.0804847 81.5539289,18.6474009 C81.3219072,14.263266 79.2122968,9.82670817 75.2250977,5.33772749 L54.2165098,3.12270598 L53.6417375,3.55271368e-14 L6.03658812,3.55271368e-14 Z" id="Path-48" fill="#383458" fill-rule="nonzero"></path>
                        <path d="M56.6227992,3.37587708 L75.2250977,5.33772749 C79.2122968,9.82670817 81.3219072,14.263266 81.5539289,18.6474009 C81.5747653,19.0411134 80.1187156,19.927671 77.1857796,21.3070736 L76.2615922,21.7356798 L81.5319189,23.6309608 L81.5902439,23.4868496 C81.7573139,23.1368531 81.4944343,24.5191127 80.8016051,27.6336284 C80.2012142,30.332601 79.355036,32.6632989 78.2630706,34.6257219 L77.6915991,33.3276405 C73.6194046,24.1491185 70.0492358,17.6450668 66.9799249,13.8137835 C63.8579632,9.91677851 60.616159,6.60553135 57.2545123,3.88004199 L56.6227992,3.37587708 Z" id="Path" fill="#15113B" fill-rule="nonzero"></path>
                    </g>
                    <path d="M25.9707636,128.40687 L73.575913,128.40687 L74.1815427,131.558928 L74.1815427,131.558928 L71.4342038,131.699344 C62.351568,132.145111 54.0205159,132.368003 46.4403228,132.368003 C38.8225256,132.368003 31.3839482,132.142894 24.1245908,131.692675 L24.6584438,130.727923 C24.8499584,130.384603 25.0550497,130.019538 25.2737566,129.632704 L25.9707636,128.40687 Z" id="Path" fill="#FFFFFF"></path>
                    <g id="Group-23" transform="translate(30.000000, 0.000000)">
                        <path d="M33.6410724,7.3679667 C36.3316173,12.4993153 34.3639189,40.258468 27.4209084,40.258468 C25.694311,40.258468 24.6389362,40.559464 24.2547841,41.161456 L24.2547841,47.6336142 L10.6971289,47.6336142 C10.6596115,44.2644778 10.3107693,41.2343437 9.65060242,38.543212 C8.66035203,34.5065143 2.25091153,16.9068708 6.88948997,8.31854833 C11.5280684,-0.269774083 30.9505275,2.23661811 33.6410724,7.3679667 Z" id="Path-46" fill="#FFA475"></path>
                        <path d="M27.4209084,40.258468 C25.694311,40.258468 24.6389362,40.559464 24.2547841,41.161456 L24.2546201,41.8156031 L9.8203402,39.2897784 C9.76625363,39.0328708 9.70967437,38.7840153 9.65060242,38.543212 L9.55687221,38.1795758 C9.50419337,37.9828188 9.44305138,37.7640063 9.37460478,37.5247265 L31.8369665,35.5046031 C30.6983252,38.377625 29.2281699,40.258468 27.4209084,40.258468 Z" id="Path" fill-opacity="0.0964543269" fill="#000000" fill-rule="nonzero"></path>
                        <path d="M1.9388434,40.8785253 C5.19028677,39.9935761 7.39998787,39.4212331 8.56794671,39.1614962 C10.8902485,38.6450503 13.6430574,38.2667532 16.4791865,38.2667532 C18.9074372,38.2667532 22.7584488,38.6450503 28.0105166,39.8285253 C29.8617479,40.2456727 34.0664914,41.0659516 40.6247473,42.2893621 C39.6549307,20.352429 36.9486857,7.53139144 32.5060123,3.82624946 C29.3895619,1.22716323 25.0034801,0.134401256 19.3477669,0.547963535 C14.1635841,-0.782665281 9.87031071,0.310096693 6.46794671,3.82624946 C-0.204840197,10.7222012 -1.7145413,23.0729599 1.9388434,40.8785253 Z" id="Path-75" fill="#15113B" fill-rule="nonzero"></path>
                    </g>
                    <polygon id="Rectangle" fill="#15113B" fill-rule="nonzero" points="38 45 56 45 57 49 37 49"></polygon>
                </g>
                <g id="Group" transform="translate(80.500000, 127.000000) scale(-1, 1) translate(-80.500000, -127.000000) translate(10.000000, 0.000000)">
                    <g id="Group-17" transform="translate(74.700000, 0.000000)">
                        <path d="M13.8761519,40.9539508 L12.5525461,54.4627731 L28.8124455,54.4627731 C27.5582338,50.2680286 26.931128,46.6640162 26.931128,43.6507359 C26.931128,39.1308153 35.0984391,28.3764902 35.0984391,20.4254401 C35.0984391,12.4743899 27.4894708,3.08753739 17.2421829,7.07221602 C6.99489505,11.0568947 5.4,16.8455999 5.4,22.7299265 C5.4,28.6142531 7.36190018,39.3734806 8.41313804,40.4207061 C9.11396328,41.1188564 10.9349679,41.2966047 13.8761519,40.9539508 Z" id="Path" fill="#C16F60"></path>
                        <path d="M29.4466725,36.406832 C27.8129606,38.4118938 15.9445184,38.0146922 14.0908594,36.406832 C12.2372004,34.7989718 12.5906837,26.3507987 10.2749896,25.0216772 C7.95929556,23.6925556 8.24309679,27.45 7.24945873,27.45 C6.25582067,27.45 6.64478761,23.1377677 5.40640899,22.6215248 C4.16803036,22.105282 1.3895219,18.9777716 3.39796544,15.6664094 C5.40640899,12.3550472 -1.42460936,9.09100615 0.274217425,5.74011694 C1.97304421,2.38922774 4.84571214,4.57156462 7.95929556,3.18839728 C11.072879,1.80522994 11.495159,0.632780587 14.0908594,0.0919284757 C16.6865599,-0.448923636 17.5383393,1.57335665 19.7741212,1.57335665 C22.009903,1.57335665 25.4317738,-0.713643326 28.0129996,0.871334504 C30.5942253,2.45631233 28.8589818,6.10047225 30.175477,7.32791679 C31.4919721,8.55536133 34.6197689,7.71319402 36.436159,9.64226345 C38.2525492,11.5713329 35.1480147,14.5633564 35.7920869,15.6664094 C36.436159,16.7694625 37.8,17.3332329 37.8,20.6905016 C37.8,24.0477702 36.889772,25.2692497 35.7920869,27.437058 C34.6944018,29.6048664 31.0803843,34.4017703 29.4466725,36.406832 Z" id="Path-29" fill="#383458" fill-rule="nonzero"></path>
                    </g>
                    <path d="M122.955253,55.2422593 L123.178099,55.702385 C126.873415,63.4307227 144.765728,104.019853 139.439426,113.245279 C134.004423,122.65898 97.3486482,125.595262 94.0489512,125.585884 C93.186623,125.583405 93.0981866,124.728892 92.4035974,124.325506 C91.7769306,123.961566 90.644459,124.656138 90.5959667,123.426121 L90.5871712,117.798455 C90.5839904,117.18618 90.5799793,116.665091 90.5750903,116.235188 C90.5669018,115.50389 91.6331127,115.675666 92.2421429,115.166539 C92.908714,114.609309 92.8448492,114.122621 94.3469071,113.23537 C95.8489649,112.34812 121.056359,105.056876 121.941731,103.523366 C122.53198,102.501026 118.76211,89.1274911 114.375732,77.3941583 L114.103322,76.5579012 C109.671436,63.0533031 106.16978,57.0742313 114.497861,53.6825559 C120.20308,51.3590614 122.647757,54.6678925 122.955253,55.2422593 L122.955253,55.2422593 Z" id="Path" fill="#09D5B0" fill-rule="nonzero"></path>
                    <path d="M114.84308,78.6566901 L118.503381,67.6133209 L119.401031,70.6319526 C126.402944,94.3190398 129.101809,106.918923 127.497628,108.431603 C125.826607,110.00731 117.09239,113.707837 101.294977,119.533182 L104.501338,109.860109 L108.169117,108.688165 C114.839172,106.542469 121.49443,104.298115 121.941731,103.523366 C122.510903,102.537531 119.025774,90.0668074 114.84308,78.6566901 Z" id="Path" fill="#09D5B0" fill-rule="nonzero"></path>
                    <g id="Group-11" transform="translate(0.000000, 127.800000)">
                        <polygon id="Path-39" fill="#C16F60" points="21.5423287 89.7517129 24.1034941 113.087482 27.5392835 116.518269 34.5278241 113.087482 34.5278241 89.7517129"></polygon>
                        <polygon id="Path-39" fill="#C16F60" points="63.8423287 90.6517129 66.5423287 113.87781 70.7392835 117.418269 77.50803 112.477468 76.8278241 90.6517129"></polygon>
                        <path d="M66.4818307,112.117909 L77.9087876,112.117909 L77.8899435,124.711941 C77.8892034,125.206573 77.4894344,125.607907 76.9948093,125.610581 L43.3509645,125.792453 C42.8539155,125.795126 42.4487997,125.394367 42.4460998,124.897318 C42.4460998,124.850956 42.4491945,124.804644 42.4560798,124.758795 L42.7808049,122.59647 C42.8273587,122.286471 43.0318588,122.023029 43.3206294,121.901054 L66.4818307,112.117909 Z" id="Path-85" fill="#15113B"></path>
                        <path d="M44.1244702,19.2565117 C39.9704682,23.548873 45.9094694,53.0804499 61.9414739,107.851242 L78.1019469,107.851242 L72.1992445,42.5596868 C89.1718902,41.4358323 100.234886,38.9508209 105.388233,35.1046526 C112.724363,29.6293772 114.050274,18.2278263 109.365965,0.9 C95.9402252,3.67039746 86.5491796,5.56684968 81.1928279,6.58935666 C60.8864943,10.4657578 47.1008282,16.1810187 44.1244702,19.2565117 Z" id="Path-38" fill="#182160" fill-rule="nonzero"></path>
                        <path d="M43.9924184,36.5727581 L78.9653,38.5814855 L47.9468049,55.9603824 L47.5426,54.2189069 C46.0250991,47.6231502 44.8750377,41.9462363 44.0924158,37.1881652 L43.9924184,36.5727581 L43.9924184,36.5727581 Z" id="Path" fill="#383458" fill-rule="nonzero"></path>
                        <path d="M6.15336964,14.6899914 C1.99936764,18.9823527 6.49540238,50.036103 19.6414739,107.851242 L35.8019469,107.851242 L34.0019469,41.5993581 C63.6883836,40.2628249 81.181628,38.1628249 86.4816802,35.2993581 C91.7817325,32.4358914 95.5964951,22.8661025 97.9259682,6.5899914 L63.4484187,0.560591209 C27.3979756,7.76244873 8.29962589,12.4722488 6.15336964,14.6899914 Z" id="Path-38" fill="#15113B" fill-rule="nonzero"></path>
                        <polygon id="Path" fill="#383458" fill-rule="nonzero" points="34.0019469 41.5993581 34.7876749 70.5253581 24.9256749 41.5993581"></polygon>
                        <path d="M63.4484187,0.560591209 L89.0659897,5.04128232 L96.0720245,3.62606051 C99.9463604,2.83801923 104.377674,1.9293324 109.365965,0.9 C109.619797,2.21264683 109.851518,3.4886392 110.061127,4.72797712 C101.625506,10.4022149 91.6383504,13.2395976 80.1,13.2395976 C68.4784831,13.2395976 55.240659,10.6009275 40.3865278,5.32358731 L44.899748,4.36146237 C50.4823733,3.18250714 56.6653222,1.91566179 63.4484187,0.560591209 Z" id="Path" fill="#383458" fill-rule="nonzero"></path>
                        <path d="M24.1818307,112.117909 L34.7087876,112.117909 L34.6899433,124.712066 C34.6892033,125.206649 34.2895108,125.607963 33.7949354,125.610706 L1.05111292,125.792306 C0.554064285,125.795048 0.148892205,125.394345 0.146121908,124.897296 C0.146121908,124.850892 0.149210403,124.804538 0.156101932,124.758647 L0.480804933,122.59647 C0.527358682,122.286471 0.731858784,122.023029 1.02062942,121.901054 L24.1818307,112.117909 Z" id="Path-85" fill="#15113B"></path>
                    </g>
                    <path d="M94.1978639,52.6366654 C97.4448936,52.6366654 100.663213,51.4759931 103.852822,49.1546485 C111.210431,48.8579755 116.896103,50.0186478 120.909836,52.6366654 C121.807516,53.2221901 122.494208,54.1002437 122.969913,55.2708262 C114.686597,100.594643 110.544939,124.866375 110.544939,128.086021 C110.544939,132.91549 94.7497341,138.998833 83.1922909,137.618047 C71.6348477,136.237262 59.6649797,133.465792 59.033082,129.342198 C58.4011844,125.218605 56.5628546,124.052486 55.6117286,119.0807 C54.9776445,115.766175 56.4214816,100.52952 59.9432397,73.3707352 L64.1518104,51.2205474 C66.1028065,49.9088754 67.4160882,49.2202425 68.0916556,49.1546485 C71.1623175,48.8565035 77.5924533,48.8565035 87.382063,49.1546485 C88.6789006,51.4759931 90.9508342,52.6366654 94.1978639,52.6366654 Z" id="Path-2" fill="#15113B" fill-rule="nonzero"></path>
                    <path d="M66.0944022,63.4458977 L58.5559522,127.263573 C57.7339323,124.637286 56.3819371,123.106783 55.6117286,119.0807 L55.576177,118.867522 C55.0362292,115.15194 56.4919167,99.9863447 59.9432397,73.3707352 L61.033609,67.6268977 L66.0944022,63.4458977 Z" id="Path" fill-opacity="0.270405376" fill="#000000" fill-rule="nonzero"></path>
                    <g id="Group-18" transform="translate(1.000000, 30.600000)">
                        <path d="M20.6027087,27.1464216 L14.4712731,31.5642505 L14.185206,31.0524093 C13.202197,29.3404865 12.4105602,28.4635378 11.8102956,28.4215632 C10.8241466,28.3526049 1.63768017,18.6626543 0.971519268,13.779845 C0.305358363,8.89703566 4.30201341,0.523558093 5.02856229,0.254004235 C5.89996104,-0.0692897677 8.94629637,4.22875556 14.1675683,13.1481402 L14.2657042,12.400672 C14.9780185,7.16731049 15.8839799,4.5890758 16.9835885,4.66596792 C18.674491,4.78420734 18.030598,12.6704853 18.3975907,14.1717313 L18.4218743,14.2571173 C18.8409928,15.5117829 18.3313752,19.4873186 18.7408295,20.9058564 L19.779957,24.4088414 C20.0186075,25.2051957 20.2928581,26.1177225 20.6027087,27.1464216 Z" id="Path-20" fill="#C16F60"></path>
                        <path d="M22.9288492,26.8421564 C24.6084273,27.030778 29.7243969,33.2622608 38.2767579,45.5366047 L43.8309909,39.7355125 C56.6344765,26.4244579 63.7654224,19.4889507 65.2238285,18.9289909 C69.6395083,17.2335762 70.3683039,32.3625329 68.6454934,37.0133209 C65.4286942,45.6971843 40.2644141,68.7871694 35.9221753,67.9929714 C29.3433389,66.7896984 12.2279924,36.1305614 12.2279924,32.402431 C12.2279924,31.9471336 13.3835838,31.2754725 13.4420762,30.7651495 C13.4909114,30.3390814 12.1317283,28.5262047 12.2279924,28.0896093 C12.6803291,26.0380851 17.9766226,25.0943758 19.2472319,25.220954 C20.5178412,25.3475323 20.8393868,27.2432773 21.0956584,27.1459001 C21.7572295,26.8945183 22.3898751,26.781628 22.9288492,26.8421564 Z" id="Path" fill="#09D5B0" fill-rule="nonzero"></path>
                        <path d="M12.7145713,31.7007532 L37.5593223,67.7336907 C36.8907442,67.9741092 36.3357219,68.0686093 35.9221753,67.9929714 C29.3433389,66.7896984 12.2279924,36.1305614 12.2279924,32.402431 C12.2279924,32.2001936 12.4559934,31.9552672 12.7145713,31.7007532 Z" id="Path" fill="#09D5B0" fill-rule="nonzero"></path>
                        <path d="M19.663971,25.212643 C20.7160653,25.3155193 21.2013675,26.4554725 21.5005602,27.0418323 L12.9928995,31.4997819 L12.9994233,31.4601831 L12.9994233,31.4601831 C13.0554881,30.9800633 11.4950923,28.9372024 11.6056072,28.44522 C12.1249076,26.1334364 18.2052615,25.0700069 19.663971,25.212643 Z" id="Path" fill="#FFFFFF"></path>
                    </g>
                    <path d="M110.70812,128.993023 C110.541311,133.769792 96.8862829,138.903181 84.9195715,137.787736 L84.5461786,137.750837 C73.4081761,136.587222 59.6627586,133.989543 59.1516892,129.947482 C59.0822015,129.397902 58.9638946,128.889349 58.8093756,128.408254 L58.6368856,128.320348 C66.0831008,132.231303 74.77242,134.521533 84.7048432,135.19104 C94.093216,135.823875 102.770132,133.626073 110.73559,128.597636 C110.721056,128.746043 110.712154,128.877503 110.70812,128.993023 Z" id="Path" fill="#FFFFFF"></path>
                    <path d="M87.382063,49.1546485 C88.6789006,51.4759931 90.9508342,52.6366654 94.1978639,52.6366654 C97.4448936,52.6366654 100.663213,51.4759931 103.852822,49.1546485 C104.68825,49.1126337 105.501955,49.0902417 106.293938,49.0874723 C105.521521,52.5827127 100.828749,55.2708262 95.1549732,55.2708262 C89.4665701,55.2708262 84.7642357,52.5688348 84.0104504,49.0608396 L86.5118781,49.1286803 C86.7989207,49.1370642 87.0889863,49.1457227 87.382063,49.1546485 Z" id="Path" fill="#FFFFFF"></path>
                </g>
                <g id="Group-8" transform="translate(253.000000, 79.000000)" fill-rule="nonzero">
                    <polygon id="Path-25" fill="#8EECDB" points="47.1338896 88.788747 34.8592904 176.20967 41.2947028 176.12371 53.569302 89.7027861"></polygon>
                    <polygon id="Path" fill="#8EECDB" points="66.2947028 88.788747 78.569302 176.20967 72.1338896 176.12371 59.8592904 89.7027861"></polygon>
                    <polygon id="Path-25" fill="#8EECDB" points="13.1338896 88.788747 0.859290416 176.20967 7.29470279 176.12371 19.569302 89.7027861"></polygon>
                    <polygon id="Path" fill="#8EECDB" points="100.294703 88.788747 112.569302 176.20967 106.13389 176.12371 93.8592904 89.7027861"></polygon>
                    <path d="M0,87.3 C0,83.5996922 2.99969218,80.6 6.7,80.6 L51.3863142,80.6 C57.4519919,80.6 62.7369567,76.4661657 64.1977856,70.5790252 L79.2245971,10.0209748 C80.685426,4.13383426 85.9703908,0 92.0360685,0 L114.696019,0 C121.986177,0 127.896019,5.9098413 127.896019,13.2 C127.896019,14.1232608 127.799154,15.043974 127.607017,15.9470209 L113.224038,83.5470209 C111.927216,89.642083 106.544535,94 100.31304,94 L6.7,94 C2.99969218,94 0,91.0003078 0,87.3 Z" id="Path" fill="#8EECDB"></path>
                    <path d="M88.370206,0.517886537 L69.4996324,76.0014703 C68.0305813,81.8776747 62.7508043,86 56.6937514,86 L0.126062509,86 C0.731356684,82.9218133 3.44453407,80.6 6.7,80.6 L51.3863142,80.6 C57.4519919,80.6 62.7369567,76.4661657 64.1977856,70.5790252 L79.2245971,10.0209748 C80.3538533,5.47007242 83.7682849,1.9668871 88.0620333,0.61106421 L88.370206,0.517886537 Z" id="Path" fill="#09D5B0"></path>
                </g>
                <g id="Group-8" transform="translate(64.000000, 166.500000) scale(-1, 1) translate(-64.000000, -166.500000) translate(0.000000, 78.000000)" fill-rule="nonzero">
                    <polygon id="Path-25" fill="#8EECDB" points="47.1338896 88.788747 34.8592904 176.20967 41.2947028 176.12371 53.569302 89.7027861"></polygon>
                    <polygon id="Path" fill="#8EECDB" points="66.2947028 88.788747 78.569302 176.20967 72.1338896 176.12371 59.8592904 89.7027861"></polygon>
                    <polygon id="Path-25" fill="#8EECDB" points="13.1338896 88.788747 0.859290416 176.20967 7.29470279 176.12371 19.569302 89.7027861"></polygon>
                    <polygon id="Path" fill="#8EECDB" points="100.294703 88.788747 112.569302 176.20967 106.13389 176.12371 93.8592904 89.7027861"></polygon>
                    <path d="M0,87.3 C0,83.5996922 2.99969218,80.6 6.7,80.6 L51.3863142,80.6 C57.4519919,80.6 62.7369567,76.4661657 64.1977856,70.5790252 L79.2245971,10.0209748 C80.685426,4.13383426 85.9703908,0 92.0360685,0 L114.696019,0 C121.986177,0 127.896019,5.9098413 127.896019,13.2 C127.896019,14.1232608 127.799154,15.043974 127.607017,15.9470209 L113.224038,83.5470209 C111.927216,89.642083 106.544535,94 100.31304,94 L6.7,94 C2.99969218,94 0,91.0003078 0,87.3 Z" id="Path" fill="#8EECDB"></path>
                    <path d="M88.370206,0.517886537 L69.4996324,76.0014703 C68.0305813,81.8776747 62.7508043,86 56.6937514,86 L0.126062509,86 C0.731356684,82.9218133 3.44453407,80.6 6.7,80.6 L51.3863142,80.6 C57.4519919,80.6 62.7369567,76.4661657 64.1977856,70.5790252 L79.2245971,10.0209748 C80.3538533,5.47007242 83.7682849,1.9668871 88.0620333,0.61106421 L88.370206,0.517886537 Z" id="Path" fill="#09D5B0"></path>
                </g>
                <g id="Group-25" transform="translate(205.000000, 84.500000) scale(-1, 1) translate(-205.000000, -84.500000) translate(192.000000, 77.000000)" fill-rule="nonzero">
                    <path d="M6.75439005,1.9077581 L1.75,1.9077581 C0.783501688,1.9077581 0,2.69125978 0,3.6577581 L0,6.05479925 C0,8.34514684 1.85669357,10.2018404 4.14704116,10.2018404 L6.75439005,10.2018404 C7.16860361,10.2018404 7.50439005,9.86605397 7.50439005,9.45184041 C7.50439005,9.03762685 7.16860361,8.70184041 6.75439005,8.70184041 L4.14704116,8.70184041 C2.68512069,8.70184041 1.5,7.51671972 1.5,6.05479925 L1.5,3.6577581 C1.5,3.51968691 1.61192881,3.4077581 1.75,3.4077581 L6.75439005,3.4077581 C7.16860361,3.4077581 7.50439005,3.07197166 7.50439005,2.6577581 C7.50439005,2.24354453 7.16860361,1.9077581 6.75439005,1.9077581 Z" id="Path-148" fill="#D8D8D8"></path>
                    <path d="M23.3724485,0 C24.477018,0 25.3724485,0.8954305 25.3724485,2 L25.3724485,7 C25.3724485,10.5999309 22.6549703,13.5651607 19.1594518,13.9562516 L19.1586103,15 L10.4039913,15 L10.4035197,13.9334844 C6.99609069,13.4616777 4.37244849,10.5372311 4.37244849,7 L4.37244849,2 C4.37244849,0.8954305 5.26787899,0 6.37244849,0 L23.3724485,0 Z" id="Path" fill="#514E6D"></path>
                </g>
                <g id="Group-48" transform="translate(156.000000, 60.000000)" fill-rule="nonzero">
                    <path d="M0.9,1.8 L18.9,1.8 L17.1527412,29.7561405 C17.1230955,30.2304719 16.7297509,30.6 16.2544939,30.6 L3.5455061,30.6 C3.07024915,30.6 2.67690449,30.2304719 2.64725878,29.7561405 L0.9,1.8 Z" id="Rectangle" fill="#D8D8D8"></path>
                    <path d="M1.80177636,9.90167126 L17.9453088,9.9 C18.4423651,9.9 18.8453088,10.3029437 18.8453088,10.8 L18.2593739,20.7530323 C18.2312987,21.2286626 17.8373959,21.6 17.3609377,21.6 L2.46076392,21.6 C1.98499755,21.6 1.59141576,21.229705 1.56243517,20.7548221 L0.958269749,10.8548221 C0.927992319,10.3586889 1.30564309,9.93194869 1.80177636,9.90167126 Z" id="Rectangle" fill="#09D5B0"></path>
                    <path d="M16.2,0 L16.2,0.899 L18.9,0.9 C19.3970563,0.9 19.8,1.30294373 19.8,1.8 L19.8,3.6 L0,3.6 L0,1.8 C0,1.30294373 0.402943725,0.9 0.9,0.9 L3.6,0.899 L3.6,0 L16.2,0 Z" id="Path" fill="#09D5B0"></path>
                </g>
            </g>
        </g>
    </g>
</svg>