<?xml version="1.0" encoding="UTF-8"?>
<svg width="97px" height="97px" viewBox="0 0 97 97" version="1.1" xmlns="http://www.w3.org/2000/svg" xmlns:xlink="http://www.w3.org/1999/xlink">
    <!-- Generator: Sketch 63.1 (92452) - https://sketch.com -->
    <title>Music_dj_vinyl_turntable_scratch_play_sound</title>
    <desc>Created with Sketch.</desc>
    <g id="Page-1" stroke="none" stroke-width="1" fill="none" fill-rule="evenodd">
        <g id="Music_dj_vinyl_turntable_scratch_play_sound" fill="#09D5B0" fill-rule="nonzero">
            <path d="M88.6857143,34.6428571 C84.1821429,14.2035714 66.1678571,0 45.0357143,0 C20.0928571,0 0,20.0928571 0,45.0357143 C0,69.9785714 20.0928571,90.0714286 45.0357143,90.0714286 C45.3821429,90.0714286 46.075,90.0714286 46.4214286,89.725 C47.8071429,91.4571429 49.1928571,93.5357143 50.925,95.2678571 C51.6178571,95.9607143 52.6571429,96.3071429 53.6964286,96.3071429 C54.3892857,96.3071429 55.4285714,95.9607143 56.1214286,95.6142857 C57.5071429,94.2285714 57.8535714,92.15 56.4678571,90.7642857 C48.8464286,82.1035714 42.9571429,72.0571429 38.8,61.3178571 C38.4535714,60.625 38.8,59.9321429 39.4928571,59.5857143 C39.8392857,59.2392857 40.5321429,59.2392857 40.8785714,59.2392857 C41.225,59.2392857 41.5714286,59.5857143 41.9178571,59.9321429 L49.5392857,73.4428571 C50.2321429,74.8285714 51.9642857,75.5214286 53.35,75.175 C54.7357143,74.8285714 55.775,73.4428571 55.775,71.7107143 L55.775,38.1071429 C55.775,37.0678571 56.4678571,36.375 57.5071429,36.375 C58.5464286,36.375 58.8928571,37.0678571 58.8928571,38.1071429 L58.8928571,60.2785714 C58.8928571,62.3571429 60.2785714,63.7428571 62.3571429,63.7428571 C64.4357143,63.7428571 65.8214286,62.3571429 65.8214286,60.2785714 L65.8214286,38.1071429 L65.8214286,32.9107143 C65.8214286,31.8714286 66.5142857,31.1785714 67.5535714,31.1785714 C68.5928571,31.1785714 69.2857143,31.8714286 69.2857143,32.9107143 L69.2857143,38.1071429 L69.2857143,60.2785714 C69.2857143,62.3571429 70.6714286,63.7428571 72.75,63.7428571 C74.8285714,63.7428571 76.2142857,62.3571429 76.2142857,60.2785714 L76.2142857,38.1071429 C76.2142857,37.0678571 76.9071429,36.375 77.9464286,36.375 C78.9857143,36.375 79.6785714,37.0678571 79.6785714,38.1071429 L79.6785714,43.3035714 L79.6785714,60.625 C79.6785714,62.7035714 81.0642857,64.0892857 83.1428571,64.0892857 C85.2214286,64.0892857 86.6071429,62.7035714 86.6071429,60.625 L86.6071429,43.3035714 C86.6071429,42.2642857 87.3,41.5714286 88.3392857,41.5714286 C89.3785714,41.5714286 90.0714286,42.2642857 90.0714286,43.3035714 L90.0714286,64.0892857 C90.0714286,73.7892857 87.9928571,83.4892857 84.1821429,92.4964286 C83.4892857,94.2285714 84.1821429,96.3071429 85.9142857,97 C86.6071429,97 86.9535714,97 87.3,97 C88.6857143,97 90.0714286,96.3071429 90.4178571,94.9214286 C94.575,84.875 97,74.4821429 97,63.7428571 L97,42.9571429 C97,38.4535714 93.5357143,34.9892857 88.6857143,34.6428571 Z M48.5,38.1071429 L48.5,58.5464286 L47.1142857,56.4678571 C46.075,54.3892857 43.9964286,53.0035714 41.5714286,52.3107143 C41.225,52.3107143 41.225,52.3107143 40.8785714,52.3107143 C38.1071429,50.925 36.7214286,48.1535714 36.7214286,45.0357143 C36.7214286,40.5321429 40.5321429,36.7214286 45.0357143,36.7214286 C46.075,36.7214286 47.4607143,37.0678571 48.5,37.4142857 C48.5,37.4142857 48.5,37.7607143 48.5,38.1071429 Z M45.0357143,20.7857143 C31.525,20.7857143 20.7857143,31.525 20.7857143,45.0357143 C20.7857143,47.1142857 19.4,48.5 17.3214286,48.5 C15.2428571,48.5 13.8571429,47.1142857 13.8571429,45.0357143 C13.8571429,27.7142857 27.7142857,13.8571429 45.0357143,13.8571429 C47.1142857,13.8571429 48.5,15.2428571 48.5,17.3214286 C48.5,19.4 47.1142857,20.7857143 45.0357143,20.7857143 Z" id="Shape"></path>
        </g>
    </g>
</svg>