<?xml version="1.0" encoding="UTF-8"?>
<svg width="59px" height="97px" viewBox="0 0 59 97" version="1.1" xmlns="http://www.w3.org/2000/svg" xmlns:xlink="http://www.w3.org/1999/xlink">
    <!-- Generator: Sketch 61.2 (89653) - https://sketch.com -->
    <title>noun_touch technology_1927722_Green</title>
    <desc>Created with Sketch.</desc>
    <g id="Page-1" stroke="none" stroke-width="1" fill="none" fill-rule="evenodd">
        <g id="noun_touch-technology_1927722_Green" fill="#09D5B0" fill-rule="nonzero">
            <path d="M11.4,40 L5.6,46 L13.4,53.8 L19.2,48 C19.4,48.2 19.6,48.2 19.8,48.4 C19.8,48.4 19.8,48.4 20,48.4 L20,43.8 C5.6,34 12.6,11.4 30,11.4 C39.8,11.4 47.8,19.4 47.8,29 C47.8,35.2 44.4,40.8 39.6,44 C41.4,44.6 43,45.6 44.2,47 C44.4,47 47.8,46.8 50.8,49.4 C50.8,49.4 51,49.4 51,49.6 L54.6,45.8 L48.6,40 C48.8,39.6 50.2,37.2 50.8,34.6 L59,34.6 L59,23.6 L50.8,23.6 C50.2,21.2 48.6,18.4 48.6,18.2 L54.4,12.4 L46.6,4.6 L40.8,10.4 C40,10 37.4,8.6 35.4,8.2 L35.4,0 L24.4,0 L24.4,8.2 C22.6,8.6 20.8,9.4 19,10.4 C18.6,10 12.8,4.2 13.2,4.6 L5.4,12.4 L11.2,18.2 C10,20 9.2,22.6 9,23.6 L0.8,23.6 L0.8,34.6 L9,34.6 C9.4,36.2 10.4,38.4 11.4,40 Z" id="Path"></path>
            <path d="M23.8,21.4 L23.8,16.8 C19.2,19 16.2,23.8 16.2,29.2 C16.2,32.8 17.6,36.2 20,38.6 C20,38 19.8,35.8 21,33.2 C20.4,32 20.2,30.6 20.2,29.2 C20,26 21.6,23.2 23.8,21.4 Z" id="Path"></path>
            <path d="M39.2,39.4 C42,36.8 43.8,33.2 43.8,29 C43.8,23.6 40.6,19 36.2,16.6 L36.2,21.2 C38.4,23 40,25.8 40,29 C40,30.8 39.4,32.6 38.6,34 C39.4,36.4 39,38 39.2,39.4 Z" id="Path"></path>
            <path d="M32,26.2 L32,18.8 C32,17.8 31.2,16.8 30,16.8 C29,16.8 28,17.6 28,18.8 L28,26.2 C28,27.4 29,28.2 30,28.2 C31,28.2 32,27.4 32,26.2 Z" id="Path"></path>
            <path d="M19.6,81 C19.6,81 19.6,81 19.6,81 C21.4,84.4 22.4,88 22.4,91.6 C22.4,94 24.4,96.2 27,96.2 L46.6,96.2 C48.2,96.2 49.6,95.4 50.6,94 C53.4,88.2 57.4,84.4 57.4,77 L57.4,62 C57.4,58.4 54,55.4 50,56.6 C49.8,55 49.2,53.8 48,52.8 C46.6,51.6 44.4,51 42.2,51.8 C41.8,50.6 40.8,49.6 39.6,48.8 C38,47.8 36.8,48 35.2,48.4 L35.2,37.8 C35.2,34.8 32.6,32.2 29.6,32.2 C26.6,32.2 24.2,34.4 24,37.4 C24,37.6 24,37.8 24,38 L24,59.4 C23.4,59.2 22.8,59.2 22.2,59.2 C19.2,59.2 16.6,61.8 16.6,64.8 C16.8,67 15.6,73.4 19.6,81 Z" id="Path"></path>
        </g>
    </g>
</svg>