<?xml version="1.0" encoding="UTF-8"?>
<svg width="77px" height="96px" viewBox="0 0 77 96" version="1.1" xmlns="http://www.w3.org/2000/svg" xmlns:xlink="http://www.w3.org/1999/xlink">
    <!-- Generator: Sketch 61.2 (89653) - https://sketch.com -->
    <title>noun_Technology_2624673_Green</title>
    <desc>Created with Sketch.</desc>
    <g id="Page-1" stroke="none" stroke-width="1" fill="none" fill-rule="evenodd">
        <g id="noun_Technology_2624673_Green" fill="#09D5B0" fill-rule="nonzero">
            <path d="M39.2578125,10.3125 C39.9023438,10.3125 40.4296875,9.78515625 40.4296875,9.140625 L40.4296875,1.34765625 C40.4296875,0.703125 39.9023438,0.17578125 39.2578125,0.17578125 C38.6132812,0.17578125 38.0859375,0.703125 38.0859375,1.34765625 L38.0859375,9.140625 C38.0859375,9.78515625 38.6132812,10.3125 39.2578125,10.3125 Z" id="Path"></path>
            <path d="M75.390625,37.3046875 L67.5976562,37.3046875 C66.953125,37.3046875 66.4257812,37.8320312 66.4257812,38.4765625 C66.4257812,39.1210938 66.953125,39.6484375 67.5976562,39.6484375 L75.390625,39.6484375 C76.0351562,39.6484375 76.5625,39.1210938 76.5625,38.4765625 C76.5625,37.8320312 76.0351562,37.3046875 75.390625,37.3046875 Z" id="Path"></path>
            <path d="M10.1367188,38.4765625 C10.1367188,37.8320312 9.609375,37.3046875 8.96484375,37.3046875 L1.171875,37.3046875 C0.52734375,37.3046875 0,37.8320312 0,38.4765625 C0,39.1210938 0.52734375,39.6484375 1.171875,39.6484375 L8.96484375,39.6484375 C9.609375,39.6484375 10.1367188,39.1210938 10.1367188,38.4765625 Z" id="Path"></path>
            <path d="M60.4101562,17.9882812 L66.484375,11.9140625 C66.9335938,11.4648438 66.9335938,10.7226563 66.484375,10.2539062 C66.0351562,9.8046875 65.2929687,9.8046875 64.8242188,10.2539062 L58.75,16.328125 C58.3007812,16.7773438 58.3007812,17.5195312 58.75,17.9882812 C59.21875,18.4375 59.9609375,18.4375 60.4101562,17.9882812 Z" id="Path"></path>
            <path d="M16.1523438,17.9882812 C16.3671875,18.203125 16.6796875,18.3398438 16.9726562,18.3398438 C17.6171875,18.3398438 18.1445312,17.8125 18.1445312,17.1679688 C18.1445312,16.8554688 18.0273437,16.5625 17.7929687,16.3476562 L11.71875,10.2734375 C11.2695312,9.82421875 10.5273437,9.82421875 10.0585937,10.2734375 C9.58984375,10.7226562 9.609375,11.4648437 10.0585937,11.9335937 L16.1523438,17.9882812 Z" id="Path"></path>
            <path d="M53.1835938,46.6796875 C53.1835938,45.2734375 52.0507812,44.1601562 50.6640625,44.1601562 C49.2578125,44.1601562 48.1445313,45.2929688 48.1445313,46.6796875 C48.1445313,47.34375 48.4179688,47.9882812 48.8867188,48.4765625 C49.3554688,48.9453125 50,49.21875 50.6835938,49.21875 C52.0507812,49.21875 53.1835938,48.0859375 53.1835938,46.6796875 Z" id="Path"></path>
            <path d="M27.8710937,44.9023438 C26.875,43.90625 25.2734375,43.90625 24.296875,44.9023438 C23.3007812,45.8984375 23.3007812,47.5 24.296875,48.4765625 C24.765625,48.9453125 25.4101562,49.21875 26.09375,49.21875 C26.7578125,49.21875 27.4023437,48.9453125 27.890625,48.4765625 C28.8476562,47.4804687 28.8476562,45.8789062 27.8710937,44.9023438 Z" id="Path"></path>
            <path d="M48.4375,87.3046875 L45.5273438,87.3046875 C44.8828125,87.3046875 44.3554688,86.7773438 44.3554688,86.1328125 C44.3554688,85.4882812 44.8828125,84.9609375 45.5273438,84.9609375 L48.4375,84.9609375 L48.4375,80.2734375 L28.125,80.2734375 L28.125,84.9609375 L41.484375,84.9609375 C42.1289063,84.9609375 42.65625,85.4882812 42.65625,86.1328125 C42.65625,86.7773438 42.1289063,87.3046875 41.484375,87.3046875 L28.125,87.3046875 L28.125,87.7539062 C28.1054688,89.21875 29.2578125,90.4101562 30.7226563,90.4296875 C30.7421875,90.4296875 30.7617188,90.4296875 30.78125,90.4296875 L45.78125,90.4296875 C47.2460938,90.4492188 48.4375,89.2773438 48.4375,87.8125 C48.4375,87.7929688 48.4375,87.7734375 48.4375,87.7539062 L48.4375,87.3046875 L48.4375,87.3046875 Z" id="Path"></path>
            <path d="M38.4765625,17.2070313 C38.3984375,17.2070313 38.3398438,17.2070313 38.28125,17.2070313 C26.1328125,17.2070313 15.8789062,26.2304688 14.3359375,38.28125 C14.3164062,38.4375 14.2773437,38.828125 14.2578125,39.7070312 C14.1796875,42.3242188 13.671875,44.9023438 12.734375,47.34375 L9.19921875,56.640625 L16.7773437,56.640625 C17.421875,56.640625 17.96875,57.1679688 17.96875,57.8125 L17.96875,66.2890625 C17.9492187,68.8085937 19.9804687,70.859375 22.5,70.859375 C22.5585937,70.859375 22.5976562,70.859375 22.65625,70.859375 C22.65625,70.859375 22.6757812,70.8789062 22.6757812,70.8789062 L24.5507812,70.8789062 L24.5898437,70.8789062 C25.5078125,70.859375 26.40625,71.2109375 27.0703125,71.8554687 C27.734375,72.5 28.125,73.3789062 28.125,74.296875 L28.125,77.9296875 L32.421875,77.9296875 L32.421875,59.6679688 C32.4414062,58.2617188 31.328125,57.0898438 29.921875,57.0703125 C29.9023437,57.0703125 29.9023437,57.0703125 29.8828125,57.0703125 C27.1875,57.0703125 25,54.8632812 25,52.1679688 C25,52.1484375 25,52.1484375 25,52.1289062 L25,51.40625 C24.1210937,51.2304688 23.3007812,50.78125 22.6757812,50.1171875 C20.7617187,48.2226562 20.7421875,45.15625 22.6367187,43.2421875 C24.53125,41.328125 27.5976562,41.3085938 29.5117187,43.203125 C30.4296875,44.1210938 30.9570312,45.3710938 30.9570312,46.6601562 C30.9765625,47.9492188 30.4882812,49.1796875 29.5703125,50.0976562 C28.9453125,50.703125 28.1835937,51.1523438 27.34375,51.3867188 L27.34375,52.109375 C27.3242187,53.515625 28.4375,54.6875 29.84375,54.7070312 C29.8632812,54.7070312 29.8632812,54.7070312 29.8828125,54.7070312 C32.578125,54.7070312 34.765625,56.9140625 34.765625,59.609375 C34.765625,59.6289063 34.765625,59.6289063 34.765625,59.6484375 L34.765625,77.9296875 L37.109375,77.9296875 L37.109375,39.5898438 C36.2695312,39.3359375 35.5078125,38.8867188 34.8828125,38.28125 L34.9023437,38.28125 C32.9882812,36.3867188 32.9882812,33.3007812 34.8828125,31.3867188 C36.7773437,29.4726562 39.8632812,29.4726562 41.7773438,31.3671875 C43.6914062,33.2617188 43.6914062,36.3476562 41.796875,38.2617188 C41.796875,38.2617188 41.7773438,38.28125 41.7773438,38.28125 C41.1523437,38.9453125 40.3515625,39.3945312 39.4726562,39.5703125 L39.4726562,77.9296875 L42.0117187,77.9296875 L42.0117187,59.6679688 C41.9921875,56.9726562 44.1601562,54.7460938 46.8554688,54.7265625 C46.875,54.7265625 46.875,54.7265625 46.8945312,54.7265625 C48.3007812,54.7265625 49.4335937,53.5742188 49.4335937,52.1679688 C49.4335937,52.1484375 49.4335937,52.1484375 49.4335937,52.1289062 L49.4335937,51.40625 C48.59375,51.171875 47.8125,50.7421875 47.1875,50.1171875 C45.2929688,48.203125 45.3125,45.1171875 47.2070312,43.2226562 C49.0820312,41.2890625 52.1484375,41.25 54.0820312,43.1054688 C56.015625,44.9804687 56.0546875,48.046875 54.1992188,49.9804688 C54.1601562,50.0195312 54.1210938,50.0585938 54.0820312,50.0976562 C53.4570312,50.7421875 52.65625,51.1914062 51.7773437,51.3867188 L51.7773437,52.109375 C51.796875,54.8046875 49.6289062,57.03125 46.9335937,57.0507813 C46.9140625,57.0507813 46.9140625,57.0507813 46.8945312,57.0507813 C45.4882812,57.0507813 44.3554687,58.203125 44.3554687,59.609375 C44.3554687,59.6289063 44.3554687,59.6289063 44.3554687,59.6484375 L44.3554687,77.9296875 L48.4570312,77.9296875 L48.4570312,73.1640625 C48.4570312,67.8515625 50.7617187,62.6953125 54.7265625,59.0234375 C64.4726562,49.9414063 65.0195312,34.6679688 55.9375,24.9023438 C51.40625,20.0585938 45.0976562,17.2851563 38.4765625,17.2070313 Z" id="Path"></path>
            <path d="M40.15625,33.0664063 C39.1601562,32.0703125 37.5585938,32.0703125 36.5820313,33.0664063 C35.5859375,34.0625 35.5859375,35.6640625 36.5820313,36.640625 C37.578125,37.6171875 39.1601562,37.6171875 40.15625,36.640625 C41.1328125,35.6445312 41.1328125,34.0429688 40.15625,33.0664063 Z" id="Path"></path>
            <path d="M37.109375,94.7460938 C37.109375,95.390625 37.6367188,95.9179688 38.28125,95.9179688 C38.9257812,95.9179688 39.453125,95.390625 39.453125,94.7460938 L39.453125,91.6015625 L37.109375,91.6015625 L37.109375,94.7460938 Z" id="Path"></path>
        </g>
    </g>
</svg>