<?xml version="1.0" encoding="UTF-8"?>
<svg width="68px" height="94px" viewBox="0 0 68 94" version="1.1" xmlns="http://www.w3.org/2000/svg" xmlns:xlink="http://www.w3.org/1999/xlink">
    <!-- Generator: Sketch 61.2 (89653) - https://sketch.com -->
    <title>noun_Technology_Bulb_Green</title>
    <desc>Created with Sketch.</desc>
    <g id="Page-1" stroke="none" stroke-width="1" fill="none" fill-rule="evenodd">
        <g id="noun_Technology_Bulb_Green" fill="#09D5B0" fill-rule="nonzero">
            <path d="M50.6796875,72.9888906 L47.94375,71.4782656 C47.392704,72.4633554 46.90525,73.4826928 46.484375,74.5300313 L49.3896563,75.6805469 C49.7619239,74.7567789 50.1928114,73.8577302 50.6796875,72.9888906 Z" id="Path"></path>
            <path d="M54.0236875,67.7597031 L51.4586719,65.9744219 C50.8445156,66.8563906 50.231875,67.7535938 49.6459375,68.6599688 L52.2689219,70.35675 C52.8365469,69.4808906 53.4293594,68.6142031 54.0236875,67.7597031 Z" id="Path"></path>
            <path d="M57.6575625,62.4389688 L55.0132187,60.77575 C54.4860156,61.6119375 53.8985625,62.4771094 53.282875,63.3651719 L55.8493906,65.1474063 C56.4940781,64.2196719 57.1074844,63.3148125 57.6575625,62.4389688 Z" id="Path"></path>
            <path d="M60.7650156,56.6757188 L57.9451875,55.3298906 C57.4973437,56.266776 57.0291562,57.1929844 56.540625,58.1085156 L59.2963594,59.5825156 C59.8075365,58.6257969 60.2970885,57.6568646 60.7650156,56.6757188 Z" id="Path"></path>
            <path d="M63.3109375,50.6942813 L60.3858281,49.5956406 C60.0226719,50.5615313 59.6358281,51.5289375 59.2269219,52.4887031 L62.1032031,53.7124688 C62.5289427,52.7099688 62.9315208,51.7039063 63.3109375,50.6942813 Z" id="Path"></path>
            <path d="M67.1180156,34.8373438 C67.20575,33.7982813 67.25,32.7850313 67.25,31.82525 L67.2484375,31.5139844 L64.1234375,31.5383906 L64.125,31.82525 C64.125,32.6965313 64.0845625,33.6227344 64.0036875,34.5748906 L67.1180156,34.8373438 Z" id="Path"></path>
            <path d="M63.410125,25.5737344 C63.6384227,26.5505519 63.8121293,27.5393284 63.9304375,28.5354688 L67.0340781,28.1662031 C66.9014809,27.05513 66.7073967,25.9522611 66.4527188,24.8626719 L63.410125,25.5737344 Z" id="Path"></path>
            <path d="M61.3974844,19.9157656 C61.8367865,20.8183104 62.2259714,21.7443993 62.5632656,22.6898125 L65.5066875,21.6430625 C65.1312482,20.5881909 64.6972402,19.5550903 64.2066875,18.5485781 L61.3974844,19.9157656 Z" id="Path"></path>
            <path d="M58.18475,14.8345938 C58.8101366,15.6220325 59.3933353,16.442074 59.9318906,17.2912656 L62.5731875,15.621875 C61.9750371,14.6777294 61.3271501,13.766028 60.6322656,12.890625 L58.18475,14.8345938 Z" id="Path"></path>
            <path d="M53.9580625,10.5300938 C54.734787,11.1726945 55.4781036,11.8546391 56.1850937,12.57325 L58.412875,10.3820781 C57.6307363,9.58732136 56.8084866,8.83306134 55.9493437,8.12225 L53.9580625,10.5300938 Z" id="Path"></path>
            <path d="M53.2752344,6.121875 C52.362,5.50846875 51.4022187,4.92864062 50.4210781,4.397625 L48.934875,7.14726562 C49.8275156,7.6294375 50.7010781,8.15739062 51.5311562,8.71585937 L53.2752344,6.121875 Z" id="Path"></path>
            <path d="M47.4196719,2.96020313 C46.4134219,2.5314375 45.3620312,2.14385938 44.2962344,1.80510938 L43.3501562,4.783625 C44.3236719,5.09185938 45.2811562,5.44585938 46.1974531,5.83496875 L47.4196719,2.96020313 Z" id="Path"></path>
            <path d="M37.4137344,3.471375 C38.4215469,3.6010625 39.4301719,3.77654688 40.4113125,3.9948125 L41.0872812,0.9430625 C40.0154062,0.706546875 38.9136719,0.51428125 37.8135,0.37084375 L37.4137344,3.471375 Z" id="Path"></path>
            <path d="M48.5,82.701875 L48.5,82.5902031 C48.5086058,81.7868797 48.1868423,81.0152905 47.6100445,80.4560886 C47.0332466,79.8968866 46.2520621,79.5991746 45.4493906,79.6326562 L20.3006094,79.6326562 C19.4979379,79.5991746 18.7167534,79.8968866 18.1399555,80.4560886 C17.5631577,81.0152905 17.2413942,81.7868797 17.25,82.5902031 L17.25,82.701875 C17.2148018,84.4223343 18.580181,85.8459754 20.3006094,85.8826562 L45.4493906,85.8826562 C47.169819,85.8459754 48.5351982,84.4223343 48.5,82.701875 Z" id="Path"></path>
            <path d="M21.5580313,87.5 C20.7951365,87.5085684 20.0692305,87.8300363 19.5501611,88.3891863 C19.0310917,88.9483363 18.7644048,89.6961059 18.8125,90.4575313 L18.8125,90.5692031 C18.701387,92.2026963 19.9258327,93.6212607 21.5580313,93.75 L44.1919688,93.75 C45.8241673,93.6212607 47.048613,92.2026963 46.9375,90.5692031 L46.9375,90.4575313 C46.9855952,89.6961059 46.7189083,88.9483363 46.1998389,88.3891863 C45.6807695,87.8300363 44.9548635,87.5085684 44.1919688,87.5 L21.5580313,87.5 Z" id="Path"></path>
            <path d="M20.375,37.5 C20.375,44.4035594 25.9714406,50 32.875,50 L32.875,25 C25.9714406,25 20.375,30.5964406 20.375,37.5 Z" id="Path"></path>
            <path d="M18.7046875,78.3588438 C19.1249704,78.24484 19.5580402,78.1847228 19.9934844,78.1799375 L32.875,78.1799375 L32.875,59.375 C31.9839908,59.3696216 31.0941319,59.3101005 30.2103438,59.1967656 L29.5246406,55.9345313 C28.5129185,55.7501553 27.5182555,55.4820778 26.5509063,55.1330625 L24.3114844,57.6325469 C22.6785534,56.9287688 21.1377773,56.0280155 19.7234375,54.9503281 L20.759375,51.796625 C19.9738153,51.1303073 19.2441952,50.4007186 18.5778438,49.6151875 L15.4242344,50.650875 C14.3467018,49.2365978 13.4460514,47.6959322 12.7423125,46.0631406 L15.2417969,43.8238125 C14.8927769,42.8565059 14.6247605,41.8618632 14.4405156,40.8501563 L11,40.1645625 L11,34.83525 L14.440625,34.1495469 C14.6249027,33.1378087 14.892945,32.1431354 15.2419844,31.1757969 L12.7425937,28.9363906 C13.4463251,27.3034946 14.3470315,25.7627495 15.4246719,24.3484375 L18.578375,25.384375 C19.2446927,24.5988153 19.9742814,23.8691952 20.7598125,23.2028438 L19.724125,20.0492344 C21.1383891,18.9716821 22.6790572,18.0710303 24.3118594,17.3673125 L26.5511875,19.8667969 C27.5185114,19.5178318 28.5131495,19.2498167 29.5248438,19.0655156 L30.2104375,15.8032813 C31.094193,15.6899276 31.9840209,15.6303907 32.875,15.625 L32.875,1.61734375 C14.753125,1.61734375 0.0625,14.7028906 0.0625,31.8256406 C0.0625,39.8703594 3.30842187,50.8794844 8.62773437,60.2947188 C11.6048125,65.5640625 17.8408906,72.225375 18.7046875,78.3588438 Z" id="Path"></path>
            <path d="M36,15.625 C36.0039249,17.6058263 37.2560866,19.3690453 39.125,20.0254375 L39.125,28.125 L34.4375,28.125 L34.4375,46.875 L37.5625,46.875 L37.5625,53.125 C37.5623922,53.5394338 37.7269777,53.9369244 38.0200266,54.2299734 C38.3130756,54.5230223 38.7105662,54.6876078 39.125,54.6875 L43.8125,54.6875 L43.8125,56.5370625 C41.6600833,57.2980567 40.3689499,59.499041 40.7550068,61.7491454 C41.1410636,63.9992498 43.0920173,65.6439799 45.375,65.6439799 C47.6579827,65.6439799 49.6089364,63.9992498 49.9949932,61.7491454 C50.3810501,59.499041 49.0899167,57.2980567 46.9375,56.5370625 L46.9375,53.125 C46.9376078,52.7105662 46.7730223,52.3130756 46.4799734,52.0200266 C46.1869244,51.7269777 45.7894338,51.5623922 45.375,51.5625 L40.6875,51.5625 L40.6875,46.875 L46.9375,46.875 L46.9375,43.75 L56.5995625,43.75 C57.3605567,45.9024167 59.561541,47.1935501 61.8116454,46.8074932 C64.0617498,46.4214364 65.7064799,44.4704827 65.7064799,42.1875 C65.7064799,39.9045173 64.0617498,37.9535636 61.8116454,37.5675068 C59.561541,37.1814499 57.3605567,38.4725833 56.5995625,40.625 L46.9375,40.625 L46.9375,34.375 L53.1875,34.375 C53.6019338,34.3751078 53.9994244,34.2105223 54.2924734,33.9174734 C54.5855223,33.6244244 54.7501078,33.2269338 54.75,32.8125 L54.75,26.2754375 C56.9024167,25.5144433 58.1935501,23.313459 57.8074932,21.0633546 C57.4214364,18.8132502 55.4704827,17.1685201 53.1875,17.1685201 C50.9045173,17.1685201 48.9535636,18.8132502 48.5675068,21.0633546 C48.1814499,23.313459 49.4725833,25.5144433 51.625,26.2754375 L51.625,31.25 L46.9375,31.25 L46.9375,28.125 L42.25,28.125 L42.25,20.0254375 C44.4914815,19.2269893 45.7769627,16.8736479 45.2375211,14.5561576 C44.6980795,12.2386672 42.5054737,10.6949193 40.1417986,10.9684122 C37.7781234,11.2419051 35.9959755,13.2455584 36,15.625 L36,15.625 Z" id="Path"></path>
        </g>
    </g>
</svg>