<?xml version="1.0" encoding="UTF-8"?>
<svg width="88px" height="88px" viewBox="0 0 88 88" version="1.1" xmlns="http://www.w3.org/2000/svg" xmlns:xlink="http://www.w3.org/1999/xlink">
    <!-- Generator: Sketch 61.2 (89653) - https://sketch.com -->
    <title>noun_Technology_1484652_Green</title>
    <desc>Created with Sketch.</desc>
    <g id="Page-1" stroke="none" stroke-width="1" fill="none" fill-rule="evenodd">
        <g id="noun_Technology_1484652_Green" fill="#09D5B0" fill-rule="nonzero">
            <circle id="Oval" cx="44" cy="42.3" r="8"></circle>
            <path d="M68.9,35.7 L78,35.7 C78.7405289,38.0547318 81.0886449,39.5166918 83.5284845,39.1420886 C85.9683241,38.7674854 87.769696,36.6684296 87.769696,34.2 C87.769696,31.7315704 85.9683241,29.6325146 83.5284845,29.2579114 C81.0886449,28.8833082 78.7405289,30.3452682 78,32.7 L68.9,32.7 L68.1,32.9 L68.1,18.2 L64.6,18.2 L64.6,13.7 L68.8,13.7 C69.5405289,16.0547318 71.8886449,17.5166918 74.3284845,17.1420886 C76.7683241,16.7674854 78.569696,14.6684296 78.569696,12.2 C78.569696,9.73157037 76.7683241,7.63251457 74.3284845,7.25791137 C71.8886449,6.88330817 69.5405289,8.34526821 68.8,10.7 L61.6,10.7 L61.6,18.2 L54.2,18.2 L54.2,10 C56.5547318,9.25947111 58.0166918,6.91135509 57.6420886,4.4715155 C57.2674854,2.0316759 55.1684296,0.230303993 52.7,0.230303993 C50.2315704,0.230303993 48.1325146,2.0316759 47.7579114,4.4715155 C47.3833082,6.91135509 48.8452682,9.25947111 51.2,10 L51.2,18.2 L35.7,18.2 L35.7,10 C38.0547318,9.25947111 39.5166918,6.91135509 39.1420886,4.4715155 C38.7674854,2.0316759 36.6684296,0.230303993 34.2,0.230303993 C31.7315704,0.230303993 29.6325146,2.0316759 29.2579114,4.4715155 C28.8833082,6.91135509 30.3452682,9.25947111 32.7,10 L32.7,18.2 L20,18.2 L20,23.4 L16,23.4 L16,19.2 C18.3547318,18.4594711 19.8166918,16.1113551 19.4420886,13.6715155 C19.0674854,11.2316759 16.9684296,9.43030399 14.5,9.43030399 C12.0315704,9.43030399 9.93251457,11.2316759 9.55791137,13.6715155 C9.18330817,16.1113551 10.6452682,18.4594711 13,19.2 L13,26.4 L20,26.4 L20,33.8 L10,33.8 C9.25947111,31.4452682 6.91135509,29.9833082 4.4715155,30.3579114 C2.0316759,30.7325146 0.230303993,32.8315704 0.230303993,35.3 C0.230303993,37.7684296 2.0316759,39.8674854 4.4715155,40.2420886 C6.91135509,40.6166918 9.25947111,39.1547318 10,36.8 L20,36.8 L20,52.3 L10,52.3 C9.25947111,49.9452682 6.91135509,48.4833082 4.4715155,48.8579114 C2.0316759,49.2325146 0.230303993,51.3315704 0.230303993,53.8 C0.230303993,56.2684296 2.0316759,58.3674854 4.4715155,58.7420886 C6.91135509,59.1166918 9.25947111,57.6547318 10,55.3 L20,55.3 L20,66.3 L23.5,66.3 L23.5,72 L19.2,72 C18.4594711,69.6452682 16.1113551,68.1833082 13.6715155,68.5579114 C11.2316759,68.9325146 9.43030399,71.0315704 9.43030399,73.5 C9.43030399,75.9684296 11.2316759,78.0674854 13.6715155,78.4420886 C16.1113551,78.8166918 18.4594711,77.3547318 19.2,75 L26.4,75 L26.4,66.3 L33.8,66.3 L33.8,78 C31.4452682,78.7405289 29.9833082,81.0886449 30.3579114,83.5284845 C30.7325146,85.9683241 32.8315704,87.769696 35.3,87.769696 C37.7684296,87.769696 39.8674854,85.9683241 40.2420886,83.5284845 C40.6166918,81.0886449 39.1547318,78.7405289 36.8,78 L36.8,66.3 L52.3,66.3 L52.3,78 C49.9452682,78.7405289 48.4833082,81.0886449 48.8579114,83.5284845 C49.2325146,85.9683241 51.3315704,87.769696 53.8,87.769696 C56.2684296,87.769696 58.3674854,85.9683241 58.7420886,83.5284845 C59.1166918,81.0886449 57.6547318,78.7405289 55.3,78 L55.3,66.3 L68,66.3 L68,64.3 L68.8,64.5 L74.2,64.5 L74.2,68.7 C71.8452682,69.4405289 70.3833082,71.7886449 70.7579114,74.2284845 C71.1325146,76.6683241 73.2315704,78.469696 75.7,78.469696 C78.1684296,78.469696 80.2674854,76.6683241 80.6420886,74.2284845 C81.0166918,71.7886449 79.5547318,69.4405289 77.2,68.7 L77.2,61.6 L68.9,61.6 L68.1,61.8 L68.1,53.9 L68.9,54.1 L78,54.1 C78.7405289,56.4547318 81.0886449,57.9166918 83.5284845,57.5420886 C85.9683241,57.1674854 87.769696,55.0684296 87.769696,52.6 C87.769696,50.1315704 85.9683241,48.0325146 83.5284845,47.6579114 C81.0886449,47.2833082 78.7405289,48.7452682 78,51.1 L68.9,51.1 L68.1,51.3 L68.1,35.3 L68.9,35.7 Z M44,55.3 C38.6924778,55.3 33.9095376,52.0972045 31.8879056,47.189782 C29.8662737,42.2823594 31.0055048,36.6400569 34.7728414,32.9014786 C38.5401779,29.1629004 44.1910444,28.0669381 49.0828317,30.1261149 C53.974619,32.1852917 57.1405154,36.9926324 57.1,42.3 C57.0450683,49.4958474 51.196057,55.3 44,55.3 L44,55.3 Z" id="Shape"></path>
        </g>
    </g>
</svg>