<?xml version="1.0" encoding="UTF-8"?>
<svg width="82px" height="84px" viewBox="0 0 82 84" version="1.1" xmlns="http://www.w3.org/2000/svg" xmlns:xlink="http://www.w3.org/1999/xlink">
    <!-- Generator: Sketch 61.2 (89653) - https://sketch.com -->
    <title>noun_Technology_2624593_Green</title>
    <desc>Created with Sketch.</desc>
    <g id="Page-1" stroke="none" stroke-width="1" fill="none" fill-rule="evenodd">
        <g id="noun_Technology_2624593_Green" fill="#09D5B0" fill-rule="nonzero">
            <path d="M10.9765625,80.0585938 C11.6796875,80.0585938 12.2265625,79.4921875 12.2265625,78.8085938 C12.2265625,78.1054687 11.6601563,77.5585938 10.9765625,77.5585938 C10.2734375,77.5585938 9.7265625,78.125 9.7265625,78.8085938 C9.7265625,79.4921875 10.2929688,80.0585938 10.9765625,80.0585938 Z" id="Path"></path>
            <path d="M58.0859375,50.2929688 L58.0664062,50.3125 L55.7421875,51.5820313 C56.875,51.8359375 57.9296875,52.3242188 58.8671875,53.0078125 L63.8476562,50.3320313 C62.0507812,49.2578125 59.8632812,49.2578125 58.0859375,50.2929688 Z" id="Path"></path>
            <path d="M61.953125,57.109375 L62.5,56.8164062 L72.4023438,51.4648438 C71.3085938,50.4492188 69.609375,49.9023438 68.2617188,50.5664062 L60.625,54.6875 C61.1914063,55.4296875 61.640625,56.2304687 61.953125,57.109375 Z" id="Path"></path>
            <path d="M0.09765625,52.6367188 L3.8671875,83.4960938 L19.4921875,83.4960938 L10.078125,52.6367188 L0.09765625,52.6367188 Z M14.5898438,78.8085938 C14.5898438,80.8007812 12.96875,82.421875 10.9960938,82.421875 C9.0234375,82.421875 7.3828125,80.8007812 7.3828125,78.828125 C7.3828125,78.828125 7.3828125,78.828125 7.3828125,78.828125 C7.3828125,76.8359375 9.00390625,75.234375 10.9765625,75.234375 C12.96875,75.1953125 14.5898438,76.8164062 14.5898438,78.8085938 Z" id="Shape"></path>
            <path d="M76.0742188,52.1484375 L63.59375,58.8867188 L62.4414063,59.4921875 C62.4609375,59.6679688 62.4609375,59.84375 62.4609375,60.0195312 C62.4609375,60.6640625 61.9335938,61.1914062 61.2890625,61.1914062 C61.2695313,61.1914062 61.25,61.1914062 61.2304688,61.1914062 L52.6171875,60.8007812 C50.0976563,60.6835937 47.578125,60.8007812 45.078125,61.1523438 C44.4335938,61.25 43.8476562,60.8007812 43.75,60.1757812 C43.6523438,59.53125 44.1015625,58.9453125 44.7265625,58.8476562 C44.7265625,58.8476562 44.7460938,58.8476562 44.7460938,58.8476562 C47.3828125,58.4765625 50.0585938,58.359375 52.7148438,58.4765625 L59.9804688,58.7695312 C59.3945313,55.8007813 56.796875,53.6523438 53.7695313,53.6328125 L43.671875,53.6328125 C41.6796875,53.6328125 39.7265625,53.203125 37.9296875,52.34375 L36.8945312,51.8554688 C31.640625,49.296875 25.390625,49.9023438 20.7226563,53.4179688 L18.2421875,55.625 C17.0507813,56.6796875 15.6445313,57.4609375 14.140625,57.9296875 L19.0820313,74.1210938 L25.9960938,69.7460938 C26.015625,69.7265625 26.0351563,69.7265625 26.0546875,69.7070312 C27.5585938,68.8671875 29.3359375,68.6132812 30.9960938,69.0429688 L46.1328125,71.8359375 C49.7460938,72.4804688 53.4570313,71.9726562 56.7578125,70.3515625 L81.9335938,53.0664063 C80.4101562,51.484375 78.0078125,51.1132812 76.0742188,52.1484375 Z" id="Path"></path>
            <path d="M47.8710938,40.4296875 C48.5351562,40.4296875 49.1796875,40.2539062 49.7460938,39.921875 C48.828125,38.828125 48.3398438,37.4609375 48.3398438,36.0351562 C48.3398438,35.390625 48.8671875,34.8632812 49.5117188,34.8632812 C50.15625,34.8632812 50.6835938,35.390625 50.6835938,36.0351562 C50.703125,38.1054688 52.3828125,39.765625 54.453125,39.7460938 C56.5039063,39.7265625 58.1445313,38.0859375 58.1640625,36.0351562 L58.1640625,35.0585938 C57.96875,35.078125 57.734375,35.078125 57.5195313,35.078125 C56.875,35.078125 56.3476563,34.5507812 56.3476563,33.90625 C56.3476563,33.2617188 56.875,32.734375 57.5195313,32.734375 C60.4882812,32.734375 62.890625,30.3320312 62.890625,27.3632812 C62.890625,24.3945313 60.4882812,21.9921875 57.5195313,21.9921875 C56.875,21.9921875 56.3476563,21.4648438 56.3476563,20.8203125 C56.3476563,20.1757812 56.875,19.6484375 57.5195313,19.6484375 C58.671875,19.6484375 59.8046875,19.9023438 60.8398438,20.390625 C62.3046875,19.1210938 62.4609375,16.9140625 61.1914063,15.4492188 C60.9765625,15.2148438 60.7421875,15 60.4882812,14.8242188 C60.4492188,14.8046875 60.4296875,14.7851562 60.390625,14.765625 C60.0195313,15.2929688 59.296875,15.4296875 58.7695312,15.078125 C58.2617188,14.7265625 58.1054688,14.0625 58.4179688,13.5351562 C59.9023438,10.9765625 59.0234375,7.67578125 56.4453125,6.2109375 C54.5898438,5.13671875 52.3046875,5.2734375 50.5859375,6.54296875 C50.078125,6.93359375 49.3359375,6.8359375 48.9453125,6.30859375 C48.5546875,5.80078125 48.6523438,5.05859375 49.1796875,4.66796875 C49.1796875,4.66796875 49.1992188,4.6484375 49.1992188,4.6484375 C49.3554688,4.53125 49.5117188,4.43359375 49.6679688,4.31640625 C50.390625,2.87109375 49.7851562,1.11328125 48.3398437,0.390625 C46.8945312,-0.33203125 45.1367188,0.2734375 44.4140625,1.71875 C44.21875,2.109375 44.1210937,2.55859375 44.1015625,2.98828125 L44.1015625,36.6601562 C44.140625,38.75 45.8007812,40.4296875 47.8710938,40.4296875 Z M55.859375,13.7695312 C56.015625,13.1445312 56.6601562,12.7734375 57.2851562,12.9296875 C57.9101562,13.0859375 58.28125,13.7304688 58.125,14.3554688 C57.96875,14.9414062 58.2617188,15.5664062 58.8085938,15.8398438 C59.3945312,16.1132812 59.6289062,16.8164062 59.3554688,17.4023438 C59.1601562,17.8125 58.75,18.0664062 58.3007813,18.0664062 C58.203125,18.0664062 58.1054688,18.046875 57.9882812,18.0273438 C57.8515625,18.2421875 57.6953125,18.4179688 57.5195313,18.59375 C57.0507813,19.0429688 56.3085938,19.0234375 55.859375,18.5546875 C55.4101562,18.0859375 55.4296875,17.3632813 55.8789063,16.9140625 C56.015625,16.7773438 56.1328125,16.6015625 56.1914063,16.40625 C55.7617187,15.6054688 55.6445312,14.6679688 55.859375,13.7695312 Z M54.2578125,28.5742188 C54.7070312,28.125 55.4492188,28.125 55.9179688,28.5742188 C55.9179688,28.5742188 55.9179688,28.5742188 55.9179688,28.5742188 L55.9179688,28.5742188 C56.3671875,29.0234375 56.3671875,29.765625 55.9179688,30.234375 C55.6054687,30.546875 55.3710937,30.9375 55.2539062,31.3671875 C55.2539062,31.3867188 55.234375,31.40625 55.234375,31.4257813 C55.0195312,32.265625 55.2148437,33.1445313 55.7617187,33.8085938 C56.171875,34.3164063 56.09375,35.0390625 55.6054687,35.4492188 C55.0976562,35.859375 54.375,35.78125 53.9648438,35.2929688 C53.359375,34.5703125 52.9882812,33.6914063 52.8710937,32.7539063 C51.6015625,32.9492188 50.2929687,32.65625 49.2382812,31.9140625 C48.7109375,31.5429688 48.5742187,30.8203125 48.9453125,30.2734375 C49.3164062,29.7460938 50.0390625,29.609375 50.5859375,29.9804688 C51.3476562,30.5078125 52.3242187,30.6054687 53.1835937,30.234375 C53.3984375,29.6289062 53.7890625,29.0429687 54.2578125,28.5742188 Z M46.3476562,8.6328125 C46.3476562,8.6328125 46.3476562,8.6328125 46.3476562,8.6328125 C46.8164062,8.18359375 47.5585937,8.18359375 48.0078125,8.65234375 C48.0078125,8.65234375 48.0078125,8.65234375 48.0078125,8.65234375 C48.1445312,8.7890625 48.3007812,8.90625 48.4960937,8.96484375 C48.6914062,9.0234375 48.8867188,9.0625 49.0820312,9.0234375 C49.9414062,7.79296875 51.484375,7.24609375 52.9296875,7.6171875 C53.5546875,7.79296875 53.9257812,8.4375 53.75,9.0625 C53.5742188,9.66796875 52.96875,10.0390625 52.3632812,9.8828125 C52.1679687,9.84375 51.9726562,9.82421875 51.796875,9.86328125 C51.09375,10 50.6445312,10.6835938 50.78125,11.3867187 C50.8007812,11.5234375 50.859375,11.640625 50.9179687,11.7578125 C51.2304688,12.3242188 51.0351562,13.0273438 50.46875,13.359375 C49.9023437,13.671875 49.1992187,13.4765625 48.8671875,12.9101562 C48.8671875,12.9101562 48.8671875,12.9101562 48.8671875,12.9101562 C48.59375,12.4414062 48.4570312,11.9140625 48.4179687,11.3671875 C47.6367187,11.25 46.8945312,10.8789062 46.3476562,10.3125 C45.8789062,9.84375 45.8789062,9.1015625 46.3476562,8.6328125 Z M45.6054687,21.2109375 L45.6054687,21.2109375 C46.2109375,20.78125 46.9140625,20.5078125 47.65625,20.4296875 C47.6367187,20.0390625 47.6757812,19.6679688 47.7539062,19.296875 C47.890625,18.6523437 48.1835937,18.0664062 48.59375,17.5585937 C49.0039062,17.0507812 49.7265625,16.9726562 50.234375,17.3632812 C50.7421875,17.7539062 50.8203125,18.4960938 50.4296875,19.0039062 C50.4296875,19.0039062 50.4296875,19.0039062 50.4296875,19.0039062 C50.234375,19.2382812 50.1171875,19.5117187 50.0390625,19.8046875 C49.9609375,20.15625 49.9804687,20.5078125 50.078125,20.859375 L50.078125,20.859375 C51.71875,21.6796875 52.6757812,23.4570312 52.421875,25.2929687 C52.34375,25.8789062 51.8554687,26.3085937 51.2695312,26.3085937 C51.2109375,26.3085937 51.171875,26.3085937 51.1132812,26.2890625 C50.46875,26.2109375 50.0195312,25.625 50.0976562,24.9804687 C50.234375,23.8867187 49.4726562,22.890625 48.3789062,22.7539062 C48.0859375,22.7148437 47.7734375,22.7539062 47.5,22.8320312 C47.3046875,22.890625 47.1289062,22.9882812 46.953125,23.1054687 C46.4257812,23.4765625 45.703125,23.359375 45.3125,22.8320312 C44.9609375,22.3242188 45.078125,21.5820312 45.6054687,21.2109375 Z" id="Shape"></path>
            <path d="M77.7148437,34.4335938 L77.7148437,34.4335938 C78.5546875,33.6132813 78.5546875,32.265625 77.734375,31.4257813 C76.9140625,30.5859375 75.5664062,30.5859375 74.7265625,31.40625 C74.7265625,31.40625 74.7070312,31.4257813 74.7070312,31.4257813 C73.8867188,32.2460938 73.8867188,33.59375 74.7070312,34.4335938 C75.546875,35.2734375 76.8945312,35.2734375 77.7148437,34.4335938 Z" id="Path"></path>
            <path d="M75.46875,18.7695312 C74.6484375,19.5898437 74.6484375,20.9375 75.46875,21.7773438 C76.2890625,22.5976562 77.6367188,22.5976562 78.4765625,21.7773438 C79.296875,20.9570313 79.296875,19.609375 78.4765625,18.7695312 C77.6367188,17.9296875 76.2890625,17.9296875 75.46875,18.7695312 Z" id="Path"></path>
            <path d="M77.7148437,9.08203125 C78.5351562,8.26171875 78.5351562,6.9140625 77.7148437,6.07421875 C76.8945312,5.25390625 75.546875,5.25390625 74.7070312,6.07421875 C74.7070312,6.07421875 74.7070312,6.07421875 74.7070312,6.07421875 C73.8867188,6.89453125 73.8867188,8.2421875 74.7070312,9.08203125 C75.546875,9.921875 76.8945312,9.921875 77.7148437,9.08203125 Z" id="Path"></path>
            <path d="M19.4726562,27.3828125 C19.4726562,30.3515625 21.875,32.7539062 24.84375,32.7539062 C25.4882812,32.7539062 26.015625,33.28125 26.015625,33.9257812 C26.015625,34.5703125 25.4882812,35.0976562 24.84375,35.0976562 C24.6289062,35.0976562 24.3945312,35.078125 24.1992187,35.078125 L24.1992187,36.0546875 C24.21875,38.125 25.8984375,39.7851562 27.96875,39.765625 C30.0195312,39.7460938 31.6601562,38.1054688 31.6796875,36.0546875 C31.6796875,35.4101562 32.2070312,34.8828125 32.8515625,34.8828125 C33.4960937,34.8828125 34.0234375,35.4101562 34.0234375,36.0546875 C34.0234375,37.4804688 33.5351562,38.8476562 32.6171875,39.9414062 C33.1835938,40.2734375 33.8476562,40.4492188 34.5117187,40.4492188 C36.5820312,40.4492188 38.2617187,38.7890625 38.2617187,36.71875 L38.2617187,3.0078125 C38.2617187,1.38671875 36.9335937,0.078125 35.3320312,0.078125 C33.7109375,0.078125 32.4023437,1.40625 32.4023437,3.0078125 C32.4023437,3.45703125 32.5,3.90625 32.7148437,4.31640625 C32.8710937,4.4140625 33.0273437,4.53125 33.1835937,4.6484375 C33.7109375,5.0390625 33.8085937,5.76171875 33.4375,6.2890625 C33.046875,6.81640625 32.3242187,6.9140625 31.796875,6.54296875 C29.4140625,4.78515625 26.0546875,5.29296875 24.296875,7.67578125 C23.0273437,9.39453125 22.9101562,11.6992188 23.9648437,13.5351563 C24.296875,14.1015625 24.1015625,14.8046875 23.5351562,15.1367188 C23.0078125,15.4492188 22.3242187,15.2929688 21.9726562,14.7851563 C21.9335937,14.8046875 21.9140625,14.8242188 21.875,14.84375 C20.2734375,15.8984375 19.8242187,18.0664062 20.8789062,19.6875 C21.0546875,19.9609375 21.2695312,20.1953125 21.5234375,20.4101562 C22.5585938,19.921875 23.6914062,19.6679687 24.84375,19.6679687 C25.4882812,19.6679687 26.015625,20.1953125 26.015625,20.8398437 C26.015625,21.484375 25.4882812,22.0117187 24.84375,22.0117187 L24.84375,22.0117187 C21.875,22.0117187 19.4726562,24.4140625 19.4726562,27.3828125 Z M37.0507812,22.8320312 C37.0507812,22.8320312 37.0507812,22.8320312 37.0507812,22.8320312 L37.0507812,22.8320312 C36.6796875,23.359375 35.9375,23.4765625 35.4101562,23.1054688 C34.5117187,22.4609375 33.28125,22.65625 32.6367187,23.5546875 C32.5195312,23.7109375 32.421875,23.90625 32.3632812,24.1015625 C32.265625,24.3945313 32.2460937,24.6875 32.2851562,24.9804688 C32.3632812,25.625 31.9140625,26.2109375 31.2695312,26.2890625 C30.625,26.3671875 30.0390625,25.9179688 29.9609375,25.2734375 C29.7265625,23.4375 30.6640625,21.6601563 32.3046875,20.8398438 L32.3046875,20.8398438 C32.421875,20.5078125 32.421875,20.1367188 32.34375,19.7851563 C32.2851562,19.4921875 32.1484375,19.21875 31.953125,18.984375 C31.5429687,18.4765625 31.6210937,17.734375 32.1289062,17.34375 C32.6367187,16.9335938 33.3789062,17.0117188 33.7695312,17.5195313 C33.7695312,17.5195313 33.7695312,17.5195313 33.7695312,17.5195313 C34.1796875,18.0273438 34.4726562,18.6132813 34.609375,19.2578125 C34.6875,19.6289063 34.7265625,20.0195313 34.7070312,20.390625 C35.4492188,20.46875 36.1523438,20.7421875 36.7578125,21.171875 C37.3046875,21.5820312 37.421875,22.3242188 37.0507812,22.8320312 Z M29.453125,7.6171875 L29.453125,7.6171875 C30.8984375,7.24609375 32.4414062,7.8125 33.3007812,9.0234375 C33.4960938,9.04296875 33.6914062,9.0234375 33.8867188,8.96484375 C34.0625,8.90625 34.2382812,8.7890625 34.375,8.65234375 C34.8242188,8.18359375 35.5664062,8.18359375 36.0351562,8.6328125 C36.5039062,9.08203125 36.5039062,9.82421875 36.0546875,10.2929688 C35.5078125,10.859375 34.765625,11.2304688 33.984375,11.3476563 C33.9648438,11.8945313 33.8085937,12.421875 33.5351562,12.890625 C33.2226562,13.4570313 32.5,13.6523438 31.9335937,13.3398438 C31.3671875,13.0273438 31.171875,12.3242188 31.484375,11.7578125 C31.8359375,11.1328125 31.6015625,10.3515625 30.9765625,10 C30.6835937,9.84375 30.3515625,9.8046875 30.0390625,9.8828125 C29.4140625,10.0390625 28.7695312,9.66796875 28.6132812,9.04296875 C28.4570312,8.41796875 28.828125,7.79296875 29.453125,7.6171875 Z M28.125,28.5742188 L28.125,28.5742188 C28.6132812,29.0625 28.984375,29.6289063 29.2382812,30.2539062 C29.7070312,30.46875 30.234375,30.5273438 30.7421875,30.4492188 C31.1328125,30.390625 31.5039062,30.234375 31.8359375,30 C32.3632812,29.6289062 33.1054687,29.765625 33.4765625,30.2929688 C33.8476562,30.8203125 33.7109375,31.5625 33.1835937,31.9335938 C32.5585937,32.3632812 31.8554687,32.65625 31.1132812,32.7734375 C30.6054687,32.8515625 30.078125,32.8515625 29.5507812,32.7734375 C29.4335937,33.7109375 29.0429687,34.5898438 28.4570312,35.3125 C28.046875,35.8203125 27.3046875,35.8789063 26.8164062,35.46875 C26.3085937,35.0585938 26.25,34.3164062 26.6601562,33.828125 C27.2070312,33.1640625 27.4023437,32.2851562 27.1875,31.4453125 C27.1875,31.4257813 27.1679687,31.40625 27.1679687,31.3867188 C27.0507812,30.9570313 26.8164062,30.5664063 26.5039062,30.2539062 C26.0546875,29.8046875 26.0546875,29.0625 26.5039062,28.59375 C26.9140625,28.1054688 27.65625,28.1054688 28.125,28.5742188 Z M25.6640625,18.9257812 L25.6640625,18.9257812 C25.3515625,18.9257812 25.0585937,18.8085938 24.84375,18.59375 C24.6679687,18.4179688 24.5117188,18.2226562 24.375,18.0273438 C24.2773437,18.046875 24.1796875,18.0664062 24.0625,18.0664062 C23.4179687,18.0664062 22.890625,17.5390625 22.890625,16.8945312 C22.890625,16.4453125 23.1445312,16.0351562 23.5546875,15.8398437 C24.1015625,15.5664062 24.3945312,14.9609375 24.2382812,14.3554687 C24.0820312,13.7304688 24.453125,13.0859375 25.078125,12.9296875 C25.703125,12.7734375 26.3476562,13.1445312 26.5039063,13.7695312 C26.7382812,14.6679687 26.6210938,15.6054687 26.171875,16.40625 C26.2304688,16.6015625 26.3476563,16.7578125 26.484375,16.9140625 C26.953125,17.3632812 26.953125,18.1054687 26.5039063,18.5742187 C26.2890625,18.8085938 25.9960937,18.9257812 25.6640625,18.9257812 Z" id="Shape"></path>
        </g>
    </g>
</svg>