<?xml version="1.0" encoding="UTF-8"?>
<svg width="93px" height="93px" viewBox="0 0 93 93" version="1.1" xmlns="http://www.w3.org/2000/svg" xmlns:xlink="http://www.w3.org/1999/xlink">
    <!-- Generator: Sketch 61.2 (89653) - https://sketch.com -->
    <title>noun_Technology_1163691_Green</title>
    <desc>Created with Sketch.</desc>
    <g id="Page-1" stroke="none" stroke-width="1" fill="none" fill-rule="evenodd">
        <g id="noun_Technology_1163691_Green" fill="#09D5B0" fill-rule="nonzero">
            <path d="M82.6923077,73.066594 C82.0385273,73.066594 81.3846294,73.1434748 80.7692308,73.2588548 L80.7692308,73.066594 C80.7692308,65.6435452 74.7307412,59.6050556 67.3076923,59.6050556 C65.9807646,59.6050556 64.6923358,59.7973163 63.4422888,60.1819552 C63.4615385,59.9896944 63.4615385,59.7973163 63.4615385,59.6050556 C63.4615385,50.0665517 55.69235,42.2973633 46.1538462,42.2973633 C38.4039071,42.2973633 31.7885179,47.3358154 29.6154315,54.5473538 C28.1153752,54.0858342 26.5769371,53.8358248 25,53.8358248 C16.5192825,53.8358248 9.61538462,60.7397227 9.61538462,69.2204402 L9.61538462,69.3935688 C4.15391192,70.2973633 0,75.0474196 0,80.7589017 C0,87.1242817 5.17308154,92.2973633 11.5384615,92.2973633 L82.6923077,92.2973633 C88.0000188,92.2973633 92.3076923,87.9896898 92.3076923,82.6819787 C92.3076923,77.3935171 88.0000188,73.066594 82.6923077,73.066594 Z" id="Path"></path>
            <path d="M23.0325552,13.4145883 C35.7785738,0.669508654 56.5211369,0.667630577 69.2671556,13.4145883 C69.6427565,13.7901892 70.1347938,13.9779898 70.6268312,13.9779898 C71.1188685,13.9779898 71.6109058,13.7901892 71.9865067,13.4145883 C72.7377087,12.6633863 72.7377087,11.4464392 71.9865067,10.6952373 C57.7418402,-3.55130712 34.5616269,-3.55130712 20.3132044,10.6952373 C19.5620025,11.4455002 19.5620025,12.6633863 20.3132044,13.4145883 C21.0644063,14.1657902 22.2813533,14.1657902 23.0325552,13.4145883 Z" id="Path"></path>
            <path d="M63.8284537,21.5735802 C64.5796556,20.8223783 64.5796556,19.6044921 63.8284537,18.8542292 C54.0816087,9.10738423 38.21998,9.10738423 28.4731352,18.8542292 C27.7219333,19.6054312 27.7219333,20.8223783 28.4731352,21.5735802 C28.8487362,21.9491812 29.3407735,22.1369817 29.8328108,22.1369817 C30.3248481,22.1369817 30.8168854,21.9491812 31.1924863,21.5735802 C39.4388054,13.3282 52.8590279,13.3263221 61.1091029,21.5735802 C61.8603046,22.3247821 63.0772517,22.3247821 63.8284537,21.5735802 Z" id="Path"></path>
            <path d="M36.6311881,27.0132212 C35.8799862,27.763484 35.8799862,28.9813702 36.6311881,29.7325721 C37.38239,30.483774 38.5993371,30.483774 39.350539,29.7325721 C41.1665696,27.9165415 43.5816838,26.9165038 46.1507944,26.9165038 C48.7180269,26.9165038 51.1331412,27.9165413 52.9491719,29.7325721 C53.3247729,30.1081731 53.8168102,30.2959737 54.3088475,30.2959737 C54.8008848,30.2959737 55.2929221,30.1081731 55.6685231,29.7325721 C56.419725,28.9823092 56.419725,27.7644231 55.6685231,27.0132212 C53.1257046,24.4704027 49.7471738,23.07035 46.1507946,23.07035 C42.5544154,23.07035 39.1740065,24.4704027 36.6311881,27.0132212 Z" id="Path"></path>
        </g>
    </g>
</svg>