<?xml version="1.0" encoding="UTF-8"?>
<svg width="876px" height="479px" viewBox="0 0 876 479" version="1.1" xmlns="http://www.w3.org/2000/svg" xmlns:xlink="http://www.w3.org/1999/xlink">
    <!-- Generator: Sketch 63.1 (92452) - https://sketch.com -->
    <title>Presentation</title>
    <desc>Created with Sketch.</desc>
    <g id="Page-1" stroke="none" stroke-width="1" fill="none" fill-rule="evenodd">
        <g id="Scene" transform="translate(-977.000000, -287.000000)">
            <g id="Presentation" transform="translate(970.000000, 287.000000)">
                <g id="Laptop" transform="translate(7.000000, 0.000000)">
                    <path d="M137,0 L723,0 C739.568542,0 753,13.4314575 753,30 L753,395 C753,411.568542 739.568542,425 723,425 L137,425 C120.431458,425 107,411.568542 107,395 L107,30 C107,13.4314575 120.431458,0 137,0 Z" id="Rectangle" fill-opacity="0.100551792" fill="#09D5B0" fill-rule="nonzero"></path>
                    <g id="Group-51" transform="translate(481.000000, 243.000000)">
                        <g id="Group-37">
                            <path d="M14.36,12 L129.56,12 C130.973849,12 132.12,13.146151 132.12,14.56 L132.12,124.64 C132.12,126.053849 130.973849,127.2 129.56,127.2 L14.36,127.2 C12.946151,127.2 11.8,126.053849 11.8,124.64 L11.8,14.56 C11.8,13.146151 12.946151,12 14.36,12 Z" id="Rectangle" fill-opacity="0.401742788" fill="#09D5B0" fill-rule="nonzero"></path>
                            <path d="M2.56,0 L117.76,0 C119.173849,0 120.32,1.14615104 120.32,2.56 L120.32,112.64 C120.32,114.053849 119.173849,115.2 117.76,115.2 L2.56,115.2 C1.14615104,115.2 0,114.053849 0,112.64 L0,2.56 C0,1.14615104 1.14615104,0 2.56,0 Z" id="Rectangle" stroke-opacity="0.401742788" stroke="#09D5B0" stroke-width="1.6" fill="#FFFFFF" fill-rule="nonzero"></path>
                            <path d="M2.56,0 L117.76,0 C119.173849,0 120.32,1.14615104 120.32,2.56 L120.32,24.64 C120.32,26.053849 119.173849,27.2 117.76,27.2 L2.56,27.2 C1.14615104,27.2 0,26.053849 0,24.64 L0,2.56 C0,1.14615104 1.14615104,0 2.56,0 Z" id="Rectangle" fill="#15113B"></path>
                            <path d="M42.56,99.2 L78.08,99.2 C79.493849,99.2 80.64,100.346151 80.64,101.76 L80.64,102.4 C80.64,103.813849 79.493849,104.96 78.08,104.96 L42.56,104.96 C41.146151,104.96 40,103.813849 40,102.4 L40,101.76 C40,100.346151 41.146151,99.2 42.56,99.2 Z" id="Rectangle" fill="#15113B"></path>
                            <circle id="Oval" fill="#8EECDB" fill-rule="nonzero" cx="60.4" cy="62.8" r="28.4"></circle>
                        </g>
                    </g>
                    <g id="Group-51" transform="translate(138.000000, 241.000000)">
                        <g id="Group-37">
                            <path d="M16,12 L321,12 C323.209139,12 325,13.790861 325,16 L325,123 C325,125.209139 323.209139,127 321,127 L16,127 C13.790861,127 12,125.209139 12,123 L12,16 C12,13.790861 13.790861,12 16,12 Z" id="Rectangle" fill-opacity="0.401742788" fill="#09D5B0" fill-rule="nonzero"></path>
                            <path d="M4,0 L309,0 C311.209139,0 313,1.790861 313,4 L313,111 C313,113.209139 311.209139,115 309,115 L4,115 C1.790861,115 0,113.209139 0,111 L0,4 C0,1.790861 1.790861,0 4,0 Z" id="Rectangle" stroke-opacity="0.401742788" stroke="#09D5B0" stroke-width="2" fill="#FFFFFF" fill-rule="nonzero"></path>
                            <polygon id="Rectangle" fill-opacity="0.401742788" fill="#09D5B0" fill-rule="nonzero" points="251 1 262 1 262 115 251 115"></polygon>
                            <path d="M4,0 L19,0 C21.209139,0 23,1.790861 23,4 L23,111 C23,113.209139 21.209139,115 19,115 L4,115 C1.790861,115 0,113.209139 0,111 L0,4 C0,1.790861 1.790861,0 4,0 Z" id="Rectangle" fill="#15113B"></path>
                            <g id="Group-15" transform="translate(48.000000, 22.000000)">
                                <path d="M4,0 L92,0 C94.209139,0 96,1.790861 96,4 L96,5 C96,7.209139 94.209139,9 92,9 L4,9 C1.790861,9 0,7.209139 0,5 L0,4 C0,1.790861 1.790861,0 4,0 Z" id="Rectangle" fill="#FFD343"></path>
                                <path d="M4,20 L72,20 C74.209139,20 76,21.790861 76,24 L76,25 C76,27.209139 74.209139,29 72,29 L4,29 C1.790861,29 0,27.209139 0,25 L0,24 C0,21.790861 1.790861,20 4,20 Z" id="Rectangle" fill="#15113B"></path>
                            </g>
                            <path d="M291.804523,32.5 C291.804523,30.1527898 289.901733,28.25 287.554523,28.25 C285.006339,28.25 283.220135,29.670143 281.72306,31.9153488 C280.70481,33.4424461 279.829571,35.2974378 278.542678,38.4872164 L276.216478,44.3778549 L275.73493,45.5702252 L275.273137,46.6891827 C274.970398,47.4138631 274.676438,48.0991408 274.382476,48.7640942 L274.161867,49.2592966 C269.363964,59.9459466 264.350209,65.25 257.755427,65.25 C251.491192,65.25 247.417648,62.7086053 240.254481,55.2696251 L237.330797,52.1935684 L236.504123,51.3343178 C232.739854,47.4468681 230.238384,45.235984 227.032788,43.1543481 C222.084938,39.9413346 216.746744,38.25 210.599837,38.25 C204.053586,38.25 198.170201,41.1106044 192.816746,46.2927241 C188.827587,50.154212 185.26045,55.1209266 181.512142,61.6010227 L180.89544,62.6799023 L180.062921,64.1865725 C178.026965,67.9130892 174.65697,74.3003901 173.366328,76.6670633 L172.981776,77.3612742 C171.827279,79.3807849 170.900997,80.7820355 170.150732,81.6441532 C169.966767,81.8555454 169.810667,82.0143698 169.692087,82.1212255 C167.668672,82.4471719 166.123217,84.2015738 166.123217,86.3169362 C166.123217,88.6641464 168.026007,90.5669362 170.373217,90.5669362 C174.30239,90.5669362 176.72428,87.8780413 180.14157,81.9618247 L180.583019,81.1835086 L181.228359,79.9983085 C183.126033,76.4823899 187.079761,68.9879674 188.491312,66.5158079 L189.098528,65.4641383 C196.368282,53.0158177 203.045437,46.75 210.599837,46.75 C218.513373,46.75 223.240222,49.7379314 231.593865,58.4946208 L233.32245,60.3186693 C237.587086,64.8137206 240.157726,67.1992715 243.413819,69.3423939 C247.80161,72.2303859 252.46251,73.75 257.755427,73.75 C263.770501,73.75 268.923069,71.2126391 273.247099,66.6382448 C276.447757,63.2522677 279.088346,58.923186 281.624064,53.3850945 L281.916208,52.7407034 C282.60523,51.2060031 287.568448,38.657679 288.735262,36.7256188 L288.850792,36.5486919 C290.564069,36.000605 291.804523,34.3951642 291.804523,32.5 Z" id="Path-5" fill="#15113B"></path>
                        </g>
                    </g>
                    <g id="Group-51" transform="translate(481.000000, 45.000000)">
                        <g id="Group-37" transform="translate(10.125000, 10.125000)" fill="#09D5B0" fill-opacity="0.401742788" fill-rule="nonzero">
                            <path d="M2.7,0 L208.575,0 C210.066169,0 211.275,1.20883118 211.275,2.7 L211.275,162.425 C211.275,163.916169 210.066169,165.125 208.575,165.125 L2.7,165.125 C1.20883118,165.125 0,163.916169 0,162.425 L0,2.7 C0,1.20883118 1.20883118,0 2.7,0 Z" id="Rectangle"></path>
                        </g>
                        <g id="Group-37">
                            <path d="M2.7,0 L208.575,0 C210.066169,0 211.275,1.20883118 211.275,2.7 L211.275,162.425 C211.275,163.916169 210.066169,165.125 208.575,165.125 L2.7,165.125 C1.20883118,165.125 0,163.916169 0,162.425 L0,2.7 C0,1.20883118 1.20883118,0 2.7,0 Z" id="Rectangle" stroke-opacity="0.401742788" stroke="#09D5B0" stroke-width="2" fill="#FFFFFF" fill-rule="nonzero"></path>
                            <path d="M139.806168,71.8469161 L83.9834581,99.758271 C81.5827226,100.958639 78.6634516,99.9855484 77.4630839,97.5848129 C77.1256651,96.9099755 76.95,96.165846 76.95,95.4113548 L76.95,39.5886452 C76.95,36.9045413 79.1258961,34.7286452 81.81,34.7286452 C82.5644912,34.7286452 83.3086207,34.9043103 83.9834581,35.241729 L139.806168,63.1530839 C142.206903,64.3534516 143.179994,67.2727226 141.979626,69.6734581 C141.509354,70.6140012 140.746711,71.3766446 139.806168,71.8469161 Z" id="Triangle" fill="#15113B" fill-rule="nonzero"></path>
                            <path d="M3.375,121.925 L207.9,121.925 C209.391169,121.925 210.6,123.133831 210.6,124.625 L210.6,163.1 C210.6,164.591169 209.391169,165.8 207.9,165.8 L3.375,165.8 C1.88383118,165.8 0.675,164.591169 0.675,163.1 L0.675,124.625 C0.675,123.133831 1.88383118,121.925 3.375,121.925 Z" id="Rectangle" fill="#15113B" fill-rule="nonzero"></path>
                            <path d="M40.5918503,144.154075 L23.7100374,152.594981 C22.9898168,152.955092 22.1140355,152.663165 21.7539252,151.942944 C21.6526995,151.740493 21.6,151.517254 21.6,151.290906 L21.6,134.409094 C21.6,133.603862 22.2527688,132.951094 23.058,132.951094 C23.2843473,132.951094 23.5075862,133.003793 23.7100374,133.105019 L40.5918503,141.545925 C41.312071,141.906035 41.6039981,142.781817 41.2438877,143.502037 C41.1028063,143.7842 40.8740133,144.012993 40.5918503,144.154075 Z" id="Triangle" fill="#FFD343"></path>
                            <path d="M58.05,140.15 L191.7,140.15 C193.191169,140.15 194.4,141.358831 194.4,142.85 L194.4,143.525 C194.4,145.016169 193.191169,146.225 191.7,146.225 L58.05,146.225 C56.5588312,146.225 55.35,145.016169 55.35,143.525 L55.35,142.85 C55.35,141.358831 56.5588312,140.15 58.05,140.15 Z" id="Rectangle" fill="#FFFFFF" fill-rule="nonzero"></path>
                        </g>
                    </g>
                    <g id="Group-51" transform="translate(136.000000, 43.000000)">
                        <g id="Group-54" transform="translate(656.000000, 349.000000) scale(-1, 1) translate(-656.000000, -349.000000) translate(572.000000, 282.000000)" fill-rule="nonzero">
                            <path d="M110.073041,101.768403 L106.83668,132.544057 L83.6436591,131.399522 C67.2971663,130.910492 52.8686337,125.95228 40.3580611,116.524888 C36.0388411,113.270122 52.7134107,100.84968 46.0885727,95.8575067 C39.4637348,90.8653333 33.8536784,111.623484 25.2228316,105.119674 C13.4954279,96.2824417 5.37174001,80.3017392 0.851767845,57.1775667 L2.55521697,56.7905953 C14.623376,54.0912259 21.6100718,53.4593891 23.5153043,54.8950847 C26.5050538,57.1480226 19.9182724,72.2684315 27.6173246,73.0147542 C35.3163769,73.761077 22.3428235,51.3220713 34.3471413,53.3518057 C46.3514591,55.3815402 49.3644353,53.6570772 50.675136,57.9444663 C51.9858368,62.2318555 43.187555,71.4666767 51.4324754,75.9321821 C59.6773958,80.3976875 55.814256,58.9296029 59.7846345,59.2546126 C62.4315535,59.4712858 79.1943558,73.6425493 110.073041,101.768403 Z M62.8494029,100.782546 C60.2267063,100.737818 58.4053288,104.154038 58.7812424,108.412886 C59.1571561,112.671735 61.5880101,116.160473 64.2107068,116.205202 C66.8334034,116.24993 68.6547809,112.83371 68.2788673,108.574862 C67.9029536,104.316013 65.4720996,100.827275 62.8494029,100.782546 Z" id="Shape" fill="#09D5B0"></path>
                            <path d="M92.9229153,133.48 C86.2062288,133.190943 82.4967969,130.323424 81.7946196,124.877443 C80.7413538,116.708471 89.7142767,106.859188 84.3406468,100.598028 C78.9670168,94.3368678 79.761381,96.8009532 75.1801758,88.4588054 C70.5989705,80.1166575 78.9124857,77.8449576 72.8801527,67 C66.8478197,56.1550424 57.9031384,60.8402126 47.6544457,38.6011018 C37.405753,16.3619911 47.834618,0.28 50.6402566,0.28 C53.4458951,0.28 55.9147114,9.33775327 64.4618043,13.4816982 C73.0088973,17.6256431 75.8746692,14.6519286 87.3648606,23.8109316 C98.8550519,32.9699347 93.4464724,43.1659091 98.04,47.3208 C102.633528,51.4756909 108.181648,53.6715265 112.912636,57 C117.643623,60.3284735 131.255277,54.3734969 132.013978,76.6803132 C132.178129,81.5065654 109.837253,101.24716 125.233576,104.863364 C135.041795,107.167064 140.910603,116.561414 142.84,133.046415 L92.9229153,133.48 Z" id="Path-89" fill="#15113B"></path>
                            <path d="M163.588508,133.48 C170.059034,114.365431 167.436687,99.9696849 155.721466,90.2927611 L155.363676,90.0009654 C137.335017,75.4833988 156.81697,65.5513786 148.401865,54.7462441 L147.950098,54.1730714 C140.636338,45.003212 136.531097,45.0481027 138.358524,26.1813444 C140.223245,6.92955024 110.061165,0.285423973 110.061165,0.285423973 L108.582331,3.15749455 C104.717808,10.7389009 96.6313899,28.1141505 103.816746,38.056158 L104.07672,38.4039379 C112.956002,49.8918477 94.4643766,69.5353026 103.499392,81.0070218 C112.534407,92.478741 108.329982,100.136285 105.639824,109.767344 C103.846385,116.18805 107.321433,124.092269 116.064968,133.48 L163.588508,133.48 Z" id="Path-5" fill="#FFD343"></path>
                        </g>
                        <g id="Group-37">
                            <path d="M16,13 L321,13 C323.209139,13 325,14.790861 325,17 L325,174 C325,176.209139 323.209139,178 321,178 L16,178 C13.790861,178 12,176.209139 12,174 L12,17 C12,14.790861 13.790861,13 16,13 Z" id="Rectangle" fill-opacity="0.401742788" fill="#09D5B0" fill-rule="nonzero"></path>
                            <path d="M4,0 L309,0 C311.209139,0 313,1.790861 313,4 L313,161 C313,163.209139 311.209139,165 309,165 L4,165 C1.790861,165 0,163.209139 0,161 L0,4 C0,1.790861 1.790861,0 4,0 Z" id="Rectangle" stroke-opacity="0.401742788" stroke="#09D5B0" stroke-width="2" fill="#FFFFFF" fill-rule="nonzero"></path>
                            <g id="Group-5" transform="translate(38.250000, 38.250000)"></g>
                        </g>
                        <g id="Group-3" transform="translate(218.250000, 33.250000)">
                            <path d="M28.75,57.5 C44.6281866,57.5 57.5,44.6281866 57.5,28.75 C57.5,12.8718134 44.6281866,0 28.75,0 C12.8718134,0 0,12.8718134 0,28.75 C0,44.6281866 12.8718134,57.5 28.75,57.5 Z M28.75,46 C19.2230881,46 11.5,38.2769119 11.5,28.75 C11.5,19.2230881 19.2230881,11.5 28.75,11.5 C38.2769119,11.5 46,19.2230881 46,28.75 C46,38.2769119 38.2769119,46 28.75,46 Z" id="Oval" fill="#15113B"></path>
                            <path d="M57.5,28.75 C57.5,12.8718134 44.6281866,0 28.75,0 C25.5743627,0 23,2.57436269 23,5.75 C23,8.92563731 25.5743627,11.5 28.75,11.5 C38.1686516,11.5 45.8242423,19.0485606 45.9970168,28.4259264 L46,28.75 C46,31.9256373 48.5743627,34.5 51.75,34.5 C54.9256373,34.5 57.5,31.9256373 57.5,28.75 Z" id="Path" fill="#FFD343" fill-rule="nonzero"></path>
                        </g>
                        <g id="Group-4" transform="translate(128.250000, 33.250000)">
                            <path d="M28.75,57.5 C44.6281866,57.5 57.5,44.6281866 57.5,28.75 C57.5,12.8718134 44.6281866,0 28.75,0 C12.8718134,0 0,12.8718134 0,28.75 C0,44.6281866 12.8718134,57.5 28.75,57.5 Z M28.75,46 C19.2230881,46 11.5,38.2769119 11.5,28.75 C11.5,19.2230881 19.2230881,11.5 28.75,11.5 C38.2769119,11.5 46,19.2230881 46,28.75 C46,38.2769119 38.2769119,46 28.75,46 Z" id="Oval" fill="#15113B"></path>
                            <path d="M28.75,57.5 C44.6281866,57.5 57.5,44.6281866 57.5,28.75 C57.5,12.8718134 44.6281866,0 28.75,0 C25.5743627,0 23,2.57436269 23,5.75 C23,8.92563731 25.5743627,11.5 28.75,11.5 C38.2769119,11.5 46,19.2230881 46,28.75 C46,38.1686516 38.4514394,45.8242423 29.0740736,45.9970168 L28.75,46 C25.5743627,46 23,48.5743627 23,51.75 C23,54.9256373 25.5743627,57.5 28.75,57.5 Z" id="Path" fill="#D8D8D8" fill-rule="nonzero"></path>
                        </g>
                        <g id="Group-6" transform="translate(38.250000, 33.250000)">
                            <path d="M28.75,57.5 C44.6281866,57.5 57.5,44.6281866 57.5,28.75 C57.5,12.8718134 44.6281866,0 28.75,0 C12.8718134,0 0,12.8718134 0,28.75 C0,44.6281866 12.8718134,57.5 28.75,57.5 Z M28.75,46 C19.2230881,46 11.5,38.2769119 11.5,28.75 C11.5,19.2230881 19.2230881,11.5 28.75,11.5 C38.2769119,11.5 46,19.2230881 46,28.75 C46,38.2769119 38.2769119,46 28.75,46 Z" id="Oval" fill="#15113B"></path>
                            <path d="M0,28.75 C0,44.6281866 12.8718134,57.5 28.75,57.5 C44.6281866,57.5 57.5,44.6281866 57.5,28.75 C57.5,12.8718134 44.6281866,0 28.75,0 C25.5743627,0 23,2.57436269 23,5.75 C23,8.92563731 25.5743627,11.5 28.75,11.5 C38.2769119,11.5 46,19.2230881 46,28.75 C46,38.2769119 38.2769119,46 28.75,46 C19.2230881,46 11.5,38.2769119 11.5,28.75 C11.5,25.5743627 8.92563731,23 5.75,23 C2.57436269,23 0,25.5743627 0,28.75 Z" id="Path" fill="#09D5B0"></path>
                        </g>
                        <g id="Group-8" transform="translate(45.000000, 113.000000)">
                            <path d="M4,0 L32,0 C34.209139,0 36,1.790861 36,4 L36,5 C36,7.209139 34.209139,9 32,9 L4,9 C1.790861,9 0,7.209139 0,5 L0,4 C0,1.790861 1.790861,0 4,0 Z" id="Rectangle" fill="#15113B"></path>
                            <path d="M4,17 L52,17 C54.209139,17 56,18.790861 56,21 L56,22 C56,24.209139 54.209139,26 52,26 L4,26 C1.790861,26 0,24.209139 0,22 L0,21 C0,18.790861 1.790861,17 4,17 Z" id="Rectangle" fill="#09D5B0"></path>
                        </g>
                        <g id="Group-7" transform="translate(133.000000, 113.000000)">
                            <path d="M4,0 L32,0 C34.209139,0 36,1.790861 36,4 L36,5 C36,7.209139 34.209139,9 32,9 L4,9 C1.790861,9 0,7.209139 0,5 L0,4 C0,1.790861 1.790861,0 4,0 Z" id="Rectangle" fill="#15113B"></path>
                            <path d="M4,17 L52,17 C54.209139,17 56,18.790861 56,21 L56,22 C56,24.209139 54.209139,26 52,26 L4,26 C1.790861,26 0,24.209139 0,22 L0,21 C0,18.790861 1.790861,17 4,17 Z" id="Rectangle" fill="#D8D8D8" fill-rule="nonzero"></path>
                        </g>
                        <g id="Group-9" transform="translate(221.000000, 113.000000)">
                            <path d="M4,0 L32,0 C34.209139,0 36,1.790861 36,4 L36,5 C36,7.209139 34.209139,9 32,9 L4,9 C1.790861,9 0,7.209139 0,5 L0,4 C0,1.790861 1.790861,0 4,0 Z" id="Rectangle" fill="#15113B"></path>
                            <path d="M4,17 L52,17 C54.209139,17 56,18.790861 56,21 L56,22 C56,24.209139 54.209139,26 52,26 L4,26 C1.790861,26 0,24.209139 0,22 L0,21 C0,18.790861 1.790861,17 4,17 Z" id="Rectangle" fill="#FFD343" fill-rule="nonzero"></path>
                        </g>
                    </g>
                    <path d="M5,425 L737,425 C739.761424,425 742,427.238576 742,430 L742,442.5 C742,452.164983 734.164983,460 724.5,460 L17.5,460 C7.83501688,460 0,452.164983 0,442.5 L0,430 C0,427.238576 2.23857625,425 5,425 Z" id="Rectangle" fill="#09D5B0" fill-rule="nonzero"></path>
                    <path d="M5,425 L667,425 C669.761424,425 672,427.238576 672,430 L672,442.5 C672,452.164983 664.164983,460 654.5,460 L17.5,460 C7.83501688,460 0,452.164983 0,442.5 L0,430 C0,427.238576 2.23857625,425 5,425 Z" id="Rectangle" fill="#8EECDB" fill-rule="nonzero"></path>
                    <path d="M654.5,460 L17.5,460 C9.39111396,460 2.57036853,454.484814 0.584239223,447.000919 L671.415761,447.000919 C669.429631,454.484814 662.608886,460 654.5,460 Z" id="Path" fill="#09D5B0" fill-rule="nonzero"></path>
                    <path d="M415,425 L415,433 C415,436.313708 412.313708,439 409,439 L272,439 C268.686292,439 266,436.313708 266,433 L266,425 L415,425 Z" id="Path" fill="#09D5B0" fill-rule="nonzero"></path>
                </g>
                <g id="Group-13" transform="translate(678.500000, 272.000000) scale(-1, 1) translate(-678.500000, -272.000000) translate(624.000000, 118.000000)">
                    <g id="Group-12" transform="translate(1.708794, 124.438046)">
                        <path d="M0.682932201,164.479279 L0.682932201,181.508641 C0.682932201,181.994652 1.07692162,182.388641 1.5629322,182.388641 L2.26856132,182.388641 C2.69073244,182.388641 3.05342105,182.088834 3.132847,181.674202 L4.87989809,172.55396 L6.09598515,173.932441 C11.1138684,179.569908 14.2130459,182.388641 15.3935175,182.388641 L25.6927806,182.388641 L25.6927806,182.388641 C26.6647925,182.388641 27.4527638,181.600653 27.4527638,180.628641 C27.4527638,180.228023 27.3160866,179.839393 27.0653168,179.526968 C26.3850645,178.679465 25.6816655,178.017204 24.9551198,177.540185 L24.6815802,177.369985 C23.2191441,176.509877 19.7601083,171.89274 14.304473,163.518575 C13.9796578,163.019973 13.424884,162.719279 12.8298131,162.719279 L2.4429322,162.719279 C1.47091104,162.719279 0.682932201,163.507258 0.682932201,164.479279 Z" id="Path-49" fill="#15113B"></path>
                        <path d="M45.5629322,163.599279 L45.5629322,181.508641 C45.5629322,181.994652 45.9569216,182.388641 46.4429322,182.388641 L47.1485613,182.388641 C47.5707324,182.388641 47.9334211,182.088834 48.012847,181.674202 L49.7598981,172.55396 L50.9759852,173.932441 C55.9938684,179.569908 59.0930459,182.388641 60.2735175,182.388641 L72.7405859,182.388641 L72.7405859,182.388641 C73.7126085,182.388641 74.5005885,181.600664 74.5005885,180.628641 C74.5005885,180.364659 74.4412057,180.104057 74.3268376,179.866136 C73.8529448,178.880289 73.216505,178.122947 72.4175182,177.594107 L72.1955827,177.455544 C70.7049853,176.578873 66.2826628,171.771233 58.9286153,163.032625 C58.7613935,162.833967 58.5149814,162.719279 58.255312,162.719279 L46.4429322,162.719279 C45.9569216,162.719279 45.5629322,163.113268 45.5629322,163.599279 Z" id="Path-49" fill="#15113B"></path>
                        <path d="M3.8113479,115.422447 L3.81164347,114.981295 C3.81164347,104.471466 6.22191665,95.293072 6.32041536,89.7322109 C6.41891407,84.1713498 0.744930763,34.9231035 3.10199317,22.5354961 C4.60504746,14.6361522 6.73739903,7.41987318 9.49904788,0.886658973 L9.87953696,4.54747351e-13 L49.5353754,4.54747351e-13 L52.4673761,26.7234267 C56.7436424,65.9628472 58.9075363,87.2218011 58.9590575,90.5002885 L58.9380216,92.6978857 C58.8602771,97.9255472 58.5762769,111.318107 58.0860211,132.875566 L57.3602808,164.302 L57.4020808,164.302198 L57.8902999,164.974986 C62.4209648,171.25917 63.8902682,174.485168 62.2982101,174.65298 C61.2282207,174.765762 56.2039981,171.492011 47.2255423,164.831727 L47.2255423,164.302198 L45.8934004,151.400909 C44.0362522,133.756548 42.6912094,122.588293 41.8582721,117.896143 L41.7667271,117.395597 C40.3347491,109.814339 40.8312495,97.2693189 40.8826507,93.2063203 L40.8867271,92.6540983 C40.8867271,90.4363502 37.6299509,72.6997222 31.1163986,39.4442142 L29.8989681,48.254968 C26.5542381,72.6533184 24.8261276,87.022 24.7146366,91.3610126 L24.7041835,92.0469941 C24.5557823,96.7458244 20.8828527,119.398727 13.6853947,160.005701 L12.7551061,165.243929 L13.2562339,165.908919 C17.7407426,171.901726 19.2232652,175.063834 17.7038016,175.395242 C16.1290847,175.738701 11.2618153,172.35493 3.10199317,165.243929 L3.49305081,142.193578 C3.69897668,129.156245 3.80507571,120.232534 3.8113479,115.422447 Z" id="Path" fill="#FFA475"></path>
                        <path d="M4.63309138,68.2191883 L18.2806121,73.5132767 L25.6086822,81.4784842 L25.3688277,83.6433145 C25.3503858,83.8141254 25.3323305,83.9825384 25.3146616,84.1485534 L23.0156059,84.5712572 C14.9460022,86.0905822 10.8393263,87.2734157 10.6952325,88.1193311 L10.6742787,88.4940574 C10.4586415,91.7634778 8.19445148,117.571892 3.88170854,165.919299 L3.10199317,165.243929 L3.10199317,165.243929 L3.49305081,142.193578 C3.69897668,129.156245 3.80507571,120.232534 3.8113479,115.422447 L3.81164347,114.981295 C3.81164347,104.471466 6.22191665,95.293072 6.32041536,89.7322109 L6.32142731,89.5029228 C6.30493576,87.007705 5.49824441,78.4898177 4.63309138,68.2191883 Z" id="Path" fill-opacity="0.0964543269" fill="#000000" fill-rule="nonzero"></path>
                        <path d="M38.5876766,78.471479 L58.0598033,79.7386619 L58.2768837,82.000287 L58.2768837,82.000287 L56.9239751,82.3568501 C48.8757252,84.5232799 44.8520702,86.4593177 44.8520702,88.1651378 L44.8759894,89.0474125 C45.0593695,94.2066511 46.2971856,119.803521 48.5894377,165.838023 L47.6876598,165.174056 C47.5348355,165.061027 47.3807799,164.946883 47.2255423,164.831727 L47.2255423,164.302198 L45.8934004,151.400909 C44.0362522,133.756548 42.6912094,122.588293 41.8582721,117.896143 L41.7667271,117.395597 C40.3347491,109.814339 40.8312495,97.2693189 40.8826507,93.2063203 L40.8867271,92.6540983 C40.8867271,91.5782975 40.120377,86.8507577 38.5876766,78.471479 Z" id="Path" fill-opacity="0.0964543269" fill="#000000" fill-rule="nonzero"></path>
                    </g>
                    <g id="Group-18" transform="translate(44.000000, 19.360000)">
                        <path d="M20.3768079,44.3185944 L20.3768079,57.8385987 L21.1711656,58.4521593 C28.0952129,63.7636792 32.5606082,66.2061659 34.5673513,65.7796195 C37.6910552,65.1156557 56.8107518,25.0882176 59.1687614,22.3745561 C61.5267711,19.6608945 63.3895261,16.0970325 63.7810933,13.656139 C64.0421381,12.0288767 62.2056574,10.3779633 58.2716514,8.703399 C58.6931006,6.21156523 59.3095736,4.69466478 60.1210705,4.15269766 L61.209312,3.44007181 C62.6789713,2.47133852 64.6649347,1.0789738 64.5093904,0.347195268 C64.3084789,-0.598018666 59.6248114,1.62474844 58.0760797,3.03358345 L57.967708,3.14064303 C57.226409,3.92235679 55.4411585,6.67379592 52.6119566,11.3949604 C51.9701045,9.48123879 51.3469731,8.06972578 50.7425622,7.16042137 C49.8591926,5.83143801 48.3276536,5.78811442 48.8076103,8.05363731 L48.8497291,8.2373098 C49.4528608,10.687895 49.1834339,13.0597725 50.3405069,15.2508679 C51.460255,17.3712829 52.9850486,18.7147382 52.1058647,20.951059 L52.009829,21.1777291 C51.291614,22.7605895 43.8709491,32.7945232 29.7478344,51.2795304 L20.3768079,44.3185944 Z" id="Path-31" fill="#FFA475"></path>
                        <path d="M59.3610533,18.5914714 C57.9487937,18.5914714 55.5751157,15.8009035 54.9195864,15.8977291 C54.3326384,15.9844249 52.3416565,15.3817543 52.7863664,14.6494143 L53.1578035,14.0416277 C54.0826303,12.5598422 56.3042465,9.27139344 58.0011196,9.5118721 C60.0161563,9.79744051 63.8166293,12.2693238 63.4846275,14.5760532 C63.1526256,16.8827826 60.7733129,18.5914714 59.3610533,18.5914714 Z" id="Path-24" fill-opacity="0.0964543269" fill="#000000" fill-rule="nonzero"></path>
                        <path d="M59.3610533,17.7114714 C57.9487937,17.7114714 55.5751157,14.9209035 54.9195864,15.0177291 C54.3326384,15.1044249 52.3416565,14.5017543 52.7863664,13.7694143 L53.1578035,13.1616277 C54.0826303,11.6798422 56.3042465,8.39139344 58.0011196,8.6318721 C60.0161563,8.91744051 63.8166293,11.3893238 63.4846275,13.6960532 C63.1526256,16.0027826 60.7733129,17.7114714 59.3610533,17.7114714 Z" id="Path-24" fill="#FFA475"></path>
                        <path d="M2.33736931,24.8480913 C6.4902674,25.0587164 30.4609668,47.2515659 31.8881054,47.2515659 C32.8395311,47.2515659 38.6957135,39.2525036 49.4566528,23.2543789 L57.0590461,30.8032136 L55.204193,34.3990848 C43.6951764,56.5895273 36.715497,67.6952124 34.2651549,67.7161896 C30.3961937,67.7488832 10.2573444,51.5991077 5.84881707,46.7799011 C1.44028971,41.9606946 -1.81552878,24.6374663 2.33736931,24.8480913 Z" id="Path-72" fill="#26234A" fill-rule="nonzero"></path>
                        <path d="M3.68472587,31.0685394 L30.9794345,66.3909613 C24.474649,63.1194622 9.64747991,50.9324308 5.84881707,46.7799011 C5.69162735,46.6080683 5.53590311,46.4203386 5.38192795,46.2180737 L3.68472587,31.0685394 Z" id="Path" fill="#15113B" fill-rule="nonzero"></path>
                        <polygon id="Path-73" fill="#15113B" fill-rule="nonzero" points="49.696631 20.8921607 47.3311528 23.9591349 56.3526457 34.3558103 59.2427941 27.6239855"></polygon>
                    </g>
                    <path d="M5.85228217,46.5857263 C10.8759157,40.4361158 45.7687533,43.7670604 46.5550847,44.248137 C52.1272797,54.5264007 55.2811067,62.2506045 56.0165657,67.4207484 C57.1197543,75.1759643 54.9998808,82.8767364 53.8355079,87.0955291 L50.9267366,125.441388 L8.83656241,125.885933 C11.0059424,110.721277 12.0516452,101.772936 11.9736709,99.0409103 C11.8567095,94.9428722 1.19041887,52.2924808 5.85228217,46.5857263 Z" id="Path" fill="#26234A" fill-rule="nonzero"></path>
                    <path d="M9.90605635,50.1632136 L23.1872593,90.5135677 L53.1600989,102.835214 L52.9090989,105.369214 L52.1890133,106.862018 L9.97054509,117.77466 L10.2640339,115.59452 C11.4386011,106.77782 12.0093818,101.301339 11.9763758,99.1650777 L11.9736709,99.0409103 C11.8743891,95.5623201 3.91339271,64.4773447 4.36022686,51.6690231 L9.90605635,50.1632136 Z" id="Path" fill="#15113B" fill-rule="nonzero"></path>
                    <path d="M31.5366431,47.7629262 L32.7879406,47.3426234 L33.1960074,48.56588 L33.7817441,50.3537527 C37.1379274,60.7162949 39.728323,68.1461679 39.7905201,72.6818737 L39.7922804,72.935521 C39.7922804,75.6482297 39.5685398,78.6691447 39.0876662,83.2823571 L38.4774348,89.0947365 L38.3347986,90.5552712 L38.2207287,91.8216974 C38.0530765,93.790702 37.9943933,95.101305 37.9943933,96.5054237 L37.9943933,122.309186 L36.6743933,122.309186 L36.6768877,96.0043087 L36.6869349,95.4044062 L36.7165252,94.5190973 C36.7818926,93.004741 36.9309798,91.243819 37.2158255,88.450952 L37.7747796,83.145504 C38.2341674,78.7384138 38.456162,75.8051976 38.4714328,73.2212465 L38.4722804,72.935521 C38.4722804,68.1937569 35.5748433,59.7851872 31.5366431,47.7629262 Z" id="Path" fill="#FFD343" fill-rule="nonzero"></path>
                    <g id="Group-29" transform="translate(0.016559, 44.582195)">
                        <g id="Group-14" transform="translate(57.543441, 49.357805) scale(-1, 1) translate(-57.543441, -49.357805) translate(39.543441, 32.857805)" fill-rule="nonzero">
                            <g id="Group-8" transform="translate(17.905078, 16.704174) rotate(36.000000) translate(-17.905078, -16.704174) translate(1.905078, 8.704174)">
                                <path d="M12.5862787,0.826009926 L0.722210847,9.11376655 C0.354434074,9.37068049 0.243184705,9.85790022 0.447154528,10.2447088 L0.505306201,10.3399258 L0.505306201,10.3399258 L1.28715062,11.4565153 C1.40926019,11.6309059 1.59044895,11.7551175 1.79713823,11.8061307 L17.9542091,15.7938755 C18.2008359,15.8547457 18.4617354,15.8060708 18.6698225,15.6603667 L30.8751,7.11413943 C31.2732165,6.83537521 31.3699707,6.28665492 31.0912065,5.88853836 C30.9745518,5.72193819 30.8037918,5.60088767 30.6079648,5.54597194 L13.32784,0.700108219 C13.0742666,0.628998651 12.8021739,0.675194343 12.5862787,0.826009926 Z" id="Path-25" fill="#514E6D"></path>
                                <path d="M13.7266619,2.75676291 L30.6437828,7.27594723 L18.6698225,15.6603667 C18.4964166,15.7817868 18.2863354,15.8358255 18.0784013,15.8152398 L17.9542091,15.7938755 L1.79713823,11.8061307 C1.6317868,11.7653201 1.48275571,11.6776626 1.36723723,11.554944 L1.28715062,11.4565153 L1.25678284,11.4129472 L12.9823076,2.89501856 C13.1969073,2.73910278 13.4703877,2.68830679 13.7266619,2.75676291 Z" id="Path" fill="#FFDC69"></path>
                            </g>
                        </g>
                        <path d="M13.5697599,30.2178055 L14.4348274,39.3224586 C15.3047821,48.2257647 15.8333498,52.6845657 16.0205306,52.6988619 L30.9114813,53.8273957 C39.3615895,54.4448985 42.4619496,54.5731771 43.1034409,54.2122314 L43.3469862,54.0671333 C44.8409792,53.1350948 47.5434424,50.7928202 47.5434424,51.6783175 L47.5224259,52.8773453 C47.5124486,53.9372633 47.5639703,55.1548854 48.004246,55.1548854 L48.5682896,55.1729963 C51.2372492,55.2780138 62.0930699,55.8251848 62.0930699,56.4316122 L62.0898875,56.575722 C62.0703979,56.9465691 61.937572,57.3918376 61.0876605,57.8018937 L60.9079382,57.8834029 C60.2119213,58.1805946 58.3223531,59.173504 58.0852461,59.6925103 C57.4605169,61.0599874 55.0262082,62.8556028 54.0860813,62.8556028 L53.9106316,62.8500565 C52.4544928,62.7772896 45.4419567,62.0123495 43.2580202,61.9750786 L43.1034409,61.9736699 C41.0222239,61.9736699 13.8376819,65.4178055 10.5434409,63.6578055 C8.34728022,62.4844721 5.70728022,51.8823754 2.62344088,31.8515152 C4.3170873,32.7217598 6.1134519,32.9816548 8.01253467,32.6312002 C9.91161745,32.2807456 11.7640259,31.4762807 13.5697599,30.2178055 Z" id="Path-57" fill="#FFA475"></path>
                        <path d="M18.6797864,52.0222258 L39.0922347,54.0342724 L38.6364714,63.0546418 L36.1947996,63.5185817 C19.6425586,66.6122296 10.062086,67.3140337 7.45338177,65.6239939 C4.34169795,63.6081007 0.0767646745,32.9917909 0.0767646745,15.2828803 C0.0767646745,8.27195233 3.82971024,4.07971493 4.69644933,3.12210402 C6.53440429,1.09145173 8.29407093,0.0983465288 9.97544925,0.14278841 L18.6797864,52.0222258 Z" id="Path-55" fill="#26234A" fill-rule="nonzero"></path>
                        <polygon id="Path-74" fill="#15113B" fill-rule="nonzero" points="42.2527654 53.6510809 41.0647628 64.1586229 34.4718203 64.1586229 38.6364714 53.0160711"></polygon>
                    </g>
                    <path d="M9.65427197,120.038046 C8.30977318,122.390568 7.42886319,124.003191 7.01154198,124.875916 C6.85371232,125.205978 6.71208849,125.516744 6.58667052,125.808214 C4.77665526,130.014671 3.29791,135.151402 2.15043474,141.218407 C-0.459214604,155.016311 4.45784783,198.123246 4.34879383,204.317196 C4.33895506,204.87601 4.8163767,205.369273 5.69321831,205.800016 C6.07369643,205.986923 6.7847811,203.334445 7.82647231,197.842581 C9.02253748,203.918753 9.9632147,207.012142 10.648504,207.122748 C25.9815873,209.597525 63.9942833,207.480499 63.9942833,202.865293 C63.9942833,199.00766 59.8451233,171.398578 51.5468034,120.038046 C47.1992698,121.504713 42.0518226,122.238046 36.1044617,122.238046 C30.1571009,122.238046 21.340371,121.504713 9.65427197,120.038046 Z" id="Path-48" fill="#383458" fill-rule="nonzero"></path>
                    <path d="M9.65427197,120.038046 L11.9532335,120.321601 C22.5031822,121.599231 30.5535916,122.238046 36.1044617,122.238046 C41.3250691,122.238046 45.9293135,121.672985 49.9171948,120.542865 L51.9075842,122.272249 L51.9172658,122.332238 L51.9172658,122.332238 L51.952181,122.309186 C44.2883195,126.92654 31.4180874,128.677003 13.3414848,127.560575 C10.693119,127.39701 8.29098203,127.174162 6.13507385,126.892032 L6.35246023,126.362158 L6.58667052,125.808214 C6.71208849,125.516744 6.85371232,125.205978 7.01154198,124.875916 L7.21877692,124.456591 C7.69001275,123.527342 8.50184444,122.054493 9.65427197,120.038046 Z" id="Path" fill="#15113B" fill-rule="nonzero"></path>
                    <path d="M3.46879383,135.470412 C1.90969532,141.00282 2.5483401,149.292332 5.38472817,160.338948 L6.34458187,163.990093 C9.06815388,174.261572 13.0954189,188.900642 18.426377,207.907304 C15.4887195,207.735773 12.8374936,207.476054 10.648504,207.122748 C9.9632147,207.012142 9.02253748,203.918753 7.82647231,197.842581 L7.61800984,198.926318 C6.68935192,203.682947 6.04775474,205.97418 5.69321831,205.800016 C4.8163767,205.369273 4.33895506,204.87601 4.34879383,204.317196 C4.45784783,198.123246 -0.459214604,155.016311 2.15043474,141.218407 C2.53056745,139.208545 2.94705531,137.300776 3.39989832,135.495099 L3.46879383,135.470412 Z" id="Path" fill="#15113B" fill-rule="nonzero"></path>
                    <g id="Group-5" transform="translate(14.080000, 0.000000)">
                        <path d="M22.9096133,2.54371502 C24.5221629,1.3184464 25.9979629,1.13653005 27.3370133,1.99796596 C29.345589,3.29011984 32.3508125,6.68137508 33.4178053,11.562557 C34.484798,16.4437389 34.9463639,22.1202607 34.9463639,28.0984184 C34.9463639,32.0838568 35.5308411,36.2272829 36.6997954,40.5286965 L35.1641602,40.3660177 C31.363081,39.9485006 28.5074681,39.5173166 26.5973215,39.0724658 C24.4380253,38.569591 22.1263245,37.7323838 19.662219,36.5608442 L22.9096133,2.54371502 Z" id="Path-62" fill="#383458" fill-rule="nonzero"></path>
                        <path d="M30.0562124,8.25281422 C32.7020003,13.2988032 31.1548772,38.4736267 24.3273632,38.4736267 C23.273054,38.4736267 22.2214647,38.2174953 21.1725955,37.7052324 L21.1725955,44.043069 C21.0945206,46.3838975 19.7193843,47.5543117 17.0471866,47.5543117 C14.3749888,47.5543117 11.9168725,46.791643 9.6728375,45.2663055 C10.9312841,40.17789 11.2359148,36.3104997 10.5867297,33.6641347 C9.61295204,29.6945872 0.464035634,14.5500124 5.02545168,6.10455601 C9.58686773,-2.34090035 27.4104245,3.20682521 30.0562124,8.25281422 Z" id="Path-46" fill="#FFA475"></path>
                        <g id="Group-19" transform="translate(15.488000, 17.424000)">
                            <g id="Group-16" transform="translate(9.753045, 8.000000) scale(-1, 1) translate(-9.753045, -8.000000) translate(2.753045, 0.000000)">
                                <circle id="Oval" fill="#372630" cx="2.69669522" cy="4.88824822" r="1.054152"></circle>
                                <circle id="Oval" fill="#372630" cx="11.2257432" cy="4.88824822" r="1.054152"></circle>
                                <path d="M5.34239864,4.1685423 C5.29632026,5.07163498 5.12905451,5.81133924 4.84060139,6.38765507 C4.40792171,7.25212882 3.15616604,8.69523539 3.50309801,9.37756579 C3.73438598,9.83245273 4.47691122,10.0078233 5.73067371,9.90367754" id="Path-95" stroke="#CA7A50" stroke-width="0.55" stroke-linecap="round"></path>
                                <path d="M4.4612032,13.5203811 C4.60738532,12.8871967 9.19428633,13.0516773 9.72971505,13.1752908 C10.2651438,13.2989042 8.28472754,15.1610598 6.71149997,15.2234191 C5.13827241,15.2857783 4.31502108,14.1535654 4.4612032,13.5203811 Z" id="Path-103" fill="#CA6750"></path>
                                <path d="M3.85027841,0.872116455 C3.72870615,0.880333359 3.60801225,0.890918223 3.48819673,0.903871047 L3.85027841,0.872116455 Z" id="Path-97" stroke="#4D3544" stroke-width="0.6324912" stroke-linecap="round"></path>
                                <path d="M8.72523125,1.02617072 L13.4670721,1.90508581 C11.9103533,1.27040266 10.3297397,0.977430957 8.72523125,1.02617072 Z" id="Path-97" stroke="#4D3544" stroke-width="0.6324912" stroke-linecap="round"></path>
                            </g>
                            <polygon id="Path" fill-opacity="0.0964543269" fill="#000000" fill-rule="nonzero" points="0.165032904 16.9814057 5.68459551 20.2812324 5.68459551 24.6268386"></polygon>
                        </g>
                        <path d="M27.5861326,2.09601584 C26.3028759,1.27047309 24.4014557,1.55087241 22.8670166,2.6417649 L22.321479,8.46410892 L23.1505994,9.81360862 C28.3724205,17.4340899 32.0987606,21.4086797 34.6934207,21.6587139 C34.1994064,16.6190972 33.7541601,13.1924026 33.357682,11.3786301 C32.2906892,6.49744825 29.5947082,3.38816971 27.5861326,2.09601584 Z" id="Path" fill="#15113B" fill-rule="nonzero"></path>
                        <path d="M25.8254832,12.3399495 C24.0860793,17.282374 20.4256606,22.4064395 17.5447116,24.1655236 L17.3301441,24.2910901 C15.3892808,25.376646 14.9160999,30.7891815 15.9106015,40.5286965 L14.7652468,40.2733218 C10.4616275,39.2963063 7.15743966,38.3413776 4.85268338,37.4085357 C2.3475135,36.3945772 0.892609043,35.0926828 0.487969995,33.5028526 L0.363715316,31.6459329 C-0.378310919,19.8998461 0.015034885,12.4211899 1.54375273,9.20996439 C3.95543691,4.14397928 8.68950893,1.75649716 11.8484093,1.2726148 C17.5389711,0.400930959 22.0138079,0.754717617 25.27292,2.33397478 C26.8298882,5.62730119 27.014076,8.9626261 25.8254832,12.3399495 Z" id="Path-37" fill="#15113B" fill-rule="nonzero"></path>
                    </g>
                    <path d="M37.0101657,121.798046 C42.3765273,121.798046 47.2078824,121.035322 51.5042309,119.509873 L52.1891428,123.286693 L52.1891428,123.286693 C49.3468442,124.3462 44.2871429,124.875916 37.0101657,124.875916 C28.0258059,124.875916 18.4434561,124.068467 8.26311623,122.453569 L9.34015538,120.452971 L9.34015538,120.452971 L9.98854979,119.262327 L10.9214621,119.262767 L13.1330202,119.576091 C23.7629744,121.057394 31.722023,121.798046 37.0101657,121.798046 Z" id="Path" fill="#FFFFFF"></path>
                    <g id="Group-16" transform="translate(28.252280, 47.794147) scale(-1, 1) translate(-28.252280, -47.794147) translate(18.252280, 42.294147)" fill="#FFD343" fill-rule="nonzero">
                        <polygon id="Path-68" points="6.08998851 5.25862795 13.6980407 0.751878764 19.4683498 0.902774633 9.68 10.2369062"></polygon>
                        <polygon id="Path-69" points="6.08998851 5.25862795 0.479249877 9.12216229 0.479249877 1.14437845 2.88200186 1.02498807"></polygon>
                    </g>
                </g>
                <g id="Group-50" transform="translate(79.000000, 354.500000) scale(-1, 1) translate(-79.000000, -354.500000) translate(0.000000, 230.000000)">
                    <g id="Group-8" transform="translate(30.800000, 70.400000)" fill-rule="nonzero">
                        <polygon id="Path-25" fill="#514E6D" points="41.4778228 101.014097 30.6761756 177.94451 36.3393385 177.868864 47.1409857 101.818452"></polygon>
                        <polygon id="Path" fill="#514E6D" points="58.3393385 101.014097 69.1409857 177.94451 63.4778228 177.868864 52.6761756 101.818452"></polygon>
                        <polygon id="Path-25" fill="#514E6D" points="11.5578228 101.014097 0.756175566 177.94451 6.41933846 177.868864 17.2209857 101.818452"></polygon>
                        <path d="M0,96.624 C0,91.6666921 4.01869209,87.648 8.976,87.648 L42.6898484,87.648 C49.105188,87.648 54.3058484,82.4473397 54.3058484,76.032 L54.3058484,11.616 C54.3058484,5.20066035 59.5065087,0 65.9218484,0 L86.064,0 C92.4793397,0 97.68,5.20066035 97.68,11.616 L97.68,93.984 C97.68,100.39934 92.4793397,105.6 86.064,105.6 L8.976,105.6 C4.01869209,105.6 0,101.581308 0,96.624 Z" id="Path" fill="#514E6D"></path>
                        <path d="M86.064,0 C86.9355915,0 87.7847624,0.0959942409 88.6015169,0.277986976 C88.7840058,1.09523761 88.88,1.94440848 88.88,2.816 L88.88,85.184 C88.88,91.5993397 83.6793397,96.8 77.264,96.8 L0.176,96.8 L0.00164593994,96.7976384 L0,96.624 L0,96.624 C0,91.6666921 4.01869209,87.648 8.976,87.648 L42.6898484,87.648 C49.105188,87.648 54.3058484,82.4473397 54.3058484,76.032 L54.3058484,11.616 C54.3058484,5.20066035 59.5065087,0 65.9218484,0 L86.064,0 Z" id="Path" fill-opacity="0.745957168" fill="#15113B"></path>
                        <polygon id="Path" fill="#514E6D" points="88.2593385 101.014097 99.0609857 177.94451 93.3978228 177.868864 82.5961756 101.818452"></polygon>
                    </g>
                    <g id="Group">
                        <g id="Group-13" transform="translate(73.040000, 0.000000)">
                            <path d="M10.8761958,39.8294936 L9.63377118,52.5097748 L24.8963967,52.5097748 C23.7191101,48.572308 23.1304667,45.1893417 23.1304667,42.3608758 C23.1304667,38.1181771 30.7968494,25.7424906 30.7968494,18.2791049 C30.7968494,10.8157191 23.6545645,2.00459353 14.035777,5.74487854 C4.41698939,9.48516356 3.91363273,17.1679607 3.91363273,20.8160779 C3.91363273,24.4641951 4.49639555,34.38263 6.47631655,37.1060618 C7.79626388,38.921683 9.26289031,39.8294936 10.8761958,39.8294936 Z" id="Path" fill="#C16F60"></path>
                            <g id="Group-10" transform="translate(4.520000, 19.360000)">
                                <path d="M13.1025183,17.7337388 L12.580404,18.3583373 C11.3067908,19.8602265 10.2707211,20.9150631 9.47219494,21.5228471 C8.67648394,22.1284885 7.5394179,22.7893588 6.06099685,23.5054581 L6.34700145,20.5597388 L6.7213119,20.5012595 C7.8589556,20.307718 8.81316416,20.0456126 9.58393758,19.7149434 C10.4510577,19.3429406 11.6239179,18.682539 13.1025183,17.7337388 Z" id="Path" fill-opacity="0.0964543269" fill="#000000" fill-rule="nonzero"></path>
                                <g id="Group-16">
                                    <path d="M1.45299302,5.29670734 C1.98225854,5.29670734 2.41131302,4.86765287 2.41131302,4.33838734 C2.41131302,3.80912182 1.98225854,3.38006734 1.45299302,3.38006734 C0.923727499,3.38006734 0.49467302,3.80912182 0.49467302,4.33838734 C0.49467302,4.86765287 0.923727499,5.29670734 1.45299302,5.29670734 Z" id="Oval" fill="#15113B"></path>
                                    <path d="M9.20667302,5.29670734 C9.73593854,5.29670734 10.164993,4.86765287 10.164993,4.33838734 C10.164993,3.80912182 9.73593854,3.38006734 9.20667302,3.38006734 C8.6774075,3.38006734 8.24835302,3.80912182 8.24835302,4.33838734 C8.24835302,4.86765287 8.6774075,5.29670734 9.20667302,5.29670734 Z" id="Oval" fill="#15113B"></path>
                                    <path d="M4.10625313,13.0865465 L8.89862381,11.9063163 C9.13456904,11.8483869 9.37285814,11.9926036 9.4308802,12.2285261 C9.45427016,12.3236316 9.44525345,12.4238228 9.40525881,12.513224 C8.94347127,13.5454713 8.14889213,14.2413085 7.02152137,14.6007356 C5.39492912,15.1193239 4.33554504,14.8120047 3.84336915,13.678778 C3.74650806,13.4558815 3.84873283,13.1966877 4.07164905,13.0998722 L4.10625313,13.0865465 L4.10625313,13.0865465 Z" id="Path-98" fill="#904B3D"></path>
                                    <path d="M3.94643735,2.17904169 C4.38514608,2.76694705 4.47338539,3.32286146 4.21115528,3.84678495 C3.81781012,4.63267017 1.87069376,8.77711722 2.18608646,9.39741759 C2.39634826,9.81095116 3.0713712,9.97037897 4.21115528,9.87570099" id="Path-95" stroke="#4D3544" stroke-width="0.574992" stroke-linecap="round"></path>
                                    <path d="M7.7862125,1.15277444 C7.90496641,1.12026457 8.0233465,1.09003953 8.14135276,1.06209933 L7.7862125,1.15277444 Z" id="Path-97" stroke="#4D3544" stroke-width="0.574992" stroke-linecap="round"></path>
                                </g>
                            </g>
                            <path d="M3.91363273,24.7339201 C2.76158382,21.905444 2.18555937,19.7320929 2.18555937,18.2138668 C2.18555937,15.9365276 1.95399252e-13,14.7449972 1.95399252e-13,11.4855806 C1.95399252e-13,9.31263614 1.67125304,7.38224504 5.01375911,5.69440725 C5.75782925,2.69611759 7.19347067,0.863201275 9.32068338,0.195658301 C12.5115025,-0.80565616 14.2190136,2.36214419 15.7871273,2.36214419 C17.3552411,2.36214419 24.5206127,0.587818569 26.5062804,2.36214419 C28.4919482,4.1364698 27.2347019,4.66734817 28.4919482,5.69440725 C29.7491945,6.72146634 32.5585052,7.61602542 33.2486368,9.25141394 C33.9387684,10.8868025 32.1386682,13.9734561 32.4463073,15.9472468 C32.7539464,17.9210375 34.5049046,19.7807772 33.8767707,22.2573487 C33.2486368,24.7339201 30.9637279,26.4030869 30.2426623,28.2146962 C29.5215967,30.0263055 30.4776159,33.5608492 28.4919482,33.8801561 C27.1681697,34.0930273 26.3621146,33.920669 26.0737831,33.3630812 C28.922572,25.5597965 29.5060726,20.8599296 27.8242849,19.2634805 C25.3016034,16.8688068 24.991134,22.9365696 23.8868012,22.9365696 C22.7824684,22.9365696 23.9207976,16.9841889 22.0156252,16.9841889 C20.1104529,16.9841889 18.5920085,17.3242338 17.0058715,16.4216372 C15.4197345,15.5190406 15.7871273,13.2664275 13.7253022,12.9206451 C11.6634771,12.5748627 10.5861604,14.0639 8.67514697,13.2664275 C6.76413356,12.4689549 5.44033465,14.8026037 5.01375911,15.9472468 C4.72937542,16.7103422 4.36266663,19.6392333 3.91363273,24.7339201 Z" id="Path-3" fill="#383458" fill-rule="nonzero"></path>
                        </g>
                        <g id="Group-11" transform="translate(0.000000, 125.840000)">
                            <polygon id="Path-39" fill="#C16F60" points="21.0636103 87.7572304 23.5678609 110.574427 26.9272994 113.928974 33.7605392 110.574427 33.7605392 87.7572304"></polygon>
                            <path d="M7.26679255,13.9754135 C3.2051017,18.172389 7.60122456,48.536056 20.4551611,105.066415 L36.2565126,105.066415 L34.4965126,40.2867943 C63.5232506,38.9799618 80.6277563,36.9266285 85.8100296,34.1267943 C90.9923029,31.3269602 94.722293,21.9698332 97,6.05541352 L63.2886183,0.16 C28.0392961,7.20181624 9.36535422,11.8069541 7.26679255,13.9754135 Z" id="Path-38" fill="#26234A" fill-rule="nonzero"></path>
                            <polygon id="Path-39" fill="#C16F60" points="62.4236103 88.6372304 65.0636103 111.347192 69.1672994 114.808974 75.7856294 109.977968 75.1205392 88.6372304"></polygon>
                            <path d="M23.6444567,109.6264 L33.9374812,109.6264 L33.9190557,121.940687 C33.9183321,122.424279 33.5275217,122.816675 33.0439368,122.819357 L1.02775485,122.996921 C0.541751745,122.999602 0.145583489,122.607804 0.142874754,122.121801 C0.142874754,122.076428 0.145894616,122.031104 0.152633,121.986233 L0.470120379,119.872104 C0.5156396,119.568994 0.715595256,119.311406 0.997948771,119.192142 L23.6444567,109.6264 Z" id="Path-85" fill="#26234A"></path>
                            <path d="M65.0044567,109.6264 L76.1774812,109.6264 L76.1590559,121.940564 C76.1583322,122.424204 75.767447,122.816621 75.2838136,122.819235 L42.3876098,122.997065 C41.9016063,122.999679 41.505493,122.607825 41.5028531,122.121822 C41.5028531,122.07649 41.5058791,122.031207 41.5126113,121.986377 L41.8301204,119.872104 C41.8756396,119.568994 42.0755953,119.311406 42.3579488,119.192142 L65.0044567,109.6264 Z" id="Path-85" fill="#26234A"></path>
                            <path d="M43.1439264,18.8285892 C39.0822355,23.0255647 44.889259,51.9008843 60.5649967,105.454548 L76.3663481,105.454548 L70.5948168,41.613916 C89.8339239,40.1909513 101.947522,37.5150864 106.93561,33.5863212 C111.923698,29.6575561 111.923698,18.755449 106.93561,0.88 C93.8082202,3.58883307 84.6258645,5.44314191 79.3885428,6.44292652 C59.5334611,10.2331854 46.0541431,15.8214405 43.1439264,18.8285892 Z" id="Path-38" fill="#15113B" fill-rule="nonzero"></path>
                            <path d="M106.93561,0.88 C107.65058,3.4421851 108.263069,5.86110258 108.773078,8.13675244 C105.615515,9.18411829 101.804898,9.99207151 97.34196,10.56 C88.259624,11.7157673 78.2710664,11.2382028 67.3762873,9.12730641 C70.7428499,8.25685035 74.4003496,7.41968524 78.3146616,6.65087958 L84.553921,5.43424197 C89.9278544,4.36814107 97.3884174,2.85006042 106.93561,0.88 Z" id="Path" fill="#26234A" fill-rule="nonzero"></path>
                        </g>
                        <path d="M88.5845781,50.5869617 C91.7594516,50.5869617 94.9062526,49.4520821 98.0249811,47.1823229 C108.152421,46.8922427 115.178411,48.0271223 119.102951,50.5869617 C119.980682,51.1594747 120.652114,52.018016 121.117248,53.1625856 L118.467567,78.2819968 C112.134779,105.852344 108.968385,121.211567 108.968385,124.359665 C108.968385,129.081812 90.2247043,133.973537 78.9240932,132.623435 C67.6234821,131.273334 58.0762301,128.229592 57.4583746,124.197634 C56.8405191,120.165676 56.6014534,121.44564 55.6714635,116.584338 C55.0514702,113.343469 56.9113716,98.102115 61.2511677,70.8602744 L63.6062146,49.202313 C65.5138552,47.9197893 66.7979529,47.2464593 67.4585077,47.1823229 C70.4609326,46.8908034 75.2815099,46.8908034 81.9202393,47.1823229 C83.1882583,49.4520821 85.4097046,50.5869617 88.5845781,50.5869617 Z" id="Path-2" fill="#15113B" fill-rule="nonzero"></path>
                        <path d="M79.9706027,129.886026 C88.1812405,130.308434 97.8478365,128.42769 108.970391,124.243793 L108.968385,124.359665 L108.968385,124.359665 C108.968385,129.081812 90.2247043,133.973537 78.9240932,132.623435 L78.0239209,132.511827 C67.1206451,131.110298 58.059754,128.122073 57.4583746,124.197634 C57.3932523,123.772663 57.3127858,123.406704 57.2198442,123.086346 C63.5955379,127.167548 71.1795885,129.433759 79.9706027,129.886026 Z" id="Path" fill="#FFFFFF" fill-rule="nonzero"></path>
                        <path d="M112.217699,58.3175799 L119.594418,67.5935799 L118.467567,78.2819968 L116.208826,88.6615031 C112.839049,104.240833 110.450445,115.759446 109.043014,123.21734 L106.971236,123.343886 C103.163465,123.563579 99.9539694,123.673663 97.34196,123.673663 C91.4594268,123.673663 85.4887417,122.846822 79.4299049,121.193141 L78.5204183,120.938888 L109.382592,92.6953429 L112.217699,58.3175799 Z" id="Path" fill-opacity="0.270405376" fill="#000000" fill-rule="nonzero"></path>
                        <g id="Group-12" transform="translate(1.000000, 23.760000)">
                            <path d="M14.266372,31.073329 C13.174632,29.069713 12.3073505,28.0454298 11.6645274,28.0004792 C10.7002928,27.9330533 1.71797009,18.4584349 1.06661276,13.6841325 C0.415255435,8.90983005 4.32309593,0.722429763 5.03349928,0.458865991 C5.88553361,0.142756299 8.86417259,4.34528951 13.9694162,13.0664656 L14.0675807,12.319389 C14.7637295,7.21321643 15.648822,4.69768211 16.7228582,4.77278604 C18.3754675,4.88834774 17.747147,12.5927331 18.1049715,14.0653954 L18.1291821,14.1507988 C18.5389869,15.3775829 18.0406941,19.2647734 18.4410494,20.6517881 L20.2615536,26.7536741 L20.2615536,26.7536741 L14.266372,31.073329 Z" id="Path-20" fill="#C16F60"></path>
                            <path d="M12.2224176,28.1654164 C15.1781331,25.6188043 17.5846186,24.1169659 19.4418743,23.6599014 C20.1142271,23.4944376 20.3866976,24.8283008 21.569391,24.8392031 C22.0929858,24.8440297 22.6411101,25.0012472 23.4864016,25.2558147 C24.3316931,25.5103823 32.9271922,38.043725 40.2448404,51.3677471 L41.4804345,49.6866267 C54.648936,31.8511798 63.0173246,23.1756047 66.5856003,23.6599014 C68.6197177,23.9359777 65.2078491,39.2069215 58.9696815,51.0111241 L58.7797838,51.3677471 C53.025978,62.0913867 44.9001707,69.1621272 42.9605426,70.3570345 C37.1381763,73.9439014 34.1407584,70.7790188 30.1757822,65.4822734 L29.4200847,64.4652787 C25.0630532,58.573523 11.780526,35.289958 11.8813417,32.881783 C11.8908349,32.6550179 12.1544805,31.9274678 12.8221645,31.1844937 C13.1710851,30.7962276 11.3180579,29.0389074 12.2224176,28.1654164 Z" id="Path" fill="#8EECDB" fill-rule="nonzero"></path>
                            <path d="M58.7797838,51.3677471 C53.025978,62.0913867 44.9001707,69.1621272 42.9605426,70.3570345 C40.3872646,71.9423015 38.3657907,72.208733 36.5687139,71.5551634 L61.5702835,45.5978343 C60.7104712,47.5634799 59.7759618,49.5111231 58.7797838,51.3677471 Z" id="Path" fill="#09D5B0" fill-rule="nonzero"></path>
                            <path d="M21.297441,24.8116612 L12.850665,30.93807 C12.6942558,30.3080719 11.4483896,28.9130243 12.2224176,28.1654164 C15.1781331,25.6188043 17.5846186,24.1169659 19.4418743,23.6599014 C20.0230611,23.5168733 20.3054557,24.4941425 21.1352359,24.7688347 L21.297441,24.8116612 L21.297441,24.8116612 Z" id="Path" fill="#FFFFFF" fill-rule="nonzero"></path>
                        </g>
                        <g id="Group-21" transform="translate(117.058524, 94.797299) rotate(25.000000) translate(-117.058524, -94.797299) translate(91.058524, 53.797299)">
                            <path d="M12.1486768,0.863673001 C18.00045,4.81277504 54.8482425,25.5546927 50.9449589,36.1908024 C47.8531347,44.6157557 28.1128297,66.1508974 27.1788122,67.0959726 C26.6879559,67.5926402 24.3398425,67.484432 24.1705554,67.5829288 C24.0177175,67.671855 24.0504891,68.3750412 22.7949435,67.8663375 C20.1487243,66.7941808 18.2759361,65.5329966 17.5913445,64.9363955 C17.3392446,64.716698 17.6603189,64.0990251 17.5278761,63.7086324 C17.300663,63.0388915 16.4313154,61.5343215 16.3511828,58.8088727 C16.2710502,56.0834238 33.6678872,37.2900583 33.6678872,35.5586634 C33.6678872,34.4044002 27.0519264,29.86989 18.9761203,24.5136186 C10.9003142,19.1573471 4.4366324,10.0344772 5.0535224,4.82867972 C5.88871319,-2.21930957 11.7152121,0.571146924 12.1486768,0.863673001 Z" id="Path" fill="#8EECDB" fill-rule="nonzero"></path>
                            <path d="M50.9449589,36.1908024 C47.8531347,44.6157557 28.1128297,66.1508974 27.1788122,67.0959726 C26.6879559,67.5926402 24.3398425,67.484432 24.1705554,67.5829288 C24.0177175,67.671855 24.0504891,68.3750412 22.7949435,67.8663375 L22.697229,67.8256434 L51.1775917,35.2806364 C51.1305307,35.591454 51.0535007,35.8950355 50.9449589,36.1908024 Z" id="Path" fill="#09D5B0" fill-rule="nonzero"></path>
                            <path d="M21.1035003,59.9852232 C24.0195637,59.9852232 26.3835003,62.152165 26.3835003,64.8252232 C26.3835003,65.8100341 26.0626335,66.7261478 25.5115038,67.4905108 L25.4587738,67.4952005 L24.3997153,67.5484038 C24.2791935,67.556868 24.1974264,67.5672944 24.1705554,67.5829288 C24.0177175,67.671855 24.0504891,68.3750412 22.7949435,67.8663375 C20.1487243,66.7941808 18.2759361,65.5329966 17.5913445,64.9363955 C17.3392446,64.716698 17.6603189,64.0990251 17.5278761,63.7086324 C17.4104353,63.36246 17.1214421,62.793255 16.8585488,61.9477083 C17.8199793,60.7568028 19.3634423,59.9852232 21.1035003,59.9852232 Z" id="Path" fill="#FFFFFF" fill-rule="nonzero"></path>
                            <path d="M22.5670973,62.1772077 C26.3621603,64.4937997 24.0310857,67.8577009 23.1531505,68.8803144 L22.8933513,69.1712604 C21.8818683,70.2674321 19.855383,72.110161 18.6392335,72.4636023 C17.7512514,72.7216705 17.2335928,72.3658923 17.0862577,71.3962675 C16.4139615,73.0683944 15.6507789,74.0767939 14.7967098,74.4214659 C13.9426407,74.7661379 13.2373017,74.3336585 12.6806927,73.1240278 L12.3224711,73.6973126 C10.6828528,76.2788318 9.49239441,77.5470143 8.75109594,77.50186 C7.95684758,77.4534804 7.69638149,76.4548144 7.96969766,74.5058619 L7.55701861,75.0205991 C6.75953977,76.0051822 6.12933661,76.7204169 5.6664091,77.1663034 L5.55416214,77.2721637 C3.2875434,79.3613645 2.9755106,81.3083308 1.25195789,81.8425114 C-1.24374443,82.6160044 5.02578697,72.5723685 6.20449362,71.0414539 C7.38320027,69.5105393 9.02512734,67.0562632 10.7067744,65.4446532 C11.9793817,64.2250473 17.4547381,61.5005204 18.9774797,61.2305184 C20.5002212,60.9605164 21.6439953,61.6137255 22.5670973,62.1772077 Z" id="Path-36" fill="#C16F60"></path>
                        </g>
                        <path d="M81.9202393,47.1823229 C83.1882583,49.4520821 85.4097046,50.5869617 88.5845781,50.5869617 C91.7594516,50.5869617 94.9062526,49.4520821 98.0249811,47.1823229 C98.8402225,47.1531713 99.6353084,47.133681 100.410239,47.1238523 C99.6511359,50.537336 95.0648083,53.1625856 89.5204183,53.1625856 C83.9403208,53.1625856 79.3306659,50.5034124 78.6164775,47.0570812 L79.8979611,47.1005808 C80.5520784,47.1245577 81.2262238,47.1518474 81.9202393,47.1823229 Z" id="Path" fill="#FFFFFF"></path>
                    </g>
                </g>
                <g id="Group-22" transform="translate(112.500000, 344.000000) scale(-1, 1) rotate(-4.000000) translate(-112.500000, -344.000000) translate(61.000000, 322.000000)" fill-rule="nonzero">
                    <path d="M5.8392576,40.8748032 L101.886822,40.8748032 C102.289939,40.8748032 102.61673,41.2015938 102.61673,41.6047104 L102.61673,42.8522488 C102.61673,43.2553654 102.289939,43.582156 101.886822,43.582156 L5.8392576,43.582156 C5.43614098,43.582156 5.1093504,43.2553654 5.1093504,42.8522488 L5.1093504,41.6047104 C5.1093504,41.2015938 5.43614098,40.8748032 5.8392576,40.8748032 Z" id="Rectangle" fill="#FFDC69"></path>
                    <path d="M70.0710912,40.8748032 L101.886822,40.8748032 C102.289939,40.8748032 102.61673,41.2015938 102.61673,41.6047104 L102.61673,42.8522488 C102.61673,43.2553654 102.289939,43.582156 101.886822,43.582156 L70.0710912,43.582156 C69.6679746,43.582156 69.341184,43.2553654 69.341184,42.8522488 L69.341184,41.6047104 C69.341184,41.2015938 69.6679746,40.8748032 70.0710912,40.8748032 Z" id="Rectangle" fill="#FFDC69"></path>
                    <path d="M4.00009248,0 L63.1196528,0 C64.8906411,0 66.3858697,1.31577081 66.6110763,3.07238161 L70.963844,37.02397 C71.2110568,38.9522299 69.8482989,40.715799 67.9200389,40.9630118 C67.771592,40.9820435 67.6220825,40.9915884 67.4724205,40.9915884 L8.35286022,40.9915884 C6.58187195,40.9915884 5.08664327,39.6758175 4.86143676,37.9192067 L0.508669025,3.96761839 C0.261456213,2.03935846 1.62421416,0.275789352 3.55247409,0.0285765403 C3.700921,0.0095448856 3.85043057,0 4.00009248,0 Z" id="Rectangle" fill="#FFDC69"></path>
                    <path d="M4.00009248,0 L61.0175201,0 C62.7885083,0 64.283737,1.31577081 64.5089435,3.07238161 L68.8617113,37.02397 C69.1089241,38.9522299 67.7461661,40.715799 65.8179062,40.9630118 C65.6694593,40.9820435 65.5199497,40.9915884 65.3702878,40.9915884 L8.35286022,40.9915884 C6.58187195,40.9915884 5.08664327,39.6758175 4.86143676,37.9192067 L0.508669025,3.96761839 C0.261456213,2.03935846 1.62421416,0.275789352 3.55247409,0.0285765403 C3.700921,0.0095448856 3.85043057,0 4.00009248,0 Z" id="Rectangle" fill="#FFD343"></path>
                    <path d="M36.350886,25.769142 C38.1953525,24.3792368 38.4614163,21.62133 36.945156,19.6091847 C35.4288958,17.5970395 32.7044885,17.0926142 30.860022,18.4825194 C29.0155555,19.8724246 28.7494918,22.6303314 30.265752,24.6424767 C31.7820199,26.654622 34.5064195,27.1590472 36.350886,25.769142 Z" id="Oval" fill="#FFDC69"></path>
                </g>
            </g>
        </g>
    </g>
</svg>