<?xml version="1.0" encoding="UTF-8"?>
<svg width="441px" height="567px" viewBox="0 0 441 567" version="1.1" xmlns="http://www.w3.org/2000/svg" xmlns:xlink="http://www.w3.org/1999/xlink">
    <!-- Generator: Sketch 63.1 (92452) - https://sketch.com -->
    <title>Provit Gain</title>
    <desc>Created with Sketch.</desc>
    <g id="Page-1" stroke="none" stroke-width="1" fill="none" fill-rule="evenodd">
        <g id="Scene" transform="translate(-2033.000000, -1757.000000)">
            <g id="Provit-Gain" transform="translate(2033.000000, 1757.000000)">
                <g id="Group-49" transform="translate(94.000000, 457.000000)" fill-rule="nonzero">
                    <path d="M37.08,54 L197.88,54 C200.530967,54 202.68,56.1490332 202.68,58.8 L202.68,99.6 C202.68,102.250967 200.530967,104.4 197.88,104.4 L37.08,104.4 C34.4290332,104.4 32.28,102.250967 32.28,99.6 L32.28,58.8 C32.28,56.1490332 34.4290332,54 37.08,54 Z" id="Rectangle" fill="#91A0DA"></path>
                    <path d="M172.68,54 L213.48,54 C216.130967,54 218.28,56.1490332 218.28,58.8 L218.28,99.6 C218.28,102.250967 216.130967,104.4 213.48,104.4 L172.68,104.4 L172.68,104.4 L172.68,54 Z" id="Rectangle" fill="#09D5B0"></path>
                    <path d="M14.28,54 L55.08,54 C57.7309668,54 59.88,56.1490332 59.88,58.8 L59.88,99.6 C59.88,102.250967 57.7309668,104.4 55.08,104.4 L14.28,104.4 L14.28,104.4 L14.28,54 Z" id="Rectangle" fill="#09D5B0"></path>
                    <path d="M173.88,54 C176.530967,54 178.68,56.1490332 178.68,58.8 L178.68,99.6 C178.68,102.250967 176.530967,104.4 173.88,104.4 L13.08,104.4 C10.4290332,104.4 8.28,102.250967 8.28,99.6 L8.28,58.8 C8.28,56.1490332 10.4290332,54 13.08,54 L21.48,54 L21.48,67.2 C21.48,69.779319 23.514439,71.8834694 26.0661892,71.9953232 L26.28,72 L161.88,72 C164.459319,72 166.563469,69.965561 166.675323,67.4138108 L166.68,67.2 L166.679,54 L173.88,54 Z" id="Path" fill="#8EECDB"></path>
                    <g id="Group-39">
                        <path d="M65.5026051,52.9055947 L62.5599389,72.24 L48.5265311,72.2628506 C38.6256457,72.4774459 30.0304933,69.8382579 22.741074,64.3452864 C20.2244342,62.4488623 30.7351557,54.1568191 26.8751228,51.2480756 C23.0150899,48.3393322 18.9512257,61.4894309 13.9223702,57.6999165 C7.08927263,52.5508081 2.66965859,42.8231335 0.663528064,28.5168927 L1.97376166,28.1471561 C9.21762339,26.1354591 13.3879647,25.5428675 14.4847855,26.3693813 C16.2267952,27.6820797 11.7498167,37.3402885 16.3966252,37.5616556 C21.0434337,37.7830227 13.8872131,24.17395 21.1049295,25.0603049 C28.3226459,25.9466597 30.2053166,24.7731786 30.8640056,27.4106179 C31.5226947,30.0480573 25.8914241,36.0987933 30.7510248,38.6268717 C35.6106255,41.1549502 33.9502554,27.8626809 36.3485059,27.9394292 C37.9473396,27.9905947 47.6653727,36.3126499 65.5026051,52.9055947 Z M36.6205544,54.1757258 C35.0309432,54.2312363 33.817309,56.4239605 33.9098264,59.0733124 C34.0023438,61.7226643 35.3659784,63.8253882 36.9555895,63.7698778 C38.5452007,63.7143673 39.7588349,61.5216432 39.6663175,58.8722913 C39.5738001,56.2229394 38.2101655,54.1202154 36.6205544,54.1757258 Z" id="Shape" fill="#FFD343"></path>
                        <path d="M57.9614577,72.24 C54.6031144,72.0954715 52.7483984,70.661712 52.3973098,67.9387215 C51.8706769,63.8542357 52.9239427,63.5908961 50.2371278,60.4603161 C47.5503128,57.3297361 43.008822,57.1832457 40.7182194,53.0121718 C38.4276168,48.8410979 39.9562428,45.4897752 36.9400764,40.0672964 C33.9239099,34.6448176 25.4515692,38.9201063 20.3272229,27.8005509 C15.2028765,16.6809955 20.417309,8.64 21.8201283,8.64 C23.2229476,8.64 24.4573557,13.1688766 28.7309022,15.2408491 C33.0044486,17.3128216 36.4327532,14.8445154 42.1778489,19.4240169 C47.9229446,24.0035185 44.5961419,28.5447093 46.8929057,30.6221547 C49.1896695,32.6996001 52.6557528,31.5274739 55.0212466,33.1917107 C57.3867403,34.8559474 66.1276386,32.6867484 66.5069891,43.8401566 C66.5890646,46.2532827 66.4186264,56.1235802 74.116788,57.9316819 C79.0208975,59.0835321 81.9553015,63.7807072 82.92,72.0232073 L57.9614577,72.24 Z" id="Path-89" fill="#15113B"></path>
                        <path d="M74.7208004,71.707711 C68.5321286,65.2591159 62.9126471,56.9531671 57.8623558,46.7898646 C52.8120646,36.6265621 50.5076537,25.9966973 50.9491232,14.9002701 C58.3679684,16.9777437 65.2836908,22.2036727 71.6962904,30.5780572 C78.1088901,38.9524418 84.3344536,51.9290695 90.3729809,69.5079405 L74.7208004,71.707711 Z" id="Path-91" fill="#09D5B0" transform="translate(70.634436, 43.303991) rotate(8.000000) translate(-70.634436, -43.303991) "></path>
                        <path d="M78.5809969,72.5668935 C75.0406887,65.7729559 73.3144484,56.9215794 73.4022759,46.012764 C73.4901035,35.1039487 71.1856926,24.4740838 66.4890434,14.1231695 C73.9078885,16.2006431 80.8236109,21.4265721 87.2362105,29.8009567 C93.6488102,38.1753412 95.9875505,51.6964946 94.2524315,70.3644169 L78.5809969,72.5668935 Z" id="Path-91" fill="#FFD343" transform="translate(80.647868, 43.345031) rotate(8.000000) translate(-80.647868, -43.345031) "></path>
                        <path d="M82.92,71.9948555 C77.0000706,61.1417595 77.1817675,53.2052568 83.4650906,48.1853472 C92.8900751,40.6554828 82.438084,38.4 84.4422042,30.806344 C86.4463243,23.2126881 92.8224528,26.4372839 92.8224528,19.2796738 C92.8224528,12.1220637 95.048982,6.84843632 101.874865,6.84843632 C108.700748,6.84843632 109.65503,-1.11410472 110.314315,0.631724462 C110.9736,2.37755364 116.100786,14.973061 111.496584,19.2796738 C106.892382,23.5862867 116.659184,33.9837285 110.314315,40.3804801 C103.969446,46.7772318 105.433614,45.9967516 108.019061,55.7928667 C109.742693,62.32361 107.694628,67.7584042 101.874865,72.0972491 L82.92,71.9948555 Z" id="Path-5" fill="#09D5B0"></path>
                        <path d="M135.48,22.8 L135.48,34.8 C135.48,35.7233847 135.871313,37.1933286 135.383312,37.5462298 C134.895311,37.8991311 133.262363,37.7246393 132.097867,37.313668 L131.778556,37.1933286 C127.598601,35.5189815 127.901952,40.9946702 130.897662,41.1907644 L131.063724,41.1961498 L131.683005,41.1991455 C133.058638,41.2188942 134.705825,41.3687011 134.705825,42.5042612 C134.705825,43.8177579 132.754467,49.4721299 131.109263,52.6092691 C129.838466,52.8930764 128.483589,52.7836558 127.044639,52.2801185 L126.683149,52.1460229 C121.410461,50.0803327 121.001253,55.7926482 124.770387,56.0466623 L124.953025,56.0527464 C125.671929,56.0527464 127.74354,57.5441159 127.060807,58.7702384 L126.944292,58.9472268 C126.455853,59.6482872 123.49483,64.0792116 118.061222,72.24 L111.143846,72.1005803 C105.887928,72.006101 101.903416,71.9658811 99.1903094,71.9799206 L97.08,72 L97.08,61.2 C97.08,56.6524396 98.4210843,50.1355188 99.3215821,48.2411278 C100.202069,46.3888343 104.826039,49.7724352 106.136792,50.297435 L106.411439,50.4 C108.812763,51.3921089 110.975653,47.0652359 109.091739,45.6 C107.842495,44.6283858 101.308451,45.6205036 101.88,43.9904557 L101.927033,43.8714424 C102.893291,41.60934 113.841258,23.1867101 134.21196,22.8109736 L135.48,22.8 Z M104.88,58.8 C103.223146,58.8 101.88,59.8745166 101.88,61.2 C101.88,62.5254834 103.223146,63.6 104.88,63.6 C106.536854,63.6 107.88,62.5254834 107.88,61.2 C107.88,59.8745166 106.536854,58.8 104.88,58.8 Z" id="Shape" fill="#8EECDB"></path>
                        <path d="M120.652384,72 C115.314617,66.4 114.921888,60.4851578 119.474197,54.2554735 C126.302659,44.910947 115.6083,42.6352999 118.274197,36.3278259 C120.680442,30.6346843 122.820145,30.2889246 119.428188,21.2323347 C116.036231,12.1757449 129.743584,5.06361788 129.743584,5.06361788 C131.440606,6.97655595 140.368467,16.0017042 137.566748,22.6990022 C134.765029,29.3963003 146.237848,36.4903681 143.358821,43.2 C140.479793,49.9096319 143.501334,53.0638491 146.046931,57.3671613 C147.743996,60.2360361 147.209094,65.1460654 144.442225,72.0972491 L120.652384,72 Z" id="Path-5" fill="#FFD343" transform="translate(131.672908, 38.580434) scale(-1, 1) translate(-131.672908, -38.580434) "></path>
                        <path d="M157.77506,16.1689126 C164.198343,24.1241042 167.61053,30.9558914 168.01162,36.6642743 L168.052937,37.3108632 L168.052937,37.3108632 C167.967758,37.1794991 167.875394,37.0497506 167.775907,36.9224125 C166.551833,35.3556697 164.712795,34.7471122 163.6683,35.5631613 C162.623805,36.3792104 162.769382,38.3108448 163.993455,39.8775875 C165.172193,41.3863028 166.921186,42.0064951 167.981809,41.3216719 L168.085786,41.2469126 L168.060482,41.7502755 C167.754148,46.8861904 166.338996,49.9697054 165.086179,52.3782455 L164.965488,52.6092691 C163.792445,52.8712451 162.54776,52.7981629 161.231437,52.3893237 L160.900864,52.2801185 L160.313939,52.0610711 C155.365214,50.2718697 156.088873,55.6322524 159.662234,56.0319527 L159.826613,56.0466623 L160.009251,56.0527464 L160.413647,56.0471735 C161.207346,56.0527783 162.297257,56.2766841 162.042225,58.8880084 C161.844714,60.9103655 159.749366,65.1353893 155.75618,71.5630796 L155.487156,71.9948555 L137.893433,71.9948555 L137.570227,71.3979512 C131.926769,60.8719507 129.808759,51.3693194 131.216197,42.8900573 C131.580339,40.6962431 136.720957,44.4232794 138.03967,44.949495 L138.439191,45.0986265 C140.786096,45.8817653 142.835381,41.6870315 140.986354,40.2489296 C139.737109,39.2773154 133.203065,40.2694332 133.774614,38.6393852 L133.81113,38.5232014 C134.446097,36.3290912 137.078786,19.7947792 157.77506,16.1689126 Z M146.28,56.4 C144.291775,56.4 142.68,57.7431458 142.68,59.4 C142.68,61.0568542 144.291775,62.4 146.28,62.4 C148.268225,62.4 149.88,61.0568542 149.88,59.4 C149.88,57.7431458 148.268225,56.4 146.28,56.4 Z" id="Shape" fill="#8EECDB"></path>
                        <path d="M189.034798,8.64 C191.828084,13.3209523 193.721775,18.1118383 194.715871,23.0126579 C189.780018,21.725456 187.311973,22.6205172 187.311973,25.6976515 C187.311973,28.919833 190.018175,29.7643312 195.430577,28.2311463 C195.802558,33.3551597 195.220436,38.5963767 193.685,43.9540921 L193.542248,44.4229469 C192.892524,46.4462327 191.556259,49.3410667 189.533453,53.1074488 L189.034798,54.0281143 L168.411546,54.0281143 L168.430035,68.2459573 C168.430038,70.1745767 166.920572,71.7462568 165.021231,71.8456486 L164.830038,71.8506389 L155.561846,71.8506389 C153.581622,58.2084102 153.97685,46.7938029 156.747532,37.6068169 C157.364463,38.1037751 158.147638,38.4 159,38.4 C160.988225,38.4 162.6,36.7882251 162.6,34.8 C162.6,32.8908424 161.11387,31.3287891 159.235339,31.2075693 C159.549856,30.5622091 159.879489,29.9315093 160.224228,29.3149758 C165.959728,19.0575749 175.563251,12.1659163 189.034798,8.64 Z" id="Path" fill="#15113B"></path>
                    </g>
                </g>
                <g id="Group-51" transform="translate(48.000000, 54.000000)">
                    <g id="Group-37">
                        <path d="M18,13 L323,13 C325.209139,13 327,14.790861 327,17 L327,264 C327,266.209139 325.209139,268 323,268 L18,268 C15.790861,268 14,266.209139 14,264 L14,17 C14,14.790861 15.790861,13 18,13 Z" id="Rectangle" fill-opacity="0.401742788" fill="#09D5B0" fill-rule="nonzero"></path>
                        <path d="M4,0 L309,0 C311.209139,-4.05812251e-16 313,1.790861 313,4 L313,251 C313,253.209139 311.209139,255 309,255 L4,255 C1.790861,255 2.705415e-16,253.209139 0,251 L0,4 C-2.705415e-16,1.790861 1.790861,4.05812251e-16 4,0 Z" id="Rectangle" stroke-opacity="0.401742788" stroke="#09D5B0" stroke-width="2" fill="#FFFFFF" fill-rule="nonzero"></path>
                        <rect id="Rectangle" fill="#FFDC69" x="44" y="104" width="28" height="91"></rect>
                        <rect id="Rectangle" fill="#FFDC69" x="94" y="104" width="28" height="91"></rect>
                        <rect id="Rectangle" fill="#FFDC69" x="144" y="104" width="28" height="91"></rect>
                        <rect id="Rectangle" fill="#FFDC69" x="194" y="104" width="28" height="91"></rect>
                        <rect id="Rectangle" fill="#FFDC69" x="244" y="104" width="28" height="91"></rect>
                        <g id="Group" transform="translate(36.789566, 115.703699)">
                            <path d="M71.2104341,6.54630051 C77.0314477,6.54630051 82.3387519,8.52065828 87.5776426,12.2012089 L88.207341,12.6498838 C90.691303,14.4456954 92.7949606,16.2866638 95.8747,19.3182297 L96.6657548,20.1015881 L97.8505245,21.2892044 L100.567584,24.0478702 C110.178008,33.7692307 114.747101,36.8044178 121.061392,36.6250893 C127.106805,36.4533971 131.982385,33.9024881 140.192149,27.0852576 L141.084731,26.3384289 L142.450065,25.1765131 L147.236102,21.0428176 C155.114892,14.3447593 160.967581,10.7463179 167.551088,9.80130296 C166.120739,10.9933888 165.210434,12.7885381 165.210434,14.7963005 C165.210434,17.1483581 166.45971,19.2086317 168.330916,20.3497761 C164.517465,21.1573318 160.505221,23.6335274 154.891324,28.322609 L154.037051,29.042636 L153.028356,29.905854 L148.879409,33.4977432 L147.954489,34.2883207 C144.343881,37.3591031 141.768527,39.3549345 139.017795,41.1175716 L138.325757,41.5538598 L137.622209,41.9833544 C132.296369,45.1837214 127.009712,46.9603882 121.359476,47.1208573 C115.392317,47.2903271 109.951224,45.3777774 104.599609,41.6789434 C101.573487,39.5874019 99.2195211,37.5394383 95.4116975,33.7562385 L94.9980564,33.3441747 L93.7727898,32.112645 L91.3855026,29.6870735 C81.9008097,20.0910463 77.3974163,17.0463005 71.2104341,17.0463005 C64.3399602,17.0463005 59.2191363,23.3192474 51.472959,40.0992393 L50.9801951,41.1730383 L50.2274232,42.8366451 L47.4236156,49.1384465 L46.8855019,50.3331843 C43.7082901,57.3557777 41.4357569,61.7892475 38.8914929,65.571112 L38.6788167,65.8848005 L38.2599068,66.4887601 L37.8444911,67.0702845 C33.2335773,73.4326752 27.9838995,77.0558161 21.5951312,77.195454 L21.2104341,77.1996461 L18.7362977,77.1983229 L5.22794108,77.159625 C2.32847218,77.1473373 -0.0120506153,74.7868921 -1.79412041e-13,71.8874232 C0.0125248035,68.9879543 2.37296992,66.6474315 5.27243882,66.6597193 L9.06266494,66.6745891 L21.2104341,66.6996461 C26.0490472,66.6996461 30.2962996,61.2653861 36.96201,46.775669 L37.425585,45.7619775 L37.8917653,44.7310541 L40.9090449,37.9523413 L41.723868,36.1480863 C45.0886531,28.7474312 47.5298371,24.0441353 50.3293791,19.9390968 L50.774577,19.2955985 L51.2268524,18.6602073 L51.6582856,18.070258 C57.1417158,10.6678404 63.4808155,6.54630051 71.2104341,6.54630051 Z M240.480992,5.09648369 L240.737851,4.04049342 C241.4065,1.21914998 244.235699,-0.525953314 247.057042,0.142696124 C249.878386,0.811345561 251.623489,3.64054379 250.954839,6.46188723 C246.032752,27.2304659 236.116161,38.5011903 221.210434,38.5011903 C211.935491,38.5011903 205.279332,36.0589942 194.840621,29.9511904 L193.642377,29.2440158 L188.55284,26.1879302 L187.494129,25.5699739 C182.465921,22.6705809 178.700049,21.032118 175.037222,20.3801366 C176.937999,19.2466247 178.210434,17.1700591 178.210434,14.7963005 C178.210434,12.8320514 177.339159,11.0712996 175.961994,9.87943163 C181.441533,10.6718685 186.613352,12.8995598 193.263168,16.777702 L194.691274,17.621213 L198.406624,19.8592513 L199.478078,20.4972378 C208.788734,25.9999434 214.095337,28.0011903 221.210434,28.0011903 C229.812509,28.0011903 236.100099,21.3841484 240.077751,6.64974946 L240.213996,6.13844712 L240.480992,5.09648369 L240.737851,4.04049342 L240.480992,5.09648369 Z" id="Shape" fill="#FFD343"></path>
                            <path d="M171.710434,3.29630051 C178.061709,3.29630051 183.210434,8.44502588 183.210434,14.7963005 C183.210434,21.1475751 178.061709,26.2963005 171.710434,26.2963005 C165.35916,26.2963005 160.210434,21.1475751 160.210434,14.7963005 C160.210434,8.44502588 165.35916,3.29630051 171.710434,3.29630051 Z M171.710434,11.2963005 C169.777438,11.2963005 168.210434,12.8633039 168.210434,14.7963005 C168.210434,16.7292971 169.777438,18.2963005 171.710434,18.2963005 C173.643431,18.2963005 175.210434,16.7292971 175.210434,14.7963005 C175.210434,12.8633039 173.643431,11.2963005 171.710434,11.2963005 Z" id="Shape" fill="#15113B"></path>
                        </g>
                        <path d="M111,27 L269,27 C271.209139,27 273,28.790861 273,31 L273,32 C273,34.209139 271.209139,36 269,36 L111,36 C108.790861,36 107,34.209139 107,32 L107,31 C107,28.790861 108.790861,27 111,27 Z" id="Rectangle" fill="#FFD343"></path>
                        <path d="M111,54 L189,54 C191.209139,54 193,55.790861 193,58 L193,59 C193,61.209139 191.209139,63 189,63 L111,63 C108.790861,63 107,61.209139 107,59 L107,58 C107,55.790861 108.790861,54 111,54 Z" id="Rectangle" fill="#FFDC69"></path>
                        <path d="M43,220 L161,220 C163.209139,220 165,221.790861 165,224 L165,225 C165,227.209139 163.209139,229 161,229 L43,229 C40.790861,229 39,227.209139 39,225 L39,224 C39,221.790861 40.790861,220 43,220 Z" id="Rectangle" fill="#FFDC69"></path>
                        <path d="M41,25 L88,25 C90.209139,25 92,26.790861 92,29 L92,76 C92,78.209139 90.209139,80 88,80 L41,80 C38.790861,80 37,78.209139 37,76 L37,29 C37,26.790861 38.790861,25 41,25 Z" id="Rectangle" fill="#FFD343"></path>
                    </g>
                </g>
                <g id="Group-13" transform="translate(0.000000, 220.000000)">
                    <g id="Group-12" transform="translate(20.941811, 139.406870)">
                        <path d="M5.31918442,136.82371 L5.33141303,134.660563 C5.33141303,122.717575 10.0703598,108.287582 10.1822902,101.968421 C10.2942205,95.6492611 0.846512231,39.6853448 3.52499224,25.6085182 C5.23921945,16.5993492 7.67376746,8.37204566 10.8286363,0.926607548 L11.2267465,4.54747351e-13 L56.2901993,4.54747351e-13 L59.1575303,21.9828732 C65.7191768,72.5098981 69,99.5050808 69,102.968421 L68.9940026,103.547664 C68.9230333,107.635694 68.2222111,123.453687 66.891536,151.001644 L65.1896061,185.711 L65.2296373,185.707043 L66.5841243,187.092658 C75.350297,196.109369 78.8416518,200.711719 77.0581888,200.899706 C75.8422918,201.027868 68.0446918,196.49756 53.665389,187.30878 L53.665389,186.707043 L52.9250557,178.303228 C51.0526347,157.387512 49.6110887,144.009775 48.6004174,138.170017 L48.4621899,137.404088 C46.7522007,128.350967 48.4621899,109.069001 48.4621899,105.288748 C48.4621899,102.89358 42.9270331,85.1841392 31.8567195,52.1604254 L30.0782611,46.864914 L30.0782611,104.288748 L30.0721517,104.598465 C29.8786847,109.92563 25.0903784,135.360303 15.7072327,180.902484 L14.4944387,186.777192 L15.4514973,187.867954 C22.7031249,196.181533 25.4709827,200.525451 23.7550708,200.899706 C21.9656199,201.290001 15.2222603,196.915829 3.52499224,187.777192 L4.19323962,172.037925 C4.87337139,155.36745 5.24868632,143.629378 5.31918442,136.82371 L5.31918442,136.82371 Z" id="Path" fill="#FFA475"></path>
                        <path d="M8.47530917,86.7754628 L30.0773092,74.3364783 L30.0782611,104.288748 L30.0721517,104.598465 C29.8786847,109.92563 25.0903784,135.360303 15.7072327,180.902484 L14.4944387,186.777192 L15.4514973,187.867954 C22.7031249,196.181533 25.4709827,200.525451 23.7550708,200.899706 C22.507441,201.171825 18.8516813,199.127903 12.7877919,194.767941 L24.0536074,102.046162 C17.9653265,100.913554 13.2309683,99.4820655 9.85053281,97.7516955 L9.75913425,96.9367752 C9.45400422,94.2689345 9.00222185,90.7825755 8.47530917,86.7754628 Z M37.7612608,69.9139611 L63.4225387,55.1424783 L65.6360144,72.7658604 C67.5711835,88.3930757 68.6714323,98.0317911 68.936761,101.682007 L68.9756187,102.276423 L68.9756187,102.276423 L68.9925014,102.627854 L68.9925014,102.627854 L69,102.968421 L68.9940026,103.547664 C68.9230333,107.635694 68.2222111,123.453687 66.891536,151.001644 L65.1896061,185.711 L65.2296373,185.707043 L66.5841243,187.092658 C75.350297,196.109369 78.8416518,200.711719 77.0581888,200.899706 C76.1585459,200.994533 71.6557305,198.539067 63.5497428,193.533308 L63.5486109,104.003716 C58.813216,104.502047 53.7560609,104.680467 48.3776163,104.539713 L48.3351011,104.306664 C47.640858,100.673789 44.1163938,89.2097202 37.7612608,69.9139611 Z" id="Shape" fill-opacity="0.0964543269" fill="#000000" fill-rule="nonzero"></path>
                        <path d="M0.77605932,187.288152 L0.77605932,206.25982 C0.77605932,206.812104 1.22377457,207.25982 1.77605932,207.25982 L2.57791059,207.25982 C3.0576505,207.25982 3.46979665,206.91913 3.56005341,206.447957 L5.54533874,196.084046 L5.54533874,196.084046 C12.0635455,203.534562 16.0459771,207.25982 17.4926335,207.25982 C18.7255103,207.25982 22.6267463,207.25982 29.1963416,207.25982 C30.3009005,207.259801 31.1963225,206.364379 31.1963225,205.25982 C31.1963225,204.804572 31.0410075,204.362946 30.7560418,204.007918 C29.8864011,202.924463 28.9834705,202.107425 28.0472502,201.556801 C26.3591381,200.563965 20.8434456,195.74744 11.5001729,187.107228 C11.2176228,186.845965 10.8657054,186.671749 10.4866235,186.605492 L3.12040112,185.318018 C2.03232605,185.127843 0.996099856,185.855735 0.80592513,186.94381 C0.786051895,187.057514 0.77605932,187.172724 0.77605932,187.288152 Z" id="Path-49" fill="#15113B"></path>
                        <path d="M51.7760593,186.208403 L51.7760593,206.25982 C51.7760593,206.812104 52.2237746,207.25982 52.7760593,207.25982 L53.5779106,207.25982 C54.0576505,207.25982 54.4697967,206.91913 54.5600534,206.447957 L56.5453387,196.084046 L56.5453387,196.084046 C63.0635455,203.534562 67.0459771,207.25982 68.4926335,207.25982 C69.8013573,207.25982 74.5237317,207.25982 82.6597567,207.25982 C83.7643279,207.259823 84.6597597,206.364391 84.6597597,205.25982 C84.6597597,204.95984 84.5922793,204.663702 84.4623155,204.393336 C83.874845,203.171212 83.0675514,202.258109 82.0404349,201.654027 C80.3341669,200.650513 73.8987794,196.062008 62.7342722,187.888513 C62.6338199,187.814947 62.5205038,187.760806 62.4001631,187.728857 L53.0326594,185.241885 C52.4988664,185.100169 51.9512579,185.41801 51.8095416,185.951803 C51.7873143,186.035525 51.7760593,186.12178 51.7760593,186.208403 Z" id="Path-49" fill="#15113B"></path>
                    </g>
                    <path d="M6.96459061,97.4264169 C6.38328464,102.099485 14.8547817,136.261145 14.8547817,138.464931 C14.8547817,140.668717 15.8998007,154.413799 17.1729425,157.773625 C18.0217037,160.01351 19.4779572,163.095301 21.5417028,167.018999 L26.89751,140.88784 C23.9603947,139.103146 22.4918371,137.604488 22.4918371,136.391865 C22.4918371,134.572931 21.5417028,104.694716 21.5417028,100.141213 C21.5417028,97.1055437 22.7815313,91.5853036 25.2611884,83.5804924 L13.2879633,78.2149671 C9.45991881,87.9072216 7.35212792,94.3110382 6.96459061,97.4264169 Z" id="Path-54" fill="#FFA475"></path>
                    <path d="M24.2611884,52.3457253 C20.71195,55.7120356 6,93.965314 6,98.5115504 C6,101.542375 8.06030346,112.265883 12.1809104,130.682075 L23.5504462,130.682075 C23.1345089,115.213559 22.9265403,105.984676 22.9265403,102.995426 C22.9265403,98.5115504 29.5382389,78.7288516 29.5382389,74.9709052 C29.5382389,71.2129588 27.8104267,48.979415 24.2611884,52.3457253 Z" id="Path-78" fill="#514E6D" fill-rule="nonzero"></path>
                    <path d="M27.89751,68.7147623 L29.1454264,68.6081002 L29.2923022,70.3533331 C29.4565806,72.4638021 29.5382389,74.1539421 29.5382389,74.9709052 C29.5382389,78.7288516 22.9265403,98.5115504 22.9265403,102.995426 L22.9507985,105.491527 C23.0108664,109.48304 23.182489,116.821502 23.4656663,127.506912 L23.5504462,130.682075 L20.1511195,130.682075 L17.7691195,98.5672438 L27.89751,68.7147623 Z" id="Path" fill="#15113B" fill-rule="nonzero"></path>
                    <polygon id="Path-79" fill="#15113B" fill-rule="nonzero" points="10.2853002 128.150433 24.2611884 128.150433 24.2611884 133.436802 11.2853002 134.40687"></polygon>
                    <g id="Group-56" transform="translate(22.000000, 155.000000) rotate(-90.000000) translate(-22.000000, -155.000000) translate(4.000000, 133.000000)" fill-rule="nonzero">
                        <g id="Group-3">
                            <path d="M4.5,0 L32.5,0 C34.1568542,-3.04359188e-16 35.5,1.34314575 35.5,3 L35.5,41 C35.5,42.6568542 34.1568542,44 32.5,44 L4.5,44 C2.84314575,44 1.5,42.6568542 1.5,41 L1.5,3 C1.5,1.34314575 2.84314575,3.04359188e-16 4.5,0 Z" id="Rectangle" fill="#15113B"></path>
                            <path d="M3,0 L31,0 C32.6568542,-3.04359188e-16 34,1.34314575 34,3 L34,41 C34,42.6568542 32.6568542,44 31,44 L3,44 C1.34314575,44 2.02906125e-16,42.6568542 0,41 L0,3 C-2.02906125e-16,1.34314575 1.34314575,3.04359188e-16 3,0 Z" id="Rectangle" fill="#09D5B0"></path>
                            <rect id="Rectangle" fill="#15113B" x="3" y="3" width="2" height="5"></rect>
                            <path d="M17,19 C17.3637645,19 17.7124073,19.0647433 18.0350341,19.1833355 C18.0115346,19.2855544 18,19.3914302 18,19.5 C18,20.3284271 18.6715729,21 19.5,21 C19.6085698,21 19.7144456,20.9884654 19.8164687,20.9665548 C19.9352567,21.2875927 20,21.6362355 20,22 C20,23.6568542 18.6568542,25 17,25 C15.3431458,25 14,23.6568542 14,22 C14,20.3431458 15.3431458,19 17,19 Z" id="Path" fill="#EAEFFF"></path>
                        </g>
                    </g>
                    <path d="M25.2393831,51.2094302 C30.9480576,44.2212365 71.0099469,47.7352959 71.9035054,48.2819738 C77.5688784,59.961819 80.8194394,68.7393233 81.6551883,74.6144868 C82.9088117,83.4272321 80.4998645,92.1781096 79.1767136,96.9721921 L76.8712916,140.547032 L71.1863948,140.547032 C42.6998267,141.985692 28.4565427,142.309562 28.4565427,141.518641 L28.473516,141.389379 C28.8281084,139.295383 32.739355,115.20335 32.6064443,110.546489 C32.4735335,105.889627 19.9418112,57.6943785 25.2393831,51.2094302 Z" id="Path" fill="#383458" fill-rule="nonzero"></path>
                    <path d="M70.2760007,66.6154858 L81.9578249,81.7774267 C81.6680831,87.9334332 80.1366497,93.4941211 79.1767136,96.9721921 L79.1060007,98.2924858 L70.2760007,66.6154858 Z" id="Path" fill="#15113B" fill-rule="nonzero"></path>
                    <g id="Group-21" transform="translate(67.000000, 42.000000)">
                        <path d="M62.0595869,25.8310984 C61.0645074,25.6350064 51.5691012,18.273479 50.538651,13.5432915 C49.5082009,8.81310395 52.3613415,0.450396851 53.7204302,0.0365430699 C55.0795188,-0.377310711 56.082061,2.68838474 62.0595869,11.0551011 C62.8217568,5.39590801 63.579523,2.56631147 64.3328855,2.56631147 C66.0705892,2.56631147 65.9760624,10.3237128 66.4587356,11.7669424 L66.4896761,11.8487954 C66.835241,12.6477892 67.2581775,15.2094495 67.7584854,19.5337763 L72.9379946,24.1232282 L66.8096128,30.6698176 C64.0691708,27.5280007 62.4858288,25.9150943 62.0595869,25.8310984 Z" id="Path" fill="#FFA475" transform="translate(61.628445, 15.334909) scale(-1, 1) translate(-61.628445, -15.334909) "></path>
                        <path d="M3.33184547,29.5 C5.80215423,33.6538363 27.6044274,63 32.83792,63 C36.326915,63 45.8352245,51.1666667 61.3628485,27.5 L53.1909496,20.2113903 L33.5,39.6977021 C17.8015647,18.4872638 8.08321141,7.31940549 4.34494004,6.19412708 C-1.26246701,4.50620946 0.861536706,25.3461637 3.33184547,29.5 Z" id="Path-80" fill="#383458" fill-rule="nonzero"></path>
                        <polygon id="Path-81" fill="#15113B" fill-rule="nonzero" transform="translate(56.733299, 25.683628) rotate(6.000000) translate(-56.733299, -25.683628) " points="50.10375 23.2645362 60.7379362 31.5347923 63.3628485 26.1730862 52.3847148 19.832464"></polygon>
                    </g>
                    <path d="M29.9707636,134.40687 C28.4429241,137.080191 27.44189,138.912717 26.9676613,139.90445 C26.7883094,140.27952 26.6273733,140.632663 26.4848529,140.963879 C24.4280173,145.743945 22.747625,151.581139 21.4436758,158.475462 C18.4781652,174.154899 24.0657362,227.140052 23.9418112,234.178632 C23.9366403,234.472322 38.3835553,238.532953 53.9700857,238.779532 C65.2688723,238.958279 77.159611,237.578893 84.5080449,235.831499 C85.2621371,235.652182 85.9732396,232.780031 86.6413527,227.215045 C88.6965662,231.901115 89.9582656,234.117248 90.4264509,233.863445 C91.2643408,233.409225 91.7207764,232.958531 91.7207764,232.528742 C91.7207764,228.145069 87.005822,195.437778 77.575913,134.40687 L29.9707636,134.40687 Z" id="Path-48" fill="#26234A" fill-rule="nonzero"></path>
                    <path d="M65.2518426,136.387437 L77.8036679,135.881343 L80.1960189,151.426669 C87.7103297,200.436477 91.5500599,227.37239 91.7152096,232.234407 L91.7188426,232.392345 L65.2518426,136.387437 Z" id="Path" fill="#15113B" fill-rule="nonzero"></path>
                    <path d="M29.9707636,134.40687 L77.575913,134.40687 L78.1506853,137.560715 L78.1506853,137.560715 C68.0077485,138.098815 58.7706272,138.368003 50.4403228,138.368003 C42.8228388,138.368003 35.38456,138.142912 28.1254863,137.692731 L28.6587092,136.727939 C28.8500911,136.384611 29.055116,136.019542 29.2737898,135.632706 L29.9707636,134.40687 Z" id="Path" fill="#FFFFFF"></path>
                    <g id="Group-23" transform="translate(34.000000, 0.000000)">
                        <path d="M33.6410724,7.3679667 C36.3316173,12.4993153 34.3639189,40.258468 27.4209084,40.258468 C25.694311,40.258468 24.6389362,40.559464 24.2547841,41.161456 L24.2547841,47.6336142 L10.6971289,47.6336142 C10.6596115,44.2644778 10.3107693,41.2343437 9.65060242,38.543212 C8.66035203,34.5065143 2.25091153,16.9068708 6.88948997,8.31854833 C11.5280684,-0.269774083 30.9505275,2.23661811 33.6410724,7.3679667 Z" id="Path-46" fill="#FFA475"></path>
                        <path d="M27.4209084,40.258468 C25.694311,40.258468 24.6389362,40.559464 24.2547841,41.161456 L24.2546201,41.8156031 L9.8203402,39.2897784 C9.76625363,39.0328708 9.70967437,38.7840153 9.65060242,38.543212 L9.55687221,38.1795758 C9.50419337,37.9828188 9.44305138,37.7640063 9.37460478,37.5247265 L31.8369665,35.5046031 C30.6983252,38.377625 29.2281699,40.258468 27.4209084,40.258468 Z" id="Path" fill-opacity="0.0964543269" fill="#000000" fill-rule="nonzero"></path>
                        <path d="M1.9388434,40.8785253 C5.19028677,39.9935761 7.39998787,39.4212331 8.56794671,39.1614962 C10.8902485,38.6450503 13.6430574,38.2667532 16.4791865,38.2667532 C18.9074372,38.2667532 22.7584488,38.6450503 28.0105166,39.8285253 C29.8617479,40.2456727 34.0664914,40.7326182 40.6247473,41.2893621 C38.2433366,19.0202355 35.5370916,6.53253133 32.5060123,3.82624946 C29.4749331,1.11996758 25.0888512,0.0272056086 19.3477669,0.547963535 C14.1635841,-0.782665281 9.87031071,0.310096693 6.46794671,3.82624946 C-0.204840197,10.7222012 -1.7145413,23.0729599 1.9388434,40.8785253 Z" id="Path-75" fill="#182160" fill-rule="nonzero"></path>
                    </g>
                    <polygon id="Rectangle" fill="#15113B" fill-rule="nonzero" points="42 45 60 45 61 49 41 49"></polygon>
                    <g id="Group-20" transform="translate(6.000000, 52.000000)"></g>
                </g>
                <g id="Group" transform="translate(248.000000, 183.000000)">
                    <g id="Group-14" transform="translate(87.000000, 15.000000)">
                        <path d="M13.4499906,41.7512474 L12.0446807,59.0939477 L29.3082775,59.0939477 C27.9766454,52.6402684 27.3108294,47.8137861 27.3108294,44.6145008 C27.3108294,39.8155728 33.4400357,25.8924013 34.892502,19.6681285 C37.2120348,9.72820486 27.3108294,0.589896205 17.0238013,3.1980476 C6.73677316,5.80619899 5.57461668,16.1187266 5.57461668,20.2451218 C5.57461668,24.3715169 6.23378128,35.5902855 8.47327525,38.6707665 C9.96627123,40.7244205 11.6251763,41.7512474 13.4499906,41.7512474 Z" id="Path" fill="#FFB294"></path>
                        <path d="M4.33658756,14.2537578 C-0.234673438,9.06246833 -1.19195913,5.31975865 1.46473047,3.02562881 C5.44976488,-0.415565958 24.6871748,-0.776860348 27.594976,1.21141514 C30.5027772,3.19969064 31.7522833,6.65405613 31.7522833,6.65405613 C31.7522833,6.65405613 38.3872789,11.5535713 36.736001,17.7379258 C35.635149,21.8608289 33.3900714,27.6012319 30.0007683,34.9591348 C23.3923378,35.0767361 19.6230712,34.9405139 18.6929686,34.5504683 C17.9081505,34.2213489 16.6644917,30.9206952 17.0201887,27.4630479 C17.3307399,24.4442511 19.451743,20.7520297 18.0348578,19.5 C12.4931799,14.6031002 13.6341025,26.4638544 11.5148046,26.6350858 C10.5286248,26.7147655 11.4808492,19.2109997 9.81844024,17.6221682 C8.81988107,16.6678049 6.99259684,15.5450014 4.33658756,14.2537578 Z" id="Path-90" fill="#15113B" fill-rule="nonzero"></path>
                    </g>
                    <polygon id="Path-8" fill="#FFB294" points="68.5920477 352.75996 65.8008234 368.082338 54.8687008 368.082338 54.8687008 352.75996"></polygon>
                    <polygon id="Path-10" fill="#FFB294" points="133.440268 349.793009 134.440268 368.878585 123.114022 368.878585 119.13403 349.793009"></polygon>
                    <path d="M54.8687008,365 L66.5653195,365 L66.5443815,378.993508 C66.5435592,379.543044 66.0994565,379.988949 65.5499282,379.991996 L29.1679032,380.193758 C28.615627,380.196821 28.1654358,379.751596 28.1623731,379.199319 C28.1620871,379.147759 28.1657893,379.096254 28.1734466,379.045265 L28.5342277,376.642846 C28.5859541,376.298403 28.8131764,376.005689 29.1340327,375.870162 L54.8687008,365 L54.8687008,365 Z" id="Path-85" fill="#15113B"></path>
                    <path d="M122.868701,365 L135.56532,365 L135.544379,378.995184 C135.543558,379.544062 135.100479,379.989691 134.551615,379.993662 L107.169889,380.191771 C106.617619,380.195767 106.166676,379.751302 106.162681,379.199032 C106.162304,379.146908 106.166002,379.094835 106.173743,379.043288 L106.55269,376.519908 C106.594015,376.244728 106.74813,375.999212 106.977987,375.842378 L122.868701,365 L122.868701,365 Z" id="Path-85" fill="#15113B"></path>
                    <path d="M71.0602021,164.633513 L55.1535243,266.289942 L52.7501171,363.263303 L68.5920477,363.263303 L83.0293957,269.575332 L95.91889,215.055625 L102.038511,272.289942 L120.040435,363.263303 L136.32492,363.263303 L129.448834,266.289942 L123.617146,162.686579 C118.41235,165.272707 111.468373,166.997956 102.785214,167.862328 C94.1020559,168.7267 83.5270518,167.650428 71.0602021,164.633513 Z" id="Path-4" fill="#26234A" fill-rule="nonzero"></path>
                    <path d="M123.619129,162.716579 L124.562722,177.004464 C119.130126,179.460898 110.922382,180.689115 99.9394919,180.689115 C90.6965738,180.689115 81.2988449,179.152966 71.7463052,176.080666 L59.8349462,268.716399 L55.1461171,363.263303 L52.7501171,363.263303 L55.1535243,266.289942 L71.0602021,164.633513 L71.242861,164.67761 L71.242861,164.67761 L71.7811171,165.185579 L73.137403,165.122227 C84.4208455,167.69981 94.1004922,168.632229 102.176343,167.919484 L102.785214,167.862328 C111.205247,167.02415 117.989906,165.376477 123.139192,162.91931 L123.551117,162.716579 L123.619129,162.716579 Z" id="Path" fill="#15113B" fill-rule="nonzero"></path>
                    <path d="M95.9871171,215.69455 L96.1600171,214.37155 L97.5459787,223.450546 C101.511992,249.258316 104.181514,265.039498 105.554544,270.794091 L105.694175,271.38272 C107.295058,278.373136 112.236187,308.999697 120.517564,363.263303 L120.040435,363.263303 L102.038511,272.289942 L95.9871171,215.69455 Z" id="Path" fill-opacity="0.270405376" fill="#000000" fill-rule="nonzero"></path>
                    <path d="M102.664492,71.2254686 L101.200229,70.8999912 L100.244979,75.2161069 L99.0594698,80.6288804 C89.8971747,122.724065 86.030606,146.870812 87.4467255,153.433914 L87.4932011,153.635326 C88.8047864,158.953484 89.5784713,164.214815 89.8146997,169.41988 L91.3131572,169.351874 C91.0724154,164.047359 90.2844032,158.688597 88.9495644,153.276152 C87.3787465,146.906869 91.9559429,119.401246 102.664492,71.2254686 Z" id="Path-87" fill="#C4D1FF" fill-rule="nonzero"></path>
                    <path d="M123.617146,162.686579 L124.098037,169.303967 C111.776672,173.207843 100.820978,174.638982 91.230954,173.597385 C82.5182826,172.651079 75.5763274,171.110566 70.4050881,168.975845 L71.0602021,164.633513 C83.5270518,167.650428 94.1020559,168.7267 102.785214,167.862328 C111.205247,167.02415 117.989906,165.376477 123.139192,162.91931 L123.617146,162.686579 Z" id="Path" fill="#514E6D" fill-rule="nonzero"></path>
                    <g id="Group-14">
                        <g id="Group-25" transform="translate(136.500000, 127.000000) scale(-1, 1) translate(-136.500000, -127.000000) translate(83.000000, 62.000000)">
                            <path d="M41.1401879,98.734263 C42.5296102,113.542566 44.0171918,121.64704 45.6029325,123.047684 C47.9815436,125.148651 50.8261864,129.029515 51.9488362,129.029515 C53.0714861,129.029515 57.4687336,130.774419 58.762825,129.029515 C59.4013919,128.168495 58.450265,126.980862 55.6019298,120.547684 C55.3078394,119.883459 54.7887619,116.84182 54.4309087,116.110206 C53.8583724,114.939681 52.7697046,112.93342 51.1649055,110.091421 L51.1649055,98.734263 L41.1401879,98.734263 Z" id="Path-34" fill="#FFB294"></path>
                            <path d="M38.9198281,18.2105221 C43.0479525,21.5940878 59.7391067,35.0109505 70.7797096,49.8844805 C78.5583698,60.3636307 85.7722309,79.9014607 90.3588085,89.7893875 C91.0348439,91.2468116 79.3268215,97.269605 78.7731249,96.4783851 C73.6393084,89.1422774 64.9690576,71.0253503 57.4139622,61.1269065 C38.1671628,35.9103669 11.4250805,24.6074692 17.6796065,16.5560888 C21.9549714,11.05246 31.8832324,12.443064 38.9198281,18.2105221 Z" id="Path" fill="#15113B" fill-rule="nonzero" transform="translate(53.569773, 54.814990) scale(-1, 1) rotate(30.000000) translate(-53.569773, -54.814990) "></path>
                            <path d="M57.228216,23.559573 L60.0270034,35.1304901 C57.3233747,43.0860214 54.683919,52.2273403 53.3965662,62.2033646 C51.8028835,74.553216 53.3526896,94.5780605 52.574728,103.498224 C52.5438515,103.852257 50.7434734,104.162421 48.4729621,104.333319 L48.2889775,101.375864 C47.0181376,80.5366169 46.7731868,67.3480683 47.5536983,61.8089994 L47.6667853,61.0526115 C48.6295439,54.9382004 51.5334847,43.4245965 56.3786078,26.5117996 L57.228216,23.559573 Z" id="Path" fill="#26234A" fill-rule="nonzero"></path>
                        </g>
                        <path d="M61.1615305,165.446827 C59.7735856,163.181839 63.9315797,130.445878 75.3567789,66.8504651 C76.6371884,66.0986189 78.6369075,65.5573589 81.3559364,65.2266853 C83.1644566,65.0067427 88.4113407,64.6787959 97.0965888,64.2428448 C114.048198,63.8544843 119.902104,63.9319351 124.658633,64.4751394 C130.064928,65.0925482 134.178717,67.2413661 137,70.9215932 L133.014242,131.710163 C131.814354,140.003175 132.467243,152.046329 134.972909,165.839625 C128.816337,170.415534 121.624863,173.317504 113.546342,175.562264 C111.276318,176.19303 109.039026,176.669818 106.843349,177.012249 C104.757566,177.337541 102.521797,168.839625 101.452147,168.839625 C100.382498,168.839625 97.0337096,177.73617 95.2616321,177.66349 C76.1355011,176.868418 62.2308719,167.191886 61.1615305,165.446827 Z" id="Path" fill="#15113B" fill-rule="nonzero"></path>
                        <path d="M72.5014247,82.961699 L78.7656654,85.559573 L61.5303296,154.454144 L61.7479204,152.455004 C63.2307142,139.269885 66.7087649,116.129475 72.5014247,82.961699 Z" id="Path" fill-opacity="0.270405376" fill="#000000" fill-rule="nonzero"></path>
                        <polygon id="Rectangle" fill="#383458" fill-rule="nonzero" points="96.1060762 61 118.106076 61 119 66 95.3485954 66"></polygon>
                        <path d="M4.70500428,20.8896548 C3.18594826,18.4573884 2.45167341,16.7202465 2.50217972,15.6782291 C2.53546307,14.991546 0.516875771,7.51234115 1.05864298,6.9661135 C3.39622802,4.60928282 5.03582739,12.0098776 5.22139755,11.248778 C6.13293263,7.51019728 8.15488204,-0.36789552 9.82713942,0.365662897 C11.4993968,1.09922131 10.7184877,5.73792655 12.091834,6.58082598 C13.4651804,7.42372542 19.5855126,10.8425777 19.5855126,14.0493419 C19.5855126,17.256106 17.2187667,21.7645592 16.1980515,22.3955693 C15.5175747,22.8162427 14.505501,23.7820177 13.1618306,25.2928942 L10.3665555,32.0774647 L0.820942809,29.8029977 L4.70500428,20.8896548 Z" id="Path-33" fill="#FFB294" transform="translate(10.203228, 16.197614) scale(-1, 1) rotate(2.000000) translate(-10.203228, -16.197614) "></path>
                        <path d="M15.2935202,88.1216481 C25.0473185,88.1216481 58.9051211,70.8742296 64.3201053,65.3242204 C69.7350894,59.7742111 84.7572276,32.5186545 84.7572276,29.4674896 C84.7572276,28.8066385 73.8537651,22.1738953 72.5735547,23.4479006 C69.7278632,26.279799 52.0503276,51.4292226 49.2274065,52.8794882 C46.4044854,54.3297538 22.0436532,62.6218284 14.1792252,66 C6.31479723,69.3781716 5.53972187,88.1216481 15.2935202,88.1216481 Z" id="Path-31" fill="#15113B" fill-rule="nonzero" transform="translate(46.443076, 55.703716) scale(-1, 1) translate(-46.443076, -55.703716) "></path>
                        <path d="M8.64144717,31.2918873 L29.6942869,62.2630669 L77.5926325,88.1216481 C67.8388342,88.1216481 33.9810316,70.8742296 28.5660474,65.3242204 C23.8614576,60.5023195 11.9050999,39.2964205 8.84894978,31.8144214 L8.64144717,31.2918873 Z" id="Path" fill="#26234A" fill-rule="nonzero"></path>
                    </g>
                </g>
                <g id="Group-24" transform="translate(331.000000, 0.000000)">
                    <circle id="Oval" fill-opacity="0.100551792" fill="#09D5B0" fill-rule="nonzero" cx="58.5" cy="56.7" r="51.3"></circle>
                    <circle id="Oval" fill="#FFDC69" cx="51.3" cy="51.3" r="51.3"></circle>
                    <path d="M53.6660156,23.6625 L53.6660156,26.8335938 C57.0613451,27.2393249 59.7626202,28.3977769 61.7699219,30.3089844 C63.7772236,32.2201918 65.0584608,34.7773277 65.6136719,37.9804688 L57.5097656,39.0375 C57.0186173,36.5176957 55.7373801,34.8093795 53.6660156,33.9125 L53.6660156,46.4367187 C58.7910412,47.8247465 62.2824126,49.6238171 64.1402344,51.8339844 C65.9980562,54.0441517 66.9269531,56.878889 66.9269531,60.3382813 C66.9269531,64.2034047 65.7578242,67.4598826 63.4195313,70.1078125 C61.0812383,72.7557424 57.8300989,74.3786428 53.6660156,74.9765625 L53.6660156,80.9664063 L49.0214844,80.9664063 L49.0214844,75.1367188 C45.3271951,74.688279 42.3269647,73.310949 40.0207031,71.0046875 C37.7144416,68.698426 36.2410188,65.4419481 35.6003906,61.2351562 L43.9605469,60.3382813 C44.3022152,62.0466231 44.9428338,63.5200459 45.8824219,64.7585937 C46.8220099,65.9971416 47.8683536,66.8940076 49.0214844,67.4492188 L49.0214844,54.028125 C44.8360468,52.8322857 41.766416,51.0225382 39.8125,48.5988281 C37.858584,46.1751181 36.8816406,43.233611 36.8816406,39.7742188 C36.8816406,36.2721179 37.9867077,33.3306109 40.196875,30.9496094 C42.4070423,28.5686079 45.3485493,27.1966164 49.0214844,26.8335938 L49.0214844,23.6625 L53.6660156,23.6625 Z M53.6660156,55.4054687 L53.6660156,67.8976563 C55.2675861,67.5986964 56.5701773,66.8566466 57.5738281,65.6714844 C58.577479,64.4863222 59.0792969,63.0929768 59.0792969,61.4914062 C59.0792969,60.0606699 58.6575563,58.8274791 57.8140625,57.7917969 C57.0232871,56.8208448 55.7586276,56.0610477 54.0200501,55.512386 L53.6660156,55.4054687 Z M49.0214844,33.8164062 C47.7615822,34.2434917 46.7579464,34.9695261 46.0105469,35.9945313 C45.2631473,37.0195364 44.8894531,38.1512959 44.8894531,39.3898437 C44.8894531,40.5216202 45.2311164,41.5733024 45.9144531,42.5449219 C46.5977899,43.5165413 47.6334566,44.3012991 49.0214844,44.8992188 L49.0214844,33.8164062 Z" id="Shape" fill="#15113B" fill-rule="nonzero"></path>
                    <path d="M51.6,94 C75.0168734,94 94,75.0168734 94,51.6 C94,28.1831266 75.0168734,9.2 51.6,9.2 C28.1831266,9.2 9.2,28.1831266 9.2,51.6 C9.2,75.0168734 28.1831266,94 51.6,94 Z M51.6,91.6 C29.50861,91.6 11.6,73.69139 11.6,51.6 C11.6,29.50861 29.50861,11.6 51.6,11.6 C73.69139,11.6 91.6,29.50861 91.6,51.6 C91.6,73.69139 73.69139,91.6 51.6,91.6 Z" id="Oval" fill="#FFD343" fill-rule="nonzero"></path>
                </g>
            </g>
        </g>
    </g>
</svg>