<?xml version="1.0" encoding="UTF-8"?>
<svg width="103px" height="118px" viewBox="0 0 103 118" version="1.1" xmlns="http://www.w3.org/2000/svg" xmlns:xlink="http://www.w3.org/1999/xlink">
    <!-- Generator: Sketch 63.1 (92452) - https://sketch.com -->
    <title>Restaurant_restaurant_food_dish_hand_serve</title>
    <desc>Created with Sketch.</desc>
    <g id="Page-1" stroke="none" stroke-width="1" fill="none" fill-rule="evenodd">
        <g id="Restaurant_restaurant_food_dish_hand_serve" fill="#09D5B0" fill-rule="nonzero">
            <g id="Group">
                <path d="M11.062963,64.6 L15.6407407,73.72 C16.4037037,75.24 17.5481481,76 19.0740741,76 L83.9259259,76 C85.4518519,76 86.5962963,75.24 87.3592593,73.72 L91.937037,64.6 L11.062963,64.6 Z" id="Path"></path>
                <path d="M3.81481481,60.8 L9.15555556,60.8 L93.8444444,60.8 L99.1851852,60.8 C101.474074,60.8 103,59.28 103,57 C103,54.72 101.474074,53.2 99.1851852,53.2 L95.3703704,53.2 C94.6074074,33.06 79.7296296,16.34 60.6555556,12.16 C60.6555556,11.4 61.037037,10.64 61.037037,9.5 C61.037037,4.18 56.8407407,0 51.5,0 C46.1592593,0 41.962963,4.18 41.962963,9.5 C41.962963,10.64 42.3444444,11.4 42.3444444,12.16 C23.2703704,16.34 8.77407407,33.06 7.62962963,53.2 L3.81481481,53.2 C1.52592593,53.2 0,54.72 0,57 C0,59.28 1.52592593,60.8 3.81481481,60.8 Z" id="Path"></path>
            </g>
            <path d="M82.7498126,81.1515152 C82.3689253,80.3838384 81.2262634,80 80.4644889,80 C78.9409398,80 77.7982779,80 76.2747288,80.3838384 L72.0849687,86.1414141 C67.8952086,91.8989899 61.0392375,95.3535354 53.8023792,95.3535354 L53.8023792,95.3535354 L52.6597173,95.3535354 L49.9935063,95.3535354 L45.0419717,95.3535354 L42.3757607,95.3535354 C40.090437,95.3535354 38.5668879,93.8181818 38.5668879,91.5151515 C38.5668879,89.2121212 40.090437,87.6767677 42.3757607,87.6767677 L55.7068156,87.6767677 C56.8494774,86.5252525 57.611252,84.6060606 57.611252,82.6868687 C57.611252,82.6868687 57.611252,82.3030303 57.611252,82.3030303 C57.611252,80.7676768 56.4685901,80 54.945041,80 L39.7095497,80 C30.568255,80 23.3313966,84.2222222 19.1416365,90.7474747 L12.2856655,101.494949 C11.9047782,102.262626 11.9047782,103.414141 12.2856655,104.181818 L19.9034111,116.848485 C20.2842984,117.616162 20.6651857,118 21.4269602,118 C21.4269602,118 21.8078475,118 21.8078475,118 C22.1887348,118 22.9505093,118 23.3313966,117.616162 C32.8535787,111.090909 44.2801971,107.636364 55.7068156,107.636364 C64.0863358,107.636364 71.7040814,103.030303 75.5129542,95.7373737 L82.3689253,83.4545455 C83.1306999,83.0707071 83.1306999,81.9191919 82.7498126,81.1515152 Z" id="Path"></path>
        </g>
    </g>
</svg>