<?xml version="1.0" encoding="UTF-8"?>
<svg width="88px" height="86px" viewBox="0 0 88 86" version="1.1" xmlns="http://www.w3.org/2000/svg" xmlns:xlink="http://www.w3.org/1999/xlink">
    <!-- Generator: Sketch 63.1 (92452) - https://sketch.com -->
    <title>Restaurant_restaurant_pub_bar_drink_beer_alcohol</title>
    <desc>Created with Sketch.</desc>
    <g id="Page-1" stroke="none" stroke-width="1" fill="none" fill-rule="evenodd">
        <g id="Restaurant_restaurant_pub_bar_drink_beer_alcohol" fill="#09D5B0" fill-rule="nonzero">
            <path d="M76.9809529,35.0499797 C75.4068033,35.0499797 73.8326537,35.364486 72.2585042,36.3080049 L72.2585042,35.0499797 C72.2585042,35.0499797 72.2585042,35.0499797 72.2585042,35.0499797 C72.888164,34.4209671 73.5178238,34.1064608 74.1474837,33.4774482 C77.2957828,30.3323852 78.5551025,26.2438033 78.5551025,21.8407152 C78.2402726,16.4941081 75.0919734,11.7765136 70.0546947,8.94595693 C66.5915657,6.74441284 63.4432665,6.42990654 59.6653075,7.05891914 C59.0356477,6.42990654 58.4059878,5.80089395 57.4614981,5.17188135 C56.8318382,4.85737505 56.5170083,4.22836245 55.8873485,3.91385616 L55.2576887,3.59934986 C54.6280288,3.28484356 54.3131989,2.97033726 53.6835391,2.65583096 C53.3687092,2.65583096 53.0538792,2.34132466 53.0538792,2.34132466 C52.4242194,2.02681837 52.1093895,2.02681837 51.4797296,1.71231207 L50.8500698,1.39780577 C50.22041,1.08329947 49.9055801,1.08329947 49.2759202,0.768793174 C48.9610903,0.768793174 48.9610903,0.768793174 48.6462604,0.454286875 C48.0166006,0.454286875 47.7017706,0.139780577 46.7572809,0.139780577 L46.1276211,0.139780577 C44.5534715,-0.174725721 42.664492,0.139780577 41.0903424,0.139780577 C40.7755125,0.139780577 40.7755125,0.139780577 40.1458526,0.139780577 C39.5161928,0.139780577 38.886533,0.454286875 37.9420432,0.454286875 L37.3123834,0.454286875 C36.0530637,1.71231207 34.4789141,2.65583096 32.9047646,3.59934986 C32.9047646,3.59934986 32.5899346,3.59934986 32.5899346,3.91385616 C30.7009551,5.17188135 28.8119756,6.74441284 27.2378261,8.31694433 C24.0895269,7.05891914 20.9412277,6.42990654 17.4780986,7.05891914 C10.2370105,8.00243803 4.25524213,13.9780577 3.31075238,21.5262089 C2.36626263,27.8163348 4.57007205,33.7919545 9.2925208,37.5660301 L9.2925208,50.146282 C9.2925208,55.4928891 7.4035413,60.5249898 3.94041221,63.9845591 C0.477283127,67.4441284 -0.782036541,72.1617229 0.477283127,77.1938236 C2.05143271,82.2259244 7.08871138,86 13.0704798,86 C16.5336089,86 19.3670781,84.7419748 21.5708876,82.5404307 C24.4043568,84.7419748 27.8674859,86 31.330615,86 L56.5170083,86 C64.3877562,86 70.9991845,80.0243803 71.9436742,72.1617229 C73.5178238,72.7907355 75.0919734,73.4197481 76.9809529,73.4197481 C82.9627213,73.4197481 88,68.3876473 88,62.4120276 L88,46.6867127 C88,40.0820805 82.9627213,35.0499797 76.9809529,35.0499797 Z M37.6272133,69.6456725 C37.6272133,71.5327103 36.3678936,72.7907355 34.4789141,72.7907355 C32.5899346,72.7907355 31.330615,71.5327103 31.330615,69.6456725 L31.330615,50.7752946 C31.330615,48.8882568 32.5899346,47.6302316 34.4789141,47.6302316 C36.3678936,47.6302316 37.6272133,48.8882568 37.6272133,50.7752946 L37.6272133,69.6456725 Z M56.5170083,69.6456725 C56.5170083,71.5327103 55.2576887,72.7907355 53.3687092,72.7907355 C51.4797296,72.7907355 50.22041,71.5327103 50.22041,69.6456725 L50.22041,50.7752946 C50.22041,48.8882568 51.4797296,47.6302316 53.3687092,47.6302316 C55.2576887,47.6302316 56.5170083,48.8882568 56.5170083,50.7752946 L56.5170083,69.6456725 Z M69.7398648,29.07436 C67.8508853,30.9613978 65.332246,31.9049167 62.8136067,31.9049167 C61.8691169,31.9049167 60.9246272,31.5904104 59.6653075,31.2759041 C58.4059878,30.9613978 57.1466682,31.2759041 56.2021784,32.219423 C55.5725186,33.1629419 54.6280288,33.7919545 53.6835391,34.7354734 C53.3687092,35.0499797 53.0538792,35.364486 52.4242194,35.6789923 L52.1093895,35.9934986 C51.7945596,36.3080049 51.4797296,36.3080049 51.1648997,36.6225112 L50.5352399,36.9370175 C50.22041,36.9370175 49.9055801,37.2515238 49.5907501,37.2515238 L48.9610903,37.5660301 C48.6462604,37.5660301 48.3314305,37.8805364 47.7017706,37.8805364 L47.3869407,37.8805364 C47.0721108,37.8805364 46.7572809,37.8805364 46.1276211,38.1950427 C46.1276211,38.1950427 45.4979612,38.1950427 45.4979612,38.1950427 C44.2386416,38.1950427 42.9793219,38.1950427 41.7200022,38.1950427 L41.0903424,38.1950427 C39.8310227,37.8805364 38.2568731,37.5660301 36.9975535,36.9370175 C36.9975535,36.9370175 36.6827236,36.6225112 36.6827236,36.6225112 C36.0530637,36.3080049 35.4234039,35.9934986 34.7937441,35.6789923 C31.6454449,33.4774482 27.552656,33.1629419 23.774697,34.4209671 C20.6263978,35.6789923 18.4225884,38.509549 18.4225884,41.6546119 L18.4225884,73.4197481 C18.4225884,76.5648111 15.9039491,79.0808614 12.44082,79.0808614 C9.60735071,79.0808614 6.77388146,77.1938236 6.14422163,74.9922796 C5.5145618,72.4762292 6.14422163,69.9601788 7.71837121,68.3876473 C12.7556499,63.6700528 15.5891191,57.0654206 15.5891191,49.8317757 L15.5891191,35.6789923 C15.5891191,34.7354734 14.9594593,33.7919545 14.3297995,33.1629419 C10.5518405,30.6468915 8.66286096,26.5583096 9.2925208,22.4697278 C10.2370105,17.7521333 14.0149695,13.9780577 18.4225884,13.0345388 C19.0522482,13.0345388 19.6819081,13.0345388 20.3115679,13.0345388 C22.8302072,13.0345388 25.0340166,13.9780577 26.2933363,14.9215766 C26.9229961,15.2360829 27.8674859,15.5505892 28.8119756,15.2360829 C29.7564654,14.9215766 30.3861252,14.6070703 30.7009551,13.9780577 C31.9602748,12.0910199 33.8492543,10.2039821 35.7382338,8.94595693 C35.7382338,8.94595693 35.7382338,8.94595693 36.0530637,8.94595693 L36.0530637,8.94595693 C37.3123834,8.31694433 38.2568731,7.68793174 39.5161928,7.37342544 C39.5161928,7.37342544 39.8310227,7.37342544 40.1458526,7.37342544 C40.4606826,7.37342544 41.0903424,7.05891914 41.7200022,7.05891914 L42.0348321,7.05891914 C43.2941518,7.05891914 44.2386416,6.74441284 45.8127911,7.05891914 C45.8127911,7.05891914 46.1276211,7.05891914 46.1276211,7.05891914 C46.442451,7.05891914 46.7572809,7.05891914 47.3869407,7.37342544 L48.0166006,7.37342544 C48.3314305,7.37342544 48.6462604,7.68793174 48.9610903,7.68793174 L49.5907501,8.00243803 C49.9055801,8.00243803 50.22041,8.31694433 50.5352399,8.31694433 L50.8500698,8.63145063 C51.1648997,8.94595693 51.4797296,8.94595693 51.7945596,9.26046323 C51.7945596,9.26046323 52.1093895,9.57496952 52.1093895,9.57496952 C52.7390493,9.57496952 53.3687092,9.88947582 53.6835391,10.2039821 C54.6280288,10.8329947 55.2576887,11.7765136 56.2021784,12.7200325 C57.1466682,13.6635514 58.4059878,14.292564 59.6653075,13.6635514 C62.1839468,12.7200325 64.7025862,13.0345388 66.9063956,14.292564 C66.9063956,14.292564 66.9063956,14.292564 66.9063956,14.292564 C70.0546947,15.8650955 71.9436742,19.0101585 72.2585042,22.1552215 C72.2585042,24.6712718 71.3140144,27.1873222 69.7398648,29.07436 Z M81.7034017,61.783015 C81.7034017,64.2990654 79.4995922,66.5006095 76.9809529,66.5006095 C74.4623136,66.5006095 72.2585042,64.2990654 72.2585042,61.783015 L72.2585042,46.0577001 C72.2585042,43.5416497 74.4623136,41.3401056 76.9809529,41.3401056 C79.4995922,41.3401056 81.7034017,43.5416497 81.7034017,46.0577001 L81.7034017,61.783015 Z" id="Shape"></path>
        </g>
    </g>
</svg>