<?xml version="1.0" encoding="UTF-8"?>
<svg width="97px" height="105px" viewBox="0 0 97 105" version="1.1" xmlns="http://www.w3.org/2000/svg" xmlns:xlink="http://www.w3.org/1999/xlink">
    <!-- Generator: Sketch 63.1 (92452) - https://sketch.com -->
    <title>Restaurant_restaurant_breakfast_hot_drink_coffee</title>
    <desc>Created with Sketch.</desc>
    <g id="Page-1" stroke="none" stroke-width="1" fill="none" fill-rule="evenodd">
        <g id="Restaurant_restaurant_breakfast_hot_drink_coffee" fill="#09D5B0" fill-rule="nonzero">
            <path d="M75.4090909,97 L3.59090909,97 C1.43636364,97 0,98.6 0,101 C0,103.4 1.43636364,105 3.59090909,105 L75.4090909,105 C77.5636364,105 79,103.4 79,101 C79,98.6 77.5636364,97 75.4090909,97 Z" id="Path"></path>
            <path d="M82.6923077,36.6470588 C80.1884615,36.6470588 77.6846154,37.3764706 75.5384615,38.8352941 L75.5384615,36.6470588 C75.5384615,34.4588235 74.1076923,33 71.9615385,33 L7.57692308,33 C5.43076923,33 4,34.4588235 4,36.6470588 L4,59.2588235 C4,78.9529412 20.0961538,95 39.7692308,95 C54.7923077,95 67.6692308,85.8823529 73.0346154,72.7529412 C75.5384615,75.3058824 78.7576923,76.7647059 82.6923077,76.7647059 C90.5615385,76.7647059 97,70.2 97,62.1764706 L97,51.2352941 C97,43.2117647 90.5615385,36.6470588 82.6923077,36.6470588 Z M89.8461538,62.1764706 C89.8461538,66.1882353 86.6269231,69.4705882 82.6923077,69.4705882 C78.7576923,69.4705882 75.5384615,66.1882353 75.5384615,62.1764706 L75.5384615,59.2588235 L75.5384615,51.2352941 C75.5384615,47.2235294 78.7576923,43.9411765 82.6923077,43.9411765 C86.6269231,43.9411765 89.8461538,47.2235294 89.8461538,51.2352941 L89.8461538,62.1764706 Z" id="Shape"></path>
            <path d="M39.3383298,29 C40.0235546,29 40.7087794,28.6405887 41.3940043,28.2811774 C43.1070664,27.2029435 43.4496788,25.0464756 42.4218415,23.2494191 C38.9957173,17.8582494 38.9957173,11.0294345 42.4218415,5.63826491 C43.4496788,3.84120837 43.1070664,1.68474051 41.3940043,0.606506584 C39.6809422,-0.471727343 37.6252677,-0.112316034 36.5974304,1.68474051 C31.8008565,9.59178931 31.8008565,19.655306 36.5974304,27.2029435 C37.2826552,28.2811774 38.3104925,29 39.3383298,29 Z" id="Path"></path>
            <path d="M25.3383298,29 C26.0235546,29 26.7087794,28.6375 27.3940043,28.275 C29.1070664,27.1875 29.4496788,25.0125 28.4218415,23.2 C24.9957173,17.7625 24.9957173,10.875 28.4218415,5.4375 C29.4496788,3.625 29.1070664,1.45 27.3940043,0.3625 C25.6809422,-0.3625 23.6252677,0 22.5974304,1.45 C17.8008565,9.425 17.8008565,19.575 22.5974304,27.1875 C23.2826552,28.275 24.3104925,29 25.3383298,29 Z" id="Path"></path>
            <path d="M54.3383298,29 C55.0235546,29 55.7087794,28.6405887 56.3940043,28.2811774 C58.1070664,27.2029435 58.4496788,25.0464756 57.4218415,23.2494191 C53.9957173,17.8582494 53.9957173,11.0294345 57.4218415,5.63826491 C58.4496788,3.84120837 58.1070664,1.68474051 56.3940043,0.606506584 C54.6809422,-0.471727343 52.6252677,-0.112316034 51.5974304,1.68474051 C46.8008565,9.59178931 46.8008565,19.655306 51.5974304,27.2029435 C52.2826552,28.2811774 53.3104925,29 54.3383298,29 Z" id="Path"></path>
        </g>
    </g>
</svg>