<?xml version="1.0" encoding="UTF-8"?>
<svg width="402px" height="583px" viewBox="0 0 402 583" version="1.1" xmlns="http://www.w3.org/2000/svg" xmlns:xlink="http://www.w3.org/1999/xlink">
    <!-- Generator: Sketch 62 (91390) - https://sketch.com -->
    <title>Secure Cloud</title>
    <desc>Created with Sketch.</desc>
    <g id="Page-1" stroke="none" stroke-width="1" fill="none" fill-rule="evenodd">
        <g id="Scene" transform="translate(-1248.000000, -2545.000000)">
            <g id="Secure-Cloud" transform="translate(1227.000000, 2545.000000)">
                <g id="Group-64" transform="translate(27.000000, 0.000000)">
                    <g id="Group-34" transform="translate(91.800000, 149.400000)">
                        <path d="M107.7408,10.2168 C135.953714,10.2168 158.8248,33.0878858 158.8248,61.3008 C158.8248,61.611075 158.822034,61.920704 158.816525,62.2296636 L174.6144,62.2296 C198.723618,62.2296 218.268,81.7739824 218.268,105.8832 C218.268,129.992418 198.723618,149.5368 174.6144,149.5368 L52.9416,149.5368 C28.8323824,149.5368 9.288,129.992418 9.288,105.8832 C9.288,81.7739824 28.8323824,62.2296 52.9416,62.2296 L56.6650753,62.2296636 C56.6595662,61.920704 56.6568,61.611075 56.6568,61.3008 C56.6568,33.0878858 79.5278858,10.2168 107.7408,10.2168 Z" id="Path" fill-opacity="0.100551792" fill="#09D5B0" fill-rule="nonzero"></path>
                        <path d="M103.914639,1.84741111e-13 C132.127553,1.84741111e-13 154.998639,22.8715062 154.998639,51.0844204 C154.998639,51.3943934 154.995878,51.7037216 154.990379,52.0123816 L165.3264,52.0128 C189.435618,52.0128 208.98,71.5571824 208.98,95.6664 C208.98,119.775618 189.435618,139.32 165.3264,139.32 L43.6536,139.32 C19.5443824,139.32 0,119.775618 0,95.6664 C0,71.5571824 19.5443824,52.0128 43.6536,52.0128 L52.8388978,52.0123816 C52.8333994,51.7037216 52.8306386,51.3943934 52.8306386,51.0844204 C52.8306386,22.8715062 75.7017244,1.84741111e-13 103.914639,1.84741111e-13 Z" id="Path" stroke-opacity="0.401742788" stroke="#09D5B0" stroke-width="1.2" fill="#FFFFFF" fill-rule="nonzero"></path>
                        <g id="Group-40" transform="translate(63.000000, 32.000000)">
                            <path d="M6.18471603,6.36195768 L43.8329282,0.139112693 C44.3902352,0.0469958287 44.9588848,0.0469958287 45.5161918,0.139112693 L83.164404,6.36195768 C83.475865,6.41343884 83.70432,6.68275477 83.70432,6.99844173 L83.70432,45.48096 C83.70432,68.7776316 68.7663022,89.4489077 46.6469266,96.761098 L44.67456,97.41312 L44.67456,97.41312 L42.7021934,96.761098 C20.5828178,89.4489077 5.6448,68.7776316 5.6448,45.48096 L5.6448,6.99844173 C5.6448,6.68275477 5.87325504,6.41343884 6.18471603,6.36195768 Z" id="Rectangle" fill-opacity="0.100551792" fill="#09D5B0" fill-rule="nonzero"></path>
                            <path d="M0.539916026,6.36195768 L38.1881282,0.139112693 C38.7454352,0.0469958287 39.3140848,0.0469958287 39.8713918,0.139112693 L77.519604,6.36195768 C77.831065,6.41343884 78.05952,6.68275477 78.05952,6.99844173 L78.05952,45.48096 C78.05952,68.7776316 63.1215022,89.4489077 41.0021266,96.761098 L39.02976,97.41312 L39.02976,97.41312 L37.0573934,96.761098 C14.9380178,89.4489077 2.85301942e-15,68.7776316 0,45.48096 L0,6.99844173 C-1.26173111e-16,6.68275477 0.228455039,6.41343884 0.539916026,6.36195768 Z" id="Rectangle" fill="#09D5B0"></path>
                            <path d="M8.00071665,12.907158 L38.4939556,7.87921485 C38.9443199,7.80495557 39.4038058,7.80495557 39.8541701,7.87921485 L70.3474091,12.907158 C70.5997851,12.9487716 70.7849429,13.1669596 70.7849429,13.4227434 L70.7849429,45.1584 C70.7849429,64.5000698 58.747524,81.7984528 40.6111984,88.519605 L39.1740629,89.0521939 L37.7369273,88.519605 C19.6006018,81.7984528 7.56318286,64.5000698 7.56318286,45.1584 L7.56318286,13.4227434 C7.56318286,13.1669596 7.74834061,12.9487716 8.00071665,12.907158 Z M9.17598286,45.1584 C9.17598286,63.8254976 20.7935772,80.5205713 38.2973688,87.0073123 L39.1740629,87.3322069 L40.0507569,87.0073123 C57.5545486,80.5205713 69.1721429,63.8254976 69.1721429,45.1584 L69.1721429,14.3479489 L39.591783,9.47052779 C39.3151704,9.42491793 39.0329553,9.42491793 38.7563427,9.47052779 L9.17598286,14.3479489 L9.17598286,45.1584 Z" id="Rectangle" fill="#383458" fill-rule="nonzero"></path>
                            <path d="M27.7279772,39.9782282 C26.5460492,38.5358885 24.4269793,38.3316493 22.9949021,39.5220472 C21.5628249,40.7124451 21.3600389,42.8467006 22.5419669,44.2890403 L34.2124454,58.5308506 C35.6195026,60.2479217 38.1422048,60.4910636 39.8470586,59.0739232 C40.0955687,58.867352 40.3184026,58.6313127 40.5107214,58.3709308 L57.2347796,35.7280951 C58.3430456,34.227605 58.0337399,32.106352 56.543926,30.990144 C55.0541121,29.8739361 52.9479522,30.1854583 51.8396863,31.6859484 L37.1881652,51.5227594 L27.7279772,39.9782282 Z" id="Path-275" fill="#15113B"></path>
                        </g>
                    </g>
                    <g id="Group-63" transform="translate(199.200000, 0.000000)">
                        <circle id="Oval" fill-opacity="0.100551792" fill="#09D5B0" fill-rule="nonzero" cx="62.4" cy="57.6" r="56.4"></circle>
                        <circle id="Oval" fill-opacity="0.401742788" fill="#09D5B0" fill-rule="nonzero" cx="56.4" cy="56.4" r="56.4"></circle>
                        <g id="Group-51" transform="translate(25.200000, 34.200000)">
                            <g id="Group-37">
                                <path d="M61.228224,14.8219963 C61.8466415,14.8219963 62.347968,15.3233228 62.347968,15.9417403 L62.3476,21.4699963 L66.4565628,21.4704763 C67.2295847,21.4704763 67.8562428,22.0971344 67.8562428,22.8701563 C67.8562428,22.966621 67.8462704,23.0628272 67.8264848,23.157241 L62.5344949,48.4097638 C62.4932498,48.6065789 62.4017933,48.7821967 62.2752152,48.924362 C62.1163627,49.3487102 61.7074503,49.64976 61.228224,49.64976 L3.841344,49.64976 C3.22292647,49.64976 2.7216,49.1484335 2.7216,48.530016 L2.7216,14.8219963 L61.228224,14.8219963 Z" id="Path" fill-opacity="0.100551792" fill="#09D5B0" fill-rule="nonzero"></path>
                                <path d="M59.626368,5.33527629 L59.626368,45.419616 C59.626368,46.0380335 59.1250415,46.53936 58.506624,46.53936 L1.119744,46.53936 C0.501326465,46.53936 4.58672388e-15,46.0380335 0,45.419616 L0,5.33527629 C-9.46678818e-17,4.56225438 0.626658081,3.93559629 1.39968,3.93559629 L58.226688,3.93559629 C58.9997099,3.93559629 59.626368,4.56225438 59.626368,5.33527629 Z" id="Rectangle" fill="#383458"></path>
                                <path d="M6.951744,0 L53.841024,0 C54.4594415,-3.95845722e-15 54.960768,0.501326465 54.960768,1.119744 L54.960768,44.019936 C54.960768,44.6383535 54.4594415,45.13968 53.841024,45.13968 L6.951744,45.13968 C6.33332647,45.13968 5.832,44.6383535 5.832,44.019936 L5.832,1.119744 C5.832,0.501326465 6.33332647,7.79735273e-16 6.951744,0 Z" id="Rectangle" stroke-opacity="0.401742788" stroke="#09D5B0" stroke-width="0.7776" fill="#FFFFFF" fill-rule="nonzero"></path>
                                <path d="M6.40157033,12.0528 L18.0391315,12.0528 C18.6575491,12.0528 19.1588755,12.5541265 19.1588755,13.172544 C19.1588755,13.2309573 19.1543047,13.2892811 19.1452049,13.3469813 L18.3870121,18.154535 C18.290673,18.7654024 18.7077806,19.3387066 19.3186481,19.4350456 C19.3763483,19.4441455 19.434672,19.4487163 19.4930854,19.4487163 L63.7058906,19.4487163 C64.3243082,19.4487163 64.8256346,19.9500428 64.8256346,20.5684603 C64.8256346,20.6416086 64.8184669,20.714581 64.8042343,20.7863313 L59.8052665,45.987407 C59.7012825,46.5116168 59.2413463,46.88928 58.7069228,46.88928 L1.30829033,46.88928 C0.689872791,46.88928 0.188546326,46.3879535 0.188546326,45.769536 C0.188546326,45.7116548 0.19303426,45.6538607 0.201969779,45.5966734 L5.29524978,12.9996814 C5.38041599,12.4546177 5.84989308,12.0528 6.40157033,12.0528 Z" id="Rectangle" fill="#09D5B0"></path>
                            </g>
                        </g>
                    </g>
                    <g id="Group-60" transform="translate(0.000000, 99.000000)">
                        <circle id="Oval" fill-opacity="0.100551792" fill="#09D5B0" fill-rule="nonzero" cx="62.4" cy="57.6" r="56.4"></circle>
                        <circle id="Oval" fill-opacity="0.401742788" fill="#09D5B0" fill-rule="nonzero" cx="56.4" cy="56.4" r="56.4"></circle>
                        <g id="Group-21" transform="translate(23.400000, 26.400000)">
                            <g id="Group-22">
                                <g id="Group-51">
                                    <g id="Group-37">
                                        <path d="M35.4267359,3.53005564 L35.5654824,3.6196027 L65.0636094,24.8612965 C65.2474521,24.8943801 65.4183084,24.9648518 65.5680248,25.0645581 L65.6761978,25.1446729 C65.7195306,25.1802453 65.7605991,25.2184747 65.7991544,25.259112 L65.8850027,25.3589093 L65.8850027,25.3589093 L65.963531,25.4710568 L65.963531,25.4710568 L66.0429912,25.6172016 L66.0429912,25.6172016 L66.0963348,25.7498533 L66.0963348,25.7498533 L66.1362639,25.892329 L66.1362639,25.892329 L66.1575124,26.0152776 L66.1575124,26.0152776 L66.1609971,26.045955 C66.1656426,26.0916314 66.168,26.1375404 66.168,26.184 L66.168,58.776 C66.168,59.4746077 65.6349803,60.048722 64.9534362,60.1138475 L64.824,60.12 L4.344,60.12 C3.6017293,60.12 3,59.5182707 3,58.776 L3,26.184 C3,26.0957531 3.00850502,26.0094926 3.02474009,25.9259936 C3.03609937,25.8675345 3.05129784,25.8102807 3.07003731,25.7546553 C3.09558933,25.6796263 3.12542295,25.611536 3.16043617,25.5466525 L3.20976551,25.4626787 L3.20976551,25.4626787 L3.27020041,25.3756084 L3,25.3749662 L33.6042667,3.62203588 C34.0995865,3.26503678 34.7409918,3.20941263 35.2818941,3.45546934 L35.4267359,3.53005564 Z" id="Path" fill-opacity="0.100551792" fill="#09D5B0" fill-rule="nonzero"></path>
                                        <path d="M1.344,21.84 L61.824,21.84 C62.5662707,21.84 63.168,22.4417293 63.168,23.184 L63.168,55.776 C63.168,56.5182707 62.5662707,57.12 61.824,57.12 L1.344,57.12 C0.601729296,57.12 1.42316957e-15,56.5182707 0,55.776 L0,23.184 C-9.09019441e-17,22.4417293 0.601729296,21.84 1.344,21.84 Z" id="Rectangle" fill="#FFD343"></path>
                                        <path d="M62.7765605,22.3749662 L32.5654824,0.619602696 C31.9790594,0.199148469 31.1896446,0.200127858 30.6042667,0.622035882 L0,22.3749662 L62.7765605,22.3749662 Z" id="Path" fill="#09D5B0"></path>
                                        <path d="M6.6696,5.46 L56.9016,5.46 C57.5696436,5.46 58.1112,6.00155637 58.1112,6.6696 L58.1112,53.0124 C58.1112,53.6804436 57.5696436,54.222 56.9016,54.222 L6.6696,54.222 C6.00155637,54.222 5.46,53.6804436 5.46,53.0124 L5.46,6.6696 C5.46,6.00155637 6.00155637,5.46 6.6696,5.46 Z" id="Rectangle" stroke-opacity="0.401742788" stroke="#09D5B0" stroke-width="0.84" fill="#FFFFFF" fill-rule="nonzero"></path>
                                        <path d="M11.34,24.78 L52.5,24.78 C52.9639192,24.78 53.34,25.1560808 53.34,25.62 L53.34,48.3 C53.34,48.7639192 52.9639192,49.14 52.5,49.14 L11.34,49.14 C10.8760808,49.14 10.5,48.7639192 10.5,48.3 L10.5,25.62 C10.5,25.1560808 10.8760808,24.78 11.34,24.78 Z" id="Rectangle" fill="#383458" fill-rule="nonzero"></path>
                                        <path d="M11.844,17.22 L30.072,17.22 C30.8142707,17.22 31.416,17.8217293 31.416,18.564 L31.416,18.9 C31.416,19.6422707 30.8142707,20.244 30.072,20.244 L11.844,20.244 C11.1017293,20.244 10.5,19.6422707 10.5,18.9 L10.5,18.564 C10.5,17.8217293 11.1017293,17.22 11.844,17.22 Z" id="Rectangle" fill="#15113B"></path>
                                        <path d="M11.844,10.5 L22.092,10.5 C22.8342707,10.5 23.436,11.1017293 23.436,11.844 L23.436,12.18 C23.436,12.9222707 22.8342707,13.524 22.092,13.524 L11.844,13.524 C11.1017293,13.524 10.5,12.9222707 10.5,12.18 L10.5,11.844 C10.5,11.1017293 11.1017293,10.5 11.844,10.5 Z" id="Rectangle" fill="#15113B"></path>
                                        <path d="M63.168,23.184 L63.168,55.776 C63.168,56.5182707 62.5662707,57.12 61.824,57.12 L1.344,57.12 C0.601729296,57.12 0,56.5182707 0,55.776 L0,23.184 C0,22.8336807 0.134030795,22.514666 0.353610103,22.2754382 L30.6042667,43.8978624 C31.1446156,44.287316 31.8588183,44.3181085 32.4267359,43.9898427 L32.5654824,43.9002956 L62.6761978,22.1446729 C62.9764566,22.3911593 63.168,22.765211 63.168,23.184 Z" id="Path" fill="#09D5B0"></path>
                                    </g>
                                </g>
                            </g>
                        </g>
                    </g>
                    <g id="Group-61" transform="translate(75.000000, 0.000000)">
                        <circle id="Oval" fill-opacity="0.100551792" fill="#09D5B0" fill-rule="nonzero" cx="62.4" cy="57.6" r="56.4"></circle>
                        <circle id="Oval" fill-opacity="0.401742788" fill="#09D5B0" fill-rule="nonzero" cx="56.4" cy="56.4" r="56.4"></circle>
                        <g id="Group-39" transform="translate(33.600000, 24.000000)">
                            <g id="Group-51">
                                <g id="Group-37" transform="translate(9.918720, 6.773760)" fill="#FFE1F7" fill-rule="nonzero">
                                    <path d="M0.96768,0 L12.33792,0 C12.8723549,7.401507e-16 13.3056,0.433245093 13.3056,0.96768 L13.3056,12.33792 C13.3056,12.8723549 12.8723549,13.3056 12.33792,13.3056 L0.96768,13.3056 C0.433245093,13.3056 1.56990801e-15,12.8723549 0,12.33792 L0,0.96768 C-1.76471702e-16,0.433245093 0.433245093,6.53285612e-16 0.96768,0 Z" id="Rectangle"></path>
                                </g>
                                <g id="Group-37">
                                    <path d="M3.99168,3.024 L43.7997533,3.024 L43.7997533,3.024 L48.50496,8.44320346 L48.50496,63.74592 C48.50496,64.2803549 48.0717149,64.7136 47.53728,64.7136 L3.99168,64.7136 C3.45724509,64.7136 3.024,64.2803549 3.024,63.74592 L3.024,3.99168 C3.024,3.45724509 3.45724509,3.024 3.99168,3.024 Z" id="Rectangle" fill-opacity="0.100551792" fill="#09D5B0" fill-rule="nonzero"></path>
                                    <path d="M0.96768,0 L37.7517533,0 L37.7517533,0 L45.48096,8.44320346 L45.48096,60.72192 C45.48096,61.2563549 45.0477149,61.6896 44.51328,61.6896 L0.96768,61.6896 C0.433245093,61.6896 1.50873933e-15,61.2563549 0,60.72192 L0,0.96768 C-1.76471702e-16,0.433245093 0.433245093,1.43044173e-15 0.96768,0 Z" id="Rectangle" stroke-opacity="0.401742788" stroke="#09D5B0" stroke-width="0.756" fill="#FFFFFF" fill-rule="nonzero"></path>
                                    <path d="M8.3916,23.436 L36.5148,23.436 C37.1828436,23.436 37.7244,23.9775564 37.7244,24.6456 L37.7244,24.948 C37.7244,25.6160436 37.1828436,26.1576 36.5148,26.1576 L8.3916,26.1576 C7.72355637,26.1576 7.182,25.6160436 7.182,24.948 L7.182,24.6456 C7.182,23.9775564 7.72355637,23.436 8.3916,23.436 Z" id="Rectangle" fill="#FFD343"></path>
                                    <path d="M8.3916,34.02 L36.5148,34.02 C37.1828436,34.02 37.7244,34.5615564 37.7244,35.2296 L37.7244,35.532 C37.7244,36.2000436 37.1828436,36.7416 36.5148,36.7416 L8.3916,36.7416 C7.72355637,36.7416 7.182,36.2000436 7.182,35.532 L7.182,35.2296 C7.182,34.5615564 7.72355637,34.02 8.3916,34.02 Z" id="Rectangle" fill="#09D5B0"></path>
                                    <path d="M8.3916,12.474 L25.1748,12.474 C25.8428436,12.474 26.3844,13.0155564 26.3844,13.6836 L26.3844,13.986 C26.3844,14.6540436 25.8428436,15.1956 25.1748,15.1956 L8.3916,15.1956 C7.72355637,15.1956 7.182,14.6540436 7.182,13.986 L7.182,13.6836 C7.182,13.0155564 7.72355637,12.474 8.3916,12.474 Z" id="Rectangle" fill="#15113B"></path>
                                    <path d="M38.0628064,0.287537783 L45.2495315,8.15056818 C45.3058684,8.21220671 45.3015706,8.30784473 45.2399321,8.36418169 C45.2120652,8.38965173 45.175678,8.40377525 45.137925,8.40377525 L39.0096,8.40377525 C38.3415564,8.40377525 37.8,7.86221889 37.8,7.19417525 L37.8,0.38954486 C37.8,0.306039406 37.8676945,0.23834486 37.9512,0.23834486 C37.993659,0.23834486 38.0341615,0.256197189 38.0628064,0.287537783 Z" id="Path-6" stroke-opacity="0.401742788" stroke="#09D5B0" stroke-width="0.756" fill="#FFFFFF" fill-rule="nonzero"></path>
                                </g>
                            </g>
                            <g id="Group-38" transform="translate(21.924000, 42.714000)">
                                <path d="M16.0310102,1.91846539e-13 C22.0455073,1.91846539e-13 26.9212205,4.8757132 26.9212205,10.8902102 C26.9212205,13.113275 26.2551139,15.1807622 25.1116012,16.9039713 L29.9905703,28.3986182 C30.0146098,28.4548136 30.0207103,28.5169128 30.0086029,28.5767486 C29.9802123,28.7170573 29.8589356,28.8148679 29.7217805,28.8190919 L29.6522364,28.8131686 L24.1289044,27.6955576 C24.0309209,27.6757312 23.9312549,27.7057533 23.8608738,27.7724791 L23.8140627,27.8291999 L20.781176,32.5787103 C20.7483199,32.630163 20.7006601,32.6704665 20.6444647,32.6943201 C20.5126924,32.7502541 20.3634397,32.7055483 20.282391,32.5948214 L20.2479469,32.5341165 L16.1781902,22.947 L12.1088531,32.5341165 C12.0435967,32.6878508 11.8660697,32.7595764 11.7123353,32.6943201 C11.6561399,32.6704665 11.6084801,32.630163 11.575624,32.5787103 L8.54273729,27.8291999 C8.47548329,27.7238799 8.350375,27.6707746 8.22789559,27.6955576 L2.70456365,28.8131686 C2.54087017,28.8462909 2.38131943,28.7404421 2.3481971,28.5767486 C2.33608971,28.5169128 2.3421902,28.4548136 2.36622969,28.3986182 L7.13219688,17.1693268 C5.87780404,15.3948346 5.1408,13.2285907 5.1408,10.8902102 C5.1408,4.8757132 10.0165132,1.91846539e-13 16.0310102,1.91846539e-13 Z" id="Path" fill-opacity="0.925453453" fill="#15113B" fill-rule="nonzero"></path>
                                <path d="M3.6288,12.7008 L13.608,12.7008 C13.7750109,12.7008 13.9104,12.8361891 13.9104,13.0032 L13.9104,31.177974 C13.9104,31.3449849 13.7750109,31.480374 13.608,31.480374 C13.5469516,31.480374 13.4873326,31.4618967 13.4369842,31.427372 L8.78941577,28.240468 C8.68635634,28.1697986 8.55044366,28.1697986 8.44738423,28.240468 L3.79981577,31.427372 C3.66207706,31.5218214 3.4738514,31.4867285 3.379402,31.3489898 C3.34487738,31.2986414 3.3264,31.2390225 3.3264,31.177974 L3.3264,13.0032 C3.3264,12.8361891 3.46178909,12.7008 3.6288,12.7008 Z" id="Rectangle" fill="#09D5B0" transform="translate(8.618400, 22.226400) rotate(23.000000) translate(-8.618400, -22.226400) "></path>
                                <path d="M14.5152,12.7008 L24.4944,12.7008 C24.6614109,12.7008 24.7968,12.8361891 24.7968,13.0032 L24.7968,31.177974 C24.7968,31.3449849 24.6614109,31.480374 24.4944,31.480374 C24.4333516,31.480374 24.3737326,31.4618967 24.3233842,31.427372 L19.6758158,28.240468 C19.5727563,28.1697986 19.4368437,28.1697986 19.3337842,28.240468 L14.6862158,31.427372 C14.5484771,31.5218214 14.3602514,31.4867285 14.265802,31.3489898 C14.2312774,31.2986414 14.2128,31.2390225 14.2128,31.177974 L14.2128,13.0032 C14.2128,12.8361891 14.3481891,12.7008 14.5152,12.7008 Z" id="Rectangle" fill="#09D5B0" transform="translate(19.504800, 22.226400) scale(-1, 1) rotate(23.000000) translate(-19.504800, -22.226400) "></path>
                                <g id="Group-24" transform="translate(3.024000, 0.000000)">
                                    <circle id="Oval" fill="#FFD343" cx="10.8902102" cy="10.8902102" r="10.8902102"></circle>
                                    <path d="M10.742947,14.2145031 L7.87509498,15.7599152 C7.72807205,15.839142 7.54466033,15.7841825 7.46543343,15.6371596 C7.43358149,15.5780513 7.42230745,15.5100232 7.43338863,15.4437998 L7.98468802,12.1491197 C8.00082452,12.0526846 7.96933857,11.9543984 7.90017046,11.8852906 L5.55931835,9.54647952 C5.44117231,9.42843649 5.4410888,9.23696742 5.55913182,9.11882138 C5.60497427,9.07293893 5.66435409,9.04301136 5.72850574,9.03345653 L8.95051119,8.55356712 C9.04960732,8.53880762 9.1349601,8.47592498 9.17842454,8.38565468 L10.6139382,5.40426953 C10.6863915,5.25379305 10.8671117,5.19054273 11.0175882,5.26299598 C11.0793249,5.2927217 11.129136,5.34253287 11.1588618,5.40426953 L12.5943755,8.38565468 C12.6378399,8.47592498 12.7231927,8.53880762 12.8222888,8.55356712 L16.0442943,9.03345653 C16.209483,9.05805994 16.3234499,9.21191687 16.2988465,9.3771056 C16.2892917,9.44125725 16.2593641,9.50063707 16.2134817,9.54647952 L13.8726295,11.8852906 C13.8034614,11.9543984 13.7719755,12.0526846 13.788112,12.1491197 L14.3394114,15.4437998 C14.3669741,15.6085206 14.2557856,15.7643972 14.0910648,15.79196 C14.0248413,15.8030411 13.9568133,15.7917671 13.897705,15.7599152 L11.029853,14.2145031 C10.9403048,14.1662479 10.8324952,14.1662479 10.742947,14.2145031 Z" id="Star" fill="#15113B"></path>
                                    <path d="M10.9538957,19.9547712 C15.924942,19.9547712 19.9547712,15.924942 19.9547712,10.9538957 C19.9547712,5.9828494 15.924942,1.95302016 10.9538957,1.95302016 C5.9828494,1.95302016 1.95302016,5.9828494 1.95302016,10.9538957 C1.95302016,15.924942 5.9828494,19.9547712 10.9538957,19.9547712 Z M10.9538957,19.4452877 C6.26422937,19.4452877 2.46250368,15.643562 2.46250368,10.9538957 C2.46250368,6.26422937 6.26422937,2.46250368 10.9538957,2.46250368 C15.643562,2.46250368 19.4452877,6.26422937 19.4452877,10.9538957 C19.4452877,15.643562 15.643562,19.4452877 10.9538957,19.4452877 Z" id="Oval" fill-opacity="0.401742788" fill="#09D5B0"></path>
                                </g>
                            </g>
                        </g>
                    </g>
                    <g id="Group-62" transform="translate(277.200000, 99.000000)">
                        <circle id="Oval" fill-opacity="0.100551792" fill="#09D5B0" fill-rule="nonzero" cx="62.4" cy="57.6" r="56.4"></circle>
                        <circle id="Oval" fill-opacity="0.401742788" fill="#09D5B0" fill-rule="nonzero" cx="56.4" cy="56.4" r="56.4"></circle>
                        <g id="Group-51" transform="translate(24.600000, 26.400000)">
                            <g id="Group-37">
                                <path d="M3.17952,2.38464 L63.78912,2.38464 C64.2281201,2.38464 64.584,2.7405199 64.584,3.17952 L64.584,60.21216 C64.584,60.6511601 64.2281201,61.00704 63.78912,61.00704 L3.17952,61.00704 C2.7405199,61.00704 2.38464,60.6511601 2.38464,60.21216 L2.38464,3.17952 C2.38464,2.7405199 2.7405199,2.38464 3.17952,2.38464 Z" id="Rectangle" fill-opacity="0.401742788" fill="#09D5B0" fill-rule="nonzero"></path>
                                <path d="M0.79488,0 L61.40448,0 C61.8434801,3.0379292e-17 62.19936,0.355879898 62.19936,0.79488 L62.19936,57.82752 C62.19936,58.2665201 61.8434801,58.6224 61.40448,58.6224 L0.79488,58.6224 C0.355879898,58.6224 -7.2339411e-16,58.2665201 0,57.82752 L0,0.79488 C5.72602955e-17,0.355879898 0.355879898,-5.85490804e-16 0.79488,0 Z" id="Rectangle" stroke-opacity="0.401742788" stroke="#09D5B0" stroke-width="0.5" fill="#FFFFFF" fill-rule="nonzero"></path>
                                <g id="Group-13" transform="translate(6.756016, 22.256640)">
                                    <path d="M0.397904204,0 L48.6868642,0 C48.9063643,-4.03215052e-17 49.0843042,0.177939949 49.0843042,0.39744 L49.0843042,29.01312 C49.0843042,29.2326201 48.9063643,29.41056 48.6868642,29.41056 L0.397904204,29.41056 C0.178404154,29.41056 0.000464204496,29.2326201 0.000464204496,29.01312 L0.000464204496,0.39744 C0.000464204496,0.177939949 0.178404154,1.26156683e-15 0.397904204,0 Z" id="Rectangle" fill="#383458"></path>
                                    <path d="M39.0179662,8.79710835 L49.0834394,16.5296759 L49.0843042,29.01312 C49.0843042,29.2326201 48.9063643,29.41056 48.6868642,29.41056 L0.397904204,29.41056 C0.178404154,29.41056 0.000439384061,29.2326201 0.000439384061,29.01312 L0.000439384061,20.6806759 L6.26317105,14.7057461 C7.4795975,13.5452896 9.33999203,13.3885493 10.7334325,14.3291216 L18.0446807,19.2642141 C19.3631354,20.1541711 21.1108862,20.0665205 22.3336858,19.0491184 L34.5510123,8.88397535 C35.8366023,7.81433003 37.691762,7.77825351 39.0179662,8.79710835 Z" id="Path" fill="#FFD343"></path>
                                    <circle id="Oval" fill="#FFFFFF" fill-rule="nonzero" cx="20.17008" cy="9.04176" r="4.07376"></circle>
                                </g>
                                <g id="Group-15" transform="translate(21.064320, 8.147520)">
                                    <path d="M0.79488,0 L26.23104,0 C26.6700401,-8.06430105e-17 27.02592,0.355879898 27.02592,0.79488 L27.02592,0.9936 C27.02592,1.4326001 26.6700401,1.78848 26.23104,1.78848 L0.79488,1.78848 C0.355879898,1.78848 1.05296273e-15,1.4326001 0,0.9936 L0,0.79488 C-5.3762007e-17,0.355879898 0.355879898,8.06430105e-17 0.79488,0 Z" id="Rectangle" fill="#15113B"></path>
                                    <path d="M0.79488,5.16672 L18.28224,5.16672 C18.7212401,5.16672 19.07712,5.5225999 19.07712,5.9616 L19.07712,6.16032 C19.07712,6.5993201 18.7212401,6.9552 18.28224,6.9552 L0.79488,6.9552 C0.355879898,6.9552 -7.2339411e-16,6.5993201 0,6.16032 L0,5.9616 C-5.3762007e-17,5.5225999 0.355879898,5.16672 0.79488,5.16672 Z" id="Rectangle" fill="#8EECDB" fill-rule="nonzero"></path>
                                </g>
                                <path d="M11.22768,6.35904 C14.2458057,6.35904 16.69248,8.8057143 16.69248,11.82384 C16.69248,14.8419657 14.2458057,17.28864 11.22768,17.28864 C8.2095543,17.28864 5.76288,14.8419657 5.76288,11.82384 C5.76288,8.8057143 8.2095543,6.35904 11.22768,6.35904 Z" id="Rectangle" fill="#FFD343"></path>
                            </g>
                        </g>
                    </g>
                </g>
                <g id="Group-8" transform="translate(79.500000, 481.500000) scale(-1, 1) translate(-79.500000, -481.500000) translate(23.000000, 380.000000)" fill-rule="nonzero">
                    <polygon id="Path-25" fill="#514E6D" points="47.1338896 114.788747 34.8592904 202.20967 41.2947028 202.12371 53.569302 115.702786"></polygon>
                    <polygon id="Path" fill="#514E6D" points="66.2947028 114.788747 78.569302 202.20967 72.1338896 202.12371 59.8592904 115.702786"></polygon>
                    <polygon id="Path-25" fill="#514E6D" points="13.1338896 114.788747 0.859290416 202.20967 7.29470279 202.12371 19.569302 115.702786"></polygon>
                    <path d="M0,109.8 C6.81518834e-15,104.166696 4.56669555,99.6 10.2,99.6 L48.5111913,99.6 C55.80135,99.6 61.7111913,93.6901587 61.7111913,86.4 L61.7111913,13.2 C61.7111913,5.9098413 67.6210326,1.7326392e-14 74.9111913,0 L97.8,0 C105.090159,3.35942436e-15 111,5.9098413 111,13.2 L111,106.8 C111,114.090159 105.090159,120 97.8,120 L10.2,120 C4.56669555,120 6.89880826e-16,115.433304 0,109.8 Z" id="Path" fill="#514E6D"></path>
                    <path d="M97.8,0 C98.7906227,0 99.7557583,0.109123537 100.684042,0.316005689 C100.890876,1.2442417 101,2.20937727 101,3.2 L101,96.8 C101,104.090159 95.0901587,110 87.8,110 L0.2,110 L0.00187816694,109.997726 L0,109.8 L0,109.8 C0,104.166696 4.56669555,99.6 10.2,99.6 L48.5111913,99.6 C55.80135,99.6 61.7111913,93.6901587 61.7111913,86.4 L61.7111913,13.2 C61.7111913,5.9098413 67.6210326,0 74.9111913,0 L97.8,0 Z" id="Path" fill-opacity="0.745957168" fill="#15113B"></path>
                    <polygon id="Path" fill="#514E6D" points="100.294703 114.788747 112.569302 202.20967 106.13389 202.12371 93.8592904 115.702786"></polygon>
                </g>
                <g id="Group" transform="translate(92.500000, 436.500000) scale(-1, 1) translate(-92.500000, -436.500000) translate(0.000000, 292.000000)">
                    <g id="Group-11">
                        <polygon id="Path-39" fill="#FFB294" points="31.9359208 248.724125 34.7816601 274.652757 38.5992039 278.464743 46.364249 274.652757 46.364249 248.724125"></polygon>
                        <path d="M14.8370774,165.322213 C10.2215196,170.091503 15.2171138,204.59567 29.8238598,268.834714 L47.779941,268.834714 L45.779941,195.221509 C78.7648706,193.736472 98.2018089,191.403139 104.090756,188.221509 C109.979703,185.039879 114.218328,174.406781 116.806631,156.322213 L78.498243,149.622879 C38.4421951,157.624943 17.2218065,162.858054 14.8370774,165.322213 Z" id="Path-38" fill="#383458" fill-rule="nonzero"></path>
                        <polygon id="Path-39" fill="#FFB294" points="78.9359208 249.724125 81.9359208 275.5309 86.5992039 279.464743 94.1200334 273.974964 93.364249 249.724125"></polygon>
                        <path d="M34.8687008,273.575454 L46.5653195,273.575454 L46.5443815,287.568962 C46.5435592,288.118499 46.0994565,288.564403 45.5499282,288.567451 L9.16790324,288.769213 C8.61562698,288.772276 8.16543578,288.32705 8.16237305,287.774774 C8.16208712,287.723214 8.16578934,287.671709 8.17344659,287.620719 L8.5342277,285.2183 C8.58595409,284.873857 8.81317643,284.581144 9.13403269,284.445616 L34.8687008,273.575454 L34.8687008,273.575454 Z" id="Path-85" fill="#514E6D"></path>
                        <path d="M81.8687008,273.575454 L94.5653195,273.575454 L94.5443817,287.568823 C94.5435594,288.118414 94.0993715,288.564342 93.5497882,288.567312 L56.1677384,288.769377 C55.6154617,288.772363 55.1653329,288.327074 55.1623477,287.774797 C55.1620692,287.723284 55.1657717,287.671826 55.173422,287.620883 L55.5342277,285.2183 C55.5859541,284.873857 55.8131764,284.581144 56.1340327,284.445616 L81.8687008,273.575454 L81.8687008,273.575454 Z" id="Path-85" fill="#514E6D"></path>
                        <path d="M57.0271891,170.396124 C52.4116313,175.165414 59.0105215,207.978278 76.8238598,268.834714 L94.779941,268.834714 L88.2213827,196.288541 C110.084004,194.671536 123.849456,191.63078 129.517739,187.166274 C135.186021,182.701768 135.186021,170.31301 129.517739,150 C114.60025,153.078219 104.165755,155.185389 98.2142532,156.321507 C75.6516604,160.62862 60.3342536,166.97891 57.0271891,170.396124 Z" id="Path-38" fill="#383458" fill-rule="nonzero"></path>
                        <path d="M129.517739,150 C130.330122,152.91128 131.026074,155.659789 131.605595,158.245527 C128.017925,159.436436 123.687556,160.354605 118.615864,161 C108.295562,162.313304 96.9455706,161.770741 84.5658885,159.372312 C88.4183174,158.375485 92.6051881,157.417924 97.0875337,156.539454 L102.0842,155.570312 C108.284916,154.35119 117.429429,152.494419 129.517739,150 Z" id="Path" fill="#15113B" fill-rule="nonzero"></path>
                        <g id="Group">
                            <g id="Group-14" transform="translate(86.000000, 0.000000)">
                                <path d="M11.4499906,40.7512474 L10.0446807,58.0939477 L27.3082775,58.0939477 C25.9766454,51.6402684 25.3108294,46.8137861 25.3108294,43.6145008 C25.3108294,38.8155728 32.1561855,21.5657216 33.9822954,16.3755447 C35.8084054,11.1853678 25.3108294,-0.410103795 15.0238013,2.1980476 C4.73677316,4.80619899 3.57461668,15.1187266 3.57461668,19.2451218 C3.57461668,23.3715169 4.23378128,34.5902855 6.47327525,37.6707665 C7.96627123,39.7244205 9.62517633,40.7512474 11.4499906,40.7512474 Z" id="Path" fill="#FFB294"></path>
                                <g id="Group-10" transform="translate(3.000000, 18.000000)">
                                    <path d="M16.182851,19.8767119 C14.4610108,21.9644964 13.0858883,23.3997647 12.0574835,24.1825169 C11.1530556,24.8709061 9.86054332,25.6220849 8.1799467,26.4360531 L8.5069467,23.0887119 L8.88290316,23.0298329 C10.1971162,22.8091223 11.2976364,22.5085383 12.1844637,22.1280808 C13.1698275,21.7053503 14.5026232,20.954894 16.182851,19.8767119 Z" id="Path" fill-opacity="0.0964543269" fill="#000000" fill-rule="nonzero"></path>
                                    <g id="Group-16">
                                        <path d="M2.94475401,5.74372165 C3.5461921,5.74372165 4.03375401,5.25615974 4.03375401,4.65472165 C4.03375401,4.05328355 3.5461921,3.56572165 2.94475401,3.56572165 C2.34331591,3.56572165 1.85575401,4.05328355 1.85575401,4.65472165 C1.85575401,5.25615974 2.34331591,5.74372165 2.94475401,5.74372165 Z" id="Oval" fill="#15113B"></path>
                                        <path d="M11.755754,5.74372165 C12.3571921,5.74372165 12.844754,5.25615974 12.844754,4.65472165 C12.844754,4.05328355 12.3571921,3.56572165 11.755754,3.56572165 C11.1543159,3.56572165 10.666754,4.05328355 10.666754,4.65472165 C10.666754,5.25615974 11.1543159,5.74372165 11.755754,5.74372165 Z" id="Oval" fill="#15113B"></path>
                                        <path d="M5.48043479,5.33708249 C5.48043479,6.329095 3.42092097,9.51951366 3.77932176,10.2244004 C4.01825563,10.694325 4.78532715,10.8754929 6.08053633,10.7679043" id="Path-95" stroke="#A86F59" stroke-width="0.6534" stroke-linecap="round"></path>
                                        <path d="M0.24432279,1.44538896 C1.50759371,0.972201116 2.82759371,0.809577256 4.20432279,0.957517379" id="Path-97" stroke="#A86F59" stroke-width="0.6534" stroke-linecap="round" transform="translate(2.224323, 1.175026) rotate(6.000000) translate(-2.224323, -1.175026) "></path>
                                        <path d="M9.14471915,1.51534024 C11.1615892,0.571689395 13.3273393,0.373656819 15.6419694,0.921242509" id="Path-97" stroke="#A86F59" stroke-width="0.6534" stroke-linecap="round" transform="translate(12.393344, 1.067485) scale(-1, 1) rotate(2.000000) translate(-12.393344, -1.067485) "></path>
                                    </g>
                                </g>
                                <path d="M3.8050016,15.6446422 C-0.309101584,9.30221136 -1.08696865,5.04349905 1.47140039,2.86850532 C5.30895396,-0.393985264 23.8344129,-0.736517328 26.6346002,1.14850532 C29.4347876,3.03352797 30.6380511,6.30850532 30.6380511,6.30850532 C30.6380511,6.30850532 37.0274943,10.9535845 35.4373279,16.8167802 C34.377217,20.7255774 32.0090829,25.619984 28.3329255,31.5 C30.5163226,21.7111868 30.5163226,16.8167802 28.3329255,16.8167802 C25.05783,16.8167802 26.7677277,27.2179393 25.4242066,26.663254 C24.0806855,26.1085688 22.377518,14.831364 19.4103302,14.080816 C17.432205,13.5804507 12.2304288,14.1017261 3.8050016,15.6446422 Z" id="Path-90" fill="#15113B" fill-rule="nonzero"></path>
                                <path d="M7.5,32.5 L13.1552205,31.3326153 C12.9211921,32.651993 12.1043744,33.5206845 10.7047675,33.9386897 C9.30516058,34.3566948 8.23690475,33.8771316 7.5,32.5 Z" id="Path-118" fill="#A86F59" transform="translate(10.327610, 32.708653) rotate(6.000000) translate(-10.327610, -32.708653) "></path>
                            </g>
                            <path d="M100.664293,57.4851838 L113.392024,50.6162761 C124.927022,50.2038039 132.911101,51.4934398 137.344263,54.4851838 C137.824116,54.8090152 138.855864,55.6310418 140.439507,56.9512636 L136.622236,85.9568145 C128.492865,122.200152 124.549371,142.444092 124.791754,146.688632 C125.000699,150.347625 113.643143,155.288337 98.2667351,155.687293 C86.8875102,155.982538 70.3588103,152.58215 70.0602021,150.633513 C69.3580936,146.051743 64.3198334,145.006409 63.2630267,139.482202 C62.5584888,135.799397 64.6720132,115.146343 69.6035997,77.5230391 L73.7962859,51.9916018 C76.286395,51.1476002 77.9067647,50.6891583 78.6573951,50.6162761 C82.0692416,50.2850039 87.5471703,50.2850039 95.0911811,50.6162761 L100.664293,57.4851838 Z" id="Path-2" fill="#FFFFFF"></path>
                            <g id="Group-65" transform="translate(0.000000, 22.000000)">
                                <g id="Group-12">
                                    <path d="M20.3421649,41.7626252 C17.4207131,36.637601 15.5772829,34.0750889 14.8118745,34.0750889 C13.6637618,34.0750889 5.68509474,27.5559532 5.68509474,25.9153833 C5.68509474,24.2748133 7.28111351,14.8621878 7.28111351,13.5299495 C7.28111351,12.1977111 3.97781402,9.26087843 2.58404536,6.86415749 C1.19027669,4.46743656 -0.981975339,0.709984794 0.493106043,0.0501219582 C1.96818743,-0.609740878 5.63958978,5.4554568 6.22278939,5.92591182 C6.61158914,6.23954851 9.97251473,10.0641093 16.3055662,17.3995941 C16.682735,10.7750491 17.541195,7.4627766 18.880946,7.4627766 C20.8905726,7.4627766 20.7371092,16.9257472 21.3243359,18.3286778 C21.9115626,19.7316085 21.6432126,24.3240591 22.2325188,25.9153833 C22.6253895,26.9762661 24.1500562,30.0295013 26.8065187,35.0750889 L20.3421649,41.7626252 Z" id="Path-20" fill="#FFB294"></path>
                                    <path d="M8.24111351,16.4099495 C11.1128351,14.5043904 12.8350012,13.7420615 13.4076119,14.1229626 C14.266528,14.6943142 16.9435981,17.7062579 16.9435981,19.8349638 C16.9435981,21.9636697 17.2136565,30.1982602 15.0679294,29.8962651 C12.9222022,29.59427 12.1604585,28.7912893 11.2753549,28.7912893 C10.3902512,28.7912893 7.02004872,28.305392 6.72823124,27.2420041 C6.53368624,26.5330789 7.03798034,22.922394 8.24111351,16.4099495 Z" id="Path-21" fill-opacity="0.0964543269" fill="#000000" fill-rule="nonzero"></path>
                                    <path d="M7.28111351,15.4499495 C10.1528351,13.5443904 11.8750012,12.7820615 12.4476119,13.1629626 C13.306528,13.7343142 15.9835981,16.7462579 15.9835981,18.8749638 C15.9835981,21.0036697 16.2536565,29.2382602 14.1079294,28.9362651 C11.9622022,28.63427 11.2004585,27.8312893 10.3153549,27.8312893 C9.43025119,27.8312893 6.06004872,27.345392 5.76823124,26.2820041 C5.57368624,25.5730789 6.07798034,21.962394 7.28111351,15.4499495 Z" id="Path-21" fill="#FFB294"></path>
                                </g>
                                <path d="M51.6663134,24.2876295 L51.6709334,24.3382954 C51.6829059,25.3528732 43.8821079,39.0866019 36.2178987,54.1373174 C61.4083098,58.5978971 74.7687209,62.793789 76.2991321,66.7249932 C77.927422,70.907621 77.7943237,75.6064212 69.0525608,79.0429861 C60.310798,82.479551 21.4508305,71.2905846 16.701322,68.6182098 C9.50543965,64.5693499 11.6419885,59.4909306 15.0973463,51.9146516 C18.5527041,44.3383727 34.376304,18.3096723 36.8252968,17.0831597 C37.0559055,16.9676656 51.4536365,23.3072597 51.6663134,24.2876295 Z" id="Path" fill="#383458" fill-rule="nonzero" transform="translate(44.503588, 48.387109) rotate(-61.000000) translate(-44.503588, -48.387109) "></path>
                                <path d="M74.6096987,48.3871086 L73.5072374,57.4704764 L72.572075,58.5900683 C63.531996,69.3174569 51.6463993,80.7571739 48.7982901,82.5117507 C47.3794446,83.38583 46.1082256,83.9070755 44.9421322,84.1272603 L74.6096987,48.3871086 Z" id="Path" fill="#15113B" fill-rule="nonzero"></path>
                            </g>
                            <path d="M93.004418,50.4730952 C85.4499921,83.3483826 81.0470006,104.28259 79.7954434,113.275719 C78.5438863,122.268847 77.7366396,137.709402 77.3737033,159.597385 C67.4869598,155.726599 61.5627379,152.723459 59.6010375,150.587964 C57.6393372,148.452468 62.3710866,115.587014 73.7962859,51.9916018 C75.0766954,51.2397556 77.0764145,50.6984956 79.7954434,50.3678219 C82.5144723,50.0371482 86.9174638,50.0722393 93.004418,50.4730952 Z" id="Path-89" fill="#383458" fill-rule="nonzero"></path>
                            <path d="M92.9314328,50.9224244 L91.1788781,58.5832246 C84.7631994,86.7611149 80.9572235,105.050597 79.7609504,113.451672 L79.7224582,113.725048 C79.6592619,114.179149 79.5971983,114.649688 79.5362677,115.136666 L78.2711016,75.6749779 L84.8599297,69.2632315 L79.8100162,62.4409664 L90.6371085,50.7843216 L92.1475856,50.8722475 C92.4056892,50.8882827 92.6669717,50.9050083 92.9314328,50.9224244 Z" id="Path" fill="#09D5B0" fill-rule="nonzero"></path>
                            <path d="M101.664492,57.2254686 L100.200229,56.8999912 L99.244979,61.2161069 L98.0594698,66.6288804 C88.8971747,108.724065 85.030606,132.870812 86.4467255,139.433914 L86.4932011,139.635326 C87.8047864,144.953484 88.5784713,150.214815 88.8146997,155.41988 L90.3131572,155.351874 C90.0724154,150.047359 89.2844032,144.688597 87.9495644,139.276152 C86.3787465,132.906869 90.9559429,105.401246 101.664492,57.2254686 Z" id="Path-87" fill-opacity="0.745957168" fill="#15113B" fill-rule="nonzero"></path>
                            <polygon id="Path-9" fill-opacity="0.745957168" fill="#15113B" fill-rule="nonzero" points="113.392024 50.6162761 101.29662 57.0627299 108.699162 65.1476534 116.101705 50.6162761"></polygon>
                            <polygon id="Path-11" fill-opacity="0.745957168" fill="#15113B" fill-rule="nonzero" points="95.0911811 50.6162761 100.932361 57.0627299 92.7760965 64.3232165 92.004418 50.4730952"></polygon>
                            <path d="M115.388788,50.3678219 C107.614761,87.7186668 103.727748,112.442838 103.727748,124.540334 C103.727748,136.637831 103.965419,148.609632 104.440762,160.455739 C111.363216,159.79308 116.442293,158.999862 119.677993,158.076084 C122.913694,157.152306 127.491835,154.787198 133.412416,150.980762 C130.90675,137.187466 130.253861,126.144312 131.453749,117.851299 C132.653636,109.558287 135.22718,89.4095138 139.17438,57.4049806 C137.196515,54.1632531 133.504435,52.2336849 128.09814,51.6162761 C122.691844,50.9988673 118.455394,50.5827159 115.388788,50.3678219 Z" id="Path-88" fill="#383458" fill-rule="nonzero"></path>
                            <path d="M135.32492,80.9216921 L135.32422,88.3218285 L133.503062,102.594668 C132.608087,109.508825 131.924983,114.594369 131.453749,117.851299 C130.860398,121.95224 130.720117,126.725688 131.032906,132.171643 L111.773925,111.762888 L112.503382,90.3910065 L127.54601,92.2104962 L135.32492,80.9216921 Z" id="Path" fill="#15113B" fill-rule="nonzero"></path>
                            <path d="M115.388788,50.3678219 L116.631006,50.4607988 C116.919973,50.4836829 117.217554,50.5080488 117.523748,50.5338964 L122.083628,65.1476534 L114.719513,71.2379784 L119.677993,77.7995615 L103.903722,119.510356 L103.957572,118.698746 C104.895734,105.252041 108.706139,82.4750659 115.388788,50.3678219 Z" id="Path" fill="#09D5B0" fill-rule="nonzero"></path>
                            <g id="Group-2" transform="translate(125.310006, 90.374032) rotate(27.000000) translate(-125.310006, -90.374032) translate(77.310006, 53.874032)">
                                <g id="Group-7" transform="translate(23.845231, 45.493981) rotate(-27.000000) translate(-23.845231, -45.493981) translate(8.345231, 23.493981)">
                                    <g id="Group-3" transform="translate(0.795233, 0.578308)">
                                        <path d="M2.38576338,0 L13.3510909,0 C14.308628,2.68192506e-16 15.1318245,0.678688141 15.3143989,1.61865824 L19.8352644,24.8939787 C19.9372354,25.4189682 19.7519789,25.9585401 19.3490293,26.3101703 L18.4595033,27.0864071 L18.4595033,27.0864071 L7.78239189,26.5973329 C6.8840557,26.5561838 6.12364695,25.9205215 5.92387917,25.0437125 L0.601366458,1.68245416 L0.601366458,1.68245416 L1.05421562,0.809362217 C1.31212507,0.312113487 1.82560842,5.46988008e-16 2.38576338,0 Z" id="Rectangle" fill="#15113B" fill-rule="nonzero"></path>
                                        <path d="M1.82676184,1 L12.3577498,1 C13.3122994,1 14.133804,1.67455805 14.3195281,2.61086545 L18.9065529,25.7358383 C19.0677377,26.5484335 18.5396653,27.3378381 17.7270701,27.4990229 C17.6309563,27.5180879 17.5332056,27.5276892 17.4352192,27.5276892 L6.90423121,27.5276892 C5.94968158,27.5276892 5.12817698,26.8531311 4.94245286,25.9168237 L0.355428074,2.79185091 C0.194243265,1.97925571 0.722315725,1.18985105 1.53491092,1.02866624 C1.63102475,1.00960128 1.72877541,1 1.82676184,1 Z" id="Rectangle" fill="#383458"></path>
                                        <path d="M2.89974297,3.21527701 C3.48476491,3.21527701 3.99202972,3.61986315 4.12213244,4.19023492 L4.80776421,7.19605216 C4.90572529,7.6255146 4.63699034,8.05307583 4.20752791,8.15103691 C4.14933674,8.16431041 4.08983951,8.17101007 4.03015369,8.17101007 C3.44513174,8.17101007 2.93786694,7.76642394 2.80776421,7.19605216 L2.12213244,4.19023492 C2.02417137,3.76077248 2.29290632,3.33321125 2.72236875,3.23525018 C2.78055992,3.22197668 2.84005714,3.21527701 2.89974297,3.21527701 Z" id="Rectangle" fill="#15113B" fill-rule="nonzero"></path>
                                    </g>
                                    <path d="M24.4090347,30.2406435 C24.026785,27.4431124 23.5978459,25.3472538 23.1222175,23.9530677 C22.408775,21.8617885 22.3802841,14.8471048 20.7615387,14.8471048 C19.1427932,14.8471048 18.6307763,17.8440201 18.6307763,19.3343631 C18.6307763,20.3279251 18.671177,21.1041825 18.7519782,21.6631354 C11.7126866,14.5211582 7.82579372,11.2008711 7.0912995,11.7022741 C6.35680528,12.203677 6.49803553,13.6749605 7.51499026,16.1161247 C6.91017706,16.8691114 6.56288703,17.4099952 6.47312017,17.7387762 C6.07730127,19.188506 7.6214186,20.6217313 8.19304082,22.4290416 C8.63582537,23.8290031 8.10482535,23.0608364 8.10482535,26.5210125 C8.10482535,29.9811885 10.6103182,32.7954551 13.5867256,34.1490307 C15.5709972,35.0514145 17.9178098,36.2204128 20.6271634,37.6560258 C24.8028433,41.3565485 27.1187506,42.6510622 27.5748852,41.5395669 C27.9037864,40.7381103 28.2802159,34.8835078 28.6354525,33.9932386 C28.7270667,33.7636416 27.3182607,32.5127766 24.4090347,30.2406435 Z" id="Path-17" fill="#FFB294" transform="translate(17.524341, 26.788804) rotate(-8.000000) translate(-17.524341, -26.788804) "></path>
                                </g>
                                <path d="M44.8221422,0.550405096 C46.4681054,1.20405445 99.900529,37.1050709 95.4649795,49.1915592 C91.9515428,58.7653697 46.1412569,60.3725209 42.9657427,59.9199894 C41.9898038,59.7809117 36.834764,44.0597222 37.5123919,43.43742 C38.1900198,42.8151178 67.9648206,41.8129877 67.9648206,39.8454935 C67.9648206,38.5338307 59.2100729,34.1191435 50.0330205,28.0324714 C40.8559681,21.9457993 30.169789,11.4392191 36.3095684,3.20876435 C38.2417276,0.618679572 43.1761789,-0.103244256 44.8221422,0.550405096 Z" id="Path" fill="#383458" fill-rule="nonzero"></path>
                            </g>
                        </g>
                    </g>
                </g>
                <g id="Group-20" transform="translate(51.000000, 419.000000)" fill-rule="nonzero">
                    <polygon id="Path-25" fill="#8EECDB" points="68.2745992 5 66 162.420923 78.4354124 162.334963 80.7100116 5.91403915"></polygon>
                    <polygon id="Rectangle" fill="#8EECDB" points="0 8.53067617e-14 153 2.55795385e-13 153 9 0 9"></polygon>
                    <polygon id="Rectangle" fill="#8EECDB" points="46 117 99 117 99 126 46 126"></polygon>
                    <polygon id="Rectangle" fill="#8EECDB" points="66 145 79 145 99 154.507303 99 163 46 163 46 154.507303"></polygon>
                    <polygon id="Rectangle" fill="#09D5B0" points="99 154.507303 99 163 46 163 46 154.507303"></polygon>
                    <polygon id="Rectangle" fill="#09D5B0" points="100 0 153 2.55795385e-13 153 9 100 9"></polygon>
                </g>
                <g id="Group-25" transform="translate(109.000000, 404.000000)" fill-rule="nonzero">
                    <path d="M6.75439005,1.9077581 L1.75,1.9077581 C0.783501688,1.9077581 0,2.69125978 0,3.6577581 L0,6.05479925 C0,8.34514684 1.85669357,10.2018404 4.14704116,10.2018404 L6.75439005,10.2018404 C7.16860361,10.2018404 7.50439005,9.86605397 7.50439005,9.45184041 C7.50439005,9.03762685 7.16860361,8.70184041 6.75439005,8.70184041 L4.14704116,8.70184041 C2.68512069,8.70184041 1.5,7.51671972 1.5,6.05479925 L1.5,3.6577581 C1.5,3.51968691 1.61192881,3.4077581 1.75,3.4077581 L6.75439005,3.4077581 C7.16860361,3.4077581 7.50439005,3.07197166 7.50439005,2.6577581 C7.50439005,2.24354453 7.16860361,1.9077581 6.75439005,1.9077581 Z" id="Path-148" fill="#383458"></path>
                    <path d="M23.3724485,0 C24.477018,0 25.3724485,0.8954305 25.3724485,2 L25.3724485,7 C25.3724485,10.5999309 22.6549703,13.5651607 19.1594518,13.9562516 L19.1586103,15 L10.4039913,15 L10.4035197,13.9334844 C6.99609069,13.4616777 4.37244849,10.5372311 4.37244849,7 L4.37244849,2 C4.37244849,0.8954305 5.26787899,0 6.37244849,0 L23.3724485,0 Z" id="Path" fill="#D8D8D8"></path>
                </g>
                <g id="Group-6" transform="translate(133.000000, 356.000000)" fill-rule="nonzero">
                    <g id="Group-5">
                        <path d="M11.4622065,32.9622327 L15.0622065,32.9622327 C19.0386567,32.9622327 22.2622065,36.1857825 22.2622065,40.1622327 L22.2622065,40.1622327 L22.2622065,40.1622327 L18.6622065,40.1622327 C14.6857563,40.1622327 11.4622065,36.9386829 11.4622065,32.9622327 L11.4622065,32.9622327 L11.4622065,32.9622327 Z" id="Rectangle" fill="#09D5B0"></path>
                        <path d="M22.2622065,36.2 L25.8622065,36.2 C29.8386567,36.2 33.0622065,39.4235498 33.0622065,43.4 L33.0622065,43.4 L33.0622065,43.4 L29.4622065,43.4 C25.4857563,43.4 22.2622065,40.1764502 22.2622065,36.2 L22.2622065,36.2 L22.2622065,36.2 Z" id="Rectangle" fill="#09D5B0" transform="translate(27.662207, 39.800000) scale(-1, 1) translate(-27.662207, -39.800000) "></path>
                        <polygon id="Path-269" fill="#09D5B0" points="21.6 26.6 21.6 50.086989 22.8 50.086989 22.8 26.6"></polygon>
                        <path d="M22.2,30.9 L21.4274591,32.0276389 C20.6783206,33.1211186 19.1845835,33.4002623 18.0911038,32.6511238 C17.4185686,32.1903726 17.0259067,31.4197302 17.0484575,30.604815 L17.0862683,29.2384479 L17.0862683,29.2384479 L15.7984601,29.6966388 C14.5496631,30.1409498 13.1771278,29.4887852 12.7328168,28.2399882 C12.4595471,27.4719264 12.5948492,26.6176627 13.0920882,25.9716375 L13.9258083,24.8884479 L13.9258083,24.8884479 L12.6146317,24.5021774 C11.3431742,24.1276082 10.6161027,22.7932399 10.9906719,21.5217824 C11.2210475,20.7397835 11.8326328,20.1281982 12.6146317,19.8978226 L13.9258083,19.5115521 L13.9258083,19.5115521 L13.0920882,18.4283625 C12.2836238,17.3779857 12.4797325,15.8710971 13.5301094,15.0626327 C14.1761346,14.5653936 15.0303983,14.4300915 15.7984601,14.7033612 L17.0862683,15.1615521 L17.0862683,15.1615521 L17.0484575,13.795185 C17.011792,12.4702088 18.0561742,11.3663801 19.3811504,11.3297147 C20.1960656,11.3071639 20.966708,11.6998259 21.4274591,12.3723611 L22.2,13.5 L22.2,13.5 L22.9725409,12.3723611 C23.7216794,11.2788814 25.2154165,10.9997377 26.3088962,11.7488762 C26.9814314,12.2096274 27.3740933,12.9802698 27.3515425,13.795185 L27.3137317,15.1615521 L27.3137317,15.1615521 L28.6015399,14.7033612 C29.8503369,14.2590502 31.2228722,14.9112148 31.6671832,16.1600118 C31.9404529,16.9280736 31.8051508,17.7823373 31.3079118,18.4283625 L30.4741917,19.5115521 L30.4741917,19.5115521 L31.7853683,19.8978226 C33.0568258,20.2723918 33.7838973,21.6067601 33.4093281,22.8782176 C33.1789525,23.6602165 32.5673672,24.2718018 31.7853683,24.5021774 L30.4741917,24.8884479 L30.4741917,24.8884479 L31.3079118,25.9716375 C32.1163762,27.0220143 31.9202675,28.5289029 30.8698906,29.3373673 C30.2238654,29.8346064 29.3696017,29.9699085 28.6015399,29.6966388 L27.3137317,29.2384479 L27.3137317,29.2384479 L27.3515425,30.604815 C27.388208,31.9297912 26.3438258,33.0336199 25.0188496,33.0702853 C24.2039344,33.0928361 23.433292,32.7001741 22.9725409,32.0276389 L22.2,30.9 L22.2,30.9 Z" id="Star" fill="#FFD343" transform="translate(22.200000, 22.200000) rotate(18.000000) translate(-22.200000, -22.200000) "></path>
                        <circle id="Oval" fill="#FFDC69" cx="22.2" cy="22.2" r="5.4"></circle>
                    </g>
                    <g id="Group-35" transform="translate(10.000000, 44.000000)">
                        <g id="Group-34" transform="translate(0.000000, 0.100000)">
                            <path d="M1.12,0 L23.52,0 L20.9735488,18.4332661 C20.8970068,18.9873392 20.4234202,19.4 19.8640852,19.4 L4.7759148,19.4 C4.21657979,19.4 3.74299325,18.9873392 3.66645119,18.4332661 L1.12,0 L1.12,0 Z" id="Rectangle" fill="#383458"></path>
                            <path d="M1.12,0 L23.52,0 C24.1385589,1.08417175e-16 24.64,0.50144108 24.64,1.12 L24.64,4.6 C24.64,5.21855892 24.1385589,5.72 23.52,5.72 L1.12,5.72 C0.50144108,5.72 1.18597464e-15,5.21855892 0,4.6 L0,1.12 C1.46292985e-16,0.50144108 0.50144108,3.35672035e-16 1.12,0 Z" id="Rectangle" fill="#514E6D"></path>
                        </g>
                    </g>
                </g>
            </g>
        </g>
    </g>
</svg>