<?xml version="1.0" encoding="UTF-8"?>
<svg width="28px" height="27px" viewBox="0 0 28 27" version="1.1" xmlns="http://www.w3.org/2000/svg" xmlns:xlink="http://www.w3.org/1999/xlink">
    <!-- Generator: Sketch 63.1 (92452) - https://sketch.com -->
    <title>SEO_marketing_seo_page_award</title>
    <desc>Created with Sketch.</desc>
    <g id="Page-1" stroke="none" stroke-width="1" fill="none" fill-rule="evenodd">
        <g id="SEO_marketing_seo_page_award" fill="#09D5B0" fill-rule="nonzero">
            <path d="M21,25 L21,25 C19.9,25 18.9,24.3 18.5,23.2 C18.5,23.1 18.5,23 18.4,23 L9.5,23 C9.5,23.1 9.5,23.2 9.4,23.2 C9.1,24.3 8.1,25 7,25 L7,25 C6.4,25 6,25.4 6,26 C6,26.6 6.4,27 7,27 L21,27 C21.6,27 22,26.6 22,26 C22,25.4 21.6,25 21,25 Z" id="Path"></path>
            <path d="M25,0 L3,0 C1.3,0 0,1.3 0,3 L0,18 C0,19.7 1.3,21 3,21 L9.9,21 L18,21 L25,21 C26.7,21 28,19.7 28,18 L28,3 C28,1.3 26.7,0 25,0 Z M18,18 C18,18.4 17.8,18.7 17.5,18.9 C17.3,19 17.2,19 17,19 C16.8,19 16.6,18.9 16.4,18.8 L14,17.2 L11.6,18.8 C11.3,19 10.9,19 10.6,18.8 C10.2,18.7 10,18.4 10,18 L10,13.7 C11.1,14.5 12.5,15 14,15 C15.5,15 16.9,14.5 18,13.7 L18,18 Z M14,13 C11.2,13 9,10.8 9,8 C9,5.2 11.2,3 14,3 C16.8,3 19,5.2 19,8 C19,10.8 16.8,13 14,13 Z" id="Shape"></path>
        </g>
    </g>
</svg>