<?xml version="1.0" encoding="UTF-8"?>
<svg width="28px" height="24px" viewBox="0 0 28 24" version="1.1" xmlns="http://www.w3.org/2000/svg" xmlns:xlink="http://www.w3.org/1999/xlink">
    <!-- Generator: Sketch 63.1 (92452) - https://sketch.com -->
    <title>SEO_landing_page_web_design</title>
    <desc>Created with Sketch.</desc>
    <g id="Page-1" stroke="none" stroke-width="1" fill="none" fill-rule="evenodd">
        <g id="SEO_landing_page_web_design" fill="#09D5B0" fill-rule="nonzero">
            <path d="M25,0 L3,0 C1.3,0 0,1.3 0,3 L0,21 C0,22.7 1.3,24 3,24 L25,24 C26.7,24 28,22.7 28,21 L28,3 C28,1.3 26.7,0 25,0 Z M10.1,3.6 C10.2,3.5 10.2,3.4 10.3,3.3 C10.7,2.9 11.3,2.9 11.7,3.3 C11.8,3.4 11.9,3.5 11.9,3.6 C12,3.7 12,3.9 12,4 C12,4.1 12,4.3 11.9,4.4 C11.8,4.5 11.8,4.6 11.7,4.7 C11.5,4.9 11.3,5 11,5 C10.9,5 10.7,5 10.6,4.9 C10.5,4.8 10.4,4.8 10.3,4.7 C10.2,4.6 10.1,4.5 10.1,4.4 C10,4.3 10,4.1 10,4 C10,3.9 10,3.7 10.1,3.6 Z M7.1,3.6 C7.2,3.5 7.2,3.4 7.3,3.3 C7.4,3.2 7.5,3.1 7.6,3.1 C8,2.9 8.4,3 8.7,3.3 C8.8,3.4 8.9,3.5 8.9,3.6 C9,3.7 9,3.9 9,4 C9,4.3 8.9,4.5 8.7,4.7 C8.5,4.9 8.3,5 8,5 C7.7,5 7.5,4.9 7.3,4.7 C7.1,4.5 7,4.3 7,4 C7,3.9 7,3.7 7.1,3.6 Z M4.3,3.3 C4.3,3.3 4.4,3.2 4.4,3.2 C4.5,3.2 4.5,3.1 4.6,3.1 C4.7,3 4.7,3 4.8,3 C4.9,3 5.1,3 5.2,3 C5.3,3 5.3,3 5.4,3.1 C5.5,3.1 5.5,3.2 5.6,3.2 C5.6,3.2 5.7,3.3 5.7,3.3 C5.8,3.4 5.9,3.5 5.9,3.6 C6,3.7 6,3.9 6,4 C6,4.1 6,4.3 5.9,4.4 C5.9,4.5 5.8,4.6 5.7,4.7 C5.5,4.9 5.3,5 5,5 C4.7,5 4.5,4.9 4.3,4.7 C4.1,4.5 4,4.3 4,4 C4,3.7 4.1,3.5 4.3,3.3 Z M15,19 C15,19.6 14.6,20 14,20 L4,20 C3.4,20 3,19.6 3,19 L3,18.2 L9.9,15.1 L15,18.5 L15,19 Z M15,16.1 L10.6,13.1 C10.3,12.9 10,12.9 9.6,13 L3,16 L3,9 C3,8.4 3.4,8 4,8 L14,8 C14.6,8 15,8.4 15,9 L15,16.1 Z M25,19 C25,19.6 24.6,20 24,20 L18,20 C17.4,20 17,19.6 17,19 L17,16 C17,15.4 17.4,15 18,15 L24,15 C24.6,15 25,15.4 25,16 L25,19 Z M24,14 L21,14 C20.4,14 20,13.6 20,13 C20,12.4 20.4,12 21,12 L24,12 C24.6,12 25,12.4 25,13 C25,13.6 24.6,14 24,14 Z M24,11 L18,11 C17.4,11 17,10.6 17,10 C17,9.4 17.4,9 18,9 L24,9 C24.6,9 25,9.4 25,10 C25,10.6 24.6,11 24,11 Z" id="Shape"></path>
            <path d="M7.7,11.3 C7.3,10.9 6.7,10.9 6.3,11.3 C6.2,11.4 6.1,11.5 6.1,11.6 C6,11.7 6,11.9 6,12 C6,12.3 6.1,12.5 6.3,12.7 C6.4,12.8 6.5,12.9 6.6,12.9 C6.7,12.9 6.9,13 7,13 C7.3,13 7.5,12.9 7.7,12.7 C7.9,12.5 8,12.3 8,12 C8,11.9 8,11.7 7.9,11.6 C7.8,11.5 7.8,11.4 7.7,11.3 Z" id="Path"></path>
        </g>
    </g>
</svg>