<?xml version="1.0" encoding="UTF-8"?>
<svg width="574px" height="416px" viewBox="0 0 574 416" version="1.1" xmlns="http://www.w3.org/2000/svg" xmlns:xlink="http://www.w3.org/1999/xlink">
    <!-- Generator: Sketch 63.1 (92452) - https://sketch.com -->
    <title>Sharing Ideas</title>
    <desc>Created with Sketch.</desc>
    <g id="Page-1" stroke="none" stroke-width="1" fill="none" fill-rule="evenodd">
        <g id="Scene" transform="translate(-2016.000000, -361.000000)">
            <g id="Sharing-Ideas" transform="translate(2007.000000, 362.000000)">
                <g id="Group-45" transform="translate(121.000000, 42.000000)" fill-rule="nonzero">
                    <polygon id="Rectangle" fill="#182160" points="34.3 240.1 190.12 240.1 190.12 248.92 34.3 248.92"></polygon>
                    <polygon id="Path-271" fill="#15113B" points="60.025 352.475298 60.025 356.629623 66.395 356.629623 66.395 346.105298 0.524165906 346.105298 0.524165906 356.629623 6.89416591 356.629623 6.89416591 352.475298"></polygon>
                    <polygon id="Path-270" fill="#15113B" points="29.6450947 128.925916 31.0159757 349.290298 36.4057863 349.237536 35.0349053 128.873154"></polygon>
                    <path d="M45.706081,0 L185.767681,0 C188.387278,0 190.510881,2.12360297 190.510881,4.7432 L190.510881,239.258328 C190.510881,241.805159 188.503617,243.883168 185.984798,243.996647 L185.749245,244.001492 L185.749245,244.001492 L45.6876452,243.457097 C43.0752646,243.446943 40.962881,241.326333 40.962881,238.713933 L40.962881,4.7432 C40.962881,2.12360297 43.086484,0 45.706081,0 Z" id="Rectangle" fill="#09D5B0"></path>
                    <g id="Group-47" transform="translate(28.420000, 119.560000)">
                        <ellipse id="Oval" fill="#8EECDB" cx="4.9" cy="6.37" rx="4.9" ry="6.37"></ellipse>
                        <ellipse id="Oval" fill="#514E6D" cx="7.84" cy="6.37" rx="4.9" ry="6.37"></ellipse>
                    </g>
                    <path d="M38.846081,0 L178.907681,0 C181.527278,0 183.650881,2.12360297 183.650881,4.7432 L183.650881,239.258328 C183.650881,241.805159 181.643617,243.883168 179.124798,243.996647 L178.889245,244.001492 L178.889245,244.001492 L38.8276452,243.457097 C36.2152646,243.446943 34.102881,241.326333 34.102881,238.713933 L34.102881,4.7432 C34.102881,2.12360297 36.226484,0 38.846081,0 Z" id="Rectangle" fill="#09D5B0"></path>
                    <path d="M45.6062208,4.9 L171.953779,4.9 C174.950598,4.9 177.38,7.3294018 177.38,10.3262208 L177.38,231.733779 C177.38,234.730598 174.950598,237.16 171.953779,237.16 L45.6062208,237.16 C42.6094018,237.16 40.18,234.730598 40.18,231.733779 L40.18,10.3262208 C40.18,7.3294018 42.6094018,4.9 45.6062208,4.9 Z" id="Rectangle" fill="#8EECDB"></path>
                    <path d="M85.26,230.3 L123.48,230.3 C125.644956,230.3 127.4,232.055044 127.4,234.22 L127.4,246.96 L85.26,246.96 C83.0950438,246.96 81.34,245.204956 81.34,243.04 L81.34,234.22 C81.34,232.055044 83.0950438,230.3 85.26,230.3 Z" id="Rectangle" fill="#09D5B0"></path>
                    <polygon id="Rectangle" fill="#09D5B0" points="126.42 243.04 130.34 243.04 130.34 246.96 126.42 246.96"></polygon>
                    <path d="M83.3,230.3 L121.52,230.3 C123.684956,230.3 125.44,232.055044 125.44,234.22 L125.44,243.04 C125.44,245.204956 123.684956,246.96 121.52,246.96 L83.3,246.96 C81.1350438,246.96 79.38,245.204956 79.38,243.04 L79.38,234.22 C79.38,232.055044 81.1350438,230.3 83.3,230.3 Z" id="Rectangle" fill="#8EECDB"></path>
                    <polygon id="Path-270" fill="#15113B" points="187.425095 128.925916 188.795976 349.290298 194.185786 349.237536 192.814905 128.873154"></polygon>
                    <polygon id="Path-271" fill="#15113B" points="217.805 352.475298 217.805 356.629623 224.175 356.629623 224.175 346.105298 158.304166 346.105298 158.304166 356.629623 164.674166 356.629623 164.674166 352.475298"></polygon>
                    <g id="Group-46" transform="translate(183.260000, 119.560000)">
                        <ellipse id="Oval" fill="#514E6D" cx="4.9" cy="6.37" rx="4.9" ry="6.37"></ellipse>
                        <ellipse id="Oval" fill="#8EECDB" cx="7.84" cy="6.37" rx="4.9" ry="6.37"></ellipse>
                    </g>
                </g>
                <g id="Group-51" transform="translate(174.000000, 113.000000)">
                    <g id="Group-37">
                        <path d="M9.94,7 L110.74,7 C111.977118,7 112.98,8.00288216 112.98,9.24 L112.98,147.56 C112.98,148.797118 111.977118,149.8 110.74,149.8 L9.94,149.8 C8.70288216,149.8 7.7,148.797118 7.7,147.56 L7.7,9.24 C7.7,8.00288216 8.70288216,7 9.94,7 Z" id="Rectangle" fill-opacity="0.401742788" fill="#09D5B0" fill-rule="nonzero"></path>
                        <path d="M2.24,0 L103.04,0 C104.277118,0 105.28,1.00288216 105.28,2.24 L105.28,140.56 C105.28,141.797118 104.277118,142.8 103.04,142.8 L2.24,142.8 C1.00288216,142.8 0,141.797118 0,140.56 L0,2.24 C0,1.00288216 1.00288216,0 2.24,0 Z" id="Rectangle" stroke-opacity="0.401742788" stroke="#09D5B0" stroke-width="1.4" fill="#FFFFFF" fill-rule="nonzero"></path>
                        <g id="Group-18" transform="translate(18.200000, 19.600000)">
                            <circle id="Oval" fill="#15113B" cx="34.65" cy="38.15" r="34.65"></circle>
                            <path d="M37.1491171,1.03028697e-13 C52.5853954,1.03028697e-13 65.8187005,9.43680656 71.4001501,22.8587891 L36.4,37.1 L36.4,0.0074139684 C36.6493116,0.00247906026 36.898925,1.03028697e-13 37.1491171,1.03028697e-13 Z" id="Path" fill="#FFD343" fill-rule="nonzero"></path>
                        </g>
                        <path d="M19.18,123.2 L85.26,123.2 C86.4971178,123.2 87.5,124.202882 87.5,125.44 L87.5,126 C87.5,127.237118 86.4971178,128.24 85.26,128.24 L19.18,128.24 C17.9428822,128.24 16.94,127.237118 16.94,126 L16.94,125.44 C16.94,124.202882 17.9428822,123.2 19.18,123.2 Z" id="Rectangle" fill="#FFD343" fill-rule="nonzero"></path>
                        <path d="M19.18,112 L50.26,112 C51.4971178,112 52.5,113.002882 52.5,114.24 L52.5,114.8 C52.5,116.037118 51.4971178,117.04 50.26,117.04 L19.18,117.04 C17.9428822,117.04 16.94,116.037118 16.94,114.8 L16.94,114.24 C16.94,113.002882 17.9428822,112 19.18,112 Z" id="Rectangle" fill="#15113B"></path>
                    </g>
                </g>
                <g id="Group-51" transform="translate(176.000000, 60.000000)">
                    <g id="Group-37">
                        <path d="M5.376,4.032 L107.856,4.032 C108.598271,4.032 109.2,4.6337293 109.2,5.376 L109.2,41.328 C109.2,42.0702707 108.598271,42.672 107.856,42.672 L5.376,42.672 C4.6337293,42.672 4.032,42.0702707 4.032,41.328 L4.032,5.376 C4.032,4.6337293 4.6337293,4.032 5.376,4.032 Z" id="Rectangle" fill-opacity="0.401742788" fill="#09D5B0" fill-rule="nonzero"></path>
                        <path d="M1.344,0 L103.824,0 C104.566271,0 105.168,0.601729296 105.168,1.344 L105.168,37.296 C105.168,38.0382707 104.566271,38.64 103.824,38.64 L1.344,38.64 C0.601729296,38.64 0,38.0382707 0,37.296 L0,1.344 C0,0.601729296 0.601729296,0 1.344,0 Z" id="Rectangle" stroke-opacity="0.401742788" stroke="#09D5B0" stroke-width="0.672" fill="#FFFFFF" fill-rule="nonzero"></path>
                        <g id="Group-15" transform="translate(10.080000, 11.424000)">
                            <path d="M1.344,0 L14.112,0 C14.8542707,0 15.456,0.601729296 15.456,1.344 L15.456,1.68 C15.456,2.4222707 14.8542707,3.024 14.112,3.024 L1.344,3.024 C0.601729296,3.024 0,2.4222707 0,1.68 L0,1.344 C0,0.601729296 0.601729296,0 1.344,0 Z" id="Rectangle" fill="#15113B"></path>
                            <path d="M1.344,6.72 L24.192,6.72 C24.9342707,6.72 25.536,7.3217293 25.536,8.064 L25.536,8.4 C25.536,9.1422707 24.9342707,9.744 24.192,9.744 L1.344,9.744 C0.601729296,9.744 0,9.1422707 0,8.4 L0,8.064 C0,7.3217293 0.601729296,6.72 1.344,6.72 Z" id="Rectangle" fill="#FFD343" fill-rule="nonzero"></path>
                            <path d="M1.344,13.44 L17.472,13.44 C18.2142707,13.44 18.816,14.0417293 18.816,14.784 L18.816,15.12 C18.816,15.8622707 18.2142707,16.464 17.472,16.464 L1.344,16.464 C0.601729296,16.464 0,15.8622707 0,15.12 L0,14.784 C0,14.0417293 0.601729296,13.44 1.344,13.44 Z" id="Rectangle" fill-opacity="0.100551792" fill="#09D5B0" fill-rule="nonzero"></path>
                        </g>
                        <g id="Group-11" transform="translate(49.728000, 10.080000)">
                            <path d="M0.809321103,7.10542736e-15 L4.85592662,7.10542736e-15 C5.30290232,7.10542736e-15 5.66524772,0.3623454 5.66524772,0.809321103 L5.66524772,17.602734 C5.66524772,18.0497097 5.30290232,18.4120551 4.85592662,18.4120551 L0.809321103,18.4120551 C0.3623454,18.4120551 1.08357767e-13,18.0497097 1.08357767e-13,17.602734 L1.08357767e-13,0.809321103 C1.08357767e-13,0.3623454 0.3623454,7.10542736e-15 0.809321103,7.10542736e-15 Z" id="Rectangle" fill="#15113B"></path>
                            <path d="M10.9258349,7.10542736e-15 L14.9724404,7.10542736e-15 C15.4194161,7.10542736e-15 15.7817615,0.3623454 15.7817615,0.809321103 L15.7817615,17.602734 C15.7817615,18.0497097 15.4194161,18.4120551 14.9724404,18.4120551 L10.9258349,18.4120551 C10.4788592,18.4120551 10.1165138,18.0497097 10.1165138,17.602734 L10.1165138,0.809321103 C10.1165138,0.3623454 10.4788592,7.10542736e-15 10.9258349,7.10542736e-15 Z" id="Rectangle" fill="#15113B"></path>
                            <path d="M21.0423487,7.10542736e-15 L25.0889542,7.10542736e-15 C25.5359299,7.10542736e-15 25.8982753,0.3623454 25.8982753,0.809321103 L25.8982753,17.602734 C25.8982753,18.0497097 25.5359299,18.4120551 25.0889542,18.4120551 L21.0423487,18.4120551 C20.595373,18.4120551 20.2330276,18.0497097 20.2330276,17.602734 L20.2330276,0.809321103 C20.2330276,0.3623454 20.595373,7.10542736e-15 21.0423487,7.10542736e-15 Z" id="Rectangle" fill="#15113B"></path>
                            <path d="M31.1588625,7.10542736e-15 L35.205468,7.10542736e-15 C35.6524437,7.10542736e-15 36.0147891,0.3623454 36.0147891,0.809321103 L36.0147891,17.602734 C36.0147891,18.0497097 35.6524437,18.4120551 35.205468,18.4120551 L31.1588625,18.4120551 C30.7118868,18.4120551 30.3495414,18.0497097 30.3495414,17.602734 L30.3495414,0.809321103 C30.3495414,0.3623454 30.7118868,7.10542736e-15 31.1588625,7.10542736e-15 Z" id="Rectangle" fill="#15113B"></path>
                            <path d="M41.2753763,7.10542736e-15 L45.3219818,7.10542736e-15 C45.7689575,7.10542736e-15 46.1313029,0.3623454 46.1313029,0.809321103 L46.1313029,17.602734 C46.1313029,18.0497097 45.7689575,18.4120551 45.3219818,18.4120551 L41.2753763,18.4120551 C40.8284006,18.4120551 40.4660552,18.0497097 40.4660552,17.602734 L40.4660552,0.809321103 C40.4660552,0.3623454 40.8284006,7.10542736e-15 41.2753763,7.10542736e-15 Z" id="Rectangle" fill="#15113B"></path>
                            <path d="M0.809321103,5.41981655 L4.85592662,5.41981655 C5.30290232,5.41981655 5.66524772,5.78216195 5.66524772,6.22913765 L5.66524772,17.602734 C5.66524772,18.0497097 5.30290232,18.4120551 4.85592662,18.4120551 L0.809321103,18.4120551 C0.3623454,18.4120551 1.08357767e-13,18.0497097 1.08357767e-13,17.602734 L1.08357767e-13,6.22913765 C1.08357767e-13,5.78216195 0.3623454,5.41981655 0.809321103,5.41981655 Z" id="Rectangle" fill="#FFD343" fill-rule="nonzero"></path>
                            <path d="M10.9258349,10.781211 L14.9724404,10.781211 C15.4194161,10.781211 15.7817615,11.1435564 15.7817615,11.5905321 L15.7817615,17.602734 C15.7817615,18.0497097 15.4194161,18.4120551 14.9724404,18.4120551 L10.9258349,18.4120551 C10.4788592,18.4120551 10.1165138,18.0497097 10.1165138,17.602734 L10.1165138,11.5905321 C10.1165138,11.1435564 10.4788592,10.781211 10.9258349,10.781211 Z" id="Rectangle" fill="#FFD343" fill-rule="nonzero"></path>
                            <path d="M21.0423487,13.4765138 L25.0889542,13.4765138 C25.5359299,13.4765138 25.8982753,13.8388592 25.8982753,14.2858349 L25.8982753,17.602734 C25.8982753,18.0497097 25.5359299,18.4120551 25.0889542,18.4120551 L21.0423487,18.4120551 C20.595373,18.4120551 20.2330276,18.0497097 20.2330276,17.602734 L20.2330276,14.2858349 C20.2330276,13.8388592 20.595373,13.4765138 21.0423487,13.4765138 Z" id="Rectangle" fill="#FFD343" fill-rule="nonzero"></path>
                            <path d="M31.1588625,8.42190828 L35.205468,8.42190828 C35.6524437,8.42190828 36.0147891,8.78425368 36.0147891,9.23122938 L36.0147891,17.602734 C36.0147891,18.0497097 35.6524437,18.4120551 35.205468,18.4120551 L31.1588625,18.4120551 C30.7118868,18.4120551 30.3495414,18.0497097 30.3495414,17.602734 L30.3495414,9.23122938 C30.3495414,8.78425368 30.7118868,8.42190828 31.1588625,8.42190828 Z" id="Rectangle" fill="#FFD343" fill-rule="nonzero"></path>
                            <path d="M41.2753763,2.02330276 L45.3219818,2.02330276 C45.7689575,2.02330276 46.1313029,2.38564816 46.1313029,2.83262386 L46.1313029,17.602734 C46.1313029,18.0497097 45.7689575,18.4120551 45.3219818,18.4120551 L41.2753763,18.4120551 C40.8284006,18.4120551 40.4660552,18.0497097 40.4660552,17.602734 L40.4660552,2.83262386 C40.4660552,2.38564816 40.8284006,2.02330276 41.2753763,2.02330276 Z" id="Rectangle" fill="#FFD343" fill-rule="nonzero"></path>
                        </g>
                    </g>
                </g>
                <g id="Group-8" transform="translate(369.000000, 201.000000)" fill-rule="nonzero">
                    <polygon id="Path-25" fill="#383458" points="46.1912118 112.492972 34.1621046 198.165477 40.4688087 198.081235 52.4979159 113.38873"></polygon>
                    <polygon id="Path" fill="#383458" points="64.9688087 112.492972 76.9979159 198.165477 70.6912118 198.081235 58.6621046 113.38873"></polygon>
                    <polygon id="Path-25" fill="#383458" points="12.8712118 112.492972 0.842104607 198.165477 7.14880873 198.081235 19.1779159 113.38873"></polygon>
                    <path d="M0,107.604 C0,102.083362 4.47536164,97.608 9.996,97.608 L47.5409675,97.608 C54.685323,97.608 60.4769675,91.8163555 60.4769675,84.672 L60.4769675,12.936 C60.4769675,5.79164448 66.268612,0 73.4129675,0 L95.844,0 C102.988356,0 108.78,5.79164448 108.78,12.936 L108.78,104.664 C108.78,111.808356 102.988356,117.6 95.844,117.6 L9.996,117.6 C4.47536164,117.6 0,113.124638 0,107.604 Z" id="Path" fill="#383458"></path>
                    <path d="M95.844,0 C96.814656,0 97.7603425,0.10690708 98.6699272,0.309588924 C98.8730929,1.21965748 98.98,2.165344 98.98,3.136 L98.98,94.864 C98.98,102.008356 93.1883555,107.8 86.044,107.8 L0.196,107.8 L0.00184013097,107.797747 L0,107.604 L0,107.604 C0,102.083362 4.47536164,97.608 9.996,97.608 L47.5409675,97.608 C54.685323,97.608 60.4769675,91.8163555 60.4769675,84.672 L60.4769675,12.936 C60.4769675,5.79164448 66.268612,0 73.4129675,0 L95.844,0 Z" id="Path" fill="#514E6D"></path>
                    <polygon id="Path" fill="#383458" points="98.2888087 112.492972 110.317916 198.165477 104.011212 198.081235 91.9821046 113.38873"></polygon>
                </g>
                <g id="Group" transform="translate(328.000000, 123.000000)">
                    <g id="Group-11" transform="translate(6.820000, 138.180000)">
                        <polygon id="Path-39" fill="#FFB294" points="23.4572024 97.7296429 26.2460269 123.139702 29.9872198 126.875448 37.5969641 123.139702 37.5969641 97.7296429"></polygon>
                        <path d="M6.70033583,15.9957684 C2.17708921,20.6696729 7.07277148,54.4837566 21.3873827,117.43802 L38.9843422,117.43802 L37.0243422,45.2970788 C69.3495732,43.8417426 88.3977727,41.5550759 94.1689407,38.4370788 C99.9401087,35.3190817 104.093961,24.8986449 106.630499,7.17576841 L69.0882782,0.610421538 C29.8333512,8.45244417 9.03737042,13.5808931 6.70033583,15.9957684 Z" id="Path-38" fill="#15113B" fill-rule="nonzero"></path>
                        <polygon id="Path-39" fill="#FFB294" points="69.5172024 98.7096429 72.4572024 124.000282 77.0272198 127.855448 84.3976327 122.475465 83.6569641 98.7096429"></polygon>
                        <path d="M26.3313267,122.083945 L37.7940131,122.083945 L37.7734939,135.797583 C37.7726881,136.336129 37.3374673,136.773115 36.7989296,136.776102 L1.14454518,136.973844 C0.603314443,136.97683 0.162127067,136.540509 0.159110522,135.999278 C0.159110522,135.948749 0.16247355,135.898274 0.169977659,135.848305 L0.52354315,133.493934 C0.574235009,133.15638 0.796912898,132.869521 1.11135204,132.736704 L26.3313267,122.083945 Z" id="Path-85" fill="#26234A"></path>
                        <path d="M72.3913267,122.083945 L84.8340131,122.083945 L84.8134941,135.797447 C84.8126882,136.336046 84.3773841,136.773055 83.8387924,136.775966 L47.2043836,136.974005 C46.6631525,136.976916 46.2220263,136.540533 46.2190864,135.999301 C46.2190864,135.948818 46.2224562,135.89839 46.2299535,135.848466 L46.5835431,133.493934 C46.634235,133.15638 46.8569129,132.869521 47.171352,132.736704 L72.3913267,122.083945 Z" id="Path-85" fill="#26234A"></path>
                        <path d="M48.0466453,20.9682016 C43.5233987,25.6421061 49.9903111,57.7987121 67.4473827,117.43802 L85.0443422,117.43802 L78.6169551,46.34277 C100.042324,44.7581048 113.532467,41.7781644 119.087384,37.4029487 C124.6423,33.0277329 124.6423,20.8867501 119.087384,0.98 C104.468245,3.99665501 94.24244,6.06168076 88.4099682,7.17507726 C66.2986272,11.3960474 51.2875685,17.6193314 48.0466453,20.9682016 Z" id="Path-38" fill="#26234A" fill-rule="nonzero"></path>
                        <path d="M119.087384,0.98 C119.883596,3.83332701 120.565683,6.52710772 121.133646,9.06134213 C117.616488,10.2279357 113.373173,11.1275931 108.403546,11.76 C98.2894929,13.0470579 87.1663112,12.5153098 75.0340013,10.1647556 C78.8091779,9.18813216 82.9126069,8.24965962 87.3056863,7.3886839 L91.8185594,6.51431665 C97.8991782,5.3213143 106.988786,3.47654208 119.087384,0.98 Z" id="Path" fill-opacity="0.270405376" fill="#000000" fill-rule="nonzero"></path>
                    </g>
                    <g id="Group-14" transform="translate(82.280000, 0.000000)">
                        <path d="M11.2209907,39.9362225 L9.84378707,56.9320687 L26.762112,56.9320687 C25.4571125,50.607463 24.8046128,45.8775104 24.8046128,42.7422107 C24.8046128,38.0392613 31.5130618,21.1344072 33.3026495,16.0480338 C35.0922373,10.9616605 24.8046128,-0.401901719 14.7233252,2.15408664 C4.6420377,4.71007501 3.50312434,14.8163521 3.50312434,18.8602193 C3.50312434,22.9040866 4.14910565,33.8984797 6.34380974,36.9173511 C7.8069458,38.929932 9.4326728,39.9362225 11.2209907,39.9362225 Z" id="Path" fill="#FFB294"></path>
                        <g id="Group-10" transform="translate(3.940000, 17.640000)">
                            <path d="M14.8591939,19.4791777 C13.1717906,21.5252065 11.8241705,22.9317694 10.8163338,23.6988665 C9.93007734,24.3734249 8.66356936,25.1095055 7.01680982,25.9071083 L7.33680982,22.6271777 L7.7052451,22.5692362 C8.99317384,22.3529398 10.0716836,22.0583675 10.9407745,21.6855192 C11.9064309,21.2712433 13.2125708,20.5357962 14.8591939,19.4791777 Z" id="Path" fill-opacity="0.0964543269" fill="#000000" fill-rule="nonzero"></path>
                            <g id="Group-16">
                                <path d="M1.88585893,5.62884721 C2.47526826,5.62884721 2.95307893,5.15103654 2.95307893,4.56162721 C2.95307893,3.97221788 2.47526826,3.49440721 1.88585893,3.49440721 C1.29644959,3.49440721 0.818638925,3.97221788 0.818638925,4.56162721 C0.818638925,5.15103654 1.29644959,5.62884721 1.88585893,5.62884721 Z" id="Oval" fill="#15113B"></path>
                                <path d="M10.5206389,5.62884721 C11.1100483,5.62884721 11.5878589,5.15103654 11.5878589,4.56162721 C11.5878589,3.97221788 11.1100483,3.49440721 10.5206389,3.49440721 C9.93122959,3.49440721 9.45341893,3.97221788 9.45341893,4.56162721 C9.45341893,5.15103654 9.93122959,5.62884721 10.5206389,5.62884721 Z" id="Oval" fill="#15113B"></path>
                                <path d="M4.3708261,5.23034084 C4.3708261,6.2025131 2.35250255,9.32912339 2.70373533,10.0199124 C2.93789051,10.4804385 3.68962061,10.6579831 4.9589256,10.5525462" id="Path-95" stroke="#A86F59" stroke-width="0.640332" stroke-linecap="round"></path>
                                <path d="M3.13188774,1.14236177 C3.0112833,1.11643301 2.89087288,1.09305381 2.77065649,1.07222417 L3.13188774,1.14236177 Z" id="Path-97" stroke="#A86F59" stroke-width="0.640332" stroke-linecap="round"></path>
                            </g>
                        </g>
                        <path d="M3.72890156,15.3317494 C-0.302919552,9.11616713 -1.06522928,4.94262907 1.44197238,2.81113522 C5.20277488,-0.386105559 23.3577246,-0.721786982 26.1019082,1.12553522 C28.8460918,2.97285741 30.0252901,6.18233522 30.0252901,6.18233522 C30.0252901,6.18233522 36.2869444,10.7345128 34.7285814,16.4804446 C33.6896727,20.3110659 31.3689012,25.1075843 27.766267,30.87 C29.9059961,21.2769631 29.9059961,16.4804446 27.766267,16.4804446 C24.5566734,16.4804446 26.2323731,26.6735805 24.9157224,26.1299889 C23.5990718,25.5863974 21.9299676,14.5347367 19.0221236,13.7991997 C17.0835609,13.3088417 11.9858202,13.8196916 3.72890156,15.3317494 Z" id="Path-90" fill="#15113B" fill-rule="nonzero"></path>
                        <path d="M7.38655414,31.5614657 L13.0178944,31.0030047 C12.6546486,32.2649384 11.7695655,33.0279194 10.362645,33.2919475 C8.95572452,33.5559757 7.96369423,32.9791485 7.38655414,31.5614657 Z" id="Path-118" fill="#A86F59"></path>
                    </g>
                    <path d="M96.6510074,56.3354801 L109.124183,49.6039505 C120.428481,49.1997278 128.252879,50.463571 132.597377,53.3954801 C133.067633,53.7128349 134.078746,54.518421 135.630717,55.8122383 L131.889791,84.2376782 C123.923007,113.222816 120.058383,129.79521 120.295919,133.954859 C120.500685,137.540672 109.37028,142.38257 94.3014004,142.773547 C83.14976,143.062888 66.9516341,139.730507 66.6589981,137.820843 C65.9709317,133.330708 61.0334367,132.306281 59.9977661,126.892558 C59.3073191,123.283409 61.3785729,106.310083 66.2115277,75.9725784 L70.3203602,50.9517698 C72.7606671,50.1246482 74.3486294,49.6753751 75.0842472,49.6039505 C78.4278568,49.2793038 83.7962269,49.2793038 91.1893574,49.6039505 L96.6510074,56.3354801 Z" id="Path-2" fill="#FFFFFF"></path>
                    <path d="M97.6312019,56.0809592 L96.1962247,55.7619914 L95.2600794,59.9917848 L94.0982804,65.2963028 C85.1192313,106.549583 81.3299939,120.413396 82.717791,126.845236 L82.7633371,127.042619 C84.0486907,132.254414 84.8069019,137.410518 85.0384057,142.511483 L86.5068941,142.444836 C86.2709671,137.246412 85.4987151,131.994825 84.1905731,126.690629 C82.6511716,120.448731 87.1368241,103.293221 97.6312019,56.0809592 Z" id="Path-87" fill="#8EECDB" fill-rule="nonzero"></path>
                    <path d="M118.164803,135.912847 L118.597231,142.410188 C106.538112,146.226691 95.8144794,147.625108 86.4263349,146.605437 C77.9172447,145.681243 71.1315558,144.178719 66.0692684,142.097864 L66.6589981,137.820843 C78.8765108,140.777419 89.2400147,141.832166 97.74951,140.985081 C106.001142,140.163667 112.650108,138.548947 117.696408,136.140924 L118.164803,135.912847 Z" id="Path" fill="#3C62FF" fill-rule="nonzero"></path>
                    <polygon id="Path-9" fill="#8EECDB" fill-rule="nonzero" points="109.124183 49.6039505 97.270688 55.9214753 104.525179 63.8447003 111.77967 49.6039505"></polygon>
                    <polygon id="Path-11" fill="#8EECDB" fill-rule="nonzero" points="91.1893574 49.6039505 96.9137133 55.9214753 88.9205745 63.0367522 88.1643296 49.4636333"></polygon>
                    <path d="M111.081012,49.3604655 C104.137339,79.5270022 100.665502,100.538044 100.665502,112.39359 C100.665502,114.549744 99.652652,116.700235 99.6680657,118.845063 C99.7149445,125.27736 99.9429049,134.811214 100.351947,147.446624 C107.135952,146.797218 112.113447,146.019865 115.284433,145.114562 C118.45542,144.20926 122.941998,141.891455 128.744168,138.161146 C126.288615,124.643717 125.648784,113.821426 126.824674,105.694273 C128.000563,97.5671209 130.522636,81.0879902 134.390893,56.256881 C132.452585,53.079988 128.834346,51.1890112 123.536177,50.5839505 C118.238007,49.9788899 114.086286,49.5710616 111.081012,49.3604655 Z" id="Path-88" fill="#26234A" fill-rule="nonzero"></path>
                    <path d="M122.888724,68.3686802 L130.754942,74.8615755 L129.523979,83.756744 C127.180454,100.931467 125.954019,111.510644 125.844674,115.494273 C125.730533,119.652578 126.517965,126.086455 128.206969,134.795904 L101.88,130.25614 L99.6448571,128.161754 L99.6511091,125.108379 L99.6511091,125.108379 L99.6531931,122.049527 C99.6531931,121.62341 99.6576921,121.181308 99.6666901,120.72322 L122.888724,101.616318 L122.888724,68.3686802 Z" id="Path" fill="#15113B" fill-rule="nonzero"></path>
                    <path d="M110.683545,50.3870826 L111.032305,49.4961985 C111.783066,49.5287348 112.524604,49.5646522 113.256922,49.6039505 L117.654185,63.7075623 L110.437353,69.6760809 L115.296663,76.1064323 L99.4805606,119.284114 L99.515151,118.060957 C99.5286006,117.642769 99.5439697,117.214113 99.5612583,116.774988 L99.6531931,115.066748 C100.295015,103.854378 101.307385,90.4638035 103.674543,75.008395 C104.776166,67.8157878 107.1125,59.6086836 110.683545,50.3870826 L111.032305,49.4961985 L110.683545,50.3870826 Z" id="Path" fill="#FFD343" fill-rule="nonzero"></path>
                    <path d="M89.1443296,49.4636333 C81.7409923,75.1480816 77.4260606,92.3969386 76.1995346,101.210204 C74.9730085,110.02347 74.1819068,125.155214 73.8262293,146.605437 C64.1372206,142.812067 58.3314831,139.86899 56.4090168,137.776204 C54.4865504,135.683419 59.1236649,106.741941 70.3203602,50.9517698 C71.5751615,50.2149605 73.5348862,49.6845257 76.1995346,49.3604655 C78.8641829,49.0364053 83.1791146,49.0707946 89.1443296,49.4636333 Z" id="Path-89" fill="#26234A" fill-rule="nonzero"></path>
                    <g id="Group-12" transform="translate(0.000000, 23.520000)">
                        <path d="M21.6776392,29.7938644 L15.001187,34.6043891 L14.7024443,34.0692855 C13.6261488,32.1905501 12.7598935,31.2282389 12.1036783,31.1823518 C11.0298715,31.1072639 1.02683033,20.5559844 0.301455124,15.2391476 C-0.423920084,9.92231073 3.92799319,0.804524054 4.71912419,0.511009853 C5.66798061,0.158978605 8.9851013,4.83907241 14.6704863,14.5512913 L14.7727424,13.7712514 C15.5490724,8.0499565 16.537098,5.2312554 17.7368194,5.31514809 C19.5802373,5.44405243 18.8752074,14.0518329 19.2779564,15.6717323 L19.3029528,15.7588441 C19.7593263,17.1250355 19.2044094,21.4539522 19.6502596,22.9985822 L20.4179632,25.5968273 C20.7500958,26.7094575 21.1699878,28.1084699 21.6776392,29.7938644 Z" id="Path-20" fill="#FFB294"></path>
                        <path d="M21.3489472,26.1657937 C22.2902946,26.4492894 34.0894488,43.3163508 43.9317541,57.2049911 L45.3111535,55.3459247 C60.0121289,35.6226597 69.3494973,26.0306924 73.3232589,26.5700228 C75.6114075,26.880577 71.6540903,44.0075185 64.572941,57.2049911 C58.1652937,69.1472261 49.1160992,77.0214598 46.9560588,78.352152 C40.06681,82.5962716 36.7290612,78.352152 31.8769125,71.7908786 L31.4088664,71.1440344 C26.0348272,63.5789265 10.2762267,37.2597255 10.3845688,34.6583492 C10.3957025,34.4058154 20.4075999,25.882298 21.3489472,26.1657937 Z" id="Path" fill="#26234A" fill-rule="nonzero"></path>
                        <path d="M64.572941,57.2049911 C58.1652937,69.1472261 49.1160992,77.0214598 46.9560588,78.352152 C44.0902275,80.1176465 41.8389633,80.4142989 39.8376023,79.6863288 L67.6802506,50.7800749 C66.7228129,52.9688624 65.6822081,55.1375975 64.572941,57.2049911 Z" id="Path" fill="#15113B" fill-rule="nonzero"></path>
                    </g>
                    <g id="Group-21" transform="translate(129.278947, 102.977108) rotate(25.000000) translate(-129.278947, -102.977108) translate(100.778947, 56.977108)">
                        <path d="M12.9837537,0.96181766 C19.5005011,5.35968129 60.5355428,28.4586351 56.1887043,40.3033936 C52.7455364,49.6857279 30.7620149,73.6680448 29.7218591,74.720515 C29.1752236,75.2736221 26.5602792,75.1531174 26.3717549,75.2628071 C26.2015491,75.3618385 26.2380446,76.1449322 24.8398235,75.5784213 C21.8928975,74.3844286 19.8072925,72.979928 19.0449064,72.3155314 C18.7641588,72.0708683 19.1217188,71.3830052 18.9742257,70.9482497 C18.7211929,70.2024019 17.7530558,68.526858 17.6638173,65.4916991 C17.5745787,62.4565402 36.948329,41.5275649 36.948329,39.5994206 C36.948329,38.3139911 28.6923728,33.6783616 19.6988615,27.7134229 C10.7053501,21.7484843 3.507159,11.5889246 4.19415014,5.79155922 C5.12424897,-2.05733794 12.5010317,0.636049984 12.9837537,0.96181766 Z" id="Path" fill="#26234A" fill-rule="nonzero"></path>
                        <path d="M56.1887043,40.3033936 C52.7455364,49.6857279 30.7620149,73.6680448 29.7218591,74.720515 C29.1752236,75.2736221 26.5602792,75.1531174 26.3717549,75.2628071 C26.2015491,75.3618385 26.2380446,76.1449322 24.8398235,75.5784213 L24.731705,75.5334737 L56.4476367,39.2906968 C56.3952155,39.6365216 56.3094759,39.9743014 56.1887043,40.3033936 Z" id="Path" fill-opacity="0.270405376" fill="#000000" fill-rule="nonzero"></path>
                        <path d="M24.5860856,69.2427995 C28.8124058,71.8226405 26.2164363,75.5688033 25.2387358,76.7076228 C24.2610354,77.8464424 21.6952075,80.2670112 20.2118737,80.6981025 C19.2229845,80.9854967 18.646501,80.5892891 18.4824233,79.5094797 C17.7337299,81.3716211 16.883822,82.4946114 15.9326996,82.8784507 C14.9815772,83.2622899 14.196086,82.7806652 13.576226,81.4335764 L13.2017818,82.033417 C11.3632057,84.934242 10.0293065,86.3593995 9.20008412,86.3088896 C8.31558026,86.2550123 8.02551575,85.1428615 8.32989058,82.9724371 L7.87031618,83.5456672 C6.98221475,84.6421347 6.28039758,85.4386461 5.76486468,85.9352016 L5.63986238,86.0530913 C3.11567333,88.3797013 2.76818226,90.5479138 0.848771282,91.1427968 C-1.85641877,91.9812163 4.68601377,81.4071934 6.24728117,79.2705529 L6.36409517,79.1143464 C7.67674576,77.4094642 9.50525545,74.6762931 11.3779988,72.8815456 C12.7952206,71.5233482 18.8927765,68.4892159 20.5885569,68.1885319 C22.2843373,67.8878478 23.5580857,68.6152852 24.5860856,69.2427995 Z" id="Path-36" fill="#FFB294"></path>
                    </g>
                    <path d="M89.1443296,49.4636333 L88.0569921,54.2085336 C81.3172201,83.7037116 77.3647343,102.637602 76.1995346,111.010204 L76.077357,111.920124 C76.0572399,112.075345 76.0372458,112.23235 76.0173746,112.391139 L74.7772051,73.7211357 L81.2342565,67.4376243 L76.2853414,60.7518045 L86.8964502,49.3283228 C87.6177212,49.3673398 88.3670144,49.4124433 89.1443296,49.4636333 Z" id="Path" fill="#FFD343" fill-rule="nonzero"></path>
                </g>
                <g id="Group-19" transform="translate(256.000000, 266.000000)" fill-rule="nonzero">
                    <path d="M256.76,0 C272.997172,0 286.16,13.1628284 286.16,29.4 L286.16,107.8 C286.16,124.037172 272.997172,137.2 256.76,137.2 L29.4,137.2 C13.1628284,137.2 0,124.037172 0,107.8 L0,29.4 C0,13.1628284 13.1628284,0 29.4,0 L256.76,0 Z M215.6,6.86 L69.58,6.86 C55.1126801,6.86 43.3572076,18.4707993 43.1235449,32.8824355 L43.12,33.32 L43.12,103.88 C43.12,118.34732 54.7307993,130.102792 69.1424355,130.336455 L69.58,130.34 L215.6,130.34 C230.06732,130.34 241.822792,118.729201 242.056455,104.317564 L242.06,103.88 L242.06,33.32 C242.06,18.8526801 230.449201,7.0972076 216.037564,6.86354488 L215.6,6.86 Z" id="Shape" fill="#383458"></path>
                    <path d="M220.5,0 C236.737172,0 249.9,13.1628284 249.9,29.4 L249.9,107.8 C249.9,124.037172 236.737172,137.2 220.5,137.2 L29.4,137.2 C13.1628284,137.2 0,124.037172 0,107.8 L0,29.4 C0,13.1628284 13.1628284,0 29.4,0 L220.5,0 Z M215.6,6.86 L69.58,6.86 C55.1126801,6.86 43.3572076,18.4707993 43.1235449,32.8824355 L43.12,33.32 L43.12,103.88 C43.12,118.34732 54.7307993,130.102792 69.1424355,130.336455 L69.58,130.34 L215.6,130.34 C230.06732,130.34 241.822792,118.729201 242.056455,104.317564 L242.06,103.88 L242.06,33.32 C242.06,18.7065455 230.213454,6.86 215.6,6.86 Z" id="Shape" fill="#514E6D"></path>
                    <path d="M43.1235449,32.8824355 L43.12,33.32 L43.12,103.88 C43.12,118.34732 54.7307993,130.102792 69.1424355,130.336455 L69.58,130.34 L34.3,130.34 C19.6865455,130.34 7.84,118.493454 7.84,103.88 L7.84,33.32 C7.84,18.7065455 19.6865455,6.86 34.3,6.86 L69.58,6.86 C55.2573533,6.86 43.5925882,18.2397444 43.1340025,32.4509355 L43.1235449,32.8824355 L43.1235449,32.8824355 Z" id="Path" fill="#383458"></path>
                </g>
                <g id="Group-35" transform="translate(530.000000, 307.000000)" fill-rule="nonzero">
                    <g id="Group-34">
                        <path d="M6.468,65.66 L37.828,65.66 L35.5848047,95.5692706 C35.5234403,96.3874627 34.8416862,97.02 34.0211962,97.02 L10.2748038,97.02 C9.45431382,97.02 8.7725597,96.3874627 8.7111953,95.5692706 L6.468,65.66 Z" id="Rectangle" fill="#26234A"></path>
                        <g id="Group-42">
                            <g id="Group-41" transform="translate(30.267614, 40.582431) rotate(13.000000) translate(-30.267614, -40.582431) translate(22.267614, 7.582431)">
                                <path d="M7.93858026,0 C11.0696803,7.94608067 13.4510803,17.343421 15.0827803,28.192021 C16.7144803,39.040621 15.8324803,51.3404807 12.4367803,65.0916 L3.44038026,65.0916 C0.0446802632,51.3404807 -0.837319737,39.040621 0.794380263,28.192021 C2.42608026,17.343421 4.80748026,7.94608067 7.93858026,0 Z" id="Rectangle" fill="#09D5B0"></path>
                                <path d="M7.67398026,8.9964 C10.1786772,15.4566282 12.0836579,23.0967423 13.3889225,31.9167423 C14.6941871,40.7367423 13.9886387,51.7950282 11.2722772,65.0916 L4.0756833,65.0916 C1.35932186,51.7950282 0.653773436,40.7367423 1.95903802,31.9167423 C3.26430261,23.0967423 5.16928336,15.4566282 7.67398026,8.9964 Z" id="Rectangle" fill="#8EECDB"></path>
                            </g>
                            <g id="Group-41" transform="translate(12.641355, 0.000000)">
                                <path d="M8.82064474,0 C12.2996447,8.82897853 14.9456447,19.2704678 16.7586447,31.3244678 C18.5716447,43.3784678 17.5916447,57.0449785 13.8186447,72.324 L3.82264474,72.324 C0.0496447368,57.0449785 -0.930355263,43.3784678 0.882644737,31.3244678 C2.69564474,19.2704678 5.34164474,8.82897853 8.82064474,0 Z" id="Rectangle" fill="#09D5B0"></path>
                                <path d="M8.52664474,9.996 C11.3096413,17.1740313 13.4262866,25.663047 14.8765806,35.463047 C16.3268745,45.263047 15.5429319,57.5500313 12.5247525,72.324 L4.528537,72.324 C1.51035762,57.5500313 0.726414929,45.263047 2.17670891,35.463047 C3.6270029,25.663047 5.74364817,17.1740313 8.52664474,9.996 Z" id="Rectangle" fill="#8EECDB"></path>
                            </g>
                            <g id="Group-41" transform="translate(13.947080, 40.678726) rotate(-10.000000) translate(-13.947080, -40.678726) translate(5.947080, 7.678726)">
                                <path d="M7.93858026,0 C11.0696803,7.94608067 13.4510803,17.343421 15.0827803,28.192021 C16.7144803,39.040621 15.8324803,51.3404807 12.4367803,65.0916 L3.44038026,65.0916 C0.0446802632,51.3404807 -0.837319737,39.040621 0.794380263,28.192021 C2.42608026,17.343421 4.80748026,7.94608067 7.93858026,0 Z" id="Rectangle" fill="#09D5B0"></path>
                                <path d="M7.67398026,8.9964 C10.1786772,15.4566282 12.0836579,23.0967423 13.3889225,31.9167423 C14.6941871,40.7367423 13.9886387,51.7950282 11.2722772,65.0916 L4.0756833,65.0916 C1.35932186,51.7950282 0.653773436,40.7367423 1.95903802,31.9167423 C3.26430261,23.0967423 5.16928336,15.4566282 7.67398026,8.9964 Z" id="Rectangle" fill="#8EECDB"></path>
                            </g>
                        </g>
                        <path d="M6.468,65.66 L37.828,65.66 C38.6939825,65.66 39.396,66.3620175 39.396,67.228 L39.396,73.5 C39.396,74.3659825 38.6939825,75.068 37.828,75.068 L6.468,75.068 C5.60201751,75.068 4.9,74.3659825 4.9,73.5 L4.9,67.228 C4.9,66.3620175 5.60201751,65.66 6.468,65.66 Z" id="Rectangle" fill="#514E6D"></path>
                    </g>
                </g>
                <g id="Group-35" transform="translate(481.000000, 220.000000)" fill-rule="nonzero">
                    <g id="Group-34" transform="translate(0.000000, 0.098000)">
                        <path d="M4.0176,27.44 L25.9696,27.44 L23.4740778,45.5046008 C23.3990666,46.0475924 22.9349518,46.452 22.3868035,46.452 L7.60039651,46.452 C7.05224819,46.452 6.58813338,46.0475924 6.51312217,45.5046008 L4.0176,27.44 Z" id="Rectangle" fill="#26234A"></path>
                        <g id="Group-36" fill="#09D5B0">
                            <path d="M9.26880369,31.9624853 C8.17562283,28.9274442 7.15230655,26.3693209 6.19885484,24.2881153 L5.99561311,23.8494424 C4.98475126,21.6925769 3.28494305,18.4420702 0.896188484,14.0979224 L1.69926892,14.8150653 C5.22561575,17.9933549 7.57050802,20.5121234 8.73394573,22.3713706 C9.98356401,24.3683399 11.2263506,27.3413327 12.4623055,31.290349 L9.26880369,31.9624853 Z" id="Path-155"></path>
                            <path d="M10.7700017,27.8879563 C9.72257626,24.281153 8.66481051,21.078729 7.59670445,18.2806842 C6.52859839,15.4826395 4.78133528,11.5201071 2.35491511,6.39308702 C6.73044175,11.0232221 9.64055666,14.6797464 11.0852598,17.3626599 C12.529963,20.0455734 13.9437956,23.5540055 15.3267577,27.8879563 L10.7700017,27.8879563 Z" id="Path-156"></path>
                            <path d="M18.8649896,27.8879563 C19.9776067,25.08452 20.962019,22.9491288 21.8182268,21.4817828 C22.6744346,20.0144368 24.1820568,17.8790457 26.3410934,15.0756094 C24.9349717,18.4448977 23.9670646,20.9819371 23.437372,22.6867274 C22.9076795,24.3915177 22.5486189,26.1252607 22.3601903,27.8879563 L18.8649896,27.8879563 Z" id="Path-170"></path>
                            <path d="M15.9117524,27.8879563 C17.4872517,22.5168792 18.6692974,18.4260747 19.4578896,15.6155429 C20.2464819,12.805011 21.4285276,9.87895125 23.0040268,6.83736351 C22.2865734,10.5355677 21.7465919,13.676649 21.3840823,16.2606075 C21.0215727,18.8445659 20.5771418,22.7203488 20.0507896,27.8879563 L15.9117524,27.8879563 Z" id="Path-163"></path>
                            <path d="M14.5827385,27.8879563 C14.048847,21.7375742 13.7546171,17.0895815 13.7000488,13.9439781 C13.6454806,10.7983748 13.7784486,6.15038205 14.098953,0 C15.5498063,5.47382937 16.5053795,9.82395469 16.9656728,13.050376 C17.425966,16.2767972 17.7965926,21.2226574 18.0775524,27.8879563 L14.5827385,27.8879563 Z" id="Path-157"></path>
                        </g>
                        <path d="M4.0176,27.44 L25.9696,27.44 C26.5757877,27.44 27.0672,27.9314123 27.0672,28.5376 L27.0672,31.948 C27.0672,32.5541877 26.5757877,33.0456 25.9696,33.0456 L4.0176,33.0456 C3.41141226,33.0456 2.92,32.5541877 2.92,31.948 L2.92,28.5376 C2.92,27.9314123 3.41141226,27.44 4.0176,27.44 Z" id="Rectangle" fill="#514E6D"></path>
                    </g>
                </g>
                <g id="Group-22" transform="translate(339.000000, 218.000000)" fill-rule="nonzero">
                    <path d="M6.5028096,45.5196672 L113.46487,45.5196672 C113.913796,45.5196672 114.277722,45.8835931 114.277722,46.3325184 L114.277722,47.7218225 C114.277722,48.1707479 113.913796,48.5346737 113.46487,48.5346737 L6.5028096,48.5346737 C6.05388428,48.5346737 5.6899584,48.1707479 5.6899584,47.7218225 L5.6899584,46.3325184 C5.6899584,45.8835931 6.05388428,45.5196672 6.5028096,45.5196672 Z" id="Rectangle" fill="#09D5B0"></path>
                    <path d="M78.0337152,45.5196672 L113.46487,45.5196672 C113.913796,45.5196672 114.277722,45.8835931 114.277722,46.3325184 L114.277722,47.7218225 C114.277722,48.1707479 113.913796,48.5346737 113.46487,48.5346737 L78.0337152,48.5346737 C77.5847899,48.5346737 77.220864,48.1707479 77.220864,47.7218225 L77.220864,46.3325184 C77.220864,45.8835931 77.5847899,45.5196672 78.0337152,45.5196672 Z" id="Rectangle" fill="#09D5B0"></path>
                    <path d="M4.45464845,0 L70.2923406,0 C72.2645776,0 73.9297186,1.46529022 74.1805167,3.42151588 L79.0279172,41.2312393 C79.3032224,43.3786197 77.7856056,45.3425943 75.6382252,45.6178995 C75.4729093,45.6390939 75.30641,45.6497234 75.1397411,45.6497234 L9.30204888,45.6497234 C7.32981195,45.6497234 5.66467092,44.1844332 5.41387276,42.2282075 L0.566472323,4.41848412 C0.291167146,2.27110374 1.80878395,0.307129051 3.95616433,0.0318238744 C4.1214802,0.0106295317 4.2879795,0 4.45464845,0 Z" id="Rectangle" fill="#09D5B0"></path>
                    <path d="M4.45464845,0 L67.9513292,0 C69.9235661,0 71.5887071,1.46529022 71.8395053,3.42151588 L76.6869057,41.2312393 C76.9622109,43.3786197 75.4445941,45.3425943 73.2972137,45.6178995 C73.1318978,45.6390939 72.9653985,45.6497234 72.7987296,45.6497234 L9.30204888,45.6497234 C7.32981195,45.6497234 5.66467092,44.1844332 5.41387276,42.2282075 L0.566472323,4.41848412 C0.291167146,2.27110374 1.80878395,0.307129051 3.95616433,0.0318238744 C4.1214802,0.0106295317 4.2879795,0 4.45464845,0 Z" id="Rectangle" fill="#8EECDB"></path>
                    <path d="M40.4816685,28.6974536 C42.5357335,27.1496047 42.8320317,24.0782993 41.1434692,21.8375012 C39.4549067,19.596703 36.4209077,19.0349567 34.3668427,20.5828057 C32.3127777,22.1306547 32.0164794,25.20196 33.705042,27.4427582 C35.3936045,29.6835563 38.4276035,30.2453026 40.4816685,28.6974536 Z" id="Oval" fill="#09D5B0"></path>
                </g>
                <path d="M408,34 L535,34 C537.209139,34 539,35.790861 539,38 L539,104 C539,106.209139 537.209139,108 535,108 L417.764719,108 L411.295035,117.400386 C410.042585,119.220184 407.552036,119.68011 405.732238,118.42766 C404.647776,117.681294 404,116.449105 404,115.132625 L404,38 C404,35.790861 405.790861,34 408,34 Z" id="Rectangle" fill-opacity="0.100551792" fill="#09D5B0" fill-rule="nonzero"></path>
                <g id="Group-51" transform="translate(416.000000, 49.000000)">
                    <g id="Group-37">
                        <path d="M5.6,4.2 L112.35,4.2 C113.123199,4.2 113.75,4.82680135 113.75,5.6 L113.75,43.05 C113.75,43.8231986 113.123199,44.45 112.35,44.45 L5.6,44.45 C4.82680135,44.45 4.2,43.8231986 4.2,43.05 L4.2,5.6 C4.2,4.82680135 4.82680135,4.2 5.6,4.2 Z" id="Rectangle" fill-opacity="0.401742788" fill="#09D5B0" fill-rule="nonzero"></path>
                        <path d="M1.4,0 L108.15,0 C108.923199,0 109.55,0.62680135 109.55,1.4 L109.55,38.85 C109.55,39.6231986 108.923199,40.25 108.15,40.25 L1.4,40.25 C0.62680135,40.25 0,39.6231986 0,38.85 L0,1.4 C0,0.62680135 0.62680135,0 1.4,0 Z" id="Rectangle" stroke-opacity="0.401742788" stroke="#09D5B0" stroke-width="0.7" fill="#FFFFFF" fill-rule="nonzero"></path>
                        <polygon id="Rectangle" fill="#FFD343" points="89.6 1.05 92.05 1.05 92.05 11.2 89.6 11.2"></polygon>
                        <polygon id="Rectangle" fill="#FFD343" points="89.6 15.05 92.05 15.05 92.05 39.2 89.6 39.2"></polygon>
                        <g id="Group-14" transform="translate(47.600000, 9.800000)">
                            <path d="M42.9578196,1.53410879 C46.7071349,1.53410879 49.0518881,2.89670406 51.1464852,5.57143579 L51.4461872,5.96606686 L51.4461872,5.96606686 L51.6164179,6.19982145 L52.5661909,7.5219464 L52.658946,7.64653617 C53.3851438,8.60811161 53.8492378,8.96767305 54.4059099,9.00886208 L54.5726199,9.01395622 C55.3256096,9.04235439 55.9273338,9.66175157 55.9273338,10.421689 C55.9273338,11.1997201 55.2966149,11.830439 54.5185838,11.830439 C52.8578969,11.830439 51.7362317,11.0581363 50.5159261,9.48216833 L50.297965,9.19327339 L50.297965,9.19327339 L49.6000295,8.22135759 L49.1517724,7.60178935 L49.0231315,7.43106087 C47.3923237,5.30179993 45.7959381,4.35160879 42.9578196,4.35160879 C41.1317958,4.35160879 39.8609211,4.93728545 38.8081286,6.12076585 C38.1188298,6.89563046 37.6163341,7.73381278 36.8821415,9.31390915 L36.480915,10.1978425 L35.9647868,11.3676229 C34.8352292,13.908594 34.13854,15.1569963 33.0008305,16.4041202 C31.3415795,18.2229426 29.2005008,19.180439 26.41398,19.180439 C24.4282951,19.180439 22.7599722,18.715482 21.2697905,17.8210722 C20.304031,17.2414215 19.5762786,16.6278007 18.5244535,15.5650811 L18.0139379,15.0411948 L17.517617,14.5265028 L17.061423,14.0687857 C15.2932638,12.3361621 14.1642335,11.7660239 12.2244364,11.7660239 C9.96037903,11.7660239 8.39793891,12.6965592 6.71050469,14.6974242 L6.49886461,14.9531171 C6.48541103,14.9696664 5.13341405,16.734865 4.49236998,17.4843804 L4.35307787,17.643504 L4.29851973,17.702725 C3.40187181,18.6530211 2.50547926,19.180439 1.40875,19.180439 C0.630718859,19.180439 -1.27897692e-13,18.5497201 -1.27897692e-13,17.771689 C-1.27897692e-13,17.0394244 0.558699058,16.4376509 1.27307797,16.3693878 L1.42897476,16.362197 C1.57793089,16.35145 1.79959778,16.2226134 2.13366715,15.8883034 L2.27534077,15.7409446 L2.41700151,15.577929 C2.55491112,15.4144367 2.73841501,15.1872737 2.9371142,14.9372719 L3.42760296,14.3143232 L4.28283584,13.2135551 L4.40526092,13.0626809 C6.62914358,10.3645218 8.91424865,8.94852388 12.2244364,8.94852388 C13.9571372,8.94852388 15.4315403,9.37750104 16.7700649,10.2035401 C17.5759633,10.7008813 18.2064457,11.2267653 19.0806818,12.0983031 L19.3254682,12.3448034 L19.5385376,12.5627844 L20.2363403,13.2864545 L20.6666236,13.7230861 C21.4810357,14.5352146 22.0395057,14.9970225 22.719741,15.4053011 C23.7732161,16.0375989 24.9405766,16.362939 26.41398,16.362939 C28.4033179,16.362939 29.7906006,15.7425423 30.9193426,14.5052483 C31.6968014,13.6530207 32.2542056,12.7111145 33.0809696,10.9085113 L33.4045883,10.190684 L33.922065,9.01788784 C35.0021434,6.59390023 35.6466557,5.43560993 36.7030184,4.24811613 C38.283835,2.47106555 40.3169613,1.53410879 42.9578196,1.53410879 Z M43.226074,1.715 C42.5495251,1.715 42.001074,2.26345118 42.001074,2.94 C42.001074,3.61654882 42.5495251,4.165 43.226074,4.165 C43.9026228,4.165 44.451074,3.61654882 44.451074,2.94 C44.451074,2.26345118 43.9026228,1.715 43.226074,1.715 Z" id="Shape" fill="#09D5B0"></path>
                            <path d="M43.103574,0 C44.6596362,0 45.921074,1.26143772 45.921074,2.8175 C45.921074,4.37356228 44.6596362,5.635 43.103574,5.635 C41.5475117,5.635 40.286074,4.37356228 40.286074,2.8175 C40.286074,1.26143772 41.5475117,0 43.103574,0 Z M43.103574,1.96 C42.6299898,1.96 42.246074,2.34391583 42.246074,2.8175 C42.246074,3.29108417 42.6299898,3.675 43.103574,3.675 C43.5771581,3.675 43.961074,3.29108417 43.961074,2.8175 C43.961074,2.34391583 43.5771581,1.96 43.103574,1.96 Z" id="Shape" fill="#15113B"></path>
                        </g>
                        <g id="Group-15" transform="translate(10.500000, 11.900000)">
                            <path d="M1.4,2.72892819e-13 L14.7,2.72892819e-13 C15.4731986,2.72892819e-13 16.1,0.62680135 16.1,1.4 L16.1,1.75 C16.1,2.52319865 15.4731986,3.15 14.7,3.15 L1.4,3.15 C0.62680135,3.15 1.81188398e-13,2.52319865 1.81188398e-13,1.75 L1.81188398e-13,1.4 C1.81188398e-13,0.62680135 0.62680135,2.72892819e-13 1.4,2.72892819e-13 Z" id="Rectangle" fill="#15113B"></path>
                            <path d="M1.4,7 L25.2,7 C25.9731986,7 26.6,7.62680135 26.6,8.4 L26.6,8.75 C26.6,9.52319865 25.9731986,10.15 25.2,10.15 L1.4,10.15 C0.62680135,10.15 1.81188398e-13,9.52319865 1.81188398e-13,8.75 L1.81188398e-13,8.4 C1.81188398e-13,7.62680135 0.62680135,7 1.4,7 Z" id="Rectangle" fill="#09D5B0"></path>
                            <path d="M1.4,14 L18.2,14 C18.9731986,14 19.6,14.6268014 19.6,15.4 L19.6,15.75 C19.6,16.5231986 18.9731986,17.15 18.2,17.15 L1.4,17.15 C0.62680135,17.15 1.81188398e-13,16.5231986 1.81188398e-13,15.75 L1.81188398e-13,15.4 C1.81188398e-13,14.6268014 0.62680135,14 1.4,14 Z" id="Rectangle" fill="#FFD343"></path>
                        </g>
                    </g>
                </g>
                <g id="Group-24" transform="translate(521.000000, 0.000000)">
                    <ellipse id="Oval" fill-opacity="0.401742788" fill="#09D5B0" fill-rule="nonzero" cx="33.2201087" cy="31.119" rx="28.6053261" ry="29.241"></ellipse>
                    <ellipse id="Oval" stroke-opacity="0.401742788" stroke="#09D5B0" stroke-width="0.7" fill="#FFFFFF" fill-rule="nonzero" cx="28.6053261" cy="29.241" rx="28.6053261" ry="29.241"></ellipse>
                    <g id="Group-2" transform="translate(8.400000, 9.000000)">
                        <g id="Group-18">
                            <g id="Group-17" transform="translate(8.184000, 7.997938)">
                                <path d="M11.1936,6.03961325e-14 C17.3756546,6.03961325e-14 22.3872,5.01154542 22.3872,11.1936 C22.3872,14.1600971 20.32045,19.5065199 16.1869501,27.2328685 C16.1256999,27.3473574 16.0160743,27.4260023 15.8910648,27.4490217 L15.814477,27.456 L14.03,27.456 L17.3425699,15.8251023 C17.4479823,15.4548439 17.4048111,15.0580703 17.2222355,14.7191467 C16.8350055,14.0003132 15.9383639,13.7314955 15.2195305,14.1187255 L13.597547,14.9924754 C13.5173031,15.0357021 13.4183809,15.0225739 13.3521896,14.9599134 L12.1455841,13.8176705 C11.5754791,13.277976 10.6829697,13.277976 10.1128647,13.8176705 L8.90625917,14.9599134 C8.84006787,15.0225739 8.74114567,15.0357021 8.66090179,14.9924754 L7.05817648,14.1290997 C6.7157526,13.9446386 6.31443089,13.9025491 5.94118728,14.011953 C5.15765547,14.2416191 4.7086586,15.0629783 4.93832471,15.8465101 L8.341,27.456 L6.53083883,27.456 C6.40064912,27.456 6.27931896,27.396117 6.20006571,27.2963193 L6.15782874,27.2318107 L5.64490864,26.2584684 C1.88163621,19.0553564 5.09814413e-13,14.0337336 5.09814413e-13,11.1936 C5.09814413e-13,5.01154542 5.01154542,6.03961325e-14 11.1936,6.03961325e-14 Z M11.2744186,14.737924 L12.4810241,15.8801669 C12.9443633,16.3187906 13.6368187,16.4106882 14.1985258,16.1081009 L15.8205093,15.234351 C15.9231998,15.1790324 16.0512914,15.217435 16.10661,15.3201255 C16.1326922,15.3685431 16.1388595,15.4252251 16.1238006,15.4781191 L12.713,27.456 L9.661,27.456 L6.15436171,15.4900696 C6.12155227,15.3781365 6.18569468,15.2607994 6.2976278,15.22799 C6.35094831,15.2123609 6.40827998,15.2183737 6.45719768,15.2447252 L8.059923,16.1081009 C8.62163012,16.4106882 9.31408552,16.3187906 9.77742464,15.8801669 L10.9840301,14.737924 C11.0654737,14.6608248 11.1929751,14.6608248 11.2744186,14.737924 Z" id="Shape" fill="#FFD343" fill-rule="nonzero"></path>
                                <path d="M15.2064,27.8784 C15.6729702,27.8784 16.0512,28.2566298 16.0512,28.7232 L16.0512,31.68 C16.0512,32.1465702 15.6729702,32.5248 15.2064,32.5248 L13.8310447,32.5256234 C13.2966697,33.2911748 12.4092219,33.792 11.4048,33.792 L10.9824,33.792 C9.97797813,33.792 9.09053026,33.2911748 8.55615531,32.5256234 L7.1808,32.5248 C6.71422984,32.5248 6.336,32.1465702 6.336,31.68 L6.336,28.7232 C6.336,28.2566298 6.71422984,27.8784 7.1808,27.8784 L15.2064,27.8784 Z" id="Path" fill="#15113B"></path>
                            </g>
                            <path d="M18.744,0.792 L18.744,5.35793833 C18.744,5.79534785 19.0985905,6.14993833 19.536,6.14993833 C19.9734095,6.14993833 20.328,5.79534785 20.328,5.35793833 L20.328,0.792 C20.328,0.354590478 19.9734095,0 19.536,0 C19.0985905,0 18.744,0.354590478 18.744,0.792 Z" id="Path-8" fill="#FFD343" fill-rule="nonzero"></path>
                            <path d="M10.5084,8.05113568 L7.22393885,4.8793684 C6.90929277,4.57551822 6.40790248,4.58427002 6.10405229,4.8989161 C5.80020211,5.21356217 5.80895391,5.71495246 6.12359999,6.01880265 L9.40806115,9.19056993 C9.72270723,9.49442011 10.2240975,9.48566831 10.5279477,9.17102223 C10.8317979,8.85637616 10.8230461,8.35498587 10.5084,8.05113568 Z" id="Path" fill="#FFD343" fill-rule="nonzero"></path>
                            <path d="M28.5636,8.05113568 L31.8480612,4.8793684 C32.1627072,4.57551822 32.6640975,4.58427002 32.9679477,4.8989161 C33.2717979,5.21356217 33.2630461,5.71495246 32.9484,6.01880265 L29.6639388,9.19056993 C29.3492928,9.49442011 28.8479025,9.48566831 28.5440523,9.17102223 C28.2402021,8.85637616 28.2489539,8.35498587 28.5636,8.05113568 Z" id="Path" fill="#FFD343" fill-rule="nonzero"></path>
                            <path d="M5.58296917,16.4069692 L1.01703083,16.4069692 C0.579621313,16.4069692 0.225030835,16.7615596 0.225030835,17.1989692 C0.225030835,17.6363787 0.579621313,17.9909692 1.01703083,17.9909692 L5.58296917,17.9909692 C6.02037869,17.9909692 6.37496917,17.6363787 6.37496917,17.1989692 C6.37496917,16.7615596 6.02037869,16.4069692 5.58296917,16.4069692 Z" id="Path" fill="#FFD343" fill-rule="nonzero"></path>
                            <path d="M38.0549692,16.4069692 L33.4890308,16.4069692 C33.0516213,16.4069692 32.6970308,16.7615596 32.6970308,17.1989692 C32.6970308,17.6363787 33.0516213,17.9909692 33.4890308,17.9909692 L38.0549692,17.9909692 C38.4923787,17.9909692 38.8469692,17.6363787 38.8469692,17.1989692 C38.8469692,16.7615596 38.4923787,16.4069692 38.0549692,16.4069692 Z" id="Path" fill="#FFD343" fill-rule="nonzero"></path>
                        </g>
                    </g>
                </g>
                <g id="Group-48" transform="translate(319.000000, 237.000000)" fill-rule="nonzero">
                    <path d="M0.882,1.764 L18.522,1.764 L16.8096864,29.1610176 C16.7806336,29.6258624 16.3951558,29.988 15.929404,29.988 L3.47459598,29.988 C3.00884416,29.988 2.6233664,29.6258624 2.5943136,29.1610176 L0.882,1.764 Z" id="Rectangle" fill="#383458"></path>
                    <path d="M1.81946652,9.702 L17.5864026,9.702 C18.0360474,9.702 18.4071054,10.0384699 18.4615306,10.4733638 L18.4680194,10.6099971 L18.4680194,10.6099971 L17.8941864,20.3379717 C17.8666727,20.8040893 17.4806479,21.168 17.013719,21.168 L2.41154864,21.168 C1.9452976,21.168 1.55958744,20.8051109 1.53118647,20.3397257 L0.939104354,10.6377257 C0.909432472,10.1515151 1.27953023,9.73330971 1.76574083,9.70363783 L1.81946652,9.702 L1.81946652,9.702 Z" id="Rectangle" fill="#514E6D"></path>
                    <path d="M15.876,0 L15.876,0.882 L18.522,0.882 C19.0091151,0.882 19.404,1.27688485 19.404,1.764 L19.404,3.528 L0,3.528 L0,1.764 C0,1.27688485 0.394884851,0.882 0.882,0.882 L3.527,0.882 L3.528,0 L15.876,0 Z" id="Path" fill="#514E6D"></path>
                </g>
                <g id="Group" transform="translate(76.500000, 238.000000) scale(-1, 1) translate(-76.500000, -238.000000) translate(0.000000, 61.000000)">
                    <g id="Group-13" transform="translate(70.080000, 0.000000)">
                        <path d="M11.8649409,43.4503566 L10.5095686,57.2833907 L27.1597055,57.2833907 C25.8753928,52.9879724 25.2332364,49.2974636 25.2332364,46.2118645 C25.2332364,41.5834659 33.596563,28.082717 33.596563,19.9408417 C33.596563,11.7989663 25.8049795,2.18682931 15.3117567,6.26714023 C4.81853388,10.3474512 4.26941752,18.7286844 4.26941752,22.7084486 C4.26941752,26.6882128 4.90515878,37.5083237 7.0650726,40.4793401 C8.50501514,42.4600178 10.1049712,43.4503566 11.8649409,43.4503566 Z" id="Path" fill="#C16F60"></path>
                        <g id="Group-10" transform="translate(4.840000, 21.120000)">
                            <path d="M14.3845655,19.3458969 C12.7315989,21.35017 11.4114813,22.7280276 10.4242127,23.4794696 C9.5559499,24.1403324 8.31511588,24.8614748 6.70171058,25.6428968 L7.01471058,22.4288969 L7.37661557,22.372893 C8.63826006,22.1610108 9.69475944,21.8724501 10.5461137,21.507211 C11.4920629,21.1013897 12.7715468,20.3809517 14.3845655,19.3458969 Z" id="Path" fill-opacity="0.0964543269" fill="#000000" fill-rule="nonzero"></path>
                            <g id="Group-16">
                                <path d="M1.67599239,5.77822619 C2.25337295,5.77822619 2.72143239,5.31016676 2.72143239,4.73278619 C2.72143239,4.15540563 2.25337295,3.68734619 1.67599239,3.68734619 C1.09861182,3.68734619 0.630552386,4.15540563 0.630552386,4.73278619 C0.630552386,5.31016676 1.09861182,5.77822619 1.67599239,5.77822619 Z" id="Oval" fill="#15113B"></path>
                                <path d="M10.1345524,5.77822619 C10.711933,5.77822619 11.1799924,5.31016676 11.1799924,4.73278619 C11.1799924,4.15540563 10.711933,3.68734619 10.1345524,3.68734619 C9.55717182,3.68734619 9.08911239,4.15540563 9.08911239,4.73278619 C9.08911239,5.31016676 9.55717182,5.77822619 10.1345524,5.77822619 Z" id="Oval" fill="#15113B"></path>
                                <path d="M4.60929774,14.2649252 L9.7984987,12.9887086 C10.0558935,12.9255129 10.3158452,13.0828403 10.379142,13.3402103 C10.4046584,13.4439617 10.3948219,13.5532613 10.3511914,13.6507898 C9.84742321,14.7768778 8.9806096,15.5359729 7.75075059,15.9280752 C5.97628631,16.4938079 4.82059459,16.1585506 4.28367544,14.9223033 C4.1780088,14.6791435 4.28952673,14.3963866 4.53270805,14.2907696 L4.60929774,14.2649252 L4.60929774,14.2649252 Z" id="Path-98" fill="#904B3D"></path>
                                <path d="M4.39611347,2.37713639 C4.87470481,3.01848769 4.97096588,3.62493978 4.68489667,4.19649267 C4.25579286,5.053822 2.13166592,9.57503697 2.47573068,10.2517283 C2.70510719,10.7028558 3.44149585,10.8767771 4.68489667,10.773492" id="Path-95" stroke="#4D3544" stroke-width="0.627264" stroke-linecap="round"></path>
                                <path d="M2.89659204,1.38330167 C2.77844892,1.35790207 2.66049585,1.335 2.54273285,1.31459546 L2.89659204,1.38330167 Z" id="Path-97" stroke="#4D3544" stroke-width="0.627264" stroke-linecap="round"></path>
                            </g>
                        </g>
                        <path d="M4.26941752,26.9824583 C3.0126369,23.8968481 2.38424658,21.5259196 2.38424658,19.8696729 C2.38424658,17.3853028 1.95399252e-13,16.0854515 1.95399252e-13,12.5297242 C1.95399252e-13,10.1592394 1.82318513,8.05335822 5.4695554,6.21208064 C6.28126827,2.94121919 7.84742255,0.941674118 10.1680182,0.213445419 C13.6489118,-0.878897629 15.5116512,2.57688457 17.2223207,2.57688457 C18.9329902,2.57688457 26.7497593,0.641256621 28.9159423,2.57688457 C31.0821253,4.51251251 29.7105838,5.09165255 31.0821253,6.21208064 C32.4536667,7.33250873 35.5183693,8.30839136 36.2712402,10.0924516 C37.024111,11.8765118 35.0603653,15.2437703 35.3959716,17.3969965 C35.7315779,19.5502227 37.6417142,21.5790296 36.9564772,24.280744 C36.2712402,26.9824583 33.7786123,28.8033676 32.9919953,30.7796686 C32.2053783,32.7559696 33.2483083,36.6118355 31.0821253,36.9601703 C29.6380033,37.1923934 28.7586705,37.0043662 28.444127,36.3960886 C31.5518967,27.8834144 32.1884428,22.7562868 30.3537654,21.0147059 C27.6017492,18.4023347 27.2630553,25.0217123 26.0583286,25.0217123 C24.8536019,25.0217123 26.0954155,18.5282061 24.0170457,18.5282061 C21.9386759,18.5282061 20.2821911,18.8991642 18.5518598,17.9145133 C16.8215286,16.9298625 17.2223207,14.4724663 14.973057,14.0952492 C12.7237932,13.718032 11.5485386,15.3424364 9.46379669,14.4724663 C7.37905479,13.6024963 5.93491053,16.1482949 5.4695554,17.3969965 C5.15931864,18.2294642 4.75927268,21.4246182 4.26941752,26.9824583 Z" id="Path-3" fill="#26234A" fill-rule="nonzero"></path>
                    </g>
                    <polygon id="Path-8" fill="#C16F60" points="53.3683658 326.169561 50.6887904 340.879044 40.1939527 340.879044 40.1939527 326.169561"></polygon>
                    <polygon id="Path-10" fill="#C16F60" points="117.542658 325.241289 117.542658 343.563442 106.669461 343.563442 103.808669 325.241289"></polygon>
                    <path d="M55.737794,147.488173 L40.4673834,246.038344 L38.5473834,333.103626 L53.7556367,333.103626 L64.2215618,249.117792 L79.8577953,190.678956 L94.1169703,251.798344 L102.758818,335.292771 L118.391923,335.292771 L117.049163,246.219695 L108.11246,145.619116 C101.835856,148.101798 94.5296379,149.758038 86.1938057,150.587835 C77.8579736,151.417632 67.7059697,150.384411 55.737794,147.488173 Z" id="Path-4" fill="#15113B" fill-rule="nonzero"></path>
                    <g id="Group-19" transform="translate(52.800000, 144.960000)" fill-rule="nonzero">
                        <path d="M55.348014,0.659115653 L56.5586131,14.2865124 C50.6998732,16.2375823 44.3388533,17.2957696 37.4755536,17.4610743 C25.207914,17.7565443 13.4719728,14.2969138 2.26772996,7.08218273 L2.97334764,2.52817283 C14.9415233,5.42441093 25.0935272,6.45763162 33.4293593,5.6278349 C41.4564569,4.82877139 48.528796,3.26334919 54.6463764,0.931568294 L55.348014,0.659115653 Z" id="Path" fill="#383458"></path>
                        <polygon id="Path" fill-opacity="0.270405376" fill="#000000" points="27.0577953 45.7189563 11.4215618 104.157792 0.955636701 188.143626 0.26688 188.142956 7.37526971 98.8708089"></polygon>
                    </g>
                    <path d="M53.8286699,169.475675 L61.4776139,162.79338 C61.6772556,162.618969 61.6977087,162.315738 61.523297,162.116097 C61.3488853,161.916455 61.0456552,161.896002 60.8460134,162.070413 L53.1970694,168.752708 C52.9974277,168.92712 52.9769747,169.23035 53.1513863,169.429992 C53.325798,169.629634 53.6290282,169.650087 53.8286699,169.475675 Z" id="Path-12" fill="#FFD343" fill-rule="nonzero"></path>
                    <path d="M101.825954,163.269838 L108.932802,169.192003 C109.136457,169.36171 109.439128,169.334189 109.608835,169.130533 C109.778542,168.926877 109.751022,168.624207 109.547366,168.454499 L102.440518,162.532335 C102.236862,162.362628 101.934192,162.390148 101.764485,162.593804 C101.594777,162.79746 101.622298,163.100131 101.825954,163.269838 Z" id="Path-13" fill="#FFD343" fill-rule="nonzero"></path>
                    <path d="M87.0377215,55.1857764 C90.5012199,55.1857764 93.9340937,53.9477259 97.336343,51.471625 C108.38446,51.1551738 116.049176,52.3932243 120.330492,55.1857764 C121.288017,55.8103361 122.020488,56.7469266 122.527907,57.995548 L119.637346,85.3985419 C112.72885,121.875284 109.274601,141.8308 109.274601,145.265089 C109.274601,150.416522 88.3165016,158.208248 75.9885622,156.73541 C63.6606228,155.262572 55.002645,151.003511 54.3286208,146.605011 C53.6545967,142.206512 50.2270401,142.086153 49.2125056,136.782914 C48.5361493,133.247421 50.5651326,113.420489 55.2994557,77.3021176 L59.7885977,53.6752505 C61.8696603,52.2761338 63.2704941,51.541592 63.9910993,51.471625 C67.266472,51.1536037 72.5252835,51.1536037 79.7675338,51.471625 C81.1508273,53.9477259 83.5742232,55.1857764 87.0377215,55.1857764 Z" id="Path-2" fill="#383458" fill-rule="nonzero"></path>
                    <path d="M120.238771,64.2474101 L118.524461,91.290267 L116.404974,102.615155 C114.01667,115.469386 112.228334,125.454045 111.039967,132.569134 C95.419055,134.261446 82.3858336,134.067163 71.9405482,131.985483 C60.7450896,129.754298 53.5048686,125.533669 50.2198853,119.323595 L50.2888622,118.659414 L50.2888622,118.659414 L97.3373852,102.351976 L109.274601,64.9993921 L120.238771,64.2474101 Z" id="Path" fill="#15113B" fill-rule="nonzero"></path>
                    <g id="Group-16" transform="translate(0.000000, 4.800000)">
                        <path d="M11.92929,26.5450511 C11.34196,23.9203147 10.6982805,22.6079465 9.99825171,22.6079465 C8.94820844,22.6079465 6.47657573,18.2331494 5.57112745,16.6652187 C4.66567918,15.097288 2.61840822,10.9378834 5.57112745,9.88053086 C8.52384668,8.82317831 10.6573905,8.52063716 10.6573905,8.08576835 C10.6573905,7.65089953 7.77891207,3.54169238 5.73973441,3.54169238 C3.70055676,3.54169238 -5.5067062e-14,1.89700049 -5.5067062e-14,0.49093577 C-5.5067062e-14,-0.915128952 6.26523309,1.10754056 8.56639032,1.48703192 C10.1004951,1.74002616 12.5310449,4.05116426 15.8580395,8.42044622 C17.5568065,4.26375005 19.2173044,1.9725799 20.8395332,1.54693577 C24.0777414,0.697287219 19.5244123,7.27772842 20.0965646,13.6839501 C20.4014335,17.0974776 17.409152,20.3263928 18.40619,22.0980748 C19.070882,23.2791961 19.6343402,24.3583149 20.0965646,25.335431 L11.92929,28.9313572 L11.92929,26.5450511 Z" id="Path-23" fill="#C16F60"></path>
                        <path d="M12.5773905,8.08576835 C14.0750125,12.5193124 15.0766072,14.8219491 15.5821748,14.9936786 C16.2611876,15.2243234 18.0728725,16.9806131 17.1929558,17.5298848 C16.3130392,18.0791564 10.3055528,20.9136215 8.2941556,19.4884111 C6.28275843,18.0632007 3.54895659,13.2755178 5.17067638,10.9540017 C6.25182291,9.40632435 8.72072763,8.45024656 12.5773905,8.08576835 Z" id="Path-24" fill-opacity="0.0964543269" fill="#000000" fill-rule="nonzero"></path>
                        <path d="M10.6573905,8.08576835 C12.1550125,12.5193124 13.1566072,14.8219491 13.6621748,14.9936786 C14.3411876,15.2243234 16.1528725,16.9806131 15.2729558,17.5298848 C14.3930392,18.0791564 8.38555277,20.9136215 6.3741556,19.4884111 C4.36275843,18.0632007 1.62895659,13.2755178 3.25067638,10.9540017 C4.33182291,9.40632435 6.80072763,8.45024656 10.6573905,8.08576835 Z" id="Path-24" fill="#C16F60"></path>
                        <path d="M18.9445319,21.8122437 C19.5405686,22.2925283 19.2597657,22.1053753 19.8748701,23.2395853 C20.1471854,23.7417158 21.7933268,23.4832679 21.9974967,24.4244229 C25.1525494,35.3053607 29.1181382,46.2584907 33.8942631,57.2838129 C52.5160194,50.4112499 62.8682981,46.873854 64.9510993,46.671625 C66.1178601,46.5583387 58.4456915,69.8899543 56.3327409,70.5475324 C47.7228186,73.2270539 28.3651634,79.4287567 23.8056352,76.8632769 C16.8975882,72.9763713 8.27370123,29.2682574 8.58162022,27.8221948 C8.88953921,26.3761321 9.57867247,26.7941004 10.0095162,25.9332784 C10.1550886,25.6424263 9.49983277,24.1036456 10.9878317,23.4779425 C12.4758307,22.8522395 18.2948603,21.2887403 18.9445319,21.8122437 Z" id="Path" fill="#383458" fill-rule="nonzero"></path>
                        <path d="M56.3327409,70.5475324 L51.3836312,72.0831405 C41.8124886,75.0138755 27.6229146,79.0111205 23.8056352,76.8632769 C23.6326019,76.7659174 23.4584921,76.6435738 23.2834731,76.4975361 L59.7153494,64.166372 L59.4641412,64.7912822 C58.1724613,67.9699711 56.9865021,70.3440733 56.3327409,70.5475324 Z" id="Path" fill-opacity="0.925453453" fill="#15113B" fill-rule="nonzero"></path>
                        <path d="M18.9445319,21.8122437 L19.113167,21.9503468 C19.4892286,22.2672519 19.3281106,22.2313987 19.8748701,23.2395853 L19.9220453,23.3017868 L9.92904525,26.0755128 C9.9567118,26.0322779 9.98358195,25.9850949 10.0095162,25.9332784 C10.1550886,25.6424263 9.49983277,24.1036456 10.9878317,23.4779425 L11.2655921,23.3687346 C13.0898109,22.6893105 18.3299776,21.3170378 18.9445319,21.8122437 Z" id="Path" fill="#FFFFFF"></path>
                    </g>
                    <g id="Group-5" transform="translate(97.623946, 98.089423) rotate(35.000000) translate(-97.623946, -98.089423) translate(65.123946, 49.089423)">
                        <path d="M29.756454,1.07428888 C34.12605,2.54511961 63.5184929,46.6646906 64.6860673,54.5089819 C65.8536416,62.3532731 32.3909302,88.3658219 29.337787,90.1169767 C28.5398922,90.5746156 28.0024576,89.8324159 27.1456844,89.8302315 C26.3726933,89.8282607 25.6969989,91.0738633 24.9961949,89.9634853 C22.0003833,86.0502738 20.1184535,83.4454875 19.3504055,82.1491263 C18.9527713,81.4779737 20.0293091,81.0680087 20.3203723,80.2728805 C20.6389351,79.4026291 20.3203723,78.987107 21.2347137,77.3664026 C22.149055,75.7456981 43.5233326,54.7386951 43.5233326,52.8499007 C43.5233326,51.5907044 19.1113622,12.8972463 20.1507028,6.1097632 C20.6673024,2.73607477 25.386858,-0.396541843 29.756454,1.07428888 Z" id="Path" fill="#383458" fill-rule="nonzero"></path>
                        <path d="M19.3504055,82.1491263 C16.815656,82.6234341 15.098109,82.970359 14.1977645,83.1899012 C12.1015139,83.701056 10.895631,84.189064 10.5182518,84.4580491 C9.43258556,85.2318809 14.0964014,85.8965667 13.4927181,86.3226443 C10.7260783,88.2753294 8.69200162,89.6756315 7.39048813,90.5235506 C2.57359556,93.6616932 0.276742822,95.2946671 0.535543211,96.2262685 C1.17672534,98.5343257 7.11820174,94.1940677 8.45519018,95.7644863 C10.2776418,97.9051272 16.0629451,97.5656694 18.8064867,96.2948752 C20.2859023,95.6096176 22.9609841,93.1938324 26.8317319,89.0475197 L19.3504055,82.1491263 Z" id="Path-6" fill="#C16F60"></path>
                        <path d="M24.5424448,84.8854107 C25.5117019,86.3441101 26.3944543,87.9927792 27.1907021,89.831418 L27.1456844,89.8302315 L27.1456844,89.8302315 C26.3726933,89.8282607 25.6969989,91.0738633 24.9961949,89.9634853 L23.6335401,88.1721102 C21.4222863,85.2440583 19.9945748,83.236397 19.3504055,82.1491263 C18.9707201,81.5082688 19.9351253,81.1055516 20.2763641,80.3782592 C22.093406,81.8367186 23.5151172,83.3393171 24.5424448,84.8854107 Z" id="Path" fill="#FFFFFF"></path>
                    </g>
                    <path d="M109.274601,145.265089 C109.274601,150.416522 88.3165016,158.208248 75.9885622,156.73541 L75.023007,156.613393 C63.3700977,155.0596 55.207875,150.999468 54.359364,146.778558 L54.3286208,146.605011 C54.250475,146.095053 54.1353164,145.6426 53.9911968,145.23291 C58.4585939,150.398934 65.8164134,153.320794 76.0624101,154.000718 C86.933152,154.722099 98.0143347,151.572413 109.305958,144.551658 L109.282399,144.945974 C109.277186,145.064823 109.274601,145.171138 109.274601,145.265089 Z" id="Path" fill="#FFFFFF"></path>
                    <path d="M79.7675338,51.471625 C81.1508273,53.9477259 83.5742232,55.1857764 87.0377215,55.1857764 C90.5012199,55.1857764 93.9340937,53.9477259 97.336343,51.471625 C98.2254614,51.4398316 99.0926036,51.4185724 99.9377695,51.4078474 C99.1095039,55.1321121 94.1065642,57.995548 88.0586381,57.995548 C81.9711131,57.995548 76.9423035,55.0944926 76.163374,51.3347273 L77.5613262,51.3823904 C78.2749171,51.4086053 79.0103861,51.4383772 79.7675338,51.471625 Z" id="Path" fill="#FFFFFF"></path>
                    <path d="M40.1939527,338.88 L51.4227067,338.88 L51.4026062,352.313768 C51.4018169,352.841322 50.9754782,353.269391 50.4479311,353.272317 L15.5211871,353.466023 C14.9910019,353.468948 14.5588184,353.041532 14.5558634,352.511347 C14.5558634,352.461849 14.5591578,352.412404 14.5665087,352.363454 L14.9128586,350.057132 C14.9625159,349.726467 15.1806494,349.445462 15.4886714,349.315355 L40.1939527,338.88 Z" id="Path-85" fill="#15113B"></path>
                    <path d="M117.788754,338.88 L105.6,338.88 L105.6201,352.313634 C105.62089,352.841241 106.04731,353.269332 106.57491,353.272184 L142.461678,353.466181 C142.991863,353.469032 143.423987,353.041555 143.426867,352.511369 C143.426867,352.461917 143.423566,352.412517 143.416222,352.363612 L143.069848,350.057132 C143.020191,349.726467 142.802057,349.445462 142.494035,349.315355 L117.788754,338.88 Z" id="Path-85" fill="#15113B"></path>
                </g>
            </g>
        </g>
    </g>
</svg>