<?xml version="1.0" encoding="UTF-8"?>
<svg width="313px" height="281px" viewBox="0 0 313 281" version="1.1" xmlns="http://www.w3.org/2000/svg" xmlns:xlink="http://www.w3.org/1999/xlink">
    <!-- Generator: Sketch 61.2 (89653) - https://sketch.com -->
    <title>Group</title>
    <desc>Created with Sketch.</desc>
    <g id="Page-1" stroke="none" stroke-width="1" fill="none" fill-rule="evenodd">
        <g id="Letter" transform="translate(-239.000000, -175.000000)">
            <g id="Group" transform="translate(239.000000, 175.000000)">
                <rect id="Rectangle" fill="#15113B" x="0" y="0" width="313" height="281" rx="59"></rect>
                <g id="noun_Cloud-Upload_259183" transform="translate(39.000000, 53.000000)" fill="#FFFFFF" fill-rule="nonzero">
                    <path d="M194.066355,53.6787464 C193.687745,53.4660585 193.282843,53.2980088 192.833244,53.2192355 C191.087433,52.9041423 189.38369,52.7413442 187.716756,52.6573194 C179.300579,21.9619936 150.789171,0 118.712522,0 C79.2319519,0 47.1132353,32.0686068 47.1132353,71.4893875 C47.1132353,73.6346468 47.2236631,75.793035 47.4392602,77.9960613 C44.9730392,77.3737523 42.3201426,77.0481561 39.509492,77.2109542 C39.4910873,77.2109542 39.4700535,77.2083284 39.4516488,77.2083284 C39.4016934,77.2083284 39.3543672,77.2162058 39.3044118,77.2162058 C39.2570856,77.2188315 39.2123886,77.2162058 39.1624332,77.2188315 C39.1519162,77.2188315 39.1387701,77.2240831 39.1282531,77.2240831 C17.5238414,77.3947585 0,94.9848345 0,116.600226 C0,138.323273 17.6973708,156 39.4490196,156 L83.7358289,156 C84.0066399,156 84.266934,155.971116 84.5219697,155.921227 C84.7217914,155.952736 84.9216132,155.98162 85.1293226,155.98162 C117.397906,155.98162 124.17344,133.767551 124.17344,115.132417 L124.17344,111.290906 L132.276738,117.359075 C132.986631,117.889482 133.81484,118.146808 134.63779,118.146808 C135.83672,118.146808 137.019875,117.603272 137.795499,116.568716 C139.102228,114.827826 138.747282,112.359597 137.0041,111.054586 L122.80361,100.422817 C122.76943,100.39656 122.73262,100.383431 122.69844,100.359799 C122.577496,100.275774 122.453922,100.204878 122.325089,100.136608 C122.21992,100.078841 122.11475,100.018448 122.006952,99.9738096 C121.891266,99.921294 121.77295,99.8871589 121.652005,99.8477723 C121.525802,99.8057599 121.399599,99.7637475 121.270766,99.7374897 C121.15508,99.7112319 121.036765,99.698103 120.918449,99.6823484 C120.786988,99.6665937 120.655526,99.6482133 120.524064,99.6455875 C120.40049,99.6429617 120.274287,99.6534648 120.150713,99.663968 C120.02451,99.6744711 119.898307,99.6797226 119.774733,99.7033546 C119.648529,99.7243608 119.522326,99.7584959 119.398752,99.792631 C119.277807,99.8267661 119.156863,99.8556496 119.038547,99.9029136 C118.922861,99.9475518 118.809804,100.002693 118.696747,100.06046 C118.575802,100.120853 118.454857,100.181246 118.339171,100.254768 C118.299733,100.2784 118.257665,100.294154 118.218226,100.317786 L103.086988,110.595075 C101.285963,111.818687 100.820588,114.26591 102.045811,116.067193 C102.808289,117.188399 104.049287,117.789702 105.311319,117.789702 C106.076426,117.789702 106.846791,117.569137 107.525134,117.107 L116.283111,111.156991 L116.283111,115.132417 C116.283111,137.624817 106.384046,148.10429 85.1266934,148.10429 C84.8558824,148.10429 84.5955882,148.133174 84.3405526,148.183064 C84.1407308,148.151554 83.9409091,148.122671 83.7331996,148.122671 L39.4490196,148.122671 C22.046123,148.122671 7.88770053,133.980239 7.88770053,116.600226 C7.88770053,99.2202117 22.046123,85.0830318 39.4490196,85.0830318 C41.975713,85.0830318 44.5418449,85.4506405 47.1079768,86.1202134 C53.6258467,88.3284914 58.2217469,93.1599199 58.3269162,93.275454 C59.1051693,94.1235798 60.1700089,94.5542071 61.2374777,94.5542071 C62.1840018,94.5542071 63.1357843,94.215482 63.8930036,93.5249028 C65.5020945,92.0597196 65.6177807,89.5704836 64.1532977,87.9635084 C63.9192959,87.7061824 60.8325758,84.4029557 55.892246,81.5093501 C55.3269608,78.0380738 55.0009358,74.7269698 55.0009358,71.4867617 C55.0009358,36.4116409 83.5833333,7.87470334 118.712522,7.87470334 C146.648128,7.87470334 171.518048,26.606992 179.587166,53.0144249 C169.412032,54.4244668 162.242112,58.8909125 161.829323,59.1534901 C159.999376,60.3219606 159.463012,62.7481779 160.627763,64.5809699 C161.379724,65.7599434 162.654902,66.4058844 163.96426,66.4058844 C164.682041,66.4058844 165.415597,66.2089512 166.067647,65.7967043 C166.15967,65.7389372 173.476827,61.2252277 183.270722,60.5556547 L184.622148,60.5661578 C208.603387,60.7709683 228.114929,80.4012725 228.114929,104.324721 C228.114929,128.471361 208.448262,148.117419 184.269831,148.117419 L151.096791,148.117419 C148.919786,148.117419 147.152941,149.881941 147.152941,152.056084 C147.152941,154.230227 148.919786,155.994748 151.096791,155.994748 L184.267201,155.994748 C212.794385,155.994748 236,132.81702 236,104.324721 C236,79.3010722 217.88721,58.297487 194.066355,53.6787464 Z" id="Shape"></path>
                </g>
            </g>
        </g>
    </g>
</svg>