<?xml version="1.0" encoding="UTF-8"?>
<svg width="28px" height="27px" viewBox="0 0 28 27" version="1.1" xmlns="http://www.w3.org/2000/svg" xmlns:xlink="http://www.w3.org/1999/xlink">
    <!-- Generator: Sketch 63.1 (92452) - https://sketch.com -->
    <title>UI Essentials_chat_message_sms</title>
    <desc>Created with Sketch.</desc>
    <g id="Page-1" stroke="none" stroke-width="1" fill="none" fill-rule="evenodd">
        <g id="UI-Essentials_chat_message_sms" fill="#09D5B0" fill-rule="nonzero">
            <path d="M19,0 L9,0 C4,0 0,4 0,9 L0,26 C0,26.4 0.2,26.7 0.6,26.9 C0.7,27 0.9,27 1,27 C1.2,27 1.5,26.9 1.7,26.8 C5.2,23.7 9.7,22 14.3,22 L19,22 C24,22 28,18 28,13 L28,9 C28,4 24,0 19,0 Z M10.7,11.7 C10.6,11.8 10.5,11.9 10.4,11.9 C10.3,12 10.1,12 10,12 C9.7,12 9.5,11.9 9.3,11.7 C9.1,11.5 9,11.3 9,11 C9,10.9 9,10.7 9.1,10.6 C9.2,10.5 9.2,10.4 9.3,10.3 C9.6,10 10,9.9 10.4,10.1 C10.5,10.2 10.6,10.2 10.7,10.3 C10.8,10.4 10.9,10.5 10.9,10.6 C11,10.7 11,10.9 11,11 C11,11.3 10.9,11.5 10.7,11.7 Z M14.7,11.7 C14.6,11.7 14.6,11.8 14.6,11.8 C14.5,11.8 14.5,11.9 14.4,11.9 C14.3,11.9 14.3,11.9 14.2,12 C14.1,12 14.1,12 14,12 C13.7,12 13.5,11.9 13.3,11.7 C13.1,11.5 13,11.3 13,11 C13,10.7 13.1,10.5 13.3,10.3 C13.4,10.2 13.5,10.1 13.6,10.1 C14,9.9 14.4,10 14.7,10.3 C14.9,10.5 15,10.7 15,11 C15,11.3 14.9,11.5 14.7,11.7 Z M18.9,11.4 C18.8,11.5 18.8,11.6 18.7,11.7 C18.6,11.8 18.5,11.9 18.4,11.9 C18.3,12 18.1,12 18,12 C17.9,12 17.7,12 17.6,11.9 C17.5,11.8 17.4,11.8 17.3,11.7 C17.2,11.6 17.1,11.5 17.1,11.4 C17.1,11.3 17,11.1 17,11 C17,10.9 17,10.7 17.1,10.6 C17.2,10.5 17.2,10.4 17.3,10.3 C17.4,10.2 17.5,10.1 17.6,10.1 C17.8,10 18.1,10 18.4,10.1 C18.5,10.2 18.6,10.2 18.7,10.3 C18.8,10.4 18.9,10.5 18.9,10.6 C18.9,10.7 19,10.9 19,11 C19,11.1 19,11.3 18.9,11.4 Z" id="Shape"></path>
        </g>
    </g>
</svg>