<?xml version="1.0" encoding="UTF-8"?>
<svg width="103px" height="110px" viewBox="0 0 103 110" version="1.1" xmlns="http://www.w3.org/2000/svg" xmlns:xlink="http://www.w3.org/1999/xlink">
    <!-- Generator: Sketch 63.1 (92452) - https://sketch.com -->
    <title>Vehicles and Transport_airplane_air_plane_fly_airport</title>
    <desc>Created with Sketch.</desc>
    <g id="Page-1" stroke="none" stroke-width="1" fill="none" fill-rule="evenodd">
        <g id="Vehicles-and-Transport_airplane_air_plane_fly_airport" fill="#09D5B0" fill-rule="nonzero">
            <path d="M101.283333,55.34375 L65.2333333,35.40625 L65.2333333,13.75 C65.2333333,6.1875 59.0533333,0 51.5,0 C43.9466667,0 37.7666667,6.1875 37.7666667,13.75 L37.7666667,35.40625 L1.71666667,55.34375 C0.686666667,56.03125 0,57.0625 0,58.4375 L0,72.1875 C0,73.21875 0.343333333,74.25 1.37333333,74.9375 C2.40333333,75.625 3.43333333,75.625 4.46333333,75.625 L37.7666667,66 L37.7666667,84.21875 L28.84,90.0625 C28.1533333,90.75 27.4666667,91.78125 27.4666667,92.8125 L27.4666667,106.5625 C27.4666667,107.59375 28.1533333,108.625 28.84,109.3125 C29.87,110 30.9,110 31.93,109.65625 L51.5,103.125 L71.07,109.65625 C71.4133333,109.65625 71.7566667,110 72.1,110 C72.7866667,110 73.4733333,109.65625 74.16,109.3125 C75.19,108.625 75.5333333,107.59375 75.5333333,106.5625 L75.5333333,92.8125 C75.5333333,91.78125 74.8466667,90.75 74.16,90.0625 L65.2333333,84.21875 L65.2333333,66 L98.5366667,75.625 C99.5666667,75.96875 100.596667,75.625 101.626667,74.9375 C102.656667,74.25 103,73.21875 103,72.1875 L103,58.4375 C103,57.0625 102.313333,56.03125 101.283333,55.34375 Z" id="Path"></path>
        </g>
    </g>
</svg>