<?xml version="1.0" encoding="UTF-8"?>
<svg width="498px" height="485px" viewBox="0 0 498 485" version="1.1" xmlns="http://www.w3.org/2000/svg" xmlns:xlink="http://www.w3.org/1999/xlink">
    <!-- Generator: Sketch 63.1 (92452) - https://sketch.com -->
    <title>Verified</title>
    <desc>Created with Sketch.</desc>
    <g id="Page-1" stroke="none" stroke-width="1" fill="none" fill-rule="evenodd">
        <g id="Scene" transform="translate(-2002.000000, -2646.000000)">
            <g id="Verified" transform="translate(2002.000000, 2646.000000)">
                <g id="Group-54" transform="translate(418.500000, 414.000000) scale(-1, 1) translate(-418.500000, -414.000000) translate(325.000000, 333.000000)" fill-rule="nonzero">
                    <path d="M124.073041,108.768403 L120.83668,139.544057 L97.6436591,138.399522 C81.2971663,137.910492 66.8686337,132.95228 54.3580611,123.524888 C50.0388411,120.270122 66.7134107,107.84968 60.0885727,102.857507 C53.4637348,97.8653333 47.8536784,118.623484 39.2228316,112.119674 C27.4954279,103.282442 19.37174,87.3017392 14.8517678,64.1775667 L16.555217,63.7905953 C28.623376,61.0912259 35.6100718,60.4593891 37.5153043,61.8950847 C40.5050538,64.1480226 33.9182724,79.2684315 41.6173246,80.0147542 C49.3163769,80.761077 36.3428235,58.3220713 48.3471413,60.3518057 C60.3514591,62.3815402 63.3644353,60.6570772 64.675136,64.9444663 C65.9858368,69.2318555 57.187555,78.4666767 65.4324754,82.9321821 C73.6773958,87.3976875 69.814256,65.9296029 73.7846345,66.2546126 C76.4315535,66.4712858 93.1943558,80.6425493 124.073041,108.768403 Z M76.8494029,107.782546 C74.2267063,107.737818 72.4053288,111.154038 72.7812424,115.412886 C73.1571561,119.671735 75.5880101,123.160473 78.2107068,123.205202 C80.8334034,123.24993 82.6547809,119.83371 82.2788673,115.574862 C81.9029536,111.316013 79.4720996,107.827275 76.8494029,107.782546 Z" id="Shape" fill="#09D5B0"></path>
                    <path d="M106.922915,140.48 C100.206229,140.190943 96.4967969,137.323424 95.7946196,131.877443 C94.7413538,123.708471 103.714277,113.859188 98.3406468,107.598028 C92.9670168,101.336868 93.761381,103.800953 89.1801758,95.4588054 C84.5989705,87.1166575 92.9124857,84.8449576 86.8801527,74 C80.8478197,63.1550424 71.9031384,67.8402126 61.6544457,45.6011018 C51.405753,23.3619911 61.834618,7.28 64.6402566,7.28 C67.4458951,7.28 69.9147114,16.3377533 78.4618043,20.4816982 C87.0088973,24.6256431 89.8746692,21.6519286 101.364861,30.8109316 C112.855052,39.9699347 107.446472,50.1659091 112.04,54.3208 C116.633528,58.4756909 122.181648,60.6715265 126.912636,64 C131.643623,67.3284735 145.255277,61.3734969 146.013978,83.6803132 C146.178129,88.5065654 123.837253,108.24716 139.233576,111.863364 C149.041795,114.167064 154.910603,123.561414 156.84,140.046415 L106.922915,140.48 Z" id="Path-89" fill="#15113B"></path>
                    <path d="M117.592682,148.3786 C106.282315,131.420459 105.17944,116.711704 114.284057,104.252335 C127.940982,85.5632818 106.552264,81.0119876 111.884057,68.3970397 C116.696547,57.0107565 120.975953,56.3192371 114.19204,38.2060573 C107.408126,20.0928776 134.822832,5.86862361 134.822832,5.86862361 C138.216875,9.69449974 156.072598,27.7447961 150.46916,41.1393923 C144.865721,54.5339885 167.81136,68.722124 162.053305,82.1413878 C156.29525,95.5606516 162.338331,101.869086 167.429525,110.475711 C170.823655,116.21346 169.512779,124.747758 163.496897,136.078603 L117.592682,148.3786 Z" id="Path-5" fill="#FFD343" transform="translate(138.729633, 77.123612) scale(-1, 1) rotate(15.000000) translate(-138.729633, -77.123612) "></path>
                </g>
                <g id="Group-52" transform="translate(0.000000, 340.000000)" fill-rule="nonzero">
                    <path d="M129.266821,95.2468226 L123.407375,133.781104 L95.4350073,133.822232 C75.699934,134.246824 58.5666418,128.983981 44.0351306,118.033702 C39.0181905,114.253166 59.9662905,97.7296862 52.2712864,91.9310847 C44.5762823,86.1324832 36.48004,112.340533 26.4549794,104.786108 C12.833149,94.5213223 4.02060297,75.1318022 0.0173414031,46.6175475 L2.2635852,45.9826628 C16.9270789,41.8938556 25.3612731,40.6802057 27.5661677,42.3417129 C31.0388767,44.9585869 22.1180873,64.2068564 31.3805023,64.6495229 C40.6429172,65.0921895 26.3743536,37.9658332 40.7614921,39.7346889 L41.6947707,39.8454894 C55.3123891,41.4044326 58.9298071,39.2808192 60.214708,44.4221446 C61.5284832,49.6790054 50.3057426,61.7368941 59.9930357,66.7771107 C69.6803288,71.8173272 66.3665802,45.3241178 71.1469659,45.4778385 C74.3338897,45.580319 93.7071747,62.1699804 129.266821,95.2468226 Z M71.6974868,97.7692208 C68.5289796,97.879358 66.1105684,102.249272 66.2958139,107.529698 C66.4810599,112.810123 69.1998139,117.00147 72.368321,116.891333 C75.5368282,116.781196 77.9552395,112.411281 77.7699939,107.130856 C77.5847479,101.85043 74.865994,97.6590836 71.6974868,97.7692208 Z" id="Shape" fill="#FFD343"></path>
                    <path d="M99.6774724,133 C87.292946,120.059092 76.0474608,103.390886 65.9410167,82.9953801 C55.8345727,62.5998744 51.2230764,41.2680811 52.1065278,19 C66.9528287,23.1690311 80.7923001,33.6563176 93.6249422,50.4618596 C106.457584,67.2674017 118.915937,93.3086304 131,128.585546 L99.6774724,133 Z" id="Path-91" fill="#15113B" transform="translate(91.500000, 76.000000) rotate(8.000000) translate(-91.500000, -76.000000) "></path>
                    <path d="M94.1735337,133.808679 C82.9410016,113.529796 83.285755,98.7005328 95.2077938,89.3208904 C113.090852,75.2514268 93.2591415,71.0370834 97.0617788,56.8484259 C100.864416,42.6597684 112.962545,48.6848882 112.962545,35.3109773 C112.962545,21.9370664 117.187183,12.0833551 130.13868,12.0833551 C143.090178,12.0833551 144.900842,-2.79455984 146.151776,0.46750159 C147.40271,3.72956303 157.131082,27.2641215 148.395024,35.3109773 C139.658967,43.357833 158.190593,62.7853317 146.151776,74.7375874 C134.112958,86.6898432 136.891085,85.2315252 141.796739,103.535452 C145.067175,115.738069 141.181156,125.892919 130.13868,134 L94.1735337,133.808679 Z" id="Path-5" fill="#09D5B0" transform="translate(119.000000, 67.000000) scale(-1, 1) translate(-119.000000, -67.000000) "></path>
                </g>
                <g id="Group-9" transform="translate(118.000000, 0.000000)">
                    <path d="M43,0 L218,0 C236.777681,-3.44940413e-15 252,15.2223185 252,34 L252,440 C252,458.777681 236.777681,474 218,474 L43,474 C24.2223185,474 9,458.777681 9,440 L9,34 C9,15.2223185 24.2223185,3.44940413e-15 43,0 Z" id="Rectangle" fill="#F7F7F7" fill-rule="nonzero"></path>
                    <path d="M34,0 L209,0 C227.777681,-3.44940413e-15 243,15.2223185 243,34 L243,440 C243,458.777681 227.777681,474 209,474 L34,474 C15.2223185,474 2.29960275e-15,458.777681 0,440 L0,34 C-2.29960275e-15,15.2223185 15.2223185,3.44940413e-15 34,0 Z" id="Rectangle" fill-opacity="0.401742788" fill="#09D5B0" fill-rule="nonzero"></path>
                    <circle id="Oval" fill="#F7F7F7" fill-rule="nonzero" cx="167" cy="13" r="5"></circle>
                    <path d="M86,10 L153,10 C154.656854,10 156,11.3431458 156,13 C156,14.6568542 154.656854,16 153,16 L86,16 C84.3431458,16 83,14.6568542 83,13 C83,11.3431458 84.3431458,10 86,10 Z" id="Rectangle" fill="#F7F7F7" fill-rule="nonzero"></path>
                    <path d="M205.1,8 C220.508745,8 233,20.4912555 233,35.9 L233,437.1 C233,452.508745 220.508745,465 205.1,465 L37.9,465 C22.4912555,465 10,452.508745 10,437.1 L10,35.9 C10,20.4912555 22.4912555,8 37.9,8 L55.8370842,8 C57.4046196,8 58.7079089,9.20680929 58.828233,10.7697198 L59.0766965,13.9970545 L59.0766965,13.9970545 C59.5896783,20.6658183 65.0728696,25.8387123 71.7257107,25.9962998 L72.0384048,26 L170.961595,26 C177.65006,26 183.228259,20.9297024 183.895632,14.3085438 L183.923304,13.9970545 L184.171191,10.7702156 C184.29127,9.20709454 185.594651,8 187.162378,8 L205.1,8 L205.1,8 Z" id="Path" fill-opacity="0.100551792" fill="#09D5B0" fill-rule="nonzero"></path>
                    <g id="Group-51" transform="translate(33.000000, 75.000000)">
                        <g id="Group-37" transform="translate(39.360000, 78.880000)" fill="#FFE1F7" fill-rule="nonzero">
                            <path d="M3.84,0 L48.96,0 C51.0807734,-1.27775818e-15 52.8,1.71922656 52.8,3.84 L52.8,48.96 C52.8,51.0807734 51.0807734,52.8 48.96,52.8 L3.84,52.8 C1.71922656,52.8 4.02697024e-15,51.0807734 0,48.96 L0,3.84 C-1.14789826e-15,1.71922656 1.71922656,3.89579761e-16 3.84,0 Z" id="Rectangle"></path>
                        </g>
                        <g id="Group-37">
                            <path d="M3.84,0 L176.505,0 C178.700332,4.08132858e-17 180.48,1.77966812 180.48,3.975 L180.48,282.96 C180.48,285.080773 178.760773,286.8 176.64,286.8 L3.84,286.8 C1.71922656,286.8 3.36834431e-15,285.080773 0,282.96 L0,3.84 C-2.5971984e-16,1.71922656 1.71922656,4.38638265e-15 3.84,0 Z" id="Rectangle" stroke-opacity="0.401742788" stroke="#09D5B0" stroke-width="2" fill="#FFFFFF" fill-rule="nonzero"></path>
                            <path d="M39.5,125 L107.5,125 C114.403559,125 120,130.596441 120,137.5 C120,144.403559 114.403559,150 107.5,150 L39.5,150 C32.5964406,150 27,144.403559 27,137.5 C27,130.596441 32.5964406,125 39.5,125 Z" id="Rectangle" fill-opacity="0.100551792" fill="#09D5B0" fill-rule="nonzero"></path>
                            <path d="M38.5,173 L106.5,173 C113.403559,173 119,178.596441 119,185.5 C119,192.403559 113.403559,198 106.5,198 L38.5,198 C31.5964406,198 26,192.403559 26,185.5 C26,178.596441 31.5964406,173 38.5,173 Z" id="Rectangle" fill-opacity="0.100551792" fill="#09D5B0" fill-rule="nonzero"></path>
                            <path d="M38.5,223 L106.5,223 C113.403559,223 119,228.596441 119,235.5 C119,242.403559 113.403559,248 106.5,248 L38.5,248 C31.5964406,248 26,242.403559 26,235.5 C26,228.596441 31.5964406,223 38.5,223 Z" id="Rectangle" fill-opacity="0.100551792" fill="#09D5B0" fill-rule="nonzero"></path>
                            <path d="M136.711356,136.967248 C135.527183,135.583177 133.468894,135.441829 132.11404,136.651539 C130.759186,137.861249 130.620822,139.963924 131.804995,141.347995 L139.590791,150.448095 C141.205573,152.335465 144.01233,152.528212 145.859859,150.878607 C146.214377,150.562068 146.517387,150.189972 146.757547,149.776248 L160.543802,126.026596 C161.461615,124.445474 160.950955,122.403642 159.40321,121.466036 C157.855465,120.52843 155.856734,121.050103 154.938921,122.631225 L142.613005,143.865142 L136.711356,136.967248 Z" id="Path-7" fill="#8EECDB"></path>
                            <path d="M136.711356,179.967248 C135.527183,178.583177 133.468894,178.441829 132.11404,179.651539 C130.759186,180.861249 130.620822,182.963924 131.804995,184.347995 L139.590791,193.448095 C141.205573,195.335465 144.01233,195.528212 145.859859,193.878607 C146.214377,193.562068 146.517387,193.189972 146.757547,192.776248 L160.543802,169.026596 C161.461615,167.445474 160.950955,165.403642 159.40321,164.466036 C157.855465,163.52843 155.856734,164.050103 154.938921,165.631225 L142.613005,186.865142 L136.711356,179.967248 Z" id="Path-7" fill="#8EECDB"></path>
                            <path d="M136.711356,225.967248 C135.527183,224.583177 133.468894,224.441829 132.11404,225.651539 C130.759186,226.861249 130.620822,228.963924 131.804995,230.347995 L139.590791,239.448095 C141.205573,241.335465 144.01233,241.528212 145.859859,239.878607 C146.214377,239.562068 146.517387,239.189972 146.757547,238.776248 L160.543802,215.026596 C161.461615,213.445474 160.950955,211.403642 159.40321,210.466036 C157.855465,209.52843 155.856734,210.050103 154.938921,211.631225 L142.613005,232.865142 L136.711356,225.967248 Z" id="Path-7" fill="#8EECDB"></path>
                        </g>
                    </g>
                    <g id="Group-28" transform="translate(84.000000, 99.000000)" fill="#09D5B0">
                        <path d="M39.2,0 C60.8495622,-3.97696006e-15 78.4,17.5504378 78.4,39.2 C78.4,60.8495622 60.8495622,78.4 39.2,78.4 C17.5504378,78.4 2.6513067e-15,60.8495622 0,39.2 C-2.6513067e-15,17.5504378 17.5504378,3.97696006e-15 39.2,0 Z" id="Rectangle" fill-opacity="0.100551792" fill-rule="nonzero"></path>
                        <path d="M39.6768678,40.8 C53.7742779,40.8 66.0202475,48.7269594 72.2006085,60.3667104 C65.227174,71.2144481 53.0527248,78.4 39.2,78.4 C25.6950031,78.4 13.7850839,71.5706606 6.7353748,61.1771143 C12.7703846,49.0963035 25.2547735,40.8 39.6768678,40.8 Z" id="Path"></path>
                        <circle id="Oval" cx="39.2" cy="23.2" r="15.2"></circle>
                    </g>
                </g>
                <g id="OffcMen3" transform="translate(313.000000, 118.000000)">
                    <g id="Head" transform="translate(97.000000, 0.000000)">
                        <path d="M11.4499906,40.7512474 L10.0446807,58.0939477 L27.3082775,58.0939477 C25.9766454,51.6402684 25.3108294,46.8137861 25.3108294,43.6145008 C25.3108294,38.8155728 32.1561855,21.5657216 33.9822954,16.3755447 C35.8084054,11.1853678 25.3108294,-0.410103795 15.0238013,2.1980476 C4.73677316,4.80619899 3.57461668,15.1187266 3.57461668,19.2451218 C3.57461668,23.3715169 4.23378128,34.5902855 6.47327525,37.6707665 C7.96627123,39.7244205 9.62517633,40.7512474 11.4499906,40.7512474 Z" id="Path" fill="#FFB294"></path>
                        <g id="Group-10" transform="translate(3.000000, 18.000000)">
                            <path d="M16.182851,19.8767119 C14.4610108,21.9644964 13.0858883,23.3997647 12.0574835,24.1825169 C11.1530556,24.8709061 9.86054332,25.6220849 8.1799467,26.4360531 L8.5069467,23.0887119 L8.88290316,23.0298329 C10.1971162,22.8091223 11.2976364,22.5085383 12.1844637,22.1280808 C13.1698275,21.7053503 14.5026232,20.954894 16.182851,19.8767119 Z" id="Path" fill-opacity="0.0964543269" fill="#000000" fill-rule="nonzero"></path>
                            <g id="Group-16">
                                <path d="M2.94475401,5.74372165 C3.5461921,5.74372165 4.03375401,5.25615974 4.03375401,4.65472165 C4.03375401,4.05328355 3.5461921,3.56572165 2.94475401,3.56572165 C2.34331591,3.56572165 1.85575401,4.05328355 1.85575401,4.65472165 C1.85575401,5.25615974 2.34331591,5.74372165 2.94475401,5.74372165 Z" id="Oval" fill="#372630"></path>
                                <path d="M11.755754,5.74372165 C12.3571921,5.74372165 12.844754,5.25615974 12.844754,4.65472165 C12.844754,4.05328355 12.3571921,3.56572165 11.755754,3.56572165 C11.1543159,3.56572165 10.666754,4.05328355 10.666754,4.65472165 C10.666754,5.25615974 11.1543159,5.74372165 11.755754,5.74372165 Z" id="Oval" fill="#372630"></path>
                                <path d="M5.48043479,5.33708249 C5.48043479,6.329095 3.42092097,9.51951366 3.77932176,10.2244004 C4.01825563,10.694325 4.78532715,10.8754929 6.08053633,10.7679043" id="Path-95" stroke="#A86F59" stroke-width="0.6534" stroke-linecap="round"></path>
                                <path d="M0.24432279,1.44538896 C1.50759371,0.972201116 2.82759371,0.809577256 4.20432279,0.957517379" id="Path-97" stroke="#A86F59" stroke-width="0.6534" stroke-linecap="round" transform="translate(2.224323, 1.175026) rotate(6.000000) translate(-2.224323, -1.175026) "></path>
                                <path d="M9.14471915,1.51534024 C11.1615892,0.571689395 13.3273393,0.373656819 15.6419694,0.921242509" id="Path-97" stroke="#A86F59" stroke-width="0.6534" stroke-linecap="round" transform="translate(12.393344, 1.067485) scale(-1, 1) rotate(2.000000) translate(-12.393344, -1.067485) "></path>
                            </g>
                        </g>
                        <path d="M3.8050016,15.6446422 C-0.309101584,9.30221136 -1.08696865,5.04349905 1.47140039,2.86850532 C5.30895396,-0.393985264 23.8344129,-0.736517328 26.6346002,1.14850532 C29.4347876,3.03352797 30.6380511,6.30850532 30.6380511,6.30850532 C30.6380511,6.30850532 37.0274943,10.9535845 35.4373279,16.8167802 C34.377217,20.7255774 32.0090829,25.619984 28.3329255,31.5 C30.5163226,21.7111868 30.5163226,16.8167802 28.3329255,16.8167802 C25.05783,16.8167802 26.7677277,27.2179393 25.4242066,26.663254 C24.0806855,26.1085688 22.377518,14.831364 19.4103302,14.080816 C17.432205,13.5804507 12.2304288,14.1017261 3.8050016,15.6446422 Z" id="Path-90" fill="#182160" fill-rule="nonzero"></path>
                        <path d="M7.5,32.5 L13.1552205,31.3326153 C12.9211921,32.651993 12.1043744,33.5206845 10.7047675,33.9386897 C9.30516058,34.3566948 8.23690475,33.8771316 7.5,32.5 Z" id="Path-118" fill="#A86F59" transform="translate(10.327610, 32.708653) rotate(6.000000) translate(-10.327610, -32.708653) "></path>
                    </g>
                    <g id="Legs" transform="translate(38.000000, 148.686579)">
                        <polygon id="Path-8" fill="#FFB294" points="40.5920477 190.073381 37.8008234 205.395759 26.8687008 205.395759 26.8687008 190.073381"></polygon>
                        <polygon id="Path-10" fill="#FFB294" points="105.440268 187.10643 106.440268 206.192006 95.1140216 206.192006 91.1340297 187.10643"></polygon>
                        <path d="M26.8687008,202.313421 L38.5653195,202.313421 L38.5443815,216.306929 C38.5435592,216.856465 38.0994565,217.30237 37.5499282,217.305418 L1.16790324,217.50718 C0.615626983,217.510242 0.165435783,217.065017 0.162373052,216.512741 C0.162087117,216.46118 0.165789337,216.409675 0.173446591,216.358686 L0.534227704,213.956267 C0.585954091,213.611824 0.813176427,213.31911 1.13403269,213.183583 L26.8687008,202.313421 L26.8687008,202.313421 Z" id="Path-85" fill="#15113B"></path>
                        <path d="M120.868701,202.313421 L133.56532,202.313421 L133.544382,216.30679 C133.543559,216.856381 133.099372,217.302308 132.549788,217.305279 L95.1677384,217.507344 C94.6154617,217.51033 94.1653329,217.065041 94.1623477,216.512764 C94.1620692,216.461251 94.1657717,216.409793 94.173422,216.35885 L94.5342277,213.956267 C94.5859541,213.611824 94.8131764,213.31911 95.1340327,213.183583 L120.868701,202.313421 L120.868701,202.313421 Z" id="Path-85" fill="#15113B" transform="translate(113.782660, 209.913539) scale(-1, 1) translate(-113.782660, -209.913539) "></path>
                        <path d="M43.0602021,1.94693456 L27.1535243,103.603363 L24.7501171,200.576724 L40.5920477,200.576724 L55.0293957,106.888753 L66.91889,52.3690463 L75.0385108,109.603363 L91.0404354,200.576724 L108.32492,200.576724 L103.448834,103.603363 L95.6171462,-1.27897692e-13 C90.4123501,2.58612789 83.4683728,4.31137763 74.7852143,5.17574922 C66.1020559,6.0401208 55.5270518,4.96384925 43.0602021,1.94693456 Z" id="Path-4" fill="#15113B" fill-rule="nonzero"></path>
                        <polygon id="Path" fill="#26234A" fill-rule="nonzero" points="77.6153219 6.57596479 95.7027624 1.133 103.448834 103.603363 108.32492 200.576724 106.00603 200.576 91.3987624 11.725 82.0151919 14.6581089 77.4407624 11.7691599"></polygon>
                        <polygon id="Path" fill="#26234A" fill-rule="nonzero" points="66.5121171 54.229 55.0293957 106.888753 41.3141171 195.888 48.9741335 109.471316"></polygon>
                        <path d="M42.096109,8.10478767 L43.0602021,1.94693456 C46.6241439,2.80939048 50.0334771,3.51324996 53.2882019,4.058513 L53.2876264,14.6581089 L50.4061409,13.3470638 C48.1496425,12.3105776 46.4417491,11.4984917 45.2824606,10.9108061 C44.2781364,10.4016775 43.2160192,9.46633802 42.096109,8.10478767 L43.0602021,1.94693456 L42.096109,8.10478767 Z" id="Path" fill="#26234A" fill-rule="nonzero"></path>
                        <path d="M40.8354351,24.7894526 L48.8030851,17.8287288 C49.0110452,17.64705 49.0323505,17.3311852 48.8506717,17.1232251 C48.6689929,16.9152649 48.3531281,16.8939597 48.1451679,17.0756385 L40.177518,24.0363623 C39.9695578,24.2180411 39.9482526,24.5339059 40.1299314,24.741866 C40.3116102,24.9498261 40.627475,24.9711314 40.8354351,24.7894526 Z" id="Path-12" fill="#09D5B0" fill-rule="nonzero"></path>
                        <path d="M87.7704578,19.442822 L96.1734239,24.6117435 C96.4086295,24.7564257 96.7165894,24.6830419 96.8612716,24.4478363 C97.0059538,24.2126307 96.93257,23.9046708 96.6973644,23.7599886 L88.2943982,18.5910671 C88.0591926,18.4463849 87.7512327,18.5197687 87.6065506,18.7549743 C87.4618684,18.9901799 87.5352522,19.2981398 87.7704578,19.442822 Z" id="Path-13" fill="#09D5B0" fill-rule="nonzero"></path>
                    </g>
                    <g id="Hand2" transform="translate(0.000000, 26.000000)">
                        <path d="M25.0327513,16.641521 C26.0138747,16.641521 23.8431532,20.7580844 24.3615281,22.0552378 C24.879903,23.3523911 25.4162102,24.8276519 26.572376,24.0900215 C27.7285418,23.3523911 28.9115162,22.0738632 29.1091299,20.464429 C29.3067435,18.8549947 29.5482759,16.8878718 29.2973096,16.1117392 C29.0463434,15.3356065 24.9412871,12.6880066 26.0480545,11.0938395 C27.0540343,9.64484486 31.1950399,13.7730494 32.0634771,15.1684185 C32.9280226,16.5575347 34.2454042,22.1076799 34.2454042,23.2812163 C34.2454042,25.1709259 29.6213164,32.0312973 28.3575369,34.9951004 C28.1978076,35.3696959 26.1902404,38.3852631 22.3348353,44.0418019 L13.3099643,37.6025371 C17.8000876,33.4164323 20.0896277,31.1363559 20.1785847,30.762308 C20.8409976,27.9769822 19.6810491,23.6460466 20.1785847,22.0552378 C20.6761202,20.464429 24.051628,16.641521 25.0327513,16.641521 Z" id="Path-44" fill="#FFB294" transform="translate(23.777684, 27.415885) rotate(-66.000000) translate(-23.777684, -27.415885) "></path>
                        <g id="Group-35" transform="translate(15.000000, 20.500000) rotate(-108.000000) translate(-15.000000, -20.500000) translate(9.000000, 7.000000)" fill-rule="nonzero">
                            <path d="M4.12542134,7.2 L5.05229309,3.492513 C5.17284695,3.01029758 5.66148799,2.71711296 6.14370341,2.83766681 C6.46616011,2.91828099 6.71793542,3.1700563 6.79854959,3.492513 L7.72542134,7.2 L7.72542134,7.2 L7.72542134,25.2 C7.72542134,26.1941125 6.91953389,27 5.92542134,27 C4.93130879,27 4.12542134,26.1941125 4.12542134,25.2 L4.12542134,7.2 L4.12542134,7.2 Z" id="Rectangle" fill="#FFDC69" transform="translate(5.925421, 13.500000) rotate(16.000000) translate(-5.925421, -13.500000) "></path>
                            <path d="M9.07418486,3.31087421 C9.36192985,3.47724664 9.53455313,3.78866729 9.52316334,4.12085284 L9.39220774,7.94019856 L9.38619038,7.96094071 C8.76397094,7.52238666 8.22603445,7.23593778 7.77238089,7.10159409 C7.30639481,6.96359828 6.69228462,6.91589013 5.93005034,6.95846965 L5.93166563,6.94790408 L7.84455386,3.63951931 C8.09335424,3.20921325 8.64387879,3.06207382 9.07418486,3.31087421 Z" id="Path" fill="#15113B"></path>
                            <path d="M2.51693058,23.5240368 C3.51104313,23.5240368 4.31693058,24.3299243 4.31693058,25.3240368 C4.31693058,25.4089506 4.31105082,25.4924911 4.29967623,25.5742733 C3.91402073,26.3210705 3.04329073,26.7176047 2.20431704,26.4770329 C1.32923926,26.2261084 0.792160444,25.369077 0.918277023,24.4926087 C1.22025458,23.917059 1.82269496,23.5240368 2.51693058,23.5240368 Z" id="Path" fill="#15113B"></path>
                        </g>
                        <path d="M62.6663134,20.2876295 L62.6709334,20.3382954 C62.6829059,21.3528732 54.8821079,35.0866019 47.2178987,50.1373174 C72.4083098,54.5978971 85.7687209,58.793789 87.2991321,62.7249932 C88.927422,66.907621 88.7943237,71.6064212 80.0525608,75.0429861 C71.310798,78.479551 32.4508305,67.2905846 27.701322,64.6182098 C20.5054396,60.5693499 22.6419885,55.4909306 26.0973463,47.9146516 C29.5527041,40.3383727 45.376304,14.3096723 47.8252968,13.0831597 C48.0559055,12.9676656 62.4536365,19.3072597 62.6663134,20.2876295 Z" id="Path" fill="#383458" fill-rule="nonzero" transform="translate(55.503588, 44.387109) rotate(-61.000000) translate(-55.503588, -44.387109) "></path>
                        <path d="M85.5307102,44.3871086 L84.428249,53.4704764 L83.4930866,54.5900683 C74.4530076,65.3174569 62.5674109,76.7571739 59.7193017,78.5117507 C58.3004562,79.38583 57.0292372,79.9070755 55.8631438,80.1272603 L85.5307102,44.3871086 Z" id="Path" fill="#15113B" fill-rule="nonzero"></path>
                    </g>
                    <g id="Body" transform="translate(70.169840, 50.143610)">
                        <path d="M41.4944536,7.34157373 L54.2221843,0.472666033 C65.7571819,0.0601938614 73.7412614,1.34982976 78.1744229,4.34157373 C78.6542759,4.66540518 79.686024,5.48743179 81.2696673,6.80765356 L77.4523958,35.8132045 C69.3230251,72.0565425 65.3795312,92.3004815 65.6219141,96.5450216 C65.8308596,100.204014 54.4733033,105.144727 39.0968955,105.543683 C27.7176705,105.838928 11.1889706,102.43854 10.8903624,100.489903 C10.1882539,95.9081327 5.14999372,94.8627994 4.09318698,89.338592 C3.38864915,85.6557871 5.50217349,65.0027328 10.43376,27.3794291 L14.6264463,1.84799177 C17.1165553,1.00399017 18.736925,0.545548257 19.4875554,0.472666033 C22.899402,0.14139385 28.3773306,0.14139385 35.9213414,0.472666033 L41.4944536,7.34157373 Z" id="Path-2" fill="#FFFFFF"></path>
                        <path d="M42.4946521,7.08185854 L41.0303896,6.75638116 L40.0751393,11.0724969 L38.8896301,16.4852704 C29.7273351,58.5804546 25.8607663,82.727202 27.2768859,89.2903044 L27.3233614,89.4917157 C28.6349467,94.809874 29.4086316,100.071204 29.64486,105.27627 L31.1433176,105.208264 C30.9025758,99.9037489 30.1145635,94.5449872 28.7797247,89.1325417 C27.2089068,82.7632586 31.7861032,55.2576356 42.4946521,7.08185854 Z" id="Path-87" fill-opacity="0.401742788" fill="#09D5B0" fill-rule="nonzero"></path>
                        <path d="M63.4473065,98.5429688 L63.9281968,105.160357 C51.6068326,109.064233 40.6511384,110.495372 31.0611143,109.453775 C22.348443,108.507469 15.4064877,106.966956 10.2352484,104.832235 L10.8903624,100.489903 C23.3572121,103.506818 33.9322162,104.58309 42.6153746,103.718718 C51.0354071,102.880539 57.8200662,101.232867 62.9693521,98.7756997 L63.4473065,98.5429688 Z" id="Path" fill="#09D5B0" fill-rule="nonzero"></path>
                        <polygon id="Path-9" fill="#09D5B0" fill-rule="nonzero" points="54.2221843 0.472666033 42.1267807 6.91911985 49.5293228 15.0040433 56.9318649 0.472666033"></polygon>
                        <polygon id="Path-11" fill="#09D5B0" fill-rule="nonzero" points="35.9213414 0.472666033 41.7625208 6.91911985 33.6062568 14.1796065 32.8345783 0.329485198"></polygon>
                        <path d="M56.218948,0.224211896 C48.4449216,37.5750568 44.5579083,62.2992275 44.5579083,74.396724 C44.5579083,86.4942205 44.7955798,98.4660221 45.2709227,110.312129 C52.1933761,109.64947 57.2724531,108.856252 60.5081536,107.932474 C63.7438541,107.008696 68.321995,104.643588 74.2425762,100.837152 C71.7369105,87.043856 71.0840214,76.0007019 72.2839089,67.7076893 C73.4837964,59.4146766 76.0573403,39.2659037 80.0045406,7.2613706 C78.0266757,4.01964302 74.3345955,2.09007484 68.9283,1.47266603 C63.5220045,0.85525723 59.2855538,0.43910585 56.218948,0.224211896 Z" id="Path-88" fill="#383458" fill-rule="nonzero"></path>
                        <path d="M76.1550805,30.778082 L76.1543808,38.1782185 L74.2611215,53.007658 C73.4014778,59.6387732 72.742407,64.5387836 72.2839089,67.7076893 C71.6905579,71.8086296 71.550277,76.5820776 71.863066,82.0280334 L52.6040851,61.619278 L53.3335421,40.2473965 L68.3761698,42.0668862 L76.1550805,30.778082 Z" id="Path" fill="#15113B" fill-rule="nonzero"></path>
                        <path d="M56.218948,0.224211896 L57.0341739,0.283973834 C57.4547062,0.316077422 57.8946175,0.351514936 58.3539079,0.390286377 L62.9137878,15.0040433 L55.5496736,21.0943684 L60.5081536,27.6559514 L44.7338828,69.3667462 L44.7877325,68.5551365 C45.7258944,55.1084307 49.5362996,32.3314559 56.218948,0.224211896 Z" id="Path" fill="#FFD343" fill-rule="nonzero"></path>
                        <path d="M33.8345783,0.329485198 C26.2801524,33.2047725 21.8771609,54.1389803 20.6256037,63.1321087 C19.3740466,72.125237 18.5667999,87.5657924 18.2038636,109.453775 C8.31712015,105.582989 2.39289821,102.579849 0.431197857,100.444354 C-1.5305025,98.3088583 3.20124696,65.4434043 14.6264463,1.84799177 C15.9068557,1.09614554 17.9065748,0.554885587 20.6256037,0.224211896 C23.3446326,-0.106461795 27.7476242,-0.0713706942 33.8345783,0.329485198 Z" id="Path-89" fill="#383458" fill-rule="nonzero"></path>
                        <path d="M33.8345783,0.329485198 L31.6627936,9.83383901 C25.5695512,36.6624619 21.9167797,54.2439128 20.7044789,62.5781917 L20.6256037,63.1321087 C20.5624074,63.5862094 20.5003438,64.0567489 20.4394132,64.5437272 L19.1742471,25.0820387 L25.7630752,18.6702923 L20.7131617,11.8480272 L31.540254,0.191382439 L33.0507311,0.279308308 C33.3088347,0.295343499 33.5701172,0.312069129 33.8345783,0.329485198 Z" id="Path" fill="#FFD343" fill-rule="nonzero"></path>
                    </g>
                    <g id="Group-56" transform="translate(68.000000, 62.000000)" fill-rule="nonzero">
                        <g id="Group-3">
                            <path d="M3.67725381,0.744116329 L33.1761739,0.744116329 C34.3812878,0.744116329 35.4694274,1.46523766 35.9390306,2.57509004 L50.5860687,37.1916498 C50.927107,37.997654 50.7044842,38.9317792 50.0365742,39.4973285 L48.9328489,40.431902 L48.9328489,40.431902 L21.4267746,40.0544778 C20.3025661,40.039052 19.281352,39.3963273 18.781166,38.3894029 L1.35089634,3.30052842 L1.35089634,3.30052842 L1.7956716,2.06614257 C2.08149242,1.27290338 2.83409193,0.744116329 3.67725381,0.744116329 Z" id="Rectangle" fill="#15113B"></path>
                            <path d="M3.16832458,2 L32.0156927,2 C33.2188738,2 34.3056602,2.71883939 34.7764733,3.826079 L49.4126009,38.2467402 C49.8448267,39.2632315 49.3711859,40.4376488 48.3546945,40.8698746 C48.1071992,40.9751129 47.8410211,41.0293542 47.5720805,41.0293542 L20.4895511,41.0293542 C19.3326616,41.0293542 18.2788622,40.364145 17.7812497,39.3197431 L1.36279032,4.86025929 C0.887682237,3.86309025 1.31089626,2.66957383 2.30806529,2.19446574 C2.57677503,2.06643713 2.87067336,2 3.16832458,2 Z" id="Rectangle" fill="#8EECDB"></path>
                            <path d="M5.29748431,5 C6.08477101,5 6.79646656,5.46872185 7.10739836,6.19200725 L8.21294959,8.76372581 C8.39933775,9.19729947 8.19895431,9.69987783 7.76538065,9.886266 C7.65876928,9.93209696 7.54394011,9.95573306 7.42789503,9.95573306 C6.64060833,9.95573306 5.92891277,9.48701121 5.61798098,8.76372581 L4.51242974,6.19200725 C4.32604158,5.75843359 4.52642502,5.25585523 4.95999868,5.06946706 C5.06661005,5.0236361 5.18143922,5 5.29748431,5 Z" id="Rectangle" fill="#15113B"></path>
                            <path d="M23.5227985,19 C23.8865629,19 24.2619362,19.0647433 24.6335257,19.1833355 C24.652229,19.2855544 24.684407,19.3914302 24.7292319,19.5 C25.0712621,20.3284271 26.0201052,21 26.8485323,21 C26.9571021,21 27.0582156,20.9884654 27.1511926,20.9665548 C27.4025265,21.2875927 27.6112129,21.6362355 27.7613992,22 C28.4454595,23.6568542 27.6568542,25 26,25 C24.3431458,25 22.4454595,23.6568542 21.7613992,22 C21.0773389,20.3431458 21.8659442,19 23.5227985,19 Z" id="Combined-Shape" fill="#EAEFFF"></path>
                        </g>
                    </g>
                    <g id="Hand" transform="translate(141.900015, 90.416468) rotate(27.000000) translate(-141.900015, -90.416468) translate(98.900015, 56.416468)">
                        <path d="M24.7076975,52.2936442 C24.3254477,49.4961131 23.8965087,47.4002545 23.4208803,46.0060684 C22.7074378,43.9147892 22.6789468,36.9001054 21.0602014,36.9001054 C19.441456,36.9001054 18.9294391,39.8970208 18.9294391,41.3873638 C18.9294391,42.3809257 18.9698397,43.1571832 19.050641,43.7161361 C12.0113494,36.5741589 8.12445649,33.2538718 7.38996227,33.7552747 C6.65546806,34.2566777 6.79669831,35.7279612 7.81365303,38.1691253 C7.20883984,38.9221121 6.86154981,39.4629959 6.77178294,39.7917768 C6.37596405,41.2415066 7.92008138,42.674732 8.4917036,44.4820423 C8.93448815,45.8820037 8.40348813,45.1138371 8.40348813,48.5740132 C8.40348813,52.0341892 10.908981,54.8484558 13.8853884,56.2020314 C15.86966,57.1044152 18.2164726,58.2734135 20.9258262,59.7090265 C25.1015061,63.4095492 27.4174133,64.7040629 27.873548,63.5925676 C28.2024492,62.791111 28.5788786,56.9365085 28.9341153,56.0462393 C29.0257294,55.8166423 27.6169235,54.5657773 24.7076975,52.2936442 Z" id="Path-17" fill="#FFB294" transform="translate(17.823004, 48.841805) rotate(-35.000000) translate(-17.823004, -48.841805) "></path>
                        <path d="M34.8221422,0.550405096 C36.4681054,1.20405445 89.900529,37.1050709 85.4649795,49.1915592 C81.9515428,58.7653697 36.1412569,60.3725209 32.9657427,59.9199894 C31.9898038,59.7809117 26.834764,44.0597222 27.5123919,43.43742 C28.1900198,42.8151178 57.9648206,41.8129877 57.9648206,39.8454935 C57.9648206,38.5338307 49.2100729,34.1191435 40.0330205,28.0324714 C30.8559681,21.9457993 20.169789,11.4392191 26.3095684,3.20876435 C28.2417276,0.618679572 33.1761789,-0.103244256 34.8221422,0.550405096 Z" id="Path" fill="#383458" fill-rule="nonzero"></path>
                    </g>
                </g>
                <g id="Group-51" transform="translate(159.338932, 187.600713) rotate(8.000000) translate(-159.338932, -187.600713) translate(137.838932, 159.100713)">
                    <g id="Group-37" transform="translate(24.501760, 32.806080)" fill="#FFE1F7" fill-rule="nonzero">
                        <path d="M0.82944,0 L10.57536,0 C11.0334471,-6.75830711e-16 11.4048,0.371352937 11.4048,0.82944 L11.4048,10.57536 C11.4048,11.0334471 11.0334471,11.4048 10.57536,11.4048 L0.82944,11.4048 C0.371352937,11.4048 5.60994855e-17,11.0334471 0,10.57536 L0,0.82944 C1.65945119e-16,0.371352937 0.371352937,8.41492283e-17 0.82944,0 Z" id="Rectangle"></path>
                    </g>
                    <g id="Group-37" transform="translate(0.219936, 0.942571)">
                        <path d="M3.42144,2.592 L37.5426457,2.592 L37.5426457,2.592 L41.57568,7.23703154 L41.57568,54.63936 C41.57568,55.0974471 41.2043271,55.4688 40.74624,55.4688 L3.42144,55.4688 C2.96335294,55.4688 2.592,55.0974471 2.592,54.63936 L2.592,3.42144 C2.592,2.96335294 2.96335294,2.592 3.42144,2.592 Z" id="Rectangle" fill="#8EECDB" fill-rule="nonzero"></path>
                        <path d="M0.82944,0 L32.3586457,0 L32.3586457,0 L38.98368,7.23703154 L38.98368,52.04736 C38.98368,52.5054471 38.6123271,52.8768 38.15424,52.8768 L0.82944,52.8768 C0.371352937,52.8768 1.61041172e-15,52.5054471 0,52.04736 L0,0.82944 C-5.60994855e-17,0.371352937 0.371352937,1.63846146e-15 0.82944,0 Z" id="Rectangle" stroke-opacity="0.401742788" stroke="#09D5B0" stroke-width="0.648" fill="#FFFFFF" fill-rule="nonzero"></path>
                        <circle id="Oval" fill-opacity="0.100551792" fill="#09D5B0" fill-rule="nonzero" cx="8.1" cy="28.512" r="1.944"></circle>
                        <path d="M32.6252627,0.246460956 L38.7853127,6.98620129 C38.8336015,7.03903432 38.8299177,7.12100977 38.7770847,7.16929859 C38.7531987,7.19113006 38.7220097,7.20323593 38.68965,7.20323593 L33.4368,7.20323593 C32.8641912,7.20323593 32.4,6.73904476 32.4,6.16643593 L32.4,0.333895594 C32.4,0.262319491 32.4580239,0.204295594 32.5296,0.204295594 C32.5659934,0.204295594 32.6007098,0.219597591 32.6252627,0.246460956 Z" id="Path-6" stroke-opacity="0.401742788" stroke="#09D5B0" stroke-width="0.648" fill="#FFFFFF" fill-rule="nonzero"></path>
                        <path d="M6.50287061,15.0827845 C6.17903501,14.7122729 5.61615538,14.6744345 5.24564378,14.9982701 C4.87513217,15.3221057 4.83729379,15.8849853 5.16112939,16.255497 L7.29030896,18.6915656 C7.73190296,19.1968087 8.49946609,19.2484065 9.00470919,18.8068125 C9.10165921,18.7220759 9.18452333,18.622467 9.2501998,18.5117142 L13.0203233,12.1540055 C13.2713175,11.730744 13.1316673,11.1841518 12.7084058,10.9331576 C12.2851443,10.6821635 11.7385521,10.8218137 11.4875579,11.2450751 L8.11679309,16.9293295 L6.50287061,15.0827845 Z" id="Path-7" fill="#8EECDB"></path>
                        <path d="M15.3022097,18.3610729 L31.5644413,18.4258802 C32.0565231,18.4278337 32.4570238,18.0305121 32.4589918,17.5384303 C32.4609454,17.0463485 32.0636238,16.6458479 31.571542,16.6438871 L15.3093103,16.5790798 C14.8172285,16.5771263 14.4167279,16.9744479 14.4147598,17.4665297 C14.4128063,17.9586115 14.8101279,18.3591121 15.3022097,18.3610729 Z" id="Path-8" fill="#15113B"></path>
                        <path d="M15.3022097,29.7010729 L31.5644413,29.7658802 C32.0565231,29.7678337 32.4570238,29.3705121 32.4589918,28.8784303 C32.4609454,28.3863485 32.0636238,27.9858479 31.571542,27.9838871 L15.3093103,27.9190798 C14.8172285,27.9171263 14.4167279,28.3144479 14.4147598,28.8065297 C14.4128063,29.2986115 14.8101279,29.6991121 15.3022097,29.7010729 Z" id="Path-8" fill="#15113B"></path>
                        <circle id="Oval" fill-opacity="0.100551792" fill="#09D5B0" fill-rule="nonzero" cx="8.1" cy="40.176" r="1.944"></circle>
                        <path d="M14.9635162,41.1484027 L31.2257478,41.2132171 C31.7178296,41.2151635 32.1183303,40.8178419 32.1203055,40.3257601 C32.1222519,39.8336783 31.7249303,39.4331776 31.2328485,39.4312169 L14.9706168,39.3664025 C14.478535,39.3644561 14.0780344,39.7617776 14.0760592,40.2538594 C14.0741128,40.7459413 14.4714344,41.1464419 14.9635162,41.1484027 Z" id="Path-8" fill="#15113B"></path>
                    </g>
                </g>
                <g id="GirlShrt8" transform="translate(55.000000, 138.000000)">
                    <g id="Group-12" transform="translate(15.941811, 134.406870)">
                        <path d="M6.31918442,141.82371 L6.33141303,139.660563 C6.33141303,127.717575 11.0703598,113.287582 11.1822902,106.968421 C11.2942205,100.649261 1.84651223,44.6853448 4.52499224,30.6085182 C6.23921945,21.5993492 8.67376746,13.3720457 11.8286363,5.92660755 L12.2267465,5 L57.2901993,5 L60.1575303,26.9828732 C66.7191768,77.5098981 70,104.505081 70,107.968421 L69.9940026,108.547664 C69.9230333,112.635694 69.2222111,128.453687 67.891536,156.001644 L66.1896061,190.711 L66.2296373,190.707043 L67.5841243,192.092658 C76.350297,201.109369 79.8416518,205.711719 78.0581888,205.899706 C76.8422918,206.027868 69.0446918,201.49756 54.665389,192.30878 L54.665389,191.707043 L53.9250557,183.303228 C52.0526347,162.387512 50.6110887,149.009775 49.6004174,143.170017 L49.4621899,142.404088 C47.7522007,133.350967 49.4621899,114.069001 49.4621899,110.288748 C49.4621899,107.89358 43.9270331,90.1841392 32.8567195,57.1604254 L31.0782611,51.864914 L31.0782611,109.288748 L31.0721517,109.598465 C30.8786847,114.92563 26.0903784,140.360303 16.7072327,185.902484 L15.4944387,191.777192 L16.4514973,192.867954 C23.7031249,201.181533 26.4709827,205.525451 24.7550708,205.899706 C22.9656199,206.290001 16.2222603,201.915829 4.52499224,192.777192 L5.19323962,177.037925 C5.87337139,160.36745 6.24868632,148.629378 6.31918442,141.82371 L6.31918442,141.82371 Z" id="Path" fill="#FFA475"></path>
                        <path d="M9.47530917,91.7754628 L31.0773092,79.3364783 L31.0782611,109.288748 L31.0721517,109.598465 C30.8786847,114.92563 26.0903784,140.360303 16.7072327,185.902484 L15.4944387,191.777192 L16.4514973,192.867954 C23.7031249,201.181533 26.4709827,205.525451 24.7550708,205.899706 C23.507441,206.171825 19.8516813,204.127903 13.7877919,199.767941 L25.0536074,107.046162 C18.9653265,105.913554 14.2309683,104.482066 10.8505328,102.751695 L10.7591343,101.936775 C10.4540042,99.2689345 10.0022219,95.7825755 9.47530917,91.7754628 Z M38.7612608,74.9139611 L64.4225387,60.1424783 L66.6360144,77.7658604 C68.5711835,93.3930757 69.6714323,103.031791 69.936761,106.682007 L69.9756187,107.276423 L69.9756187,107.276423 L69.9860563,107.477342 C69.993493,107.634966 69.9979549,107.771255 69.9994423,107.886207 L69.9940026,108.547664 C69.9230333,112.635694 69.2222111,128.453687 67.891536,156.001644 L66.1896061,190.711 L66.2296373,190.707043 L67.5841243,192.092658 C76.350297,201.109369 79.8416518,205.711719 78.0581888,205.899706 C77.1585459,205.994533 72.6557305,203.539067 64.5497428,198.533308 L64.5486109,109.003716 C59.813216,109.502047 54.7560609,109.680467 49.3776163,109.539713 L49.3351011,109.306664 C48.640858,105.673789 45.1163938,94.2097202 38.7612608,74.9139611 Z" id="Shape" fill-opacity="0.0964543269" fill="#000000" fill-rule="nonzero"></path>
                        <g id="Group-36" transform="translate(0.633061, 0.000000)" fill-rule="nonzero">
                            <path d="M9.39589172,-3.55271368e-14 C7.86805219,2.67332051 6.8670181,4.505847 6.39278946,5.49757948 C6.21343757,5.87264983 6.0525014,6.22579303 5.90998098,6.5570091 C3.85314546,11.3370746 2.17275311,17.1742689 0.868803953,24.068592 C-2.09670666,39.7480288 3.49086429,92.7331816 3.36693928,99.7717619 C3.36176842,100.065452 17.8086834,104.126082 33.3952138,104.372662 C44.6940004,104.551409 56.5847392,103.172023 63.9331731,101.424628 C64.6872652,101.245312 65.3983677,98.3731605 66.0664808,92.8081746 C68.1216943,97.4942445 69.3833937,99.7103779 69.851579,99.4565747 C70.6894689,99.0023548 71.1459046,98.5516604 71.1459046,98.1218722 C71.1459046,93.7381983 66.4309501,61.0309076 57.0010411,-3.55271368e-14 L9.39589172,-3.55271368e-14 Z" id="Path-48" fill="#383458"></path>
                            <path d="M44.6769707,1.98056634 L57.228796,1.47447244 L60.1221629,20.2903892 C67.2235995,66.6895372 70.8940049,92.4778369 71.1333792,97.6552883 L71.1439707,97.9854745 L44.6769707,1.98056634 Z" id="Path" fill="#514E6D"></path>
                        </g>
                        <path d="M1.77605932,192.288152 L1.77605932,211.25982 C1.77605932,211.812104 2.22377457,212.25982 2.77605932,212.25982 L3.57791059,212.25982 C4.0576505,212.25982 4.46979665,211.91913 4.56005341,211.447957 L6.54533874,201.084046 L6.54533874,201.084046 C13.0635455,208.534562 17.0459771,212.25982 18.4926335,212.25982 C19.7255103,212.25982 23.6267463,212.25982 30.1963416,212.25982 C31.3009005,212.259801 32.1963225,211.364379 32.1963225,210.25982 C32.1963225,209.804572 32.0410075,209.362946 31.7560418,209.007918 C30.8864011,207.924463 29.9834705,207.107425 29.0472502,206.556801 C27.3591381,205.563965 21.8434456,200.74744 12.5001729,192.107228 C12.2176228,191.845965 11.8657054,191.671749 11.4866235,191.605492 L4.12040112,190.318018 C3.03232605,190.127843 1.99609986,190.855735 1.80592513,191.94381 C1.78605189,192.057514 1.77605932,192.172724 1.77605932,192.288152 Z" id="Path-49" fill="#15113B"></path>
                        <path d="M52.7760593,191.208403 L52.7760593,211.25982 C52.7760593,211.812104 53.2237746,212.25982 53.7760593,212.25982 L54.5779106,212.25982 C55.0576505,212.25982 55.4697967,211.91913 55.5600534,211.447957 L57.5453387,201.084046 L57.5453387,201.084046 C64.0635455,208.534562 68.0459771,212.25982 69.4926335,212.25982 C70.8013573,212.25982 75.5237317,212.25982 83.6597567,212.25982 C84.7643279,212.259823 85.6597597,211.364391 85.6597597,210.25982 C85.6597597,209.95984 85.5922793,209.663702 85.4623155,209.393336 C84.874845,208.171212 84.0675514,207.258109 83.0404349,206.654027 C81.3341669,205.650513 74.8987794,201.062008 63.7342722,192.888513 C63.6338199,192.814947 63.5205038,192.760806 63.4001631,192.728857 L54.0326594,190.241885 C53.4988664,190.100169 52.9512579,190.41801 52.8095416,190.951803 C52.7873143,191.035525 52.7760593,191.12178 52.7760593,191.208403 Z" id="Path-49" fill="#15113B"></path>
                    </g>
                    <g id="Hand2" transform="translate(0.000000, 50.000000)" fill-rule="nonzero">
                        <path d="M24.3382874,28.1869641 C18.3906907,41.9956147 15.7439509,48.89994 16.398068,48.89994 C17.0521851,48.89994 21.0170779,50.1898356 28.2927462,52.7696266 L28.2927462,62.7042995 C13.501872,62.3037485 5.07617032,60.9013815 3.01564126,58.4971983 C-0.0751523164,54.8909235 -0.839613366,51.4063779 4.01564126,38.4733306 C8.87089589,25.5402832 14.1527674,5.64591004 20.2782562,1.37290653 C26.403745,-2.90009697 27.0453859,3.80673812 26.7245655,7.7867021 C26.5106852,10.4400114 25.7152591,17.2400988 24.3382874,28.1869641 Z" id="Path-82" fill="#514E6D"></path>
                        <path d="M21.5,17.5 L24.4467447,27.3237256 L24.3382874,28.1869641 L24.3382874,28.1869641 L22.7466843,31.902399 C17.9843821,43.0869282 15.8609381,48.7518196 16.3763521,48.8970732 L16.4902976,48.9058911 C17.3682487,49.003092 21.3023982,50.2910038 28.2927462,52.7696266 L28.2927462,54.197 L12.011659,51.2594378 L21.5,17.5 Z" id="Path" fill="#383458"></path>
                        <polygon id="Path-83" fill="#15113B" points="24.2213319 50.912782 23.2130618 64.3656097 29.6251326 64.3656097 28.2927462 50.912782"></polygon>
                    </g>
                    <g id="Head" transform="translate(30.000000, 0.000000)">
                        <path d="M33.6410724,7.3679667 C36.3316173,12.4993153 34.3639189,40.258468 27.4209084,40.258468 C25.694311,40.258468 24.6389362,40.559464 24.2547841,41.161456 L24.2547841,47.6336142 L10.6971289,47.6336142 C10.6596115,44.2644778 10.3107693,41.2343437 9.65060242,38.543212 C8.66035203,34.5065143 2.25091153,16.9068708 6.88948997,8.31854833 C11.5280684,-0.269774083 30.9505275,2.23661811 33.6410724,7.3679667 Z" id="Path-46" fill="#FFA475"></path>
                        <path d="M27.4209084,40.258468 C25.694311,40.258468 24.6389362,40.559464 24.2547841,41.161456 L24.2546201,41.8156031 L9.8203402,39.2897784 C9.76625363,39.0328708 9.70967437,38.7840153 9.65060242,38.543212 L9.55687221,38.1795758 C9.50419337,37.9828188 9.44305138,37.7640063 9.37460478,37.5247265 L31.8369665,35.5046031 C30.6983252,38.377625 29.2281699,40.258468 27.4209084,40.258468 Z" id="Path" fill-opacity="0.0964543269" fill="#000000" fill-rule="nonzero"></path>
                        <path d="M1.9388434,40.8785253 C5.19028677,39.9935761 7.39998787,39.4212331 8.56794671,39.1614962 C10.8902485,38.6450503 13.6430574,38.2667532 16.4791865,38.2667532 C18.9074372,38.2667532 22.7584488,38.6450503 28.0105166,39.8285253 C29.8617479,40.2456727 34.0664914,40.7326182 40.6247473,41.2893621 C38.2433366,19.0202355 35.5370916,6.53253133 32.5060123,3.82624946 C29.4749331,1.11996758 25.0888512,0.0272056086 19.3477669,0.547963535 C14.1635841,-0.782665281 9.87031071,0.310096693 6.46794671,3.82624946 C-0.204840197,10.7222012 -1.7145413,23.0729599 1.9388434,40.8785253 Z" id="Path-75" fill="#15113B" fill-rule="nonzero"></path>
                    </g>
                    <g id="Body" transform="translate(19.934203, 44.915938)">
                        <path d="M1.30517977,6.29349196 C7.01385423,-0.694701764 47.0757436,2.81935771 47.969302,3.36603559 C53.6346751,15.0458808 56.8852361,23.8233851 57.720985,29.6985486 C58.9746084,38.5112939 56.5656612,47.2621713 55.2425102,52.0562539 C54.3218022,69.4585808 53.6312711,82.5103259 53.1709171,91.2114894 C53.0929742,92.6846908 4.95167859,93.9735398 5.37886063,91.2641004 C6.6262455,83.352453 8.77124613,69.0994468 8.67224093,65.6305507 C8.53933021,60.9736892 -3.99239216,12.7784403 1.30517977,6.29349196 Z" id="Path" fill="#514E6D" fill-rule="nonzero"></path>
                        <polygon id="Rectangle" fill="#15113B" fill-rule="nonzero" points="18.0657967 0.0840617779 36.0657967 0.0840617779 37.0657967 4.08406178 17.0657967 4.08406178"></polygon>
                        <path d="M6.03656028,89.4909321 L53.6417096,89.4909321 L54.216482,92.6447765 L54.216482,92.6447765 C44.0735451,93.1828764 34.8364239,93.4520648 26.5061195,93.4520648 C18.8886355,93.4520648 11.4503566,93.226974 4.19128294,92.7767925 L4.92043564,91.4614248 C5.12091354,91.1035995 5.33503637,90.724025 5.56281004,90.3226748 L6.03656028,89.4909321 Z" id="Path" fill="#FFFFFF"></path>
                        <path d="M57.720985,29.6985486 C58.9746084,38.5112939 56.5656612,47.2621713 55.2425102,52.0562539 L54.9638222,57.3035822 L46.0678222,21.0425463 L55.1621891,20.1069456 C56.4953528,23.8813328 57.3482848,27.0785338 57.720985,29.6985486 Z" id="Path" fill-opacity="0.270405376" fill="#000000" fill-rule="nonzero"></path>
                    </g>
                    <g id="Hand" transform="translate(64.000000, 40.000000)">
                        <path d="M56.1328105,8.67241131 C57.1139339,8.67241131 54.9432124,12.7889747 55.4615873,14.0861281 C55.9799622,15.3832814 56.5162694,16.8585423 57.6724352,16.1209119 C58.8286011,15.3832814 60.2091891,14.1874085 60.2091891,12.4953193 C60.2091891,10.8032301 57.7047874,2.0558734 58.9569883,1.20756438 C60.2091891,0.359255362 61.1780527,2.26981203 61.6452867,4.26522559 C62.1125207,6.26063914 65.3453579,13.4223969 65.3453579,15.3121066 C65.3453579,17.2018162 65.8323439,18.0324167 63.9961005,21.0663729 C62.1598571,24.1003292 60.7213757,24.0621876 59.4575962,27.0259907 C58.1938166,29.9897937 42.7932576,60.1349856 37.4661827,62.1714529 C33.9147995,63.5290977 27.4625783,57.7935102 18.1095193,44.9646903 L28.2523443,35.5665402 L36.8801291,45.3890738 C46.0375304,32.1820406 50.8370353,24.6500821 51.2786439,22.7931983 C51.9410568,20.0078725 50.7811084,15.6769369 51.2786439,14.0861281 C51.7761794,12.4953193 55.1516872,8.67241131 56.1328105,8.67241131 Z" id="Path-44" fill="#FFA475" transform="translate(41.756687, 31.683638) rotate(2.000000) translate(-41.756687, -31.683638) "></path>
                        <path d="M3.33184547,31.5 C5.80215423,35.6538363 27.6044274,65 32.83792,65 C36.326915,65 45.1685579,53.1666667 59.3628485,29.5 L51.1909496,22.2113903 L33.5,41.6977021 C17.8015647,20.4872638 8.08321141,9.31940549 4.34494004,8.19412708 C-1.26246701,6.50620946 0.861536706,27.3461637 3.33184547,31.5 Z" id="Path-80" fill="#514E6D" fill-rule="nonzero"></path>
                        <polygon id="Path-81" fill="#15113B" fill-rule="nonzero" points="48.10375 25.2645362 58.7379362 33.5347923 61.3628485 28.1730862 50.3847148 21.832464"></polygon>
                    </g>
                </g>
            </g>
        </g>
    </g>
</svg>