<?xml version="1.0" encoding="UTF-8"?>
<svg width="32px" height="27px" viewBox="0 0 32 27" version="1.1" xmlns="http://www.w3.org/2000/svg" xmlns:xlink="http://www.w3.org/1999/xlink">
    <!-- Generator: Sketch 63.1 (92452) - https://sketch.com -->
    <title>Videogames_space_invaders_pixel_retro_arcade</title>
    <desc>Created with Sketch.</desc>
    <g id="Page-1" stroke="none" stroke-width="1" fill="none" fill-rule="evenodd">
        <g id="Videogames_space_invaders_pixel_retro_arcade" fill="#09D5B0" fill-rule="nonzero">
            <path d="M31,13 L29,13 L29,11 C29,10.4 28.6,10 28,10 L26,10 L26,8 C26,7.4 25.6,7 25,7 L23,7 L23,5 L25,5 C25.6,5 26,4.6 26,4 L26,1 C26,0.4 25.6,0 25,0 L22,0 C21.4,0 21,0.4 21,1 L21,3 L19,3 C18.4,3 18,3.4 18,4 L18,7 L14,7 L14,4 C14,3.4 13.6,3 13,3 L11,3 L11,1 C11,0.4 10.6,0 10,0 L7,0 C6.4,0 6,0.4 6,1 L6,4 C6,4.6 6.4,5 7,5 L9,5 L9,7 L7,7 C6.4,7 6,7.4 6,8 L6,10 L4,10 C3.4,10 3,10.4 3,11 L3,13 L1,13 C0.4,13 0,13.4 0,14 L0,23 C0,23.6 0.4,24 1,24 L4,24 C4.6,24 5,23.6 5,23 L5,18 L6,18 L6,23 C6,23.6 6.4,24 7,24 L9,24 L9,26 C9,26.6 9.4,27 10,27 L14,27 C14.6,27 15,26.6 15,26 L15,23 C15,22.4 14.6,22 14,22 L11,22 L11,21 L21,21 L21,22 L18,22 C17.4,22 17,22.4 17,23 L17,26 C17,26.6 17.4,27 18,27 L22,27 C22.6,27 23,26.6 23,26 L23,24 L25,24 C25.6,24 26,23.6 26,23 L26,18 L27,18 L27,23 C27,23.6 27.4,24 28,24 L31,24 C31.6,24 32,23.6 32,23 L32,14 C32,13.4 31.6,13 31,13 Z M14,16 C14,16.6 13.6,17 13,17 L10,17 C9.4,17 9,16.6 9,16 L9,13 C9,12.4 9.4,12 10,12 L13,12 C13.6,12 14,12.4 14,13 L14,16 Z M23,16 C23,16.6 22.6,17 22,17 L19,17 C18.4,17 18,16.6 18,16 L18,13 C18,12.4 18.4,12 19,12 L22,12 C22.6,12 23,12.4 23,13 L23,16 Z" id="Shape"></path>
        </g>
    </g>
</svg>