<?xml version="1.0" encoding="UTF-8"?>
<svg width="30px" height="30px" viewBox="0 0 30 30" version="1.1" xmlns="http://www.w3.org/2000/svg" xmlns:xlink="http://www.w3.org/1999/xlink">
    <!-- Generator: Sketch 63.1 (92452) - https://sketch.com -->
    <title>Graphic Design_brightness_light_sun</title>
    <desc>Created with Sketch.</desc>
    <g id="Page-1" stroke="none" stroke-width="1" fill="none" fill-rule="evenodd">
        <g id="Graphic-Design_brightness_light_sun" fill="#FFFFFF" fill-rule="nonzero">
            <path d="M29,14 L23.9,14 C23.8,13.1 23.6,12.2 23.2,11.4 L27.6,8.9 C28.1,8.6 28.3,8 28,7.5 C27.7,7 27.1,6.9 26.6,7.1 L22.2,9.6 C21.7,8.9 21,8.2 20.3,7.7 L22.8,3.3 C23.1,2.9 23,2.3 22.5,2 C22,1.7 21.4,1.9 21.1,2.4 L18.6,6.8 C17.8,6.4 16.9,6.2 16,6.1 L16,1 C16,0.4 15.6,0 15,0 C14.4,0 14,0.4 14,1 L14,6.1 C13.1,6.2 12.2,6.4 11.4,6.8 L8.9,2.4 C8.6,1.9 8,1.7 7.5,2 C7,2.3 6.9,2.9 7.1,3.4 L9.6,7.8 C8.9,8.3 8.2,9 7.7,9.7 L3.4,7.1 C2.9,6.9 2.3,7 2,7.5 C1.7,8 1.9,8.6 2.4,8.9 L6.8,11.4 C6.4,12.2 6.2,13.1 6.1,14 L1,14 C0.4,14 0,14.4 0,15 C0,15.6 0.4,16 1,16 L6.1,16 C6.2,16.9 6.4,17.8 6.8,18.6 L2.4,21.1 C1.9,21.4 1.7,22 2,22.5 C2.2,22.8 2.5,23 2.9,23 C3.1,23 3.2,23 3.4,22.9 L7.8,20.4 C8.3,21.1 9,21.8 9.7,22.3 L7.2,26.7 C6.9,27.1 7,27.7 7.5,28 C7.7,28.1 7.8,28.1 8,28.1 C8.3,28.1 8.7,27.9 8.9,27.6 L11.4,23.2 C12.2,23.6 13.1,23.8 14,23.9 L14,29 C14,29.6 14.4,30 15,30 C15.6,30 16,29.6 16,29 L16,23.9 C16.9,23.8 17.8,23.6 18.6,23.2 L21.1,27.6 C21.3,27.9 21.6,28.1 22,28.1 C22.2,28.1 22.3,28.1 22.5,28 C23,27.7 23.1,27.1 22.9,26.6 L20.4,22.2 C21.1,21.7 21.8,21 22.3,20.3 L26.7,22.8 C26.8,23 27,23 27.1,23 C27.4,23 27.8,22.8 28,22.5 C28.3,22 28.1,21.4 27.6,21.1 L23.2,18.6 C23.6,17.8 23.8,16.9 23.9,16 L29,16 C29.6,16 30,15.6 30,15 C30,14.4 29.6,14 29,14 Z" id="Path"></path>
        </g>
    </g>
</svg>