<?xml version="1.0" encoding="UTF-8"?>
<svg width="82px" height="82px" viewBox="0 0 82 82" version="1.1" xmlns="http://www.w3.org/2000/svg" xmlns:xlink="http://www.w3.org/1999/xlink">
    <!-- Generator: Sketch 61.2 (89653) - https://sketch.com -->
    <title>Group</title>
    <desc>Created with Sketch.</desc>
    <g id="Page-1" stroke="none" stroke-width="1" fill="none" fill-rule="evenodd" stroke-dasharray="4,4" stroke-linecap="round" stroke-linejoin="bevel">
        <g id="Desktop-HD" transform="translate(-436.000000, -534.000000)" stroke="#FFC403">
            <g id="Group" transform="translate(436.000000, 534.500000)">
                <line x1="0" y1="0.5" x2="82" y2="0.5" id="Path-12"></line>
                <line x1="0" y1="5.5" x2="82" y2="5.5" id="Path-12"></line>
                <line x1="0" y1="10.5" x2="82" y2="10.5" id="Path-12"></line>
                <line x1="0" y1="15.5" x2="82" y2="15.5" id="Path-12"></line>
                <line x1="0" y1="20.5" x2="82" y2="20.5" id="Path-12"></line>
                <line x1="0" y1="25.5" x2="82" y2="25.5" id="Path-12"></line>
                <line x1="0" y1="30.5" x2="82" y2="30.5" id="Path-12"></line>
                <line x1="0" y1="35.5" x2="82" y2="35.5" id="Path-12"></line>
                <line x1="0" y1="40.5" x2="82" y2="40.5" id="Path-12"></line>
                <line x1="0" y1="45.5" x2="82" y2="45.5" id="Path-12"></line>
                <line x1="0" y1="50.5" x2="82" y2="50.5" id="Path-12"></line>
                <line x1="0" y1="55.5" x2="82" y2="55.5" id="Path-12"></line>
                <line x1="0" y1="60.5" x2="82" y2="60.5" id="Path-12"></line>
                <line x1="0" y1="65.5" x2="82" y2="65.5" id="Path-12"></line>
                <line x1="0" y1="70.5" x2="82" y2="70.5" id="Path-12"></line>
                <line x1="0" y1="75.5" x2="82" y2="75.5" id="Path-12"></line>
                <line x1="0" y1="80.5" x2="82" y2="80.5" id="Path-12"></line>
            </g>
        </g>
    </g>
</svg>