<?xml version="1.0" encoding="UTF-8"?>
<svg width="28px" height="28px" viewBox="0 0 28 28" version="1.1" xmlns="http://www.w3.org/2000/svg" xmlns:xlink="http://www.w3.org/1999/xlink">
    <!-- Generator: Sketch 63.1 (92452) - https://sketch.com -->
    <title>Business and Finance_brainstorming_brain_storming_storm</title>
    <desc>Created with Sketch.</desc>
    <g id="Page-1" stroke="none" stroke-width="1" fill="none" fill-rule="evenodd">
        <g id="Business-and-Finance_brainstorming_brain_storming_storm" fill="#FFD343" fill-rule="nonzero">
            <path d="M26,15.1 C27.2,13.9 28,12.2 28,10.5 C28,7.1 25.3,4.3 22,4 C21.8,1.7 19.8,1.77635684e-15 17.5,1.77635684e-15 C16.1,1.77635684e-15 14.8,0.7 14,1.7 C13.2,0.7 11.9,1.77635684e-15 10.5,1.77635684e-15 C8.2,1.77635684e-15 6.3,1.8 6,4 C2.6,4.2 0,7.1 0,10.5 C0,10.8 0,11.1 0.1,11.4 C0.1,11.5 0.1,11.6 0.1,11.7 C0.1,12 0.2,12.2 0.3,12.4 C0.3,12.6 0.4,12.7 0.5,12.9 C0.5,13 0.6,13.1 0.6,13.1 C0.9,13.9 1.4,14.6 2,15.1 C1.4,16.1 1.1,17.3 1.1,18.5 C1.1,21.6 3.3,24.3 6.3,24.9 C6.9,26.7 8.6,28 10.6,28 C12,28 13.3,27.3 14.1,26.3 C14.9,27.3 16.2,28 17.6,28 C19.6,28 21.3,26.7 21.9,24.9 C24.6,24.4 26.7,22.1 27,19.4 C27,19.3 27,19.1 27,19 C27,18.9 27,18.8 27,18.7 C27,18.6 27,18.5 27,18.5 C27,17.3 26.7,16.1 26,15.1 Z M19.7,13.7 L11.7,21.7 C11.5,21.9 11.3,22 11,22 C10.8,22 10.6,22 10.5,21.9 C10.1,21.7 9.9,21.2 10.1,20.7 L11.7,16 L9,16 C8.6,16 8.2,15.7 8.1,15.4 C7.9,15 8,14.6 8.3,14.3 L16.8,6.3 C17.1,6 17.7,5.9 18.1,6.2 C18.5,6.5 18.6,7 18.5,7.4 L16.5,12 L19,12 C19.4,12 19.8,12.2 19.9,12.6 C20.1,13 20,13.4 19.7,13.7 Z" id="Shape"></path>
        </g>
    </g>
</svg>